<svg xmlns="http://www.w3.org/2000/svg" width="327" height="132" fill="none"><g clip-path="url(#a)"><path fill="url(#b)" fill-rule="evenodd" d="M327-13.14c-46.194 35.434-102.82 56.294-163.999 56.294C101.82 43.154 45.195 22.294-1-13.14v160.192c46.195-35.435 102.82-56.295 164.001-56.295 61.179 0 117.805 20.86 163.999 56.294V-13.14Z" clip-rule="evenodd" opacity=".3"/><circle cx="32.19" cy="90.835" r="5.19" fill="#484858"/><circle cx="45.967" cy="13.58" r="10.58" fill="#484858"/><circle cx="84.689" cy="66.68" r="3.793" fill="#484858"/><circle cx="32.39" cy="44.322" r="5.39" fill="#484858"/><g filter="url(#c)"><circle cx="67.724" cy="92.032" r="7.586" fill="#484858"/></g><circle cx="78.305" cy="119.78" r="3.793" fill="#484858"/><circle cx="47.361" cy="120.379" r="11.578" fill="#484858"/><circle cx="81.896" cy="18.371" r="5.39" fill="#484858"/><g filter="url(#d)"><circle cx="66.526" cy="42.526" r="9.981" fill="#484858"/></g><rect width="90.833" height="90.833" x="118.082" y="21.489" fill="#232336" rx="11.18"/><mask id="e" width="91" height="92" x="118" y="21" maskUnits="userSpaceOnUse" style="mask-type:alpha"><rect width="90.833" height="90.833" x="118.082" y="21.488" fill="#232336" rx="11.18"/></mask><g filter="url(#f)" mask="url(#e)" opacity=".3"><path fill="url(#g)" fill-rule="evenodd" d="M326.998-8.997C280.945 24.623 224.493 44.417 163.5 44.417 102.506 44.417 46.052 24.623-.002-9v152C46.052 109.377 102.506 89.583 163.5 89.583c60.993 0 117.445 19.793 163.498 53.414V-8.997Z" clip-rule="evenodd"/></g><path fill="#A8A8B7" d="m35.046 69.455-1.71-2.33h-.99v2.33h-1.35v-6.6h2.48c.46 0 .87.09 1.23.27.36.173.64.423.84.75a2 2 0 0 1 .31 1.11c0 .42-.103.793-.31 1.12-.206.326-.49.58-.85.76l1.87 2.59h-1.52Zm-2.7-3.52h1.13c.314 0 .557-.087.73-.26.18-.174.27-.404.27-.69 0-.28-.09-.507-.27-.68-.18-.174-.423-.26-.73-.26h-1.13v1.89Zm6.99-1.54c.646 0 1.16.183 1.54.55.386.36.58.883.58 1.57v2.94h-1.24v-.48c-.18.186-.4.333-.66.44a2.17 2.17 0 0 1-.85.16c-.528 0-.944-.137-1.25-.41a1.385 1.385 0 0 1-.46-1.07c0-.447.166-.797.5-1.05.34-.26.796-.39 1.37-.39h1.24v-.22c0-.274-.08-.487-.24-.64-.154-.154-.38-.23-.68-.23-.254 0-.48.056-.68.17-.2.106-.41.276-.63.51l-.7-.83c.572-.68 1.292-1.02 2.16-1.02Zm-.27 4.19c.292 0 .54-.09.74-.27a.93.93 0 0 0 .3-.71v-.06h-1.06c-.22 0-.39.043-.51.13-.12.08-.18.203-.18.37 0 .166.063.3.19.4.133.093.306.14.52.14Zm11.373-4.08-2.3 5.07h-.44l-1.42-2.88-1.43 2.88h-.44l-2.3-5.07h1.42l1.17 2.82 1.35-2.93h.45l1.37 2.87 1.15-2.76h1.42Zm3.887-1.65h2.16c.7 0 1.323.136 1.87.41.547.273.97.656 1.27 1.15.307.493.46 1.066.46 1.72 0 .64-.153 1.213-.46 1.72-.3.5-.723.893-1.27 1.18-.547.28-1.17.42-1.87.42h-2.16v-6.6Zm2.15 5.38c.44 0 .827-.087 1.16-.26.34-.174.6-.417.78-.73.187-.32.28-.69.28-1.11 0-.64-.203-1.144-.61-1.51-.4-.367-.937-.55-1.61-.55h-.8v4.16h.8Zm6.794-3.84c.647 0 1.16.183 1.54.55.387.36.58.883.58 1.57v2.94h-1.24v-.48c-.18.186-.4.333-.66.44a2.17 2.17 0 0 1-.85.16c-.526 0-.943-.137-1.25-.41a1.385 1.385 0 0 1-.46-1.07c0-.447.167-.797.5-1.05.34-.26.797-.39 1.37-.39h1.24v-.22c0-.274-.08-.487-.24-.64-.153-.154-.38-.23-.68-.23-.253 0-.48.056-.68.17-.2.106-.41.276-.63.51l-.7-.83c.574-.68 1.294-1.02 2.16-1.02Zm-.27 4.19c.294 0 .54-.09.74-.27a.93.93 0 0 0 .3-.71v-.06h-1.06c-.22 0-.39.043-.51.13-.12.08-.18.203-.18.37 0 .166.064.3.19.4.134.093.307.14.52.14Zm6.97-.26v1.13c-.32.08-.63.12-.93.12-.627 0-1.114-.154-1.46-.46-.347-.314-.52-.78-.52-1.4v-2.07h-.78v-1.14h.78v-1.25h1.35v1.25h1.4v1.14h-1.4v1.95c0 .28.073.48.22.6.146.113.38.17.7.17.08 0 .293-.014.64-.04Zm3.11-3.93c.646 0 1.16.183 1.54.55.386.36.58.883.58 1.57v2.94h-1.24v-.48c-.18.186-.4.333-.66.44a2.17 2.17 0 0 1-.85.16c-.527 0-.944-.137-1.25-.41a1.385 1.385 0 0 1-.46-1.07c0-.447.166-.797.5-1.05.34-.26.796-.39 1.37-.39h1.24v-.22c0-.274-.08-.487-.24-.64-.154-.154-.38-.23-.68-.23-.254 0-.48.056-.68.17-.2.106-.41.276-.63.51l-.7-.83c.573-.68 1.293-1.02 2.16-1.02Zm-.27 4.19c.293 0 .54-.09.74-.27a.93.93 0 0 0 .3-.71v-.06h-1.06c-.22 0-.39.043-.51.13-.12.08-.18.203-.18.37 0 .166.063.3.19.4.133.093.306.14.52.14Z"/><path fill="#FFAA2B" fill-rule="evenodd" d="M163.5 52.281a7.686 7.686 0 1 0 0-15.372 7.686 7.686 0 0 0 0 15.372Zm-2.761-7.469 2.519-4.42c.284-.498.963-.205.885.381l-.362 2.757h2.074c.384 0 .615.484.406.851l-2.519 4.421c-.284.497-.963.205-.886-.382l.363-2.756h-2.074c-.384 0-.615-.485-.406-.852ZM163.5 74.64a7.686 7.686 0 1 0 0-15.372 7.686 7.686 0 0 0 0 15.372Zm-2.761-7.469 2.519-4.42c.284-.498.963-.205.885.381l-.362 2.756h2.074c.384 0 .615.485.406.852l-2.519 4.42c-.284.498-.963.205-.886-.381l.363-2.756h-2.074c-.384 0-.615-.485-.406-.852ZM185.86 52.281a7.686 7.686 0 1 0 0-15.372 7.686 7.686 0 0 0 0 15.372Zm-2.758-7.468 2.52-4.421c.283-.498.962-.205.885.381l-.363 2.757h2.074c.384 0 .616.484.406.851l-2.519 4.421c-.283.498-.962.205-.885-.382l.362-2.756h-2.073c-.385 0-.616-.485-.407-.852ZM185.86 74.64a7.686 7.686 0 1 0 0-15.372 7.686 7.686 0 0 0 0 15.372Zm-2.758-7.469 2.52-4.42c.283-.498.962-.205.885.381l-.363 2.756h2.074c.384 0 .616.485.406.852l-2.519 4.421c-.283.497-.962.204-.885-.382l.362-2.756h-2.073c-.385 0-.616-.485-.407-.852ZM141.141 52.281a7.686 7.686 0 1 0 0-15.372 7.686 7.686 0 0 0 0 15.372Zm-2.762-7.469 2.52-4.42c.283-.498.962-.205.885.381l-.362 2.757h2.073c.385 0 .616.484.407.851l-2.52 4.421c-.283.497-.962.205-.885-.382l.362-2.756h-2.073c-.384 0-.616-.485-.407-.852ZM141.141 74.64a7.686 7.686 0 1 0 0-15.372 7.686 7.686 0 0 0 0 15.372Zm-2.762-7.469 2.52-4.42c.283-.498.962-.205.885.381l-.362 2.756h2.073c.385 0 .616.485.407.852l-2.52 4.42c-.283.498-.962.205-.885-.381l.362-2.756h-2.073c-.384 0-.616-.485-.407-.852ZM163.5 97a7.686 7.686 0 1 0 0-15.373 7.686 7.686 0 0 0 0 15.372Zm-2.761-7.47 2.519-4.42c.284-.498.963-.205.885.381l-.362 2.757h2.074c.384 0 .615.484.406.851l-2.519 4.421c-.284.497-.963.205-.886-.382l.363-2.756h-2.074c-.384 0-.615-.485-.406-.852ZM185.86 97a7.686 7.686 0 1 0 0-15.373 7.686 7.686 0 0 0 0 15.372Zm-2.758-7.47 2.52-4.42c.283-.498.962-.205.885.381l-.363 2.756h2.074c.384 0 .616.485.406.852l-2.519 4.42c-.283.498-.962.205-.885-.381l.362-2.756h-2.073c-.385 0-.616-.485-.407-.852ZM141.141 97a7.686 7.686 0 1 0 0-15.373 7.686 7.686 0 0 0 0 15.372Zm-2.762-7.47 2.52-4.42c.283-.498.962-.205.885.381l-.362 2.757h2.073c.385 0 .616.484.407.851l-2.52 4.421c-.283.497-.962.205-.885-.382l.362-2.756h-2.073c-.384 0-.616-.485-.407-.852Z" clip-rule="evenodd"/><path fill="#F6F6F8" d="M143.262 121.797h2.16c.7 0 1.323.137 1.87.41.547.274.97.657 1.27 1.15.307.494.46 1.067.46 1.72 0 .64-.153 1.214-.46 1.72-.3.5-.723.894-1.27 1.18-.547.28-1.17.42-1.87.42h-2.16v-6.6Zm2.15 5.38c.44 0 .827-.086 1.16-.26.34-.173.6-.416.78-.73.187-.32.28-.69.28-1.11 0-.64-.203-1.143-.61-1.51-.4-.366-.937-.55-1.61-.55h-.8v4.16h.8Zm6.794-3.84c.647 0 1.16.184 1.54.55.387.36.58.884.58 1.57v2.94h-1.24v-.48c-.18.187-.4.334-.66.44a2.16 2.16 0 0 1-.85.16c-.526 0-.943-.136-1.25-.41a1.386 1.386 0 0 1-.46-1.07c0-.446.167-.796.5-1.05.34-.26.797-.39 1.37-.39h1.24v-.22c0-.273-.08-.486-.24-.64-.153-.153-.38-.23-.68-.23-.253 0-.48.057-.68.17-.2.107-.41.277-.63.51l-.7-.83c.574-.68 1.294-1.02 2.16-1.02Zm-.27 4.19c.294 0 .54-.09.74-.27.2-.186.3-.423.3-.71v-.06h-1.06c-.22 0-.39.044-.51.13-.12.08-.18.204-.18.37 0 .167.064.3.19.4.134.094.307.14.52.14Zm6.969-.26v1.13c-.32.08-.63.12-.93.12-.626 0-1.113-.153-1.46-.46-.346-.313-.52-.78-.52-1.4v-2.07h-.78v-1.14h.78v-1.25h1.35v1.25h1.4v1.14h-1.4v1.95c0 .28.074.48.22.6.147.114.38.17.7.17.08 0 .294-.013.64-.04Zm3.111-3.93c.646 0 1.16.184 1.54.55.386.36.58.884.58 1.57v2.94h-1.24v-.48c-.18.187-.4.334-.66.44-.254.107-.537.16-.85.16-.527 0-.944-.136-1.25-.41a1.383 1.383 0 0 1-.46-1.07c0-.446.166-.796.5-1.05.34-.26.796-.39 1.37-.39h1.24v-.22c0-.273-.08-.486-.24-.64-.154-.153-.38-.23-.68-.23-.254 0-.48.057-.68.17-.2.107-.41.277-.63.51l-.7-.83c.573-.68 1.293-1.02 2.16-1.02Zm-.27 4.19c.293 0 .54-.09.74-.27.2-.186.3-.423.3-.71v-.06h-1.06c-.22 0-.39.044-.51.13-.12.08-.18.204-.18.37 0 .167.063.3.19.4.133.094.306.14.52.14Zm5.389.99c-.433 0-.827-.083-1.18-.25a2.394 2.394 0 0 1-.87-.71l.68-.82c.433.447.897.67 1.39.67.18 0 .33-.033.45-.1a.344.344 0 0 0 .18-.31.27.27 0 0 0-.12-.24 1.74 1.74 0 0 0-.39-.21l-.53-.22c-.453-.186-.793-.393-1.02-.62-.22-.226-.33-.523-.33-.89 0-.466.167-.83.5-1.09.34-.26.78-.39 1.32-.39.74 0 1.333.247 1.78.74l-.68.83c-.333-.313-.703-.47-1.11-.47a.717.717 0 0 0-.39.09.292.292 0 0 0-.14.26c0 .094.037.17.11.23.08.06.217.13.41.21l.48.2c.48.194.83.404 1.05.63.227.22.34.514.34.88 0 .494-.183.88-.55 1.16-.36.28-.82.42-1.38.42Zm7.601-2.14h-3.47c.08.314.24.557.48.73.246.167.55.25.91.25.486 0 .946-.166 1.38-.5l.56.92c-.587.494-1.247.74-1.98.74-.514 0-.977-.113-1.39-.34a2.488 2.488 0 0 1-.97-.93c-.234-.4-.35-.84-.35-1.32 0-.48.113-.916.34-1.31.226-.4.536-.713.93-.94.4-.226.84-.34 1.32-.34.453 0 .856.104 1.21.31.353.2.626.477.82.83.2.347.3.734.3 1.16 0 .24-.03.487-.09.74Zm-2.29-1.95c-.287 0-.537.09-.75.27-.214.18-.357.424-.43.73h2.25c-.007-.306-.114-.55-.32-.73a1.104 1.104 0 0 0-.75-.27Zm6.713 2.84v1.13c-.32.08-.63.12-.93.12-.627 0-1.113-.153-1.46-.46-.347-.313-.52-.78-.52-1.4v-2.07h-.78v-1.14h.78v-1.25h1.35v1.25h1.4v1.14h-1.4v1.95c0 .28.073.48.22.6.147.114.38.17.7.17.08 0 .293-.013.64-.04Zm2.68 1.25c-.433 0-.827-.083-1.18-.25a2.394 2.394 0 0 1-.87-.71l.68-.82c.433.447.897.67 1.39.67.18 0 .33-.033.45-.1a.344.344 0 0 0 .18-.31.27.27 0 0 0-.12-.24 1.74 1.74 0 0 0-.39-.21l-.53-.22c-.453-.186-.793-.393-1.02-.62-.22-.226-.33-.523-.33-.89 0-.466.167-.83.5-1.09.34-.26.78-.39 1.32-.39.74 0 1.333.247 1.78.74l-.68.83c-.333-.313-.703-.47-1.11-.47a.717.717 0 0 0-.39.09.292.292 0 0 0-.14.26c0 .094.037.17.11.23.08.06.217.13.41.21l.48.2c.48.194.83.404 1.05.63.227.22.34.514.34.88 0 .494-.183.88-.55 1.16-.36.28-.82.42-1.38.42Z"/><rect width="57.492" height="57.492" x="248" y="38.134" fill="#fff" fill-opacity=".08" rx="7.668"/><circle cx="255.985" cy="45.72" r="1.198" fill="#FF646D"/><circle cx="259.977" cy="45.72" r="1.198" fill="#FBBC05"/><circle cx="263.571" cy="45.72" r="1.198" fill="#67C082"/><g clip-path="url(#h)"><path fill="#fff" fill-opacity=".08" d="M265.17 70.074h-5.59v11.179h5.59v-11.18Z"/><path fill="#FFAA2A" d="M265.17 79.256h-5.59v4.791h5.59v-4.79Z"/></g><g clip-path="url(#i)"><path fill="#fff" fill-opacity=".08" d="M274.752 55.7h-5.59v23.956h5.59V55.7Z"/><path fill="#FFAA2A" d="M274.752 76.462h-5.59v7.585h5.59v-7.585Z"/></g><g clip-path="url(#j)"><path fill="#fff" fill-opacity=".08" d="M284.734 70.074h-5.589v9.582h5.589v-9.582Z"/><path fill="#FFAA2A" d="M284.734 79.256h-5.589v4.791h5.589v-4.79Z"/></g><g clip-path="url(#k)"><path fill="#fff" fill-opacity=".08" d="M294.316 66.88h-5.589v14.373h5.589V66.88Z"/><path fill="#FFAA2A" d="M294.316 80.055h-5.589v3.993h5.589v-3.993Z"/></g><path fill="#FF6492" d="M153.022 3.306 147.441 0v2.288l5.581 3.291V3.306Z"/><path fill="#141446" d="m153.021 5.58-1.674.997-3.907-2.311-2.232 1.315-1.675-.924 3.908-2.37 5.58 3.293Z"/><path fill="#A14474" d="m145.208 5.581-1.675-.924v1.92l1.675-.996Z"/><path fill="#141446" d="m141.859 9.847 5.582-3.27 5.581 3.27-5.581 3.306-5.582-3.306Z"/><path fill="#FF6492" d="m153.021 7.578-5.582-3.348v2.347l5.582 3.27v-2.27Z"/><path fill="#7A77FF" d="M143.534 6.577v-1.92l3.908-2.37V0l-5.583 3.306v6.541l5.582-3.27V4.23l-3.907 2.347Z"/><path stroke="#fff" stroke-linejoin="round" stroke-opacity=".24" stroke-width=".426" d="m151.765 6.576 1.366-.814a.214.214 0 0 0 .104-.183V3.306a.213.213 0 0 0-.105-.183l-5.58-3.306a.213.213 0 0 0-.217 0l-5.582 3.306a.212.212 0 0 0-.104.183v6.541c0 .075.039.145.104.183l5.581 3.306c.067.04.15.04.217 0l5.581-3.306a.213.213 0 0 0 .105-.183v-2.27a.212.212 0 0 0-.104-.182l-1.366-.82Z"/><path fill="#fff" d="M156.482 6.872c0-1.978 1.536-3.516 3.472-3.516 1.242 0 2.202.618 2.763 1.565l-.987.797c-.428-.619-.975-1.03-1.762-1.03-1.202 0-2.056.96-2.056 2.183 0 1.25.854 2.197 2.056 2.197.774 0 1.321-.398 1.762-1.016l.987.783c-.574.947-1.535 1.565-2.763 1.565-1.936.001-3.472-1.538-3.472-3.528ZM163.934 7.421V3.508h1.388V7.53c0 .947.654 1.538 1.482 1.538.801 0 1.442-.59 1.442-1.538V3.508h1.402V7.42c0 1.827-1.241 2.98-2.843 2.98-1.63 0-2.871-1.153-2.871-2.98ZM178.153 6.885c0 2.005-1.349 3.516-3.204 3.516-.962 0-1.803-.398-2.297-1.084v.934h-1.308V-.05h1.402v4.38c.494-.618 1.282-.974 2.19-.974 1.868-.001 3.217 1.523 3.217 3.528Zm-1.442-.013c0-1.305-.881-2.197-2.004-2.197-.987 0-1.976.687-1.976 2.211 0 1.538 1.002 2.197 1.976 2.197 1.136 0 2.004-.906 2.004-2.211ZM185.402 7.352h-4.887c.187 1.113 1.015 1.772 2.136 1.772.761 0 1.361-.303 1.909-.797l.668.99c-.694.672-1.575 1.084-2.617 1.084-2.029 0-3.525-1.524-3.525-3.516 0-1.977 1.482-3.53 3.392-3.53 1.749 0 3.03 1.319 3.03 3.09 0 .371-.066.73-.106.907Zm-4.86-1.126h3.565c-.027-1.058-.787-1.648-1.682-1.648-.922 0-1.67.645-1.883 1.648Z"/></g><defs><clipPath id="a"><path fill="#fff" d="M0 0h327v132H0z"/></clipPath><clipPath id="h"><rect width="5.589" height="13.974" x="259.58" y="70.074" fill="#fff" rx=".479"/></clipPath><clipPath id="i"><rect width="5.589" height="28.347" x="269.162" y="55.701" fill="#fff" rx=".479"/></clipPath><clipPath id="j"><rect width="5.589" height="13.974" x="279.145" y="70.074" fill="#fff" rx=".479"/></clipPath><clipPath id="k"><rect width="5.589" height="17.168" x="288.727" y="66.88" fill="#fff" rx=".479"/></clipPath><filter id="c" width="24.754" height="24.753" x="55.348" y="79.656" color-interpolation-filters="sRGB" filterUnits="userSpaceOnUse"><feFlood flood-opacity="0" result="BackgroundImageFix"/><feGaussianBlur in="BackgroundImageFix" stdDeviation="2.395"/><feComposite in2="SourceAlpha" operator="in" result="effect1_backgroundBlur_887_47598"/><feBlend in="SourceGraphic" in2="effect1_backgroundBlur_887_47598" result="shape"/></filter><filter id="d" width="29.545" height="29.544" x="51.754" y="27.753" color-interpolation-filters="sRGB" filterUnits="userSpaceOnUse"><feFlood flood-opacity="0" result="BackgroundImageFix"/><feGaussianBlur in="BackgroundImageFix" stdDeviation="2.395"/><feComposite in2="SourceAlpha" operator="in" result="effect1_backgroundBlur_887_47598"/><feBlend in="SourceGraphic" in2="effect1_backgroundBlur_887_47598" result="shape"/></filter><filter id="f" width="346.564" height="171.564" x="-9.784" y="-18.782" color-interpolation-filters="sRGB" filterUnits="userSpaceOnUse"><feFlood flood-opacity="0" result="BackgroundImageFix"/><feBlend in="SourceGraphic" in2="BackgroundImageFix" result="shape"/><feGaussianBlur result="effect1_foregroundBlur_887_47598" stdDeviation="4.891"/></filter><linearGradient id="b" x1="3.161" x2="308.778" y1="72.226" y2="72.226" gradientUnits="userSpaceOnUse"><stop offset=".057" stop-color="#fff" stop-opacity="0"/><stop offset=".51" stop-color="#FDA21A" stop-opacity=".83"/><stop offset="1" stop-color="#fff" stop-opacity="0"/></linearGradient><linearGradient id="g" x1="4.147" x2="308.831" y1="72.002" y2="72.002" gradientUnits="userSpaceOnUse"><stop stop-color="#fff" stop-opacity="0"/><stop offset=".51" stop-color="#FDA21A" stop-opacity=".83"/><stop offset="1" stop-color="#fff" stop-opacity="0"/></linearGradient></defs></svg>