<svg width="377" height="121" viewBox="0 0 377 121" fill="none" xmlns="http://www.w3.org/2000/svg">
<path fill-rule="evenodd" clip-rule="evenodd" d="M210.937 58.9509C210.972 46.9073 194.015 37.0966 173.063 37.038C152.111 36.9794 135.097 46.6952 135.063 58.7387C135.029 70.4088 150.95 79.9824 171 80.6183V88.9236C165.325 89.8758 161 94.8117 161 100.758C161 107.385 166.373 112.758 173 112.758C179.628 112.758 185 107.385 185 100.758C185 94.8117 180.676 89.8758 175 88.9236V80.6257C194.995 80.0659 210.904 70.5967 210.937 58.9509Z" fill="white" fill-opacity="0.1"/>
<path d="M113 8.75757L113 112.758" stroke="white" stroke-opacity="0.2" stroke-linecap="round"/>
<path d="M233 8.75757L233 112.758" stroke="white" stroke-opacity="0.2" stroke-linecap="round"/>
<path d="M41 27.7577H84.9353C87.1445 27.7577 88.9353 29.5486 88.9353 31.7577V39.7577H41V27.7577Z" fill="white"/>
<path d="M21.1287 31.7577C21.1287 29.5486 22.9195 27.7577 25.1287 27.7577H39V39.7577H21.1287V31.7577Z" fill="white"/>
<rect x="41" y="55.7577" width="47.9353" height="12" fill="white"/>
<rect x="21.1287" y="55.7577" width="17.8713" height="12" fill="white"/>
<rect opacity="0.2" x="41" y="41.7577" width="47.9353" height="12" fill="white"/>
<rect opacity="0.2" x="21.1287" y="41.7577" width="17.8713" height="12" fill="white"/>
<rect x="41" y="69.7577" width="47.9353" height="12" fill="url(#paint0_linear_1332_33575)"/>
<rect x="21.1287" y="69.7577" width="17.8713" height="12" fill="url(#paint1_linear_1332_33575)"/>
<rect x="41" y="83.7577" width="47.9353" height="12" fill="url(#paint2_linear_1332_33575)"/>
<rect x="21.1287" y="83.7577" width="17.8713" height="12" fill="url(#paint3_linear_1332_33575)"/>
<g clip-path="url(#clip0_1332_33575)">
<path fill-rule="evenodd" clip-rule="evenodd" d="M6.99546 42.3577H6.35776C5.95374 42.3577 5.62331 42.3577 5.35477 42.3796C5.07681 42.4023 4.82577 42.4507 4.59133 42.5702C4.22441 42.7572 3.9261 43.0555 3.73915 43.4224C3.61969 43.6568 3.57125 43.9079 3.54854 44.1858C3.5266 44.4544 3.52661 44.7848 3.52661 45.1888L3.52661 46.2637C3.18006 46.2752 2.95277 46.3084 2.76372 46.4048C2.50971 46.5342 2.30318 46.7407 2.17375 46.9947C2.02661 47.2835 2.02661 47.6616 2.02661 48.4176V50.8476C2.02661 51.6037 2.02661 51.9817 2.17375 52.2705C2.30318 52.5245 2.50971 52.7311 2.76372 52.8605C3.0525 53.0076 3.43054 53.0076 4.18661 53.0076H9.16661C9.92268 53.0076 10.3007 53.0076 10.5895 52.8605C10.8435 52.7311 11.05 52.5245 11.1795 52.2705C11.3266 51.9817 11.3266 51.6037 11.3266 50.8476V48.4176C11.3266 47.6616 11.3266 47.2835 11.1795 46.9947C11.05 46.7407 10.8435 46.5342 10.5895 46.4048C10.4005 46.3084 10.1732 46.2752 9.82661 46.2637V45.1888C9.82662 44.7848 9.82662 44.4544 9.80468 44.1858C9.78197 43.9079 9.73353 43.6568 9.61407 43.4224C9.42712 43.0555 9.12881 42.7572 8.76189 42.5702C8.52745 42.4507 8.27641 42.4023 7.99845 42.3796C7.72992 42.3577 7.39948 42.3577 6.99546 42.3577ZM8.92661 46.2576V45.2077C8.92661 44.7802 8.92626 44.4867 8.90767 44.2591C8.88951 44.0368 8.8562 43.9174 8.81217 43.831C8.7115 43.6334 8.55087 43.4728 8.3533 43.3721C8.26688 43.3281 8.14746 43.2948 7.92516 43.2766C7.69761 43.258 7.40408 43.2577 6.97661 43.2577H6.37661C5.94915 43.2577 5.65561 43.258 5.42806 43.2766C5.20576 43.2948 5.08634 43.3281 4.99992 43.3721C4.80235 43.4728 4.64172 43.6334 4.54105 43.831C4.49702 43.9174 4.46372 44.0368 4.44555 44.2591C4.42696 44.4867 4.42661 44.7802 4.42661 45.2077V46.2576H8.92661Z" fill="white"/>
</g>
<path fill-rule="evenodd" clip-rule="evenodd" d="M329.041 61.7577H298.644V59.7577H329.041C329.549 53.5982 334.709 48.7577 341 48.7577C347.627 48.7577 353 54.1303 353 60.7577C353 67.3851 347.627 72.7577 341 72.7577C334.709 72.7577 329.549 67.9172 329.041 61.7577Z" fill="white" fill-opacity="0.1"/>
<g clip-path="url(#clip1_1332_33575)">
<path fill-rule="evenodd" clip-rule="evenodd" d="M341.319 55.3577H340.681C340.277 55.3577 339.947 55.3577 339.678 55.3796C339.4 55.4023 339.149 55.4507 338.915 55.5702C338.548 55.7572 338.25 56.0555 338.063 56.4224C337.943 56.6568 337.895 56.9079 337.872 57.1858C337.85 57.4544 337.85 57.7848 337.85 58.1888L337.85 59.2637C337.504 59.2752 337.276 59.3084 337.087 59.4048C336.833 59.5342 336.627 59.7407 336.497 59.9947C336.35 60.2835 336.35 60.6616 336.35 61.4176V63.8476C336.35 64.6037 336.35 64.9817 336.497 65.2705C336.627 65.5245 336.833 65.7311 337.087 65.8605C337.376 66.0076 337.754 66.0076 338.51 66.0076H343.49C344.246 66.0076 344.624 66.0076 344.913 65.8605C345.167 65.7311 345.374 65.5245 345.503 65.2705C345.65 64.9817 345.65 64.6037 345.65 63.8476V61.4176C345.65 60.6616 345.65 60.2835 345.503 59.9947C345.374 59.7407 345.167 59.5342 344.913 59.4048C344.724 59.3084 344.497 59.2752 344.15 59.2637V58.1888C344.15 57.7848 344.15 57.4544 344.128 57.1858C344.105 56.9079 344.057 56.6568 343.938 56.4224C343.751 56.0555 343.452 55.7572 343.085 55.5702C342.851 55.4507 342.6 55.4023 342.322 55.3796C342.053 55.3577 341.723 55.3577 341.319 55.3577ZM343.25 59.2576V58.2077C343.25 57.7802 343.25 57.4867 343.231 57.2591C343.213 57.0368 343.18 56.9174 343.136 56.831C343.035 56.6334 342.874 56.4728 342.677 56.3721C342.59 56.3281 342.471 56.2948 342.249 56.2766C342.021 56.258 341.728 56.2577 341.3 56.2577H340.7C340.273 56.2577 339.979 56.258 339.752 56.2766C339.529 56.2948 339.41 56.3281 339.323 56.3721C339.126 56.4728 338.965 56.6334 338.865 56.831C338.821 56.9174 338.787 57.0368 338.769 57.2591C338.75 57.4867 338.75 57.7802 338.75 58.2077V59.2576H343.25Z" fill="white"/>
</g>
<path d="M257 60.7577L289 60.7577" stroke="url(#paint4_linear_1332_33575)" stroke-width="2" stroke-linecap="round"/>
<path fill-rule="evenodd" clip-rule="evenodd" d="M294 85.0606C294 88.9266 297.134 92.0606 301 92.0606H313.224C313.586 85.7576 318.811 80.7577 325.205 80.7577C331.832 80.7577 337.205 86.1303 337.205 92.7577C337.205 99.3851 331.832 104.758 325.205 104.758C319.017 104.758 313.924 100.075 313.275 94.0606H301C296.029 94.0606 292 90.0312 292 85.0606V70.5585H294V85.0606Z" fill="white" fill-opacity="0.1"/>
<path fill-rule="evenodd" clip-rule="evenodd" d="M301 29.7269H313.243C313.737 35.9011 318.903 40.7577 325.205 40.7577C331.832 40.7577 337.205 35.3851 337.205 28.7577C337.205 22.1303 331.832 16.7577 325.205 16.7577C318.924 16.7577 313.771 21.5821 313.248 27.7269H301C296.029 27.7269 292 31.7564 292 36.7269V48.7988C285.84 49.3069 281 54.467 281 60.7577C281 67.3851 286.373 72.7577 293 72.7577C299.627 72.7577 305 67.3851 305 60.7577C305 54.467 300.16 49.3069 294 48.7988V36.7269C294 32.8609 297.134 29.7269 301 29.7269Z" fill="white"/>
<g clip-path="url(#clip2_1332_33575)">
<path fill-rule="evenodd" clip-rule="evenodd" d="M325.524 87.3577H324.886C324.482 87.3577 324.151 87.3577 323.883 87.3796C323.605 87.4023 323.354 87.4507 323.119 87.5702C322.752 87.7572 322.454 88.0555 322.267 88.4224C322.148 88.6568 322.099 88.9079 322.077 89.1858C322.055 89.4544 322.055 89.7848 322.055 90.1888L322.055 91.2637C321.708 91.2752 321.481 91.3084 321.292 91.4048C321.038 91.5342 320.831 91.7407 320.702 91.9947C320.555 92.2835 320.555 92.6616 320.555 93.4176V95.8476C320.555 96.6037 320.555 96.9817 320.702 97.2705C320.831 97.5245 321.038 97.7311 321.292 97.8605C321.581 98.0076 321.959 98.0076 322.715 98.0076H327.695C328.451 98.0076 328.829 98.0076 329.118 97.8605C329.372 97.7311 329.578 97.5245 329.708 97.2705C329.855 96.9817 329.855 96.6037 329.855 95.8476V93.4176C329.855 92.6616 329.855 92.2835 329.708 91.9947C329.578 91.7407 329.372 91.5342 329.118 91.4048C328.929 91.3084 328.701 91.2752 328.355 91.2637V90.1888C328.355 89.7848 328.355 89.4544 328.333 89.1858C328.31 88.9079 328.262 88.6568 328.142 88.4224C327.955 88.0555 327.657 87.7572 327.29 87.5702C327.056 87.4507 326.804 87.4023 326.527 87.3796C326.258 87.3577 325.928 87.3577 325.524 87.3577ZM327.455 91.2576V90.2077C327.455 89.7802 327.454 89.4867 327.436 89.2591C327.418 89.0368 327.384 88.9174 327.34 88.831C327.24 88.6334 327.079 88.4728 326.881 88.3721C326.795 88.3281 326.676 88.2948 326.453 88.2766C326.226 88.258 325.932 88.2577 325.505 88.2577H324.905C324.477 88.2577 324.184 88.258 323.956 88.2766C323.734 88.2948 323.614 88.3281 323.528 88.3721C323.33 88.4728 323.17 88.6334 323.069 88.831C323.025 88.9174 322.992 89.0368 322.974 89.2591C322.955 89.4867 322.955 89.7802 322.955 90.2077V91.2576H327.455Z" fill="white"/>
</g>
<path d="M169.55 31.1878C160.976 36.1216 155.694 45.2392 155.694 55.1062V61.8639C155.694 63.8897 156.7 65.9155 158.712 67.0731C162.843 69.4499 167.933 69.4499 172.064 67.0731L187.289 58.312C189.3 57.1544 190.306 55.1286 190.306 53.1028V43.1323C190.306 32.5152 178.775 25.8792 169.55 31.1878Z" fill="url(#paint5_linear_1332_33575)"/>
<path d="M187.403 22.9901C187.403 30.8513 180.956 37.2235 173.004 37.2235C165.051 37.2235 158.604 30.8513 158.604 22.9901C158.604 15.1297 165.051 8.75745 173.004 8.75745C180.956 8.75745 187.403 15.1297 187.403 22.9901Z" fill="url(#paint6_linear_1332_33575)"/>
<g clip-path="url(#clip3_1332_33575)">
<path fill-rule="evenodd" clip-rule="evenodd" d="M173.319 95.6639H172.681C172.277 95.6639 171.947 95.6639 171.678 95.6859C171.4 95.7086 171.149 95.757 170.915 95.8765C170.548 96.0634 170.25 96.3617 170.063 96.7287C169.943 96.9631 169.895 97.2141 169.872 97.4921C169.85 97.7606 169.85 98.0911 169.85 98.4951L169.85 99.57C169.504 99.5815 169.276 99.6147 169.087 99.711C168.833 99.8405 168.627 100.047 168.497 100.301C168.35 100.59 168.35 100.968 168.35 101.724V104.154C168.35 104.91 168.35 105.288 168.497 105.577C168.627 105.831 168.833 106.037 169.087 106.167C169.376 106.314 169.754 106.314 170.51 106.314H175.49C176.246 106.314 176.624 106.314 176.913 106.167C177.167 106.037 177.374 105.831 177.503 105.577C177.65 105.288 177.65 104.91 177.65 104.154V101.724C177.65 100.968 177.65 100.59 177.503 100.301C177.374 100.047 177.167 99.8405 176.913 99.711C176.724 99.6147 176.497 99.5815 176.15 99.57V98.4951C176.15 98.0911 176.15 97.7606 176.128 97.4921C176.105 97.2141 176.057 96.9631 175.938 96.7287C175.751 96.3617 175.452 96.0634 175.085 95.8765C174.851 95.757 174.6 95.7086 174.322 95.6859C174.053 95.6639 173.723 95.6639 173.319 95.6639ZM175.25 99.5639V98.5139C175.25 98.0865 175.25 97.7929 175.231 97.5654C175.213 97.3431 175.18 97.2237 175.136 97.1373C175.035 96.9397 174.874 96.7791 174.677 96.6784C174.59 96.6343 174.471 96.601 174.249 96.5829C174.021 96.5643 173.728 96.5639 173.3 96.5639H172.7C172.273 96.5639 171.979 96.5643 171.752 96.5829C171.529 96.601 171.41 96.6343 171.323 96.6784C171.126 96.7791 170.965 96.9397 170.865 97.1373C170.821 97.2237 170.787 97.3431 170.769 97.5654C170.75 97.7929 170.75 98.0865 170.75 98.5139V99.5639H175.25Z" fill="white"/>
</g>
<defs>
<linearGradient id="paint0_linear_1332_33575" x1="64.9677" y1="69.7577" x2="64.9677" y2="81.7577" gradientUnits="userSpaceOnUse">
<stop stop-color="white"/>
<stop offset="1" stop-color="white" stop-opacity="0.5"/>
</linearGradient>
<linearGradient id="paint1_linear_1332_33575" x1="30.0643" y1="69.7577" x2="30.0643" y2="81.7577" gradientUnits="userSpaceOnUse">
<stop stop-color="white"/>
<stop offset="1" stop-color="white" stop-opacity="0.5"/>
</linearGradient>
<linearGradient id="paint2_linear_1332_33575" x1="64.9677" y1="83.7577" x2="64.9677" y2="95.7577" gradientUnits="userSpaceOnUse">
<stop stop-color="white" stop-opacity="0.48"/>
<stop offset="1" stop-color="white" stop-opacity="0"/>
<stop offset="1" stop-color="white" stop-opacity="0"/>
</linearGradient>
<linearGradient id="paint3_linear_1332_33575" x1="30.0643" y1="83.7577" x2="30.0643" y2="95.7577" gradientUnits="userSpaceOnUse">
<stop stop-color="white" stop-opacity="0.48"/>
<stop offset="1" stop-color="white" stop-opacity="0"/>
<stop offset="1" stop-color="white" stop-opacity="0"/>
</linearGradient>
<linearGradient id="paint4_linear_1332_33575" x1="280.317" y1="60.7577" x2="257.384" y2="60.7577" gradientUnits="userSpaceOnUse">
<stop stop-color="white"/>
<stop offset="1" stop-color="white" stop-opacity="0"/>
</linearGradient>
<linearGradient id="paint5_linear_1332_33575" x1="173" y1="29.3195" x2="173" y2="68.8557" gradientUnits="userSpaceOnUse">
<stop stop-color="#404061"/>
<stop offset="1" stop-color="#8888A3"/>
</linearGradient>
<linearGradient id="paint6_linear_1332_33575" x1="173.004" y1="8.75745" x2="173.004" y2="37.2235" gradientUnits="userSpaceOnUse">
<stop stop-color="#404061"/>
<stop offset="1" stop-color="#8888A3"/>
</linearGradient>
<clipPath id="clip0_1332_33575">
<rect width="12" height="12" fill="white" transform="translate(0.676514 41.7577)"/>
</clipPath>
<clipPath id="clip1_1332_33575">
<rect width="12" height="12" fill="white" transform="translate(335 54.7577)"/>
</clipPath>
<clipPath id="clip2_1332_33575">
<rect width="12" height="12" fill="white" transform="translate(319.205 86.7577)"/>
</clipPath>
<clipPath id="clip3_1332_33575">
<rect width="12" height="12" fill="white" transform="translate(167 95.064)"/>
</clipPath>
</defs>
</svg>
