<svg width="376" height="121" viewBox="0 0 376 121" fill="none" xmlns="http://www.w3.org/2000/svg">
<path d="M296 60.7578C296 40.8756 312.118 24.7578 332 24.7578H376V96.7578H332C312.118 96.7578 296 80.6401 296 60.7578V60.7578Z" fill="url(#paint0_linear_1332_33527)" fill-opacity="0.12"/>
<path d="M0 24.7578H84C103.882 24.7578 120 40.8756 120 60.7578V60.7578C120 80.6401 103.882 96.7578 84 96.7578H0V24.7578Z" fill="url(#paint1_linear_1332_33527)" fill-opacity="0.12"/>
<path d="M22.955 44.7578H13.3214L16.3163 54.1518H25.95L18.1632 59.7578L21.1581 69.2023C26.1496 65.5154 27.7968 59.9093 25.95 54.1518L22.955 44.7578ZM0.74276 54.1518H10.3764L13.3713 44.7578H3.68776L0.74276 54.1518C-1.1041 59.9093 0.493184 65.5154 5.53462 69.2023L8.52954 59.7578L0.74276 54.1518ZM5.53462 69.2023L13.3214 74.7578L21.1082 69.2023L13.3214 63.4952L5.53462 69.2023ZM78.2611 53.9497C75.965 53.9497 74.5175 55.0103 73.8186 56.677H73.6689V48.9497H70.2747V69.1518H73.7687V60.3639C73.7687 58.1922 75.1164 56.9295 76.9633 56.9295C78.8102 56.9295 79.8584 58.1417 79.8584 60.1619V69.1518H83.3525V59.5558C83.3525 55.9699 81.3559 53.9497 78.2611 53.9497ZM92.8364 48.8992C88.0944 48.8992 85.2492 52.6366 85.2492 59.1518C85.2492 65.6669 88.0445 69.5053 92.8364 69.5053C97.5783 69.5053 100.423 65.7174 100.423 59.1518C100.423 52.5861 97.5783 48.8992 92.8364 48.8992ZM88.8431 59.1518C88.8431 54.4043 90.3905 51.9295 92.8364 51.9295C94.5335 51.9295 95.7314 53.0911 96.3803 55.3134L88.943 60.7679C88.8431 60.3134 88.8431 59.7578 88.8431 59.1518ZM92.8364 66.4245C91.1392 66.4245 89.8414 65.2124 89.2425 62.7881L96.7298 57.2831C96.7797 57.8891 96.8296 58.5457 96.8296 59.1518C96.8296 63.9497 95.2822 66.4245 92.8364 66.4245ZM54.5015 62.8386C54.5015 65.1113 52.9042 66.2225 51.3568 66.2225C49.8094 66.2225 48.5616 65.0103 48.5616 63.1417V54.1012H45.0675V63.6467C45.0675 67.2831 47.114 69.3033 50.0091 69.3033C52.2054 69.3033 53.8027 68.0911 54.4515 66.4245H54.6013V69.1012H57.9955V54.1012H54.5015V62.8386ZM37.131 53.8992C33.9863 53.8992 31.6403 55.3134 30.8416 58.0406L34.0861 58.4952C34.4355 57.4346 35.4338 56.576 37.131 56.576C38.8281 56.576 39.6267 57.3841 39.6267 58.8992V58.9497C39.6267 59.9598 38.5785 60.0103 35.9829 60.3134C33.3873 60.6164 30.3425 61.5255 30.3425 64.9093C30.3425 67.8386 32.4889 69.4043 35.334 69.4043C37.6301 69.4043 39.0277 68.2932 39.6766 67.0305H39.7765V69.1012H43.1208V59.0507C43.1707 55.1113 39.9761 53.8992 37.131 53.8992ZM39.6766 63.7477C39.6766 65.4144 38.3289 66.8285 36.2325 66.8285C34.7849 66.8285 33.7367 66.172 33.7367 64.8588C33.7367 63.5457 34.9347 62.9396 36.4821 62.6871C37.3805 62.5356 39.2274 62.3336 39.6766 61.9295V63.7477ZM65.4828 50.3639H61.9887V54.1518H59.8424V56.9295H61.9887V65.2629C61.9887 68.0911 63.9854 69.4548 66.6309 69.4043C67.2298 69.4043 67.8288 69.3033 68.4278 69.1518V66.374C68.1782 66.4245 67.5293 66.475 67.0801 66.5255C66.1816 66.5255 65.4828 66.2225 65.4828 64.8083V56.9295H68.3779V54.1518H65.4828V50.3639Z" fill="white"/>
<rect x="136" y="24.7578" width="144" height="72" rx="36" fill="white" fill-opacity="0.12"/>
<g clip-path="url(#clip0_1332_33527)">
<path d="M188.889 46.4415L192.598 45.4751L192.626 45.5163L192.72 68.1774L192.598 68.3006L191.834 68.3336L188.933 67.8766L188.889 67.761V46.4415Z" fill="#7A3E65"/>
<path d="M167.437 69.8749L167.451 69.8759L177.242 72.7546L177.267 72.7739L177.309 72.8083L177.295 81.4343L177.267 81.471L167.437 76.6392V69.8749Z" fill="#7A3E65"/>
<path d="M188.889 67.7611L177.283 70.5735L171.455 69.1503L167.437 69.8749L177.267 72.774L192.438 68.6181L192.598 68.3007L188.889 67.7611Z" fill="#CFB2C1"/>
<path d="M187.096 49.582L187.002 49.473L177.372 46.6419L177.267 46.6831L177.17 46.6332L162.018 51.0541L161.935 51.1564L162.056 51.2239L165.522 51.7379L165.644 51.6959L177.25 48.8836L183.078 50.3068L187.096 49.582Z" fill="#512843"/>
<path d="M165.644 73.0154L161.935 73.9214L161.928 73.8997L161.782 51.3233L161.935 51.1564L165.644 51.6958V73.0154Z" fill="#C17B9E"/>
<path d="M170.652 64.2582L177.267 65.0433L177.316 64.9683L177.343 54.4993L177.267 54.4136L170.652 55.1988V64.2582Z" fill="#7A3E65"/>
<path d="M183.882 64.2582L177.267 65.0433V54.4136L183.882 55.1988V64.2582Z" fill="#C17B9E"/>
<path d="M187.096 49.582L177.267 46.6831V37.9861L187.096 42.8176V49.582Z" fill="#C17B9E"/>
<path d="M177.267 37.9861L158.844 46.985V72.4718L161.935 73.9214V51.1564L177.267 46.6831V37.9861Z" fill="#7A3E65"/>
<path d="M192.598 45.4751V68.3006L177.267 72.7739V81.4709L195.69 72.4718V46.985L192.598 45.4751Z" fill="#C17B9E"/>
</g>
<path d="M207.442 57.1681H205.129L208.652 46.9624H211.433L214.951 57.1681H212.639L210.083 49.2945H210.003L207.442 57.1681ZM207.297 53.1566H212.759V54.8409H207.297V53.1566ZM217.519 57.1681L214.599 46.9624H216.956L218.646 54.0536H218.73L220.594 46.9624H222.612L224.471 54.0685H224.561L226.25 46.9624H228.607L225.687 57.1681H223.584L221.64 50.4955H221.561L219.622 57.1681H217.519ZM235.273 49.8975C235.233 49.4955 235.062 49.1833 234.759 48.9607C234.457 48.7381 234.047 48.6268 233.528 48.6268C233.176 48.6268 232.879 48.6766 232.636 48.7763C232.394 48.8726 232.208 49.0072 232.078 49.1799C231.952 49.3527 231.889 49.5487 231.889 49.768C231.882 49.9507 231.92 50.1101 232.004 50.2463C232.09 50.3826 232.208 50.5005 232.357 50.6002C232.507 50.6965 232.68 50.7812 232.876 50.8543C233.072 50.9241 233.281 50.9839 233.503 51.0337L234.42 51.253C234.866 51.3526 235.274 51.4855 235.646 51.6516C236.018 51.8177 236.341 52.022 236.613 52.2646C236.885 52.5071 237.096 52.7928 237.246 53.1217C237.399 53.4506 237.477 53.8276 237.48 54.2529C237.477 54.8775 237.317 55.419 237.002 55.8774C236.689 56.3326 236.238 56.6864 235.646 56.9389C235.058 57.188 234.349 57.3126 233.518 57.3126C232.695 57.3126 231.977 57.1864 231.366 56.9339C230.758 56.6814 230.283 56.3076 229.94 55.8126C229.602 55.3143 229.424 54.6981 229.407 53.9639H231.495C231.518 54.306 231.617 54.5917 231.789 54.821C231.965 55.0469 232.2 55.218 232.492 55.3343C232.788 55.4472 233.121 55.5037 233.494 55.5037C233.859 55.5037 234.176 55.4505 234.445 55.3442C234.718 55.2379 234.929 55.0901 235.078 54.9007C235.228 54.7113 235.302 54.4937 235.302 54.2479C235.302 54.0187 235.234 53.826 235.098 53.6698C234.965 53.5137 234.769 53.3808 234.51 53.2712C234.254 53.1616 233.94 53.0619 233.568 52.9722L232.457 52.6931C231.597 52.4838 230.917 52.1566 230.419 51.7114C229.921 51.2663 229.673 50.6666 229.676 49.9125C229.673 49.2945 229.837 48.7547 230.17 48.2929C230.505 47.8311 230.965 47.4707 231.55 47.2115C232.135 46.9524 232.799 46.8229 233.543 46.8229C234.301 46.8229 234.962 46.9524 235.527 47.2115C236.095 47.4707 236.537 47.8311 236.852 48.2929C237.168 48.7547 237.331 49.2896 237.341 49.8975H235.273ZM214.687 66.5354H212.505C212.465 66.253 212.383 66.0022 212.26 65.7829C212.137 65.5603 211.98 65.371 211.787 65.2148C211.594 65.0587 211.372 64.9391 211.119 64.856C210.87 64.773 210.599 64.7314 210.307 64.7314C209.779 64.7314 209.319 64.8627 208.927 65.1251C208.535 65.3842 208.231 65.763 208.015 66.2613C207.799 66.7563 207.691 67.3576 207.691 68.0652C207.691 68.7928 207.799 69.4041 208.015 69.8991C208.234 70.3941 208.539 70.7678 208.932 71.0203C209.324 71.2728 209.777 71.399 210.292 71.399C210.581 71.399 210.848 71.3608 211.094 71.2844C211.343 71.208 211.564 71.0967 211.757 70.9505C211.95 70.801 212.109 70.62 212.235 70.4074C212.365 70.1947 212.455 69.9522 212.505 69.6798L214.687 69.6898C214.631 70.1582 214.49 70.61 214.264 71.0452C214.041 71.4771 213.74 71.8641 213.362 72.2063C212.986 72.5452 212.538 72.8143 212.016 73.0136C211.498 73.2096 210.912 73.3076 210.257 73.3076C209.347 73.3076 208.533 73.1016 207.815 72.6897C207.101 72.2777 206.536 71.6814 206.121 70.9007C205.709 70.12 205.503 69.1748 205.503 68.0652C205.503 66.9523 205.712 66.0055 206.131 65.2248C206.55 64.4441 207.118 63.8494 207.835 63.4408C208.553 63.0288 209.36 62.8229 210.257 62.8229C210.848 62.8229 211.397 62.9059 211.902 63.072C212.41 63.2381 212.86 63.4806 213.252 63.7996C213.644 64.1152 213.963 64.5022 214.209 64.9607C214.458 65.4191 214.617 65.944 214.687 66.5354ZM219.723 73.3176C218.949 73.3176 218.28 73.1531 217.715 72.8242C217.153 72.492 216.72 72.0302 216.414 71.4389C216.109 70.8442 215.956 70.1549 215.956 69.3709C215.956 68.5802 216.109 67.8892 216.414 67.2978C216.72 66.7031 217.153 66.2414 217.715 65.9125C218.28 65.5803 218.949 65.4141 219.723 65.4141C220.497 65.4141 221.165 65.5803 221.726 65.9125C222.291 66.2414 222.726 66.7031 223.032 67.2978C223.338 67.8892 223.49 68.5802 223.49 69.3709C223.49 70.1549 223.338 70.8442 223.032 71.4389C222.726 72.0302 222.291 72.492 221.726 72.8242C221.165 73.1531 220.497 73.3176 219.723 73.3176ZM219.733 71.6731C220.085 71.6731 220.379 71.5734 220.615 71.3741C220.851 71.1715 221.029 70.8957 221.148 70.5469C221.271 70.1981 221.333 69.8011 221.333 69.3559C221.333 68.9107 221.271 68.5137 221.148 68.1649C221.029 67.8161 220.851 67.5403 220.615 67.3377C220.379 67.135 220.085 67.0337 219.733 67.0337C219.378 67.0337 219.079 67.135 218.836 67.3377C218.597 67.5403 218.416 67.8161 218.293 68.1649C218.173 68.5137 218.114 68.9107 218.114 69.3559C218.114 69.8011 218.173 70.1981 218.293 70.5469C218.416 70.8957 218.597 71.1715 218.836 71.3741C219.079 71.5734 219.378 71.6731 219.733 71.6731ZM228.389 76.1979C227.702 76.1979 227.112 76.1032 226.62 75.9139C226.132 75.7278 225.743 75.4737 225.454 75.1514C225.165 74.8292 224.978 74.4671 224.891 74.0651L226.855 73.801C226.914 73.9538 227.009 74.0966 227.139 74.2295C227.268 74.3624 227.439 74.4687 227.652 74.5485C227.868 74.6315 228.13 74.673 228.439 74.673C228.901 74.673 229.281 74.5601 229.58 74.3342C229.883 74.1116 230.034 73.7378 230.034 73.2129V71.8126H229.944C229.851 72.0253 229.712 72.2263 229.526 72.4156C229.34 72.605 229.1 72.7595 228.808 72.8791C228.516 72.9987 228.167 73.0585 227.762 73.0585C227.187 73.0585 226.664 72.9256 226.192 72.6598C225.723 72.3907 225.35 71.9804 225.071 71.4289C224.795 70.8741 224.657 70.1732 224.657 69.326C224.657 68.4589 224.798 67.7347 225.081 67.1533C225.363 66.5719 225.738 66.1367 226.207 65.8477C226.679 65.5587 227.195 65.4141 227.757 65.4141C228.185 65.4141 228.544 65.4872 228.833 65.6334C229.122 65.7763 229.355 65.9557 229.531 66.1716C229.71 66.3842 229.848 66.5935 229.944 66.7995H230.024V65.5138H232.132V73.2428C232.132 73.894 231.972 74.4388 231.653 74.8773C231.335 75.3159 230.893 75.6448 230.328 75.864C229.766 76.0866 229.12 76.1979 228.389 76.1979ZM228.434 71.4638C228.776 71.4638 229.065 71.3791 229.301 71.2097C229.541 71.0369 229.723 70.7911 229.85 70.4721C229.979 70.1499 230.044 69.7645 230.044 69.316C230.044 68.8675 229.981 68.4788 229.855 68.15C229.728 67.8177 229.546 67.5603 229.306 67.3775C229.067 67.1948 228.776 67.1035 228.434 67.1035C228.085 67.1035 227.791 67.1982 227.552 67.3875C227.313 67.5736 227.132 67.8327 227.009 68.1649C226.886 68.4971 226.825 68.8808 226.825 69.316C226.825 69.7579 226.886 70.1399 227.009 70.4622C227.135 70.7811 227.316 71.0286 227.552 71.2047C227.791 71.3774 228.085 71.4638 228.434 71.4638ZM236.014 68.743V73.1681H233.891V65.5138H235.915V66.8643H236.004C236.174 66.4191 236.458 66.067 236.856 65.8078C237.255 65.5454 237.738 65.4141 238.307 65.4141C238.838 65.4141 239.301 65.5304 239.697 65.763C240.092 65.9955 240.399 66.3277 240.619 66.7596C240.838 67.1882 240.948 67.6998 240.948 68.2945V73.1681H238.825V68.6732C238.828 68.2048 238.708 67.8393 238.466 67.5769C238.223 67.3111 237.89 67.1782 237.464 67.1782C237.179 67.1782 236.926 67.2397 236.707 67.3626C236.491 67.4855 236.322 67.6649 236.199 67.9008C236.079 68.1333 236.018 68.4141 236.014 68.743ZM242.691 73.1681V65.5138H244.814V73.1681H242.691ZM243.757 64.5271C243.442 64.5271 243.171 64.4225 242.945 64.2132C242.722 64.0006 242.611 63.7464 242.611 63.4507C242.611 63.1584 242.722 62.9076 242.945 62.6983C243.171 62.4857 243.442 62.3793 243.757 62.3793C244.073 62.3793 244.342 62.4857 244.565 62.6983C244.791 62.9076 244.903 63.1584 244.903 63.4507C244.903 63.7464 244.791 64.0006 244.565 64.2132C244.342 64.4225 244.073 64.5271 243.757 64.5271ZM250.656 65.5138V67.1085H246.046V65.5138H250.656ZM247.093 63.68H249.216V70.816C249.216 71.012 249.246 71.1648 249.305 71.2745C249.365 71.3808 249.448 71.4555 249.555 71.4987C249.664 71.5419 249.79 71.5635 249.933 71.5635C250.033 71.5635 250.133 71.5552 250.232 71.5386C250.332 71.5186 250.408 71.5037 250.461 71.4937L250.795 73.0734C250.689 73.1066 250.54 73.1448 250.347 73.188C250.154 73.2345 249.92 73.2628 249.644 73.2727C249.133 73.2927 248.684 73.2246 248.299 73.0684C247.917 72.9123 247.619 72.6698 247.407 72.3409C247.194 72.012 247.089 71.5967 247.093 71.0951V63.68ZM255.485 73.3176C254.711 73.3176 254.042 73.1531 253.477 72.8242C252.915 72.492 252.482 72.0302 252.176 71.4389C251.87 70.8442 251.718 70.1549 251.718 69.3709C251.718 68.5802 251.87 67.8892 252.176 67.2978C252.482 66.7031 252.915 66.2414 253.477 65.9125C254.042 65.5803 254.711 65.4141 255.485 65.4141C256.259 65.4141 256.927 65.5803 257.488 65.9125C258.053 66.2414 258.488 66.7031 258.794 67.2978C259.1 67.8892 259.252 68.5802 259.252 69.3709C259.252 70.1549 259.1 70.8442 258.794 71.4389C258.488 72.0302 258.053 72.492 257.488 72.8242C256.927 73.1531 256.259 73.3176 255.485 73.3176ZM255.495 71.6731C255.847 71.6731 256.141 71.5734 256.377 71.3741C256.613 71.1715 256.791 70.8957 256.91 70.5469C257.033 70.1981 257.095 69.8011 257.095 69.3559C257.095 68.9107 257.033 68.5137 256.91 68.1649C256.791 67.8161 256.613 67.5403 256.377 67.3377C256.141 67.135 255.847 67.0337 255.495 67.0337C255.139 67.0337 254.84 67.135 254.598 67.3377C254.359 67.5403 254.178 67.8161 254.055 68.1649C253.935 68.5137 253.875 68.9107 253.875 69.3559C253.875 69.8011 253.935 70.1981 254.055 70.5469C254.178 70.8957 254.359 71.1715 254.598 71.3741C254.84 71.5734 255.139 71.6731 255.495 71.6731Z" fill="white"/>
<defs>
<linearGradient id="paint0_linear_1332_33527" x1="296" y1="63.6558" x2="350.71" y2="63.6558" gradientUnits="userSpaceOnUse">
<stop stop-color="white"/>
<stop offset="1" stop-color="white" stop-opacity="0"/>
</linearGradient>
<linearGradient id="paint1_linear_1332_33527" x1="68.015" y1="88.6419" x2="-1.62685e-07" y2="88.6419" gradientUnits="userSpaceOnUse">
<stop stop-color="white"/>
<stop offset="1" stop-color="white" stop-opacity="0"/>
</linearGradient>
<clipPath id="clip0_1332_33527">
<rect width="43.0348" height="43.5434" fill="white" transform="translate(155.749 37.9861)"/>
</clipPath>
</defs>
</svg>
