<svg width="376" height="121" viewBox="0 0 376 121" fill="none" xmlns="http://www.w3.org/2000/svg">
<mask id="mask0_1332_9396" style="mask-type:alpha" maskUnits="userSpaceOnUse" x="0" y="0" width="269" height="121">
<rect x="268.846" y="0.75769" width="120" height="268.846" transform="rotate(90 268.846 0.75769)" fill="white"/>
</mask>
<g mask="url(#mask0_1332_9396)">
<path opacity="0.5" d="M-9.88388 258.792C-143.112 258.792 -250.768 169.955 -250.768 60.7577C-250.768 -48.44 -143.112 -137.276 -9.88387 -137.276C123.344 -137.276 231 -48.4399 231 60.7577C231 169.955 123.344 258.792 -9.88388 258.792Z" stroke="url(#paint0_linear_1332_9396)" stroke-width="2"/>
<path d="M-0.887098 189.563C-87.2269 189.563 -156.882 131.725 -156.882 60.7577C-156.882 -10.2097 -87.2269 -68.0471 -0.887085 -68.0471C85.4527 -68.0471 155.107 -10.2097 155.107 60.7577C155.107 131.725 85.4527 189.563 -0.887098 189.563Z" stroke="url(#paint1_linear_1332_9396)" stroke-width="2"/>
<rect x="131.677" y="36.7577" width="48" height="48" rx="24" fill="#2D2C42"/>
<path fill-rule="evenodd" clip-rule="evenodd" d="M155.039 49.9578H156.314C157.122 49.9578 157.783 49.9577 158.32 50.0016C158.876 50.047 159.378 50.1439 159.847 50.3828C160.581 50.7567 161.177 51.3534 161.551 52.0872C161.79 52.5561 161.887 53.0582 161.933 53.6141C161.976 54.1511 161.976 54.812 161.976 55.62V57.7698C162.67 57.7928 163.124 57.8593 163.502 58.052C164.01 58.3108 164.423 58.7239 164.682 59.2319C164.976 59.8095 164.976 60.5655 164.976 62.0777V66.9377C164.976 68.4498 164.976 69.2059 164.682 69.7835C164.423 70.2915 164.01 70.7045 163.502 70.9634C162.925 71.2577 162.169 71.2577 160.656 71.2577H150.696C149.184 71.2577 148.428 71.2577 147.851 70.9634C147.343 70.7045 146.93 70.2915 146.671 69.7835C146.376 69.2059 146.376 68.4498 146.376 66.9377V62.0777C146.376 60.5655 146.376 59.8095 146.671 59.2319C146.93 58.7239 147.343 58.3108 147.851 58.052C148.229 57.8593 148.683 57.7928 149.376 57.7698L149.376 55.6201C149.376 54.812 149.376 54.1512 149.42 53.6141C149.466 53.0582 149.563 52.5561 149.802 52.0872C150.175 51.3534 150.772 50.7567 151.506 50.3828C151.975 50.1439 152.477 50.047 153.033 50.0016C153.57 49.9577 154.231 49.9578 155.039 49.9578ZM160.176 55.6578V57.7577H151.176V55.6578C151.176 54.8028 151.177 54.2158 151.214 53.7607C151.251 53.3161 151.317 53.0772 151.405 52.9044C151.607 52.5092 151.928 52.188 152.323 51.9867C152.496 51.8986 152.735 51.832 153.179 51.7956C153.634 51.7585 154.222 51.7578 155.076 51.7578H156.276C157.131 51.7578 157.718 51.7585 158.174 51.7956C158.618 51.832 158.857 51.8986 159.03 51.9867C159.425 52.188 159.746 52.5092 159.948 52.9044C160.036 53.0772 160.102 53.3161 160.139 53.7607C160.176 54.2158 160.176 54.8028 160.176 55.6578ZM157.326 63.3354C157.326 63.8752 157.067 64.3546 156.666 64.6556V66.9956H154.686V64.6554C154.286 64.3543 154.026 63.8751 154.026 63.3354C154.026 62.4241 154.765 61.6854 155.676 61.6854C156.588 61.6854 157.326 62.4241 157.326 63.3354Z" fill="white"/>
<rect x="207.677" y="36.7577" width="48" height="48" rx="24" fill="#252439"/>
<g opacity="0.4">
<path fill-rule="evenodd" clip-rule="evenodd" d="M231.039 49.9578H232.314C233.122 49.9578 233.783 49.9577 234.32 50.0016C234.876 50.047 235.378 50.1439 235.847 50.3828C236.581 50.7567 237.177 51.3534 237.551 52.0872C237.79 52.5561 237.887 53.0582 237.933 53.6141C237.976 54.1511 237.976 54.812 237.976 55.62V57.7698C238.67 57.7928 239.124 57.8593 239.502 58.052C240.01 58.3108 240.423 58.7239 240.682 59.2319C240.976 59.8095 240.976 60.5655 240.976 62.0777V66.9377C240.976 68.4498 240.976 69.2059 240.682 69.7835C240.423 70.2915 240.01 70.7045 239.502 70.9634C238.925 71.2577 238.169 71.2577 236.656 71.2577H226.696C225.184 71.2577 224.428 71.2577 223.851 70.9634C223.343 70.7045 222.93 70.2915 222.671 69.7835C222.376 69.2059 222.376 68.4498 222.376 66.9377V62.0777C222.376 60.5655 222.376 59.8095 222.671 59.2319C222.93 58.7239 223.343 58.3108 223.851 58.052C224.229 57.8593 224.683 57.7928 225.376 57.7698L225.376 55.6201C225.376 54.812 225.376 54.1512 225.42 53.6141C225.466 53.0582 225.563 52.5561 225.802 52.0872C226.175 51.3534 226.772 50.7567 227.506 50.3828C227.975 50.1439 228.477 50.047 229.033 50.0016C229.57 49.9577 230.231 49.9578 231.039 49.9578ZM236.176 55.6578V57.7577H227.176V55.6578C227.176 54.8028 227.177 54.2158 227.214 53.7607C227.251 53.3161 227.317 53.0772 227.405 52.9044C227.607 52.5092 227.928 52.188 228.323 51.9867C228.496 51.8986 228.735 51.832 229.179 51.7956C229.634 51.7585 230.222 51.7578 231.076 51.7578H232.276C233.131 51.7578 233.718 51.7585 234.174 51.7956C234.618 51.832 234.857 51.8986 235.03 51.9867C235.425 52.188 235.746 52.5092 235.948 52.9044C236.036 53.0772 236.102 53.3161 236.139 53.7607C236.176 54.2158 236.176 54.8028 236.176 55.6578ZM233.326 63.3354C233.326 63.8752 233.067 64.3546 232.666 64.6556V66.9956H230.686V64.6554C230.286 64.3543 230.026 63.8751 230.026 63.3354C230.026 62.4241 230.765 61.6854 231.676 61.6854C232.588 61.6854 233.326 62.4241 233.326 63.3354Z" fill="white"/>
</g>
</g>
<path fill-rule="evenodd" clip-rule="evenodd" d="M18.3657 53.3654L18.3337 44.7577H13.5339L13.5659 53.3654L15.9658 56.6612L18.3657 53.3654Z" fill="white"/>
<path fill-rule="evenodd" clip-rule="evenodd" d="M13.5728 68.118V76.7577H18.3726V68.118L15.9727 64.8221L13.5728 68.118Z" fill="white"/>
<path fill-rule="evenodd" clip-rule="evenodd" d="M18.3635 68.1118L23.4193 75.0875L27.2912 72.2717L22.2354 65.2959L18.3635 64.048V68.1118Z" fill="#28E9DE"/>
<path fill-rule="evenodd" clip-rule="evenodd" d="M13.5693 53.367L8.48147 46.3912L4.60962 49.2071L9.66542 56.1829L13.5693 57.4308V53.367Z" fill="#28E9DE"/>
<path fill-rule="evenodd" clip-rule="evenodd" d="M9.66363 56.1851L1.47194 53.5292L0 58.073L8.19168 60.7609L12.0635 59.4809L9.66363 56.1851Z" fill="#1EB4E7"/>
<path fill-rule="evenodd" clip-rule="evenodd" d="M19.8372 62.0075L22.2371 65.3033L30.4287 67.9592L31.9007 63.4154L23.709 60.7595L19.8372 62.0075Z" fill="#1EB4E7"/>
<path fill-rule="evenodd" clip-rule="evenodd" d="M23.709 60.7609L31.9007 58.073L30.4287 53.5292L22.2371 56.1851L19.8372 59.4809L23.709 60.7609Z" fill="#CD44F4"/>
<path fill-rule="evenodd" clip-rule="evenodd" d="M8.19168 60.7595L0 63.4154L1.47194 67.9592L9.66363 65.3033L12.0635 62.0075L8.19168 60.7595Z" fill="#CD44F4"/>
<path fill-rule="evenodd" clip-rule="evenodd" d="M9.66542 65.2959L4.60962 72.2717L8.48147 75.0875L13.5693 68.1118V64.048L9.66542 65.2959Z" fill="#F0115B"/>
<path fill-rule="evenodd" clip-rule="evenodd" d="M22.2354 56.1829L27.2912 49.2071L23.4193 46.3912L18.3635 53.367V57.4308L22.2354 56.1829Z" fill="#F0115B"/>
<g clip-path="url(#clip0_1332_9396)">
<path fill-rule="evenodd" clip-rule="evenodd" d="M48.769 51.876V64.6895C48.769 67.5085 46.4625 69.815 43.6436 69.815V67.2523C45.0714 67.2523 46.2063 66.1173 46.2063 64.6895V51.876H48.769ZM95.5568 54.4387H101.341V51.876H87.2463V54.4387H92.9941V69.815H95.5568V54.4387ZM79.5216 51.876V64.6895C79.5216 66.1173 78.3866 67.2523 76.9588 67.2523C75.531 67.2523 74.3961 66.1173 74.3961 64.6895V57.0014C74.3961 54.1824 72.0897 51.876 69.2707 51.876C66.4517 51.876 64.1453 54.1824 64.1453 57.0014V64.6895C64.1453 66.1173 63.0104 67.2523 61.5826 67.2523C60.1548 67.2523 59.0198 66.1173 59.0198 64.6895V51.876H56.4571V64.6895C56.4571 67.5085 58.7636 69.815 61.5826 69.815C64.4015 69.815 66.708 67.5085 66.708 64.6895V57.0014C66.708 55.5736 67.8429 54.4387 69.2707 54.4387C70.6985 54.4387 71.8334 55.5736 71.8334 57.0014V64.6895C71.8334 67.5085 74.1399 69.815 76.9588 69.815C79.7778 69.815 82.0843 67.5085 82.0843 64.6895V51.876H79.5216Z" fill="white"/>
</g>
<defs>
<linearGradient id="paint0_linear_1332_9396" x1="190.257" y1="2.57887" x2="190.257" y2="117.976" gradientUnits="userSpaceOnUse">
<stop offset="0.0208333" stop-color="white" stop-opacity="0"/>
<stop offset="0.509554" stop-color="white"/>
<stop offset="1" stop-color="white" stop-opacity="0"/>
</linearGradient>
<linearGradient id="paint1_linear_1332_9396" x1="129.014" y1="0.981432" x2="129.014" y2="117.941" gradientUnits="userSpaceOnUse">
<stop offset="0.0208333" stop-color="white" stop-opacity="0"/>
<stop offset="0.509554" stop-color="white"/>
<stop offset="1" stop-color="white" stop-opacity="0"/>
</linearGradient>
<clipPath id="clip0_1332_9396">
<rect width="57.8441" height="18.3051" fill="white" transform="translate(43.5928 51.6051)"/>
</clipPath>
</defs>
</svg>
