<svg width="82" height="32" viewBox="0 0 82 32" fill="none" xmlns="http://www.w3.org/2000/svg">
<g clip-path="url(#clip0_981_2848)">
<path d="M9.51145 16.3905C10.218 16.0051 10.8006 15.433 11.1849 14.7242C11.5939 13.9532 11.7923 13.0952 11.7799 12.2247C11.7923 11.3543 11.5939 10.4962 11.1849 9.72525C10.8006 9.01644 10.218 8.44442 9.51145 8.05893C8.73057 7.661 7.87528 7.46204 7.0076 7.47447H0.5V23.9388H2.80555V16.975H6.22421L9.73457 23.9263H12.4616L8.67729 16.7363C8.96361 16.6455 9.24377 16.5298 9.51145 16.3905ZM2.80555 9.67551H7.09437C7.50342 9.66308 7.91246 9.775 8.25954 9.98639C8.60665 10.1978 8.86689 10.5087 9.04041 10.8817C9.22641 11.3045 9.32553 11.7646 9.31313 12.2247C9.32553 12.6848 9.22641 13.1449 9.04041 13.5677C8.87929 13.9284 8.60665 14.2517 8.25954 14.4631C7.91246 14.6869 7.50342 14.7988 7.09437 14.7864H2.80555V9.67551Z" fill="black"/>
<path d="M20.7293 12.5353C20.0351 12.1995 19.2046 12.0254 18.2378 12.0254C17.4073 12.013 16.5892 12.1622 15.8206 12.4731C15.1513 12.7343 14.5439 13.1695 14.0729 13.7166L15.7587 14.8731C16.1181 14.612 16.5272 14.413 16.9486 14.2762C17.3949 14.1394 17.8535 14.0648 18.3246 14.0648C19.0682 14.0648 19.6509 14.2762 20.0599 14.699C20.469 15.1218 20.6797 15.7187 20.6797 16.4897H20.6549V16.9871H17.4445C16.1305 16.9871 15.1389 17.2731 14.482 17.8576C13.825 18.4421 13.5027 19.3125 13.5027 20.4689C13.4903 21.6877 13.8498 22.6078 14.5687 23.2047C15.2877 23.8141 16.3661 24.1125 17.8163 24.1125C18.2502 24.1125 18.6964 24.0628 19.1302 23.9633C19.4897 23.8638 19.8492 23.7145 20.159 23.5032C20.3475 23.3751 20.5098 23.2259 20.6549 23.0617V23.9384H22.8489V16.3902C22.8489 15.47 22.663 14.6742 22.3034 14.0275C21.944 13.3809 21.3986 12.8586 20.7293 12.5353ZM20.0227 21.9363C19.5889 22.1229 18.9319 22.2224 18.0518 22.2224C17.2462 22.2224 16.6512 22.0731 16.2545 21.7871C15.8578 21.5011 15.6595 21.0659 15.6595 20.4689C15.6595 19.9094 15.8083 19.499 16.1057 19.2379C16.4033 18.9768 16.8619 18.84 17.4569 18.84H20.6549V21.2089C20.6053 21.5297 20.3983 21.7747 20.0227 21.9363Z" fill="black"/>
<path d="M41.2563 14.227C40.9835 13.5431 40.5001 12.9711 39.8927 12.5856C39.2978 12.2125 38.5788 12.026 37.7359 12.026C37.0171 12.0136 36.3105 12.2374 35.7279 12.6602C35.1279 13.0967 34.642 13.6799 34.3185 14.3539C34.3012 14.3079 34.2839 14.2594 34.2652 14.2146C34.0049 13.5431 33.5339 12.9711 32.9389 12.5731C32.3687 12.2001 31.6622 12.0136 30.8441 12.0136C30.1623 12.0011 29.4806 12.2001 28.9104 12.5856C28.4357 12.9064 28.0378 13.3267 27.7328 13.8092V12.1876H25.4397V23.9389H27.7328V16.4902C27.7328 15.769 27.9435 15.2094 28.3527 14.8115C28.7617 14.4136 29.3443 14.2146 30.1004 14.2146C30.8565 14.2146 31.4143 14.4509 31.8234 14.8985C32.2324 15.3586 32.4307 15.9929 32.4307 16.826H32.4183V23.9265H34.7239V16.8011C34.7239 16.7725 34.7227 16.7464 34.7227 16.7178V16.7265C34.7239 15.9307 34.9222 15.3089 35.3064 14.8737C35.7031 14.4384 36.2485 14.2146 36.9675 14.2146C37.7483 14.2146 38.3433 14.4509 38.7771 14.8985C39.211 15.3586 39.4217 15.9929 39.4217 16.826H39.4341V23.9389H41.7273V16.8136C41.7273 15.8063 41.5661 14.9483 41.2563 14.227Z" fill="black"/>
<path d="M54.7923 16.7513C54.3709 16.1544 53.7882 15.6819 53.119 15.3959C52.3132 15.0726 51.4827 14.8363 50.6274 14.6747L50.5035 14.6498C50.4539 14.6374 50.4167 14.6249 50.3795 14.6249C50.3423 14.6249 50.3175 14.6125 50.2928 14.6125C50.268 14.6125 50.2308 14.6125 50.206 14.6C49.5242 14.4757 48.8673 14.314 48.2103 14.1151C47.7517 13.9783 47.3426 13.7296 47.008 13.3938C46.6857 13.0705 46.5246 12.6228 46.5246 12.0633V12.0508C46.5246 11.2301 46.8345 10.5959 47.4542 10.1482C48.0864 9.70056 48.9541 9.47672 50.0697 9.47672C50.7142 9.47672 51.3464 9.60107 51.9414 9.82491C52.6107 10.0736 53.2429 10.4218 53.813 10.857L55.127 9.02905C54.6188 8.656 54.0734 8.33268 53.5032 8.07154C52.9702 7.82283 52.4124 7.6363 51.8298 7.49952C51.2596 7.37516 50.677 7.31299 50.0945 7.31299C48.8673 7.31299 47.8137 7.49952 46.946 7.87257C46.1279 8.19589 45.4338 8.76791 44.9503 9.51403C44.4917 10.2353 44.2686 11.1057 44.2686 12.1254V12.1379C44.2686 13.2943 44.5165 14.1897 44.9999 14.8239C45.4462 15.4208 46.0535 15.8684 46.7601 16.1172C47.6278 16.3907 48.5326 16.6145 49.4375 16.7513L49.611 16.7887C49.6358 16.8011 49.6606 16.8011 49.6854 16.8011C49.7102 16.8011 49.735 16.8011 49.7598 16.8135C50.3795 16.913 50.9869 17.0622 51.5819 17.2612C52.0282 17.4104 52.4248 17.6591 52.7346 18.0073C53.0322 18.3431 53.1809 18.8032 53.1809 19.3752V19.3876C53.2057 20.1461 52.8338 20.855 52.2017 21.2653C51.5447 21.7006 50.6274 21.9244 49.4375 21.9244C48.5946 21.9244 47.7641 21.7876 46.9832 21.514C46.227 21.2404 45.533 20.8301 44.9255 20.2954L43.5001 22.0612C44.0331 22.5088 44.6033 22.8944 45.223 23.1928C45.8552 23.5036 46.5246 23.74 47.2063 23.8768C47.9376 24.0384 48.6938 24.113 49.4498 24.0881C50.7142 24.0881 51.805 23.9016 52.6974 23.5285C53.5899 23.1555 54.2841 22.6084 54.7551 21.8996C55.2262 21.1907 55.4617 20.3327 55.4617 19.3254V19.3006C55.4617 18.2187 55.2386 17.3731 54.7923 16.7513Z" fill="black"/>
<path d="M64.2126 12.6107C63.4937 12.2127 62.626 12.0138 61.6095 12.0138C60.5931 12.0138 59.7254 12.2127 59.0065 12.6107C58.2876 12.9962 57.7174 13.6055 57.3579 14.3392C56.9737 15.0977 56.7878 16.0055 56.7878 17.0749V18.99C56.7878 20.0594 56.9737 20.992 57.3579 21.7506C57.7174 22.4967 58.3 23.106 59.0189 23.504C59.7379 23.9143 60.5931 24.1008 61.6095 24.1008C62.626 24.1008 63.4937 23.9019 64.2126 23.504C64.9315 23.106 65.5017 22.4967 65.8612 21.763C66.2455 21.0044 66.4314 20.0843 66.4314 19.0148V17.0749C66.4314 16.0055 66.2455 15.0977 65.8612 14.3392C65.5017 13.6055 64.9315 12.9962 64.2126 12.6107ZM64.1383 19.0272C64.1383 19.935 63.9275 20.6438 63.4813 21.1536C63.0475 21.6636 62.4277 21.9122 61.6095 21.9122C60.7914 21.9122 60.1965 21.6636 59.7503 21.1536C59.3164 20.6438 59.0933 19.935 59.0933 19.0272V17.0873C59.0933 16.1796 59.3164 15.4708 59.7503 14.9734C60.1841 14.476 60.8038 14.2273 61.6095 14.2273C62.4153 14.2273 63.0475 14.476 63.4813 14.9734C63.9151 15.4708 64.1383 16.1796 64.1383 17.0873V19.0272Z" fill="black"/>
<path d="M71.4264 10.5836C71.4264 10.3597 71.4759 10.1359 71.5999 9.93694C71.7114 9.77528 71.8974 9.67579 72.0957 9.68823H73.7443V7.48719H72.0586C71.0669 7.48719 70.3356 7.7359 69.8521 8.25818C69.3687 8.78046 69.1332 9.55144 69.1332 10.596V12.1877H67.8937V14.1525H69.1332V23.9515H71.4264V14.1525H73.7443V12.1877H71.4264V10.5836Z" fill="black"/>
<path d="M79.3967 21.7999C79.1984 21.8123 79.0125 21.7252 78.901 21.5636C78.777 21.3647 78.7151 21.1408 78.7275 20.9045V14.2641H80.4875V12.1874H78.7275V8.78016H76.4219V12.1874H75.2071V14.2641H76.4219V20.8796C76.4219 21.8993 76.6326 22.6828 77.0788 23.2051C77.5127 23.7273 78.2068 23.9884 79.1737 23.9884H80.4999V21.7999H79.3967Z" fill="black"/>
</g>
<defs>
<clipPath id="clip0_981_2848">
<rect width="81" height="32" fill="white" transform="translate(0.5)"/>
</clipPath>
</defs>
</svg>
