<svg xmlns="http://www.w3.org/2000/svg" width="118" height="121" fill="none"><path fill="url(#a)" d="M54.11 115.98 95.92 5.75h17.992L72.101 115.98H54.109Z"/><rect width="106" height="40" y="40.859" fill="#DA3466" rx="20"/><path fill="#fff" d="m41.962 66.86-3.96-5.44c1.58-.6 2.54-1.98 2.54-3.72 0-2.4-1.8-4.04-4.48-4.04h-4.82v13.2h2.12v-5.1h2.42l3.76 5.1h2.42Zm-8.6-11.32h2.66c1.5 0 2.34.9 2.34 2.18 0 1.26-.84 2.16-2.34 2.16h-2.66v-4.34Zm10.497 11.32h8.92v-1.9h-6.8v-4.18h4.94v-1.84h-4.94v-3.38h6.56v-1.9h-8.68v13.2Zm15.427.22c2.52 0 4.42-1.48 4.42-3.82 0-1.82-1.16-2.84-3.16-3.76l-1.48-.68c-1.08-.52-1.84-.88-1.84-1.88 0-1.08.94-1.6 2-1.6 1.14 0 2.1.58 2.78 1.6l1.48-1.14c-.8-1.36-2.32-2.36-4.26-2.36-2.28 0-4.16 1.4-4.16 3.58 0 1.94 1.48 2.92 3.08 3.66l1.46.68c1.16.54 1.94.94 1.94 1.98 0 1.14-.92 1.84-2.28 1.84-1.64 0-2.7-1-3.46-2.1l-1.5 1.14c1 1.74 2.78 2.86 4.98 2.86Zm10.232-.22h2.12v-11.3h4.46v-1.9h-11.02v1.9h4.44v11.3Z"/><defs><linearGradient id="a" x1="84.001" x2="84.001" y1="-38.289" y2="152.326" gradientUnits="userSpaceOnUse"><stop offset=".544" stop-color="#453659"/><stop offset="1" stop-color="#453659" stop-opacity="0"/></linearGradient></defs></svg>