<svg xmlns="http://www.w3.org/2000/svg" width="1248" height="400" fill="none"><path fill="url(#a)" fill-rule="evenodd" d="M423 162.86c182.03-14.185 347.63-56.814 481.758-119.535V356.68C770.63 293.96 605.03 251.331 423 237.146V162.86Z" clip-rule="evenodd" opacity=".3"/><g filter="url(#b)"><rect width="96" height="96" x="751" y="31.5" fill="url(#c)" rx="12"/><circle cx="765.229" cy="46.641" r="2" fill="#FF646D"/><circle cx="772.229" cy="46.641" r="2" fill="#FBBC05"/><circle cx="779.229" cy="46.641" r="2" fill="#67C082"/><path fill="url(#d)" d="m767 71.045 15.837 5.057 15.836-3.686 15.837 12.577L831 59.5v46a6 6 0 0 1-6 6h-52a6 6 0 0 1-6-6V71.045Z"/></g><path fill="#F6F6F8" d="M872.216 43.723h7.104v1.952h-4.944v2.144h3.632v1.84h-3.632v2.672h5.136v1.952h-7.296v-10.56Zm18.404 2.464c.928 0 1.659.293 2.192.88.533.576.8 1.344.8 2.304v4.912h-2.16v-4.608c0-.47-.128-.843-.384-1.12-.256-.277-.597-.416-1.024-.416-.427 0-.779.139-1.056.416-.267.277-.4.635-.4 1.072v4.656h-2.16v-4.608c0-.47-.128-.843-.384-1.12-.256-.277-.597-.416-1.024-.416-.437 0-.789.139-1.056.416-.267.277-.4.65-.4 1.12v4.608h-2.16v-7.92h1.984v.704c.267-.277.592-.49.976-.64.384-.16.805-.24 1.264-.24 1.045 0 1.829.379 2.352 1.136.309-.352.688-.63 1.136-.832a3.68 3.68 0 0 1 1.504-.304Zm9.738 0c.736 0 1.392.181 1.968.544a3.663 3.663 0 0 1 1.375 1.472c.331.63.497 1.339.497 2.128 0 .79-.166 1.499-.497 2.128a3.777 3.777 0 0 1-1.375 1.488c-.576.352-1.232.528-1.968.528a3.468 3.468 0 0 1-1.473-.304 2.76 2.76 0 0 1-1.072-.864v.976h-1.984v-12h2.16v4.848c.576-.63 1.366-.944 2.369-.944Zm-.401 6.32c.587 0 1.073-.197 1.456-.592.395-.405.592-.939.592-1.6 0-.65-.197-1.173-.592-1.568a1.951 1.951 0 0 0-1.456-.608 1.97 1.97 0 0 0-1.424.576c-.384.373-.576.912-.576 1.616 0 .715.198 1.259.592 1.632.395.363.864.544 1.408.544Zm13.375-1.456h-5.552c.128.501.384.89.768 1.168.395.267.88.4 1.456.4.779 0 1.515-.267 2.208-.8l.896 1.472c-.939.79-1.995 1.184-3.168 1.184-.821 0-1.563-.181-2.224-.544a4.007 4.007 0 0 1-1.552-1.488 4.12 4.12 0 0 1-.56-2.112c0-.768.181-1.467.544-2.096a3.956 3.956 0 0 1 1.488-1.504 4.21 4.21 0 0 1 2.112-.544c.725 0 1.371.165 1.936.496.565.32 1.003.763 1.312 1.328.32.555.48 1.173.48 1.856 0 .384-.048.779-.144 1.184Zm-3.664-3.12c-.459 0-.859.144-1.2.432-.341.288-.571.677-.688 1.168h3.6c-.011-.49-.181-.88-.512-1.168a1.766 1.766 0 0 0-1.2-.432Zm13.573-5.648v12h-1.984v-.976a2.603 2.603 0 0 1-1.072.864 3.46 3.46 0 0 1-1.472.304c-.736 0-1.397-.176-1.984-.528a3.823 3.823 0 0 1-1.36-1.488c-.33-.63-.496-1.339-.496-2.128 0-.79.166-1.499.496-2.128.331-.63.784-1.12 1.36-1.472a3.697 3.697 0 0 1 1.984-.544c1.003 0 1.792.315 2.368.944v-4.848h2.16Zm-4.128 10.224a2.01 2.01 0 0 0 1.408-.544c.395-.373.592-.917.592-1.632 0-.704-.197-1.243-.592-1.616a1.949 1.949 0 0 0-1.408-.576c-.576 0-1.061.203-1.456.608-.394.395-.592.917-.592 1.568 0 .661.192 1.195.576 1.6.395.395.886.592 1.472.592Zm14.351-10.224v12h-1.984v-.976a2.61 2.61 0 0 1-1.072.864 3.46 3.46 0 0 1-1.472.304c-.736 0-1.397-.176-1.984-.528a3.823 3.823 0 0 1-1.36-1.488c-.331-.63-.496-1.339-.496-2.128 0-.79.165-1.499.496-2.128.331-.63.784-1.12 1.36-1.472a3.697 3.697 0 0 1 1.984-.544c1.003 0 1.792.315 2.368.944v-4.848h2.16Zm-4.128 10.224c.544 0 1.013-.181 1.408-.544.395-.373.592-.917.592-1.632 0-.704-.197-1.243-.592-1.616a1.95 1.95 0 0 0-1.408-.576c-.576 0-1.061.203-1.456.608-.395.395-.592.917-.592 1.568 0 .661.192 1.195.576 1.6.395.395.885.592 1.472.592Zm13.71-1.456h-5.552c.128.501.384.89.768 1.168.395.267.88.4 1.456.4.779 0 1.515-.267 2.208-.8l.896 1.472c-.938.79-1.994 1.184-3.168 1.184-.821 0-1.562-.181-2.224-.544a4.013 4.013 0 0 1-1.552-1.488 4.12 4.12 0 0 1-.56-2.112c0-.768.182-1.467.544-2.096a3.956 3.956 0 0 1 1.488-1.504 4.21 4.21 0 0 1 2.112-.544c.726 0 1.371.165 1.936.496.566.32 1.003.763 1.312 1.328.32.555.48 1.173.48 1.856 0 .384-.048.779-.144 1.184Zm-3.664-3.12c-.458 0-.858.144-1.2.432-.341.288-.57.677-.688 1.168h3.6c-.01-.49-.181-.88-.512-1.168-.33-.288-.73-.432-1.2-.432Zm13.574-5.648v12h-1.984v-.976a2.61 2.61 0 0 1-1.072.864 3.463 3.463 0 0 1-1.472.304c-.736 0-1.398-.176-1.984-.528a3.815 3.815 0 0 1-1.36-1.488c-.331-.63-.496-1.339-.496-2.128 0-.79.165-1.499.496-2.128a3.694 3.694 0 0 1 3.344-2.016c1.002 0 1.792.315 2.368.944v-4.848h2.16Zm-4.128 10.224c.544 0 1.013-.181 1.408-.544.394-.373.592-.917.592-1.632 0-.704-.198-1.243-.592-1.616a1.95 1.95 0 0 0-1.408-.576c-.576 0-1.062.203-1.456.608-.395.395-.592.917-.592 1.568 0 .661.192 1.195.576 1.6.394.395.885.592 1.472.592Zm-73.508 17.68c1.035 0 1.856.293 2.464.88.619.576.928 1.413.928 2.512v4.704h-1.984v-.768c-.288.299-.64.533-1.056.704-.405.17-.859.256-1.36.256-.843 0-1.509-.219-2-.656-.491-.448-.736-1.019-.736-1.712 0-.715.267-1.275.8-1.68.544-.416 1.275-.624 2.192-.624h1.984v-.352c0-.437-.128-.779-.384-1.024-.245-.245-.608-.368-1.088-.368-.405 0-.768.09-1.088.272-.32.17-.656.443-1.008.816l-1.12-1.328c.917-1.088 2.069-1.632 3.456-1.632Zm-.432 6.704c.469 0 .864-.144 1.184-.432.32-.299.48-.677.48-1.136v-.096h-1.696c-.352 0-.624.07-.816.208-.192.128-.288.325-.288.592 0 .267.101.48.304.64.213.15.491.224.832.224Zm10.367-6.704c.917 0 1.642.293 2.176.88.533.576.8 1.344.8 2.304v4.912h-2.144v-4.624c0-.459-.139-.827-.416-1.104-.267-.288-.619-.432-1.056-.432-.438 0-.8.144-1.088.432-.278.277-.416.645-.416 1.104v4.624h-2.16v-7.92h1.984v.72a2.991 2.991 0 0 1 1.008-.656c.405-.16.842-.24 1.312-.24Zm8.463 0c1.035 0 1.856.293 2.464.88.619.576.928 1.413.928 2.512v4.704h-1.984v-.768c-.288.299-.64.533-1.056.704-.405.17-.859.256-1.36.256-.843 0-1.509-.219-2-.656-.491-.448-.736-1.019-.736-1.712 0-.715.267-1.275.8-1.68.544-.416 1.275-.624 2.192-.624h1.984v-.352c0-.437-.128-.779-.384-1.024-.245-.245-.608-.368-1.088-.368-.405 0-.768.09-1.088.272-.32.17-.656.443-1.008.816l-1.12-1.328c.917-1.088 2.069-1.632 3.456-1.632Zm-.432 6.704c.469 0 .864-.144 1.184-.432.32-.299.48-.677.48-1.136v-.096h-1.696c-.352 0-.624.07-.816.208-.192.128-.288.325-.288.592 0 .267.101.48.304.64.213.15.491.224.832.224Zm6.063-10.608h2.16v12h-2.16v-12Zm12.137 4.08-3.792 8.608c-.363.821-.795 1.424-1.296 1.808-.502.384-1.12.576-1.856.576-.448 0-.912-.064-1.392-.192v-1.808c.49.043.8.064.928.064.384 0 .709-.075.976-.224.266-.15.49-.432.672-.848l.24-.544-3.04-7.44h2.288l1.936 5.2 2.064-5.2h2.272Zm6.505 6.112v1.808a6.127 6.127 0 0 1-1.488.192c-1.002 0-1.781-.245-2.336-.736-.554-.501-.832-1.248-.832-2.24v-3.312h-1.248v-1.824h1.248v-2h2.16v2h2.24v1.824h-2.24v3.12c0 .448.118.768.352.96.235.181.608.272 1.12.272.128 0 .47-.021 1.024-.064Zm1.728-6.112h2.16v7.92h-2.16v-7.92Zm1.072-1.552c-.384 0-.709-.128-.976-.384a1.26 1.26 0 0 1-.4-.944c0-.384.134-.704.4-.96.267-.256.592-.384.976-.384s.71.128.976.384c.278.256.416.576.416.96 0 .373-.138.688-.416.944a1.356 1.356 0 0 1-.976.384Zm7.177 9.664a4.333 4.333 0 0 1-2.144-.544 4.324 4.324 0 0 1-1.536-1.504 4.12 4.12 0 0 1-.56-2.112c0-.768.187-1.467.56-2.096a4.192 4.192 0 0 1 1.536-1.488 4.332 4.332 0 0 1 2.144-.544c.779 0 1.462.176 2.048.528a3.716 3.716 0 0 1 1.392 1.424l-1.504 1.168a2.992 2.992 0 0 0-.832-.848c-.298-.203-.656-.304-1.072-.304-.608 0-1.109.208-1.504.624-.384.405-.576.917-.576 1.536 0 .63.192 1.152.576 1.568.395.405.896.608 1.504.608.406 0 .758-.096 1.056-.288.31-.203.592-.485.848-.848l1.504 1.152a3.795 3.795 0 0 1-1.408 1.44c-.586.352-1.264.528-2.032.528Zm7.756 0a4.375 4.375 0 0 1-1.888-.4 3.833 3.833 0 0 1-1.392-1.136l1.088-1.312c.694.715 1.435 1.072 2.224 1.072.288 0 .528-.053.72-.16a.552.552 0 0 0 .288-.496.43.43 0 0 0-.192-.384c-.117-.096-.325-.208-.624-.336l-.848-.352c-.725-.299-1.269-.63-1.632-.992-.352-.363-.528-.837-.528-1.424 0-.747.267-1.328.8-1.744.544-.416 1.248-.624 2.112-.624 1.184 0 2.134.395 2.848 1.184l-1.088 1.328c-.533-.501-1.125-.752-1.776-.752-.266 0-.474.048-.624.144a.466.466 0 0 0-.224.416c0 .15.059.272.176.368.128.096.347.208.656.336l.768.32c.768.31 1.328.645 1.68 1.008.363.352.544.821.544 1.408 0 .79-.293 1.408-.88 1.856-.576.448-1.312.672-2.208.672Z"/><g fill="#61DAFB" clip-path="url(#e)"><path d="M896.025 107.806c0-1.51-1.858-2.941-4.707-3.828.657-2.956.365-5.307-.923-6.06a1.97 1.97 0 0 0-1.022-.26v1.037c.21 0 .379.041.52.12.621.363.89 1.743.68 3.518-.05.436-.132.896-.232 1.366a21.853 21.853 0 0 0-2.9-.507 22.556 22.556 0 0 0-1.899-2.323c1.488-1.408 2.885-2.18 3.835-2.18v-1.035c-1.255 0-2.899.91-4.561 2.49-1.662-1.57-3.306-2.472-4.561-2.472v1.037c.945 0 2.346.766 3.835 2.165a21.91 21.91 0 0 0-1.886 2.318 21.161 21.161 0 0 0-2.904.511 14.27 14.27 0 0 1-.237-1.347c-.215-1.775.05-3.155.667-3.522.137-.084.315-.12.525-.12v-1.037c-.384 0-.731.084-1.032.26-1.283.753-1.571 3.099-.909 6.045-2.84.892-4.689 2.319-4.689 3.824 0 1.51 1.858 2.941 4.707 3.829-.657 2.955-.365 5.306.923 6.059.296.176.643.26 1.027.26 1.256 0 2.899-.911 4.561-2.491 1.662 1.571 3.306 2.472 4.562 2.472a2 2 0 0 0 1.031-.26c1.283-.753 1.571-3.099.909-6.045 2.831-.887 4.68-2.318 4.68-3.824Zm-5.945-3.099a21.384 21.384 0 0 1-.616 1.835 24.673 24.673 0 0 0-1.256-2.202 20.27 20.27 0 0 1 1.872.367Zm-2.091 4.948a24.615 24.615 0 0 1-1.1 1.775 23.14 23.14 0 0 1-2.064.093c-.689 0-1.379-.032-2.055-.088a25.937 25.937 0 0 1-1.105-1.766 23.916 23.916 0 0 1-.949-1.849 24.836 24.836 0 0 1 2.045-3.629 23.52 23.52 0 0 1 4.119-.004 24.284 24.284 0 0 1 2.054 3.614 25.466 25.466 0 0 1-.945 1.854Zm1.475-.604c.246.623.456 1.246.63 1.85-.598.148-1.228.274-1.881.371a25.187 25.187 0 0 0 1.251-2.221Zm-4.63 4.958a19.108 19.108 0 0 1-1.269-1.487c.411.019.831.033 1.255.033.43 0 .854-.01 1.27-.033a18.013 18.013 0 0 1-1.256 1.487Zm-3.397-2.737a20.008 20.008 0 0 1-1.872-.367c.169-.599.379-1.217.617-1.835.187.372.383.743.598 1.115.214.372.433.734.657 1.087Zm3.374-9.669c.425.446.85.943 1.27 1.487a27.194 27.194 0 0 0-1.256-.032c-.429 0-.854.009-1.269.032.411-.544.835-1.041 1.255-1.487Zm-3.378 2.737a25.808 25.808 0 0 0-1.251 2.216 20.115 20.115 0 0 1-.631-1.849 22.091 22.091 0 0 1 1.882-.367Zm-4.132 5.817c-1.617-.701-2.662-1.621-2.662-2.351 0-.729 1.045-1.654 2.662-2.351.392-.172.821-.325 1.264-.469.26.91.603 1.858 1.028 2.829-.421.967-.758 1.91-1.014 2.816a13.65 13.65 0 0 1-1.278-.474Zm2.456 6.64c-.621-.363-.89-1.743-.68-3.517.05-.437.132-.897.232-1.366.895.223 1.872.394 2.9.506a22.45 22.45 0 0 0 1.899 2.323c-1.488 1.408-2.885 2.179-3.835 2.179a1.066 1.066 0 0 1-.516-.125Zm10.83-3.541c.215 1.775-.05 3.155-.667 3.522-.136.084-.315.121-.525.121-.945 0-2.346-.767-3.835-2.165a21.825 21.825 0 0 0 1.886-2.319 20.862 20.862 0 0 0 2.904-.511c.105.47.187.92.237 1.352Zm1.758-3.099c-.393.172-.822.325-1.265.469-.26-.91-.602-1.858-1.027-2.829.42-.967.758-1.91 1.014-2.816.452.144.881.302 1.283.474 1.616.702 2.661 1.622 2.661 2.351-.004.73-1.05 1.654-2.666 2.351Z"/><path d="M884.821 109.931c1.152 0 2.087-.95 2.087-2.123 0-1.173-.935-2.123-2.087-2.123-1.152 0-2.087.95-2.087 2.123 0 1.173.935 2.123 2.087 2.123Z"/></g><path fill="#DD0031" d="m917 98.274-9.449 3.37 1.441 12.495 8.008 4.435 8.009-4.435 1.441-12.495-9.45-3.37Z"/><path fill="#C3002F" d="M917.002 98.274v2.253-.01V118.574l8.008-4.435 1.442-12.495-9.45-3.37Z"/><path fill="#fff" d="m917.001 100.514-5.907 13.246h2.202l1.188-2.964h5.014l1.188 2.964h2.202l-5.887-13.246Zm1.726 8.455h-3.451l1.725-4.151 1.726 4.151Z"/><g clip-path="url(#f)"><path fill="#41B883" d="m951.43 99.319-2.432 4.276-2.432-4.276h-8.068l10.5 18.55 10.5-18.55h-8.068Z"/><path fill="#34495E" d="m951.43 99.323-2.433 4.276-2.432-4.276h-3.872l6.304 11.134 6.304-11.134h-3.871Z"/></g><rect width="96" height="96" x="799" y="152" fill="url(#g)" rx="12"/><path fill="#FF6492" fill-rule="evenodd" d="M879 200c0 17.673-14.327 32-32 32-17.673 0-32-14.327-32-32 0-17.673 14.327-32 32-32 17.673 0 32 14.327 32 32Zm-10.715-.146c0 11.838-9.529 21.434-21.284 21.434-11.754 0-21.283-9.596-21.283-21.434 0-11.837 9.529-21.433 21.283-21.433 11.755 0 21.284 9.596 21.284 21.433Z" clip-rule="evenodd"/><path fill="#0F0F23" fill-opacity=".7" fill-rule="evenodd" d="M868.717 223.502C875.041 217.656 879 209.291 879 200c0-17.673-14.327-32-32-32v10.421h.001c11.755 0 21.284 9.596 21.284 21.433a21.441 21.441 0 0 1-6.958 15.852l7.39 7.796Z" clip-rule="evenodd"/><path fill="#F6F6F8" d="M926.52 181.288c.587.213 1.045.544 1.376.992.331.437.496.976.496 1.616 0 .597-.149 1.136-.448 1.616a2.963 2.963 0 0 1-1.232 1.104c-.523.256-1.12.384-1.792.384h-4.704v-10.56h3.744c.64 0 1.216.128 1.728.384.512.245.907.592 1.184 1.04.288.437.432.944.432 1.52 0 .768-.261 1.403-.784 1.904Zm-4.224-2.992v2.416h1.488c.437 0 .773-.107 1.008-.32.245-.224.368-.523.368-.896s-.123-.667-.368-.88c-.235-.213-.571-.32-1.008-.32h-1.488Zm2.464 6.848c.469 0 .837-.117 1.104-.352.267-.235.4-.56.4-.976 0-.405-.133-.725-.4-.96-.267-.245-.635-.368-1.104-.368h-2.464v2.656h2.464Zm5.553-8.704h2.161V187h-2.161v-10.56Zm14.327 8.752V187a6.127 6.127 0 0 1-1.488.192c-1.003 0-1.781-.245-2.336-.736-.555-.501-.832-1.248-.832-2.24v-3.312h-1.248v-1.824h1.248v-2h2.16v2h2.24v1.824h-2.24v3.12c0 .448.117.768.352.96.235.181.608.272 1.12.272.128 0 .469-.021 1.024-.064Zm5.348 1.984a4.326 4.326 0 0 1-2.144-.544 4.191 4.191 0 0 1-1.52-1.504 4.09 4.09 0 0 1-.56-2.096c0-.757.187-1.451.56-2.08a4 4 0 0 1 1.536-1.504 4.326 4.326 0 0 1 2.144-.544c.779 0 1.493.187 2.144.56a4.037 4.037 0 0 1 1.536 1.488c.384.629.576 1.323.576 2.08a4 4 0 0 1-.576 2.096 4.123 4.123 0 0 1-1.552 1.504 4.326 4.326 0 0 1-2.144.544Zm.016-1.984c.587 0 1.072-.203 1.456-.608.395-.405.592-.917.592-1.536s-.197-1.136-.592-1.552c-.384-.416-.869-.624-1.456-.624-.597 0-1.088.208-1.472.624-.384.405-.576.923-.576 1.552 0 .619.192 1.131.576 1.536.384.405.875.608 1.472.608Zm9.878 1.984a4.329 4.329 0 0 1-2.144-.544 4.199 4.199 0 0 1-1.52-1.504 4.09 4.09 0 0 1-.56-2.096c0-.757.187-1.451.56-2.08a4.013 4.013 0 0 1 1.536-1.504 4.329 4.329 0 0 1 2.144-.544c.779 0 1.494.187 2.144.56a4.037 4.037 0 0 1 1.536 1.488c.384.629.576 1.323.576 2.08a4 4 0 0 1-.576 2.096 4.116 4.116 0 0 1-1.552 1.504 4.323 4.323 0 0 1-2.144.544Zm.016-1.984c.587 0 1.072-.203 1.456-.608.395-.405.592-.917.592-1.536s-.197-1.136-.592-1.552c-.384-.416-.869-.624-1.456-.624-.597 0-1.088.208-1.472.624-.384.405-.576.923-.576 1.552 0 .619.192 1.131.576 1.536.384.405.875.608 1.472.608ZM966.001 175h2.16v12h-2.16v-12Zm7.017 12.192c-.694 0-1.323-.133-1.888-.4a3.812 3.812 0 0 1-1.392-1.136l1.088-1.312c.693.715 1.434 1.072 2.224 1.072.288 0 .528-.053.72-.16a.552.552 0 0 0 .288-.496.43.43 0 0 0-.192-.384c-.118-.096-.326-.208-.624-.336l-.848-.352c-.726-.299-1.27-.629-1.632-.992-.352-.363-.528-.837-.528-1.424 0-.747.266-1.328.8-1.744.544-.416 1.248-.624 2.112-.624 1.184 0 2.133.395 2.848 1.184l-1.088 1.328c-.534-.501-1.126-.752-1.776-.752-.267 0-.475.048-.624.144a.464.464 0 0 0-.224.416c0 .149.058.272.176.368.128.096.346.208.656.336l.768.32c.768.309 1.328.645 1.68 1.008.362.352.544.821.544 1.408 0 .789-.294 1.408-.88 1.856-.576.448-1.312.672-2.208.672Z"/><path fill="#fff" d="M938.529 210.311c-1.95 0-3.747 1.105-5.484 3.037-1.706-1.962-3.533-3.037-5.574-3.037-3.38 0-5.846 2.429-5.846 5.7 0 3.27 2.466 5.669 5.846 5.669 2.077 0 3.687-.981 5.484-2.936 1.736 1.961 3.503 2.942 5.574 2.942 3.38-.006 5.846-2.396 5.846-5.675 0-3.28-2.466-5.7-5.846-5.7Zm-11.034 7.938c-1.432 0-2.285-.951-2.285-2.208 0-1.257.853-2.235 2.285-2.235 1.206 0 2.192.978 3.259 2.296-1.007 1.227-2.071 2.147-3.259 2.147Zm10.932 0c-1.188 0-2.192-.951-3.259-2.208 1.097-1.318 2.041-2.235 3.259-2.235 1.432 0 2.276.99 2.276 2.235 0 1.245-.844 2.208-2.276 2.208Z"/><path fill="#20A7C9" d="m935.525 220.871 2.273-2.733c-.904-.274-1.739-1.093-2.605-2.111l-2.213 2.718a9.972 9.972 0 0 0 2.545 2.126ZM933.048 213.35a10.258 10.258 0 0 0-2.53-2.174l-2.276 2.763c.865.304 1.631 1.087 2.445 2.086l.091.064 2.27-2.739Z"/><g clip-path="url(#h)"><path fill="#E8762D" d="M964.444 219.441h1.111v-2.964h2.794v-1.054h-2.794v-2.965h-1.111v2.965h-2.76v1.054h2.76v2.964Z"/><path fill="#C72037" d="M959.292 223.725h.943v-2.636h2.491v-.823h-2.491v-2.668h-.943v2.668h-2.491v.823h2.491v2.636Z"/><path fill="#5B879B" d="M969.763 214.203h.942v-2.635h2.525v-.791h-2.525v-2.668h-.942v2.668h-2.492v.791h2.492v2.635Z"/><path fill="#5C6692" d="M964.611 225.801h.808v-1.878h1.717v-.692h-1.717v-1.877h-.808v1.877h-1.683v.692h1.683v1.878Z"/><path fill="#EB9129" d="M959.326 214.203h.875v-2.668h2.525v-.758h-2.525v-2.668h-.875v2.668h-2.525v.758h2.525v2.668Z"/><path fill="#5C6692" d="M972.625 218.157h.808v-1.845h1.717v-.724h-1.717v-1.845h-.808v1.845h-1.684v.724h1.684v1.845Z"/><path fill="#1F457E" fill-rule="evenodd" d="M969.763 223.725h.942v-2.636h2.525v-.823h-2.525v-2.668h-.942v2.668h-2.492v.823h2.492v2.636Z" clip-rule="evenodd"/><path fill="#7199A6" d="M967.003 208.57v-.56h-1.683v-1.812h-.606v1.812h-1.684v.56h1.684v1.812h.606v-1.812h1.683Zm-10.47 9.454h.606v-1.812h1.683v-.56h-1.683v-1.779h-.606v1.779h-1.683v.593l1.683-.033v1.812Z"/></g><path fill="#509EE3" d="M989.914 212.415c.677 0 1.226-.557 1.226-1.246 0-.688-.549-1.246-1.226-1.246-.677 0-1.226.558-1.226 1.246 0 .689.549 1.246 1.226 1.246ZM989.914 215.908c.677 0 1.226-.558 1.226-1.246 0-.689-.549-1.246-1.226-1.246-.677 0-1.226.557-1.226 1.246 0 .688.549 1.246 1.226 1.246Z"/><path fill="#509EE3" d="M993.349 212.415c.678 0 1.227-.557 1.227-1.246 0-.688-.549-1.246-1.227-1.246-.677 0-1.226.558-1.226 1.246 0 .689.549 1.246 1.226 1.246Z" opacity=".2"/><path fill="#509EE3" d="M993.349 215.941c.678 0 1.227-.558 1.227-1.246 0-.689-.549-1.247-1.227-1.247-.677 0-1.226.558-1.226 1.247 0 .688.549 1.246 1.226 1.246Z"/><path fill="#509EE3" d="M996.783 212.415c.677 0 1.227-.557 1.227-1.246 0-.688-.55-1.246-1.227-1.246s-1.226.558-1.226 1.246c0 .689.549 1.246 1.226 1.246ZM996.783 208.429c.677 0 1.227-.558 1.227-1.246s-.55-1.246-1.227-1.246-1.226.558-1.226 1.246.549 1.246 1.226 1.246ZM996.783 215.941c.677 0 1.227-.558 1.227-1.246 0-.689-.55-1.247-1.227-1.247s-1.226.558-1.226 1.247c0 .688.549 1.246 1.226 1.246ZM1000.22 212.415c.67 0 1.22-.557 1.22-1.246 0-.688-.55-1.246-1.22-1.246-.681 0-1.23.558-1.23 1.246 0 .689.549 1.246 1.23 1.246Z" opacity=".2"/><path fill="#509EE3" d="M1003.65 212.415c.68 0 1.22-.557 1.22-1.246a1.23 1.23 0 0 0-1.22-1.246c-.68 0-1.23.558-1.23 1.246 0 .689.55 1.246 1.23 1.246ZM1000.22 215.941c.67 0 1.22-.558 1.22-1.246 0-.689-.55-1.247-1.22-1.247-.681 0-1.23.558-1.23 1.247 0 .688.549 1.246 1.23 1.246ZM1003.65 215.941c.68 0 1.22-.558 1.22-1.246a1.23 1.23 0 0 0-1.22-1.247c-.68 0-1.23.558-1.23 1.247 0 .688.55 1.246 1.23 1.246ZM989.914 219.392c.677 0 1.226-.558 1.226-1.246s-.549-1.246-1.226-1.246c-.677 0-1.226.558-1.226 1.246s.549 1.246 1.226 1.246Z"/><path fill="#509EE3" d="M993.349 219.425c.678 0 1.227-.558 1.227-1.246 0-.689-.549-1.246-1.227-1.246-.677 0-1.226.557-1.226 1.246 0 .688.549 1.246 1.226 1.246Z" opacity=".2"/><path fill="#509EE3" d="M996.783 219.425c.677 0 1.227-.558 1.227-1.246 0-.689-.55-1.246-1.227-1.246s-1.226.557-1.226 1.246c0 .688.549 1.246 1.226 1.246Z"/><path fill="#509EE3" d="M1000.22 219.425c.67 0 1.22-.558 1.22-1.246 0-.689-.55-1.246-1.22-1.246-.681 0-1.23.557-1.23 1.246 0 .688.549 1.246 1.23 1.246Z" opacity=".2"/><path fill="#509EE3" d="M1003.65 219.425c.68 0 1.22-.558 1.22-1.246 0-.689-.54-1.246-1.22-1.246-.68 0-1.23.557-1.23 1.246 0 .688.55 1.246 1.23 1.246ZM989.914 222.884c.677 0 1.226-.558 1.226-1.246s-.549-1.246-1.226-1.246c-.677 0-1.226.558-1.226 1.246s.549 1.246 1.226 1.246Z"/><path fill="#509EE3" d="M993.349 222.917c.678 0 1.227-.558 1.227-1.246s-.549-1.246-1.227-1.246c-.677 0-1.226.558-1.226 1.246s.549 1.246 1.226 1.246ZM996.783 222.917c.677 0 1.227-.558 1.227-1.246s-.55-1.246-1.227-1.246-1.226.558-1.226 1.246.549 1.246 1.226 1.246ZM996.783 226.409c.677 0 1.227-.558 1.227-1.246s-.55-1.246-1.227-1.246-1.226.558-1.226 1.246.549 1.246 1.226 1.246ZM1000.22 222.917c.67 0 1.22-.558 1.22-1.246s-.55-1.246-1.22-1.246c-.681 0-1.23.558-1.23 1.246s.549 1.246 1.23 1.246Z" opacity=".2"/><path fill="#509EE3" d="M1003.65 222.917c.68 0 1.22-.558 1.22-1.246a1.23 1.23 0 0 0-1.22-1.246c-.68 0-1.23.558-1.23 1.246s.55 1.246 1.23 1.246Z"/><g filter="url(#i)"><rect width="96" height="96" x="751" y="272.359" fill="url(#j)" rx="12"/><path stroke="#fff" stroke-opacity=".24" d="M799 272.414v96M751 320.36h96"/><circle cx="791.44" cy="348.879" r="1.84" fill="#FF83A8"/><circle cx="775.801" cy="351.639" r="1.84" fill="#FF83A8"/><circle cx="786.84" cy="340.599" r="1.84" fill="#FF83A8"/><circle cx="807.08" cy="324.959" r="1.84" fill="#FF83A8"/><circle cx="821.801" cy="329.559" r="1.84" fill="#FF83A8"/><circle cx="803.401" cy="289.999" r="1.84" fill="#FF83A8"/><circle cx="823.641" cy="302.879" r="1.84" fill="#FF83A8"/><circle cx="816.279" cy="310.239" r="1.84" fill="#FF83A8"/><circle cx="828.24" cy="289.079" r="1.84" fill="#FF83A8"/><circle cx="792.36" cy="331.399" r="1.84" fill="#FF83A8"/><circle cx="792.36" cy="324.039" r="1.84" fill="#FF83A8"/><circle cx="821.801" cy="351.639" r="1.84" fill="#FF83A8"/><circle cx="811.68" cy="304.719" r="1.84" fill="#FF83A8"/><circle cx="823.641" cy="321.279" r="1.84" fill="#FF83A8"/><circle cx="807.08" cy="314.839" r="1.84" fill="#FF83A8"/><circle cx="821.801" cy="295.519" r="1.84" fill="#FF83A8"/><circle cx="802.481" cy="333.239" r="1.84" fill="#FF83A8"/><circle cx="785" cy="328.639" r="1.84" fill="#FF83A8"/><circle cx="798.801" cy="320.359" r="1.84" fill="#FF83A8"/><circle cx="815.36" cy="318.519" r="1.84" fill="#FF83A8"/><circle cx="821.801" cy="314.839" r="1.84" fill="#FF83A8"/><circle cx="808" cy="339.679" r="1.84" fill="#FF83A8"/><circle cx="782.24" cy="346.119" r="1.84" fill="#FF83A8"/><circle cx="794.199" cy="340.599" r="1.84" fill="#FF83A8"/><circle cx="793.279" cy="314.839" r="1.84" fill="#FF83A8"/><circle cx="829.16" cy="307.479" r="1.84" fill="#FF83A8"/><circle cx="814.44" cy="329.559" r="1.84" fill="#FF83A8"/><circle cx="763.84" cy="296.439" r="1.84" fill="#FF83A8"/><circle cx="776.721" cy="342.439" r="1.84" fill="#FF83A8"/><circle cx="765.68" cy="347.959" r="1.84" fill="#FF83A8"/></g><path fill="#F6F6F8" d="M872.216 284.581h3.456c1.12 0 2.117.218 2.992.656.875.437 1.552 1.05 2.032 1.84.491.789.736 1.706.736 2.752 0 1.024-.245 1.941-.736 2.752-.48.8-1.157 1.429-2.032 1.888-.875.448-1.872.672-2.992.672h-3.456v-10.56Zm3.44 8.608c.704 0 1.323-.139 1.856-.416.544-.278.96-.667 1.248-1.168.299-.512.448-1.104.448-1.776 0-1.024-.325-1.83-.976-2.416-.64-.587-1.499-.88-2.576-.88h-1.28v6.656h1.28Zm10.871-6.144c1.035 0 1.856.293 2.464.88.619.576.928 1.413.928 2.512v4.704h-1.984v-.768a3.07 3.07 0 0 1-1.056.704c-.405.17-.859.256-1.36.256-.843 0-1.509-.219-2-.656-.491-.448-.736-1.019-.736-1.712 0-.715.267-1.275.8-1.68.544-.416 1.275-.624 2.192-.624h1.984v-.352c0-.438-.128-.779-.384-1.024-.245-.246-.608-.368-1.088-.368-.405 0-.768.09-1.088.272-.32.17-.656.442-1.008.816l-1.12-1.328c.917-1.088 2.069-1.632 3.456-1.632Zm-.432 6.704c.469 0 .864-.144 1.184-.432.32-.299.48-.678.48-1.136v-.096h-1.696c-.352 0-.624.069-.816.208-.192.128-.288.325-.288.592 0 .266.101.48.304.64.213.149.491.224.832.224Zm11.151-.416v1.808a6.127 6.127 0 0 1-1.488.192c-1.003 0-1.782-.246-2.336-.736-.555-.502-.832-1.248-.832-2.24v-3.312h-1.248v-1.824h1.248v-2h2.16v2h2.24v1.824h-2.24v3.12c0 .448.117.768.352.96.234.181.608.272 1.12.272.128 0 .469-.022 1.024-.064Zm4.976-6.288c1.035 0 1.856.293 2.464.88.619.576.928 1.413.928 2.512v4.704h-1.984v-.768a3.07 3.07 0 0 1-1.056.704c-.405.17-.859.256-1.36.256-.843 0-1.509-.219-2-.656-.491-.448-.736-1.019-.736-1.712 0-.715.267-1.275.8-1.68.544-.416 1.275-.624 2.192-.624h1.984v-.352c0-.438-.128-.779-.384-1.024-.245-.246-.608-.368-1.088-.368-.405 0-.768.09-1.088.272-.32.17-.656.442-1.008.816l-1.12-1.328c.917-1.088 2.069-1.632 3.456-1.632Zm-.432 6.704c.469 0 .864-.144 1.184-.432.32-.299.48-.678.48-1.136v-.096h-1.696c-.352 0-.624.069-.816.208-.192.128-.288.325-.288.592 0 .266.101.48.304.64.213.149.491.224.832.224Zm13.955-6.704c1.035 0 1.856.293 2.464.88.619.576.928 1.413.928 2.512v4.704h-1.984v-.768a3.07 3.07 0 0 1-1.056.704c-.405.17-.859.256-1.36.256-.843 0-1.509-.219-2-.656-.491-.448-.736-1.019-.736-1.712 0-.715.267-1.275.8-1.68.544-.416 1.275-.624 2.192-.624h1.984v-.352c0-.438-.128-.779-.384-1.024-.245-.246-.608-.368-1.088-.368-.405 0-.768.09-1.088.272-.32.17-.656.442-1.008.816l-1.12-1.328c.917-1.088 2.069-1.632 3.456-1.632Zm-.432 6.704c.469 0 .864-.144 1.184-.432.32-.299.48-.678.48-1.136v-.096h-1.696c-.352 0-.624.069-.816.208-.192.128-.288.325-.288.592 0 .266.101.48.304.64.213.149.491.224.832.224Zm10.591-6.704c.736 0 1.392.181 1.968.544a3.668 3.668 0 0 1 1.376 1.472c.33.618.496 1.322.496 2.112 0 .789-.166 1.498-.496 2.128a3.791 3.791 0 0 1-1.376 1.488c-.576.362-1.232.544-1.968.544-.48 0-.923-.08-1.328-.24a2.986 2.986 0 0 1-1.04-.72v3.648h-2.16v-10.8h1.984v.992a2.609 2.609 0 0 1 1.056-.864 3.564 3.564 0 0 1 1.488-.304Zm-.4 6.32c.576 0 1.061-.198 1.456-.592.394-.406.592-.934.592-1.584 0-.662-.198-1.19-.592-1.584-.384-.406-.87-.608-1.456-.608-.544 0-1.014.186-1.408.56-.395.362-.592.901-.592 1.616 0 .704.192 1.248.576 1.632.394.373.869.56 1.424.56Zm10.622-6.32c.736 0 1.392.181 1.968.544a3.655 3.655 0 0 1 1.376 1.472c.331.618.496 1.322.496 2.112 0 .789-.165 1.498-.496 2.128a3.777 3.777 0 0 1-1.376 1.488c-.576.362-1.232.544-1.968.544-.48 0-.922-.08-1.328-.24a2.995 2.995 0 0 1-1.04-.72v3.648h-2.16v-10.8h1.984v.992a2.622 2.622 0 0 1 1.056-.864 3.564 3.564 0 0 1 1.488-.304Zm-.4 6.32a1.98 1.98 0 0 0 1.456-.592c.395-.406.592-.934.592-1.584 0-.662-.197-1.19-.592-1.584-.384-.406-.869-.608-1.456-.608-.544 0-1.013.186-1.408.56-.394.362-.592.901-.592 1.616 0 .704.192 1.248.576 1.632.395.373.87.56 1.424.56Zm8.655 1.968a4.377 4.377 0 0 1-1.888-.4 3.822 3.822 0 0 1-1.392-1.136l1.088-1.312c.693.714 1.434 1.072 2.224 1.072.288 0 .528-.054.72-.16a.553.553 0 0 0 .288-.496.43.43 0 0 0-.192-.384c-.118-.096-.326-.208-.624-.336l-.848-.352c-.726-.299-1.27-.63-1.632-.992-.352-.363-.528-.838-.528-1.424 0-.747.266-1.328.8-1.744.544-.416 1.248-.624 2.112-.624 1.184 0 2.133.394 2.848 1.184l-1.088 1.328c-.534-.502-1.126-.752-1.776-.752-.267 0-.475.048-.624.144a.463.463 0 0 0-.224.416c0 .149.058.272.176.368.128.096.346.208.656.336l.768.32c.768.309 1.328.645 1.68 1.008.362.352.544.821.544 1.408 0 .789-.294 1.408-.88 1.856-.576.448-1.312.672-2.208.672Zm-63.509 19.712c-.661.949-1.131 1.594-1.408 1.936l1.776 2.16h-2.528l-.64-.784a4.61 4.61 0 0 1-2.864.976c-.683 0-1.285-.123-1.808-.368a2.954 2.954 0 0 1-1.232-1.04 2.778 2.778 0 0 1-.432-1.536c0-.566.155-1.078.464-1.536.32-.47.875-1.014 1.664-1.632-.32-.416-.555-.806-.704-1.168a3.044 3.044 0 0 1-.224-1.136c0-.758.251-1.366.752-1.824.501-.47 1.163-.704 1.984-.704.779 0 1.413.218 1.904.656.491.426.736.981.736 1.664 0 .501-.139.97-.416 1.408-.267.426-.704.89-1.312 1.392l1.552 1.872c.331-.47.635-.907.912-1.312.192-.256.384-.528.576-.816l1.664 1.184-.416.608Zm-5.232-4.816c-.235 0-.421.064-.56.192-.139.128-.208.304-.208.528 0 .181.043.362.128.544.096.17.261.4.496.688l.032-.016c.309-.246.528-.459.656-.64a1.08 1.08 0 0 0 .192-.608c0-.214-.064-.379-.192-.496-.128-.128-.309-.192-.544-.192Zm1.184 6.608L875 314.629c-.437.362-.731.65-.88.864a1.131 1.131 0 0 0-.224.688c0 .373.133.677.4.912.267.224.613.336 1.04.336.512 0 1.008-.198 1.488-.592Zm15.138-5.792c.917 0 1.642.293 2.176.88.533.576.8 1.344.8 2.304v4.912h-2.144v-4.624c0-.459-.139-.827-.416-1.104-.267-.288-.619-.432-1.056-.432-.438 0-.8.144-1.088.432-.278.277-.416.645-.416 1.104v4.624h-2.16v-7.92h1.984v.72a2.982 2.982 0 0 1 1.008-.656c.405-.16.842-.24 1.312-.24Zm8.991 8.272a4.336 4.336 0 0 1-2.144-.544 4.199 4.199 0 0 1-1.52-1.504 4.09 4.09 0 0 1-.56-2.096c0-.758.187-1.451.56-2.08a3.992 3.992 0 0 1 1.536-1.504 4.326 4.326 0 0 1 2.144-.544c.779 0 1.493.186 2.144.56a4.023 4.023 0 0 1 1.536 1.488c.384.629.576 1.322.576 2.08a4 4 0 0 1-.576 2.096 4.13 4.13 0 0 1-1.552 1.504 4.336 4.336 0 0 1-2.144.544Zm.016-1.984c.587 0 1.072-.203 1.456-.608.395-.406.592-.918.592-1.536 0-.619-.197-1.136-.592-1.552-.384-.416-.869-.624-1.456-.624-.597 0-1.088.208-1.472.624-.384.405-.576.922-.576 1.552 0 .618.192 1.13.576 1.536.384.405.875.608 1.472.608Zm11.19 0v1.808a6.127 6.127 0 0 1-1.488.192c-1.002 0-1.781-.246-2.336-.736-.554-.502-.832-1.248-.832-2.24v-3.312h-1.248v-1.824h1.248v-2h2.16v2h2.24v1.824h-2.24v3.12c0 .448.118.768.352.96.235.181.608.272 1.12.272.128 0 .47-.022 1.024-.064Zm8.852-1.424h-5.552c.128.501.384.89.768 1.168.395.266.88.4 1.456.4.779 0 1.515-.267 2.208-.8l.896 1.472c-.938.789-1.994 1.184-3.168 1.184-.821 0-1.562-.182-2.224-.544a4.018 4.018 0 0 1-1.552-1.488 4.12 4.12 0 0 1-.56-2.112c0-.768.182-1.467.544-2.096a3.951 3.951 0 0 1 1.488-1.504 4.206 4.206 0 0 1 2.112-.544c.726 0 1.371.165 1.936.496.566.32 1.003.762 1.312 1.328.32.554.48 1.173.48 1.856 0 .384-.048.778-.144 1.184Zm-3.664-3.12c-.458 0-.858.144-1.2.432-.341.288-.57.677-.688 1.168h3.6c-.01-.491-.181-.88-.512-1.168-.33-.288-.73-.432-1.2-.432Zm10.182-1.744c.736 0 1.392.181 1.968.544a3.668 3.668 0 0 1 1.376 1.472c.33.629.496 1.338.496 2.128 0 .789-.166 1.498-.496 2.128a3.791 3.791 0 0 1-1.376 1.488c-.576.352-1.232.528-1.968.528a3.47 3.47 0 0 1-1.472-.304 2.75 2.75 0 0 1-1.072-.864v.976h-1.984v-12h2.16v4.848c.576-.63 1.365-.944 2.368-.944Zm-.4 6.32c.586 0 1.072-.198 1.456-.592.394-.406.592-.939.592-1.6 0-.651-.198-1.174-.592-1.568a1.95 1.95 0 0 0-1.456-.608c-.555 0-1.03.192-1.424.576-.384.373-.576.912-.576 1.616 0 .714.197 1.258.592 1.632.394.362.864.544 1.408.544Zm9.87 1.952a4.34 4.34 0 0 1-2.144-.544 4.207 4.207 0 0 1-1.52-1.504 4.09 4.09 0 0 1-.56-2.096c0-.758.187-1.451.56-2.08a4.006 4.006 0 0 1 1.536-1.504 4.329 4.329 0 0 1 2.144-.544c.779 0 1.494.186 2.144.56a4.023 4.023 0 0 1 1.536 1.488c.384.629.576 1.322.576 2.08a4 4 0 0 1-.576 2.096 4.124 4.124 0 0 1-1.552 1.504 4.334 4.334 0 0 1-2.144.544Zm.016-1.984c.587 0 1.072-.203 1.456-.608.395-.406.592-.918.592-1.536 0-.619-.197-1.136-.592-1.552-.384-.416-.869-.624-1.456-.624-.597 0-1.088.208-1.472.624-.384.405-.576.922-.576 1.552 0 .618.192 1.13.576 1.536.384.405.875.608 1.472.608Zm9.879 1.984a4.334 4.334 0 0 1-2.144-.544 4.199 4.199 0 0 1-1.52-1.504 4.08 4.08 0 0 1-.56-2.096c0-.758.186-1.451.56-2.08a3.992 3.992 0 0 1 1.536-1.504 4.323 4.323 0 0 1 2.144-.544c.778 0 1.493.186 2.144.56.65.362 1.162.858 1.536 1.488.384.629.576 1.322.576 2.08a4 4 0 0 1-.576 2.096 4.138 4.138 0 0 1-1.552 1.504 4.34 4.34 0 0 1-2.144.544Zm.016-1.984c.586 0 1.072-.203 1.456-.608.394-.406.592-.918.592-1.536 0-.619-.198-1.136-.592-1.552-.384-.416-.87-.624-1.456-.624-.598 0-1.088.208-1.472.624-.384.405-.576.922-.576 1.552 0 .618.192 1.13.576 1.536.384.405.874.608 1.472.608Zm11.446 1.808-3.184-4.384v4.384h-2.16v-12h2.16v7.456l2.848-3.376h2.56l-2.976 3.504 3.216 4.416h-2.464Zm6.329.192a4.38 4.38 0 0 1-1.888-.4 3.839 3.839 0 0 1-1.392-1.136l1.088-1.312c.693.714 1.435 1.072 2.224 1.072.288 0 .528-.054.72-.16a.553.553 0 0 0 .288-.496.43.43 0 0 0-.192-.384c-.117-.096-.325-.208-.624-.336l-.848-.352c-.725-.299-1.269-.63-1.632-.992-.352-.363-.528-.838-.528-1.424 0-.747.267-1.328.8-1.744.544-.416 1.248-.624 2.112-.624 1.184 0 2.133.394 2.848 1.184l-1.088 1.328c-.533-.502-1.125-.752-1.776-.752-.267 0-.475.048-.624.144a.465.465 0 0 0-.224.416c0 .149.059.272.176.368.128.096.347.208.656.336l.768.32c.768.309 1.328.645 1.68 1.008.363.352.544.821.544 1.408 0 .789-.293 1.408-.88 1.856-.576.448-1.312.672-2.208.672Z"/><path fill="#fff" d="M875.966 349.108c0 .717-.057.951-.205 1.123a.895.895 0 0 1-.599.23l.058.41a1.41 1.41 0 0 0 .935-.34 1.639 1.639 0 0 0 .361-1.23v-2.715h-.55v2.522ZM880.069 348.78c0 .307 0 .582.025.82h-.489l-.033-.488a1.133 1.133 0 0 1-.997.558c-.476 0-1.042-.259-1.042-1.312v-1.751h.55v1.64c0 .57.176.951.673.951a.763.763 0 0 0 .551-.224.783.783 0 0 0 .168-.253.78.78 0 0 0 .056-.298v-1.837h.55v2.177l-.012.017ZM881.109 347.578c0-.381 0-.693-.025-.975h.492l.025.512a1.2 1.2 0 0 1 .457-.44c.189-.102.403-.151.618-.142.73 0 1.28.611 1.28 1.521 0 1.074-.66 1.607-1.374 1.607a1.061 1.061 0 0 1-.932-.471v1.64h-.541v-3.252Zm.541.8c.002.074.01.148.025.221a.84.84 0 0 0 .82.636c.579 0 .92-.472.92-1.157 0-.598-.321-1.111-.899-1.111a.942.942 0 0 0-.866.898v.513ZM884.935 346.604l.661 1.767c.07.197.144.434.193.611.057-.181.119-.41.193-.624l.599-1.754h.578l-.82 2.132c-.411 1.025-.661 1.553-1.038 1.873a1.499 1.499 0 0 1-.673.353l-.136-.459c.176-.058.339-.148.48-.267.2-.163.359-.371.464-.607a.4.4 0 0 0 .045-.131.471.471 0 0 0-.037-.143l-1.116-2.76h.599l.008.009ZM888.619 345.738v.861h.788v.41h-.788v1.615c0 .369.106.582.41.582.108.002.215-.01.32-.037l.025.41c-.157.055-.323.08-.489.074a.767.767 0 0 1-.595-.229 1.104 1.104 0 0 1-.213-.779v-1.64h-.468v-.41h.476v-.73l.534-.127ZM890.421 348.198a.955.955 0 0 0 .28.758.949.949 0 0 0 .759.279c.281.007.561-.046.82-.155l.094.41a2.45 2.45 0 0 1-1.005.184 1.397 1.397 0 0 1-1.407-.918 1.38 1.38 0 0 1-.078-.591c0-.902.537-1.615 1.415-1.615.985 0 1.231.861 1.231 1.41.006.085.006.17 0 .255h-2.121l.012-.017Zm1.609-.41a.77.77 0 0 0-.18-.616.783.783 0 0 0-.583-.269.906.906 0 0 0-.841.885h1.604ZM893.364 347.532c0-.352 0-.656-.024-.935h.492v.587h.025a.905.905 0 0 1 .82-.656.582.582 0 0 1 .156 0v.512a.844.844 0 0 0-.188 0 .767.767 0 0 0-.735.697 1.549 1.549 0 0 0-.024.254v1.595h-.542v-2.05l.02-.004ZM893.123 338.384a1.391 1.391 0 1 1-1.448-1.304 1.372 1.372 0 0 1 1.448 1.304Z"/><path fill="#F37726" d="M885.011 354.44c-3.693 0-6.938-1.324-8.616-3.28a9.184 9.184 0 0 0 8.616 5.996 9.184 9.184 0 0 0 8.616-5.996c-1.674 1.956-4.907 3.28-8.616 3.28ZM885.011 341.716c3.693 0 6.938 1.324 8.616 3.28a9.184 9.184 0 0 0-8.616-5.996 9.184 9.184 0 0 0-8.616 5.996c1.678-1.96 4.907-3.28 8.616-3.28Z"/><path fill="#fff" d="M879.926 358.245a1.753 1.753 0 0 1-3.447.537 1.753 1.753 0 0 1 .659-1.837c.28-.207.615-.325.963-.34a1.736 1.736 0 0 1 1.825 1.64ZM876.813 341.268a1.01 1.01 0 0 1-.766-1.697 1.016 1.016 0 0 1 1.089-.257 1.01 1.01 0 0 1 .657.904 1.02 1.02 0 0 1-.98 1.05Z"/><path fill="#FF4B4B" d="m916.851 350.346-4.09-2.162-7.099-3.752c-.007-.007-.02-.007-.026-.007-.259-.123-.525.136-.428.395l3.617 9.227.001.002.011.027c.149.344.473.557.825.64.03.007.051.013.087.02a.946.946 0 0 0 .149.023h.005a.086.086 0 0 0 .016.001h.007l.014.001h.009l.015.001c4.582.499 9.204.499 13.785 0 .055 0 .109-.003.161-.008l.049-.006.006-.001.034-.005.048-.009c.033-.007.047-.012.091-.027s.117-.042.163-.064.077-.043.115-.067c.048-.03.094-.061.138-.095.02-.015.034-.024.048-.038l-.008-.004-7.743-4.092Z"/><path fill="#7D353B" d="M928.05 344.435h-.006l-7.103 3.753 3.948 5.879 3.609-9.243v-.013a.312.312 0 0 0-.448-.376"/><path fill="#BD4043" d="M917.23 342.649a.454.454 0 0 0-.752 0l-3.716 5.536 4.09 2.162 7.75 4.096a1.871 1.871 0 0 0 .29-.378l-3.948-5.88-3.714-5.536Z"/><path fill="#F5C0C0" fill-rule="evenodd" d="M941.548 343.755v3.2h-.784v-3.2h-3.139v9.625h3.139v-4.823h.784v4.823h3.14v-9.625h-3.14Zm3.92 0v9.625h7.064v-4.014h-3.141v2.39h-.784v-3.199h3.925v-4.802h-7.064Zm3.139 3.2v-1.596h.784v1.596h-.784Zm8.628 0v-3.2h3.14v2.406l-1.569 1.606 1.569 1.606v4.007h-3.14v-4.823h-.784v4.823h-3.139v-4.007l1.57-1.606-1.57-1.606v-2.406h3.139v3.2h.784Z" clip-rule="evenodd"/><rect width="160" height="160" x="263" y="120.5" fill="#fff" fill-opacity=".12" rx="24"/><path fill="#FF6492" d="M377.253 180.608 343.006 160.5v13.913l34.247 20.022v-13.827Z"/><path fill="#141446" d="m377.253 194.432-10.274 6.065-23.98-14.054-13.701 8-10.277-5.622 23.985-14.411 34.247 20.022Z"/><path fill="#A14474" d="m329.298 194.449-10.277-5.622v11.676l10.277-6.054Z"/><path fill="#141446" d="M308.746 220.391 343 200.5l34.254 19.891L343 240.5l-34.254-20.109Z"/><path fill="#FF6492" d="M377.254 206.585 343 186.228v14.27l34.254 19.892v-13.805Z"/><path fill="#7A77FF" d="M319.022 200.5v-11.676l23.984-14.411V160.5l-34.26 20.108v39.784L343 200.5v-14.27l-23.978 14.27Z"/><path fill="#F6F6F8" d="M511.224 311.192a5.765 5.765 0 0 1-2.848-.72 5.452 5.452 0 0 1-2.032-1.968 5.431 5.431 0 0 1-.736-2.784c0-1.013.251-1.936.752-2.768a5.412 5.412 0 0 1 2.032-1.984 5.765 5.765 0 0 1 2.848-.72c1.003 0 1.909.235 2.72.704a5.003 5.003 0 0 1 1.936 1.92l-1.632 1.152c-.747-1.184-1.755-1.776-3.024-1.776a3.48 3.48 0 0 0-1.76.448 3.263 3.263 0 0 0-1.216 1.248c-.288.523-.432 1.12-.432 1.792 0 .672.144 1.269.432 1.792a3.29 3.29 0 0 0 1.216 1.232 3.585 3.585 0 0 0 1.76.432c1.269 0 2.277-.592 3.024-1.776l1.632 1.152a5.003 5.003 0 0 1-1.92 1.936c-.821.459-1.739.688-2.752.688Zm10.108 0a3.972 3.972 0 0 1-1.888-.448 3.396 3.396 0 0 1-1.312-1.296c-.31-.555-.464-1.2-.464-1.936v-4.432h2.16v4.608c0 .459.138.827.416 1.104.288.277.65.416 1.088.416.416 0 .762-.139 1.04-.416.288-.277.432-.645.432-1.104v-4.608h2.16v4.432c0 .736-.16 1.381-.48 1.936-.31.555-.742.987-1.296 1.296a3.85 3.85 0 0 1-1.856.448Zm10.385-8.288c.736 0 1.392.181 1.968.544a3.668 3.668 0 0 1 1.376 1.472c.331.629.496 1.339.496 2.128 0 .789-.165 1.499-.496 2.128a3.784 3.784 0 0 1-1.376 1.488c-.576.352-1.232.528-1.968.528a3.454 3.454 0 0 1-1.472-.304 2.758 2.758 0 0 1-1.072-.864V311h-1.984v-12h2.16v4.848c.576-.629 1.365-.944 2.368-.944Zm-.4 6.32c.587 0 1.072-.197 1.456-.592.395-.405.592-.939.592-1.6 0-.651-.197-1.173-.592-1.568a1.954 1.954 0 0 0-1.456-.608c-.555 0-1.029.192-1.424.576-.384.373-.576.912-.576 1.616 0 .715.197 1.259.592 1.632a2.01 2.01 0 0 0 1.408.544Zm13.374-1.456h-5.552c.128.501.384.891.768 1.168.395.267.88.4 1.456.4.779 0 1.515-.267 2.208-.8l.896 1.472c-.938.789-1.994 1.184-3.168 1.184-.821 0-1.562-.181-2.224-.544a4.018 4.018 0 0 1-1.552-1.488 4.12 4.12 0 0 1-.56-2.112c0-.768.182-1.467.544-2.096a3.958 3.958 0 0 1 1.488-1.504 4.206 4.206 0 0 1 2.112-.544c.726 0 1.371.165 1.936.496.566.32 1.003.763 1.312 1.328.32.555.48 1.173.48 1.856 0 .384-.048.779-.144 1.184Zm-3.664-3.12c-.458 0-.858.144-1.2.432-.341.288-.57.677-.688 1.168h3.6c-.01-.491-.181-.88-.512-1.168-.33-.288-.73-.432-1.2-.432Zm15.869 4.976h-4.32l-.592 1.376h-2.32l4.72-10.752h.72L559.808 311h-2.32l-.592-1.376Zm-2.16-5.344-1.408 3.568h2.816l-1.408-3.568Zm6.674-3.84h3.968c.736 0 1.392.144 1.968.432a3.123 3.123 0 0 1 1.344 1.2c.331.512.496 1.104.496 1.776 0 .672-.165 1.269-.496 1.792-.32.512-.768.912-1.344 1.2-.576.288-1.232.432-1.968.432h-1.808V311h-2.16v-10.56Zm3.968 4.944c.502 0 .891-.139 1.168-.416.288-.288.432-.661.432-1.12 0-.448-.144-.811-.432-1.088-.288-.277-.677-.416-1.168-.416h-1.808v3.04h1.808Zm5.692-4.944h2.16V311h-2.16v-10.56Z"/><rect width="160" height="40" x="460" y="131.859" fill="#DA3466" rx="20"/><path fill="#fff" d="M527.165 158.079c2.52 0 4.42-1.48 4.42-3.82 0-1.82-1.16-2.84-3.16-3.76l-1.48-.68c-1.08-.52-1.84-.88-1.84-1.88 0-1.08.94-1.6 2-1.6 1.14 0 2.1.58 2.78 1.6l1.48-1.14c-.8-1.36-2.32-2.36-4.26-2.36-2.28 0-4.16 1.4-4.16 3.58 0 1.94 1.48 2.92 3.08 3.66l1.46.68c1.16.54 1.94.94 1.94 1.98 0 1.14-.92 1.84-2.28 1.84-1.64 0-2.7-1-3.46-2.1l-1.5 1.14c1 1.74 2.78 2.86 4.98 2.86Zm24.552 2.2c-3.1 0-5.34-1.16-7.14-3.54a6.704 6.704 0 0 0 2.78-5.48c0-3.86-3.12-6.82-6.94-6.82-3.84 0-6.92 2.96-6.92 6.82 0 3.86 3.06 6.82 6.92 6.82.84 0 1.66-.14 2.42-.42 2.06 2.92 5.04 4.44 8.54 4.44.84 0 1.58-.1 2.22-.22v-1.68c-.68.04-1.36.08-1.88.08Zm-16.02-9.04c0-2.8 2-4.86 4.72-4.86 2.74 0 4.76 2.08 4.76 4.88 0 2.82-2.04 4.88-4.74 4.88-2.74 0-4.74-2.06-4.74-4.9Zm14.205 6.62h8.16v-1.9h-6.04v-11.3h-2.12v13.2Z"/><rect width="160" height="40" x="460" y="179.859" fill="#DA3466" rx="20"/><path fill="#fff" d="m528.962 205.859-3.96-5.44c1.58-.6 2.54-1.98 2.54-3.72 0-2.4-1.8-4.04-4.48-4.04h-4.82v13.2h2.12v-5.1h2.42l3.76 5.1h2.42Zm-8.6-11.32h2.66c1.5 0 2.34.9 2.34 2.18 0 1.26-.84 2.16-2.34 2.16h-2.66v-4.34Zm10.497 11.32h8.92v-1.9h-6.8v-4.18h4.94v-1.84h-4.94v-3.38h6.56v-1.9h-8.68v13.2Zm15.427.22c2.52 0 4.42-1.48 4.42-3.82 0-1.82-1.16-2.84-3.16-3.76l-1.48-.68c-1.08-.52-1.84-.88-1.84-1.88 0-1.08.94-1.6 2-1.6 1.14 0 2.1.58 2.78 1.6l1.48-1.14c-.8-1.36-2.32-2.36-4.26-2.36-2.28 0-4.16 1.4-4.16 3.58 0 1.94 1.48 2.92 3.08 3.66l1.46.68c1.16.54 1.94.94 1.94 1.98 0 1.14-.92 1.84-2.28 1.84-1.64 0-2.7-1-3.46-2.1l-1.5 1.14c1 1.74 2.78 2.86 4.98 2.86Zm10.232-.22h2.12v-11.3h4.46v-1.9h-11.02v1.9h4.44v11.3Z"/><rect width="160" height="40" x="460" y="227.859" fill="#DA3466" rx="20"/><path fill="#fff" d="M506.336 254.079c2.72 0 5.02-1.42 6.16-3.48v-3.72h-6.18v1.88h4.06v1.42c-.8 1.2-2.16 2-3.94 2-2.88 0-4.86-2.1-4.86-4.94 0-2.78 1.92-4.86 4.74-4.86 1.72 0 3.02.78 3.94 2.08l1.54-1.26c-1.24-1.74-3.14-2.76-5.46-2.76-3.9 0-6.96 2.96-6.96 6.82 0 3.86 3.04 6.82 6.96 6.82Zm13.442-10.14c-1.12 0-2.16.48-2.86 1.38v-1.28h-1.96v9.82h2.1v-5.24c0-1.82 1.32-2.72 2.88-2.72h.64v-1.86c-.22-.06-.46-.1-.8-.1Zm6.264-.12c-1.66 0-3.12.66-4.14 2.1l1.22 1.24c.78-.92 1.58-1.46 2.72-1.46 1.34 0 2.1.74 2.1 2.1v.64h-2.78c-2.2 0-3.62 1.08-3.62 2.8 0 1.7 1.36 2.84 3.42 2.84 1.36 0 2.44-.48 3.14-1.32v1.1h1.96v-5.94c0-2.72-1.66-4.1-4.02-4.1Zm-.64 8.64c-.96 0-1.72-.44-1.72-1.3 0-.8.62-1.2 1.74-1.2h2.52v.18c0 1.34-1.16 2.32-2.54 2.32Zm12.963-8.64c-1.44 0-2.7.58-3.42 1.6v-1.38h-1.96v13.42h2.1v-4.8c.76.9 1.94 1.42 3.28 1.42 2.8 0 4.82-2.2 4.82-5.14 0-2.92-2.02-5.12-4.82-5.12Zm-.34 8.34c-1.48 0-2.96-1-2.96-3.22 0-2.24 1.5-3.2 2.96-3.2 1.7 0 3 1.32 3 3.22 0 1.9-1.32 3.2-3 3.2Zm12.517-8.34c-1.2 0-2.18.44-2.84 1.2v-6.16h-2.1v15h2.1v-5.84c0-1.34.94-2.28 2.24-2.28 1.3 0 2.14.92 2.14 2.28v5.84h2.1v-6.14c0-2.3-1.38-3.9-3.64-3.9Zm24.124 12.46c-3.1 0-5.34-1.16-7.14-3.54a6.704 6.704 0 0 0 2.78-5.48c0-3.86-3.12-6.82-6.94-6.82-3.84 0-6.92 2.96-6.92 6.82 0 3.86 3.06 6.82 6.92 6.82.84 0 1.66-.14 2.42-.42 2.06 2.92 5.04 4.44 8.54 4.44.84 0 1.58-.1 2.22-.22v-1.68c-.68.04-1.36.08-1.88.08Zm-16.02-9.04c0-2.8 2-4.86 4.72-4.86 2.74 0 4.76 2.08 4.76 4.88 0 2.82-2.04 4.88-4.74 4.88-2.74 0-4.74-2.06-4.74-4.9Zm14.205 6.62h8.16v-1.9h-6.04v-11.3h-2.12v13.2Z"/><defs><linearGradient id="a" x1="-19.368" x2="852.758" y1="210.514" y2="210.514" gradientUnits="userSpaceOnUse"><stop stop-color="#fff" stop-opacity="0"/><stop offset=".51" stop-color="#FF6492"/><stop offset="1" stop-color="#FF6492" stop-opacity="0"/></linearGradient><linearGradient id="c" x1="788.5" x2="755.5" y1="83.859" y2="127.859" gradientUnits="userSpaceOnUse"><stop stop-color="#222234"/><stop offset="1" stop-color="#32293C"/></linearGradient><linearGradient id="d" x1="799" x2="799" y1="59.5" y2="126.693" gradientUnits="userSpaceOnUse"><stop stop-color="#FF6492"/><stop offset="1" stop-color="#FF6492" stop-opacity="0"/></linearGradient><linearGradient id="g" x1="861.5" x2="799" y1="205.859" y2="204.359" gradientUnits="userSpaceOnUse"><stop stop-color="#222234"/><stop offset="1" stop-color="#32293C"/></linearGradient><linearGradient id="j" x1="799" x2="751" y1="330.359" y2="277.359" gradientUnits="userSpaceOnUse"><stop stop-color="#222234"/><stop offset="1" stop-color="#32293C"/></linearGradient><clipPath id="e"><path fill="#fff" d="M873.625 97.654h22.4v20.3h-22.4z"/></clipPath><clipPath id="f"><path fill="#fff" d="M938.5 99.318h21v18.55h-21z"/></clipPath><clipPath id="h"><path fill="#fff" d="M954.85 206.201h20.3v19.6h-20.3z"/></clipPath><filter id="b" width="124" height="124" x="737" y="17.5" color-interpolation-filters="sRGB" filterUnits="userSpaceOnUse"><feFlood flood-opacity="0" result="BackgroundImageFix"/><feGaussianBlur in="BackgroundImageFix" stdDeviation="7"/><feComposite in2="SourceAlpha" operator="in" result="effect1_backgroundBlur_887_47871"/><feBlend in="SourceGraphic" in2="effect1_backgroundBlur_887_47871" result="shape"/></filter><filter id="i" width="124" height="124.055" x="737" y="258.359" color-interpolation-filters="sRGB" filterUnits="userSpaceOnUse"><feFlood flood-opacity="0" result="BackgroundImageFix"/><feGaussianBlur in="BackgroundImageFix" stdDeviation="7"/><feComposite in2="SourceAlpha" operator="in" result="effect1_backgroundBlur_887_47871"/><feBlend in="SourceGraphic" in2="effect1_backgroundBlur_887_47871" result="shape"/></filter></defs></svg>