<svg xmlns="http://www.w3.org/2000/svg" width="327" height="193" fill="none"><g clip-path="url(#a)"><path fill="url(#b)" fill-rule="evenodd" d="M68.79 77.224c77.122-6.01 147.283-24.071 204.111-50.645v132.763c-56.828-26.573-126.989-44.634-204.112-50.644V77.224Z" clip-rule="evenodd" opacity=".3"/><g filter="url(#c)"><rect width="46.235" height="46.235" x="205" y="11.573" fill="url(#d)" rx="5.779"/><circle cx="211.85" cy="18.866" r=".963" fill="#FF646D"/><circle cx="215.221" cy="18.866" r=".963" fill="#FBBC05"/><circle cx="218.592" cy="18.866" r=".963" fill="#67C082"/><path fill="url(#e)" d="m212.707 30.62 7.627 2.435 7.627-1.776 7.628 6.058 7.941-12.278v22.154a2.89 2.89 0 0 1-2.889 2.89h-25.044a2.89 2.89 0 0 1-2.89-2.89V30.62Z"/></g><path fill="#F6F6F8" d="M263.553 22.284h4.44v1.22h-3.09v1.34h2.27v1.15h-2.27v1.67h3.21v1.22h-4.56v-6.6Zm11.502 1.54c.58 0 1.037.183 1.37.55.334.36.5.84.5 1.44v3.07h-1.35v-2.88c0-.294-.08-.527-.24-.7-.16-.174-.373-.26-.64-.26a.896.896 0 0 0-.66.26.93.93 0 0 0-.25.67v2.91h-1.35v-2.88c0-.294-.08-.527-.24-.7-.16-.174-.373-.26-.64-.26-.273 0-.493.086-.66.26-.166.173-.25.406-.25.7v2.88h-1.35v-4.95h1.24v.44a1.68 1.68 0 0 1 .61-.4c.24-.1.504-.15.79-.15.654 0 1.144.236 1.47.71.194-.22.43-.394.71-.52.287-.127.6-.19.94-.19Zm6.086 0c.46 0 .87.113 1.23.34.367.22.654.526.86.92.207.393.31.836.31 1.33 0 .493-.103.936-.31 1.33a2.354 2.354 0 0 1-.86.93c-.36.22-.77.33-1.23.33-.34 0-.646-.064-.92-.19a1.726 1.726 0 0 1-.67-.54v.61h-1.24v-7.5h1.35v3.03c.36-.394.854-.59 1.48-.59Zm-.25 3.95c.367 0 .67-.124.91-.37.247-.254.37-.587.37-1 0-.407-.123-.734-.37-.98a1.22 1.22 0 0 0-.91-.38c-.346 0-.643.12-.89.36-.24.233-.36.57-.36 1.01 0 .446.124.786.37 1.02.247.226.54.34.88.34Zm8.359-.91h-3.47c.08.313.24.556.48.73.247.166.55.25.91.25.487 0 .947-.167 1.38-.5l.56.92c-.586.493-1.246.74-1.98.74-.513 0-.976-.114-1.39-.34a2.51 2.51 0 0 1-.97-.93c-.233-.4-.35-.84-.35-1.32 0-.48.114-.917.34-1.31.227-.4.537-.714.93-.94.4-.227.84-.34 1.32-.34.454 0 .857.103 1.21.31.354.2.627.476.82.83.2.346.3.733.3 1.16 0 .24-.03.486-.09.74Zm-2.29-1.95c-.286 0-.536.09-.75.27-.213.18-.356.423-.43.73h2.25c-.006-.307-.113-.55-.32-.73a1.1 1.1 0 0 0-.75-.27Zm8.484-3.53v7.5h-1.24v-.61a1.63 1.63 0 0 1-.67.54c-.274.126-.58.19-.92.19-.46 0-.874-.11-1.24-.33a2.381 2.381 0 0 1-.85-.93 2.811 2.811 0 0 1-.31-1.33c0-.494.103-.937.31-1.33a2.31 2.31 0 0 1 2.09-1.26c.626 0 1.12.196 1.48.59v-3.03h1.35Zm-2.58 6.39c.34 0 .633-.114.88-.34.246-.234.37-.574.37-1.02 0-.44-.124-.777-.37-1.01a1.22 1.22 0 0 0-.88-.36c-.36 0-.664.126-.91.38-.247.246-.37.573-.37.98 0 .413.12.746.36 1 .246.246.553.37.92.37Zm8.969-6.39v7.5h-1.24v-.61a1.63 1.63 0 0 1-.67.54c-.273.126-.58.19-.92.19-.46 0-.873-.11-1.24-.33a2.389 2.389 0 0 1-.85-.93 2.811 2.811 0 0 1-.31-1.33c0-.494.103-.937.31-1.33a2.312 2.312 0 0 1 2.09-1.26c.627 0 1.12.196 1.48.59v-3.03h1.35Zm-2.58 6.39c.34 0 .633-.114.88-.34.247-.234.37-.574.37-1.02 0-.44-.123-.777-.37-1.01a1.22 1.22 0 0 0-.88-.36c-.36 0-.663.126-.91.38-.247.246-.37.573-.37.98 0 .413.12.746.36 1 .247.246.553.37.92.37Zm8.569-.91h-3.47c.08.313.24.556.48.73.247.166.55.25.91.25.487 0 .947-.167 1.38-.5l.56.92c-.587.493-1.247.74-1.98.74-.513 0-.977-.114-1.39-.34a2.503 2.503 0 0 1-1.32-2.25c0-.48.113-.917.34-1.31.227-.4.537-.714.93-.94.4-.227.84-.34 1.32-.34.453 0 .857.103 1.21.31.353.2.627.476.82.83.2.346.3.733.3 1.16 0 .24-.03.486-.09.74Zm-2.29-1.95c-.287 0-.537.09-.75.27-.213.18-.357.423-.43.73h2.25c-.007-.307-.113-.55-.32-.73a1.104 1.104 0 0 0-.75-.27Zm8.483-3.53v7.5h-1.24v-.61c-.166.233-.39.413-.67.54-.273.126-.58.19-.92.19-.46 0-.873-.11-1.24-.33a2.389 2.389 0 0 1-.85-.93 2.823 2.823 0 0 1-.31-1.33c0-.494.104-.937.31-1.33a2.312 2.312 0 0 1 2.09-1.26c.627 0 1.12.196 1.48.59v-3.03h1.35Zm-2.58 6.39c.34 0 .634-.114.88-.34.247-.234.37-.574.37-1.02 0-.44-.123-.777-.37-1.01-.246-.24-.54-.36-.88-.36-.36 0-.663.126-.91.38-.246.246-.37.573-.37.98 0 .413.12.746.36 1 .247.246.554.37.92.37Zm-45.942 9.05c.647 0 1.16.183 1.54.55.387.36.58.883.58 1.57v2.94h-1.24v-.48c-.18.186-.4.333-.66.44a2.17 2.17 0 0 1-.85.16c-.527 0-.943-.137-1.25-.41a1.384 1.384 0 0 1-.46-1.07c0-.447.167-.797.5-1.05.34-.26.797-.39 1.37-.39h1.24v-.22c0-.274-.08-.487-.24-.64-.153-.154-.38-.23-.68-.23-.253 0-.48.056-.68.17-.2.106-.41.276-.63.51l-.7-.83c.573-.68 1.293-1.02 2.16-1.02Zm-.27 4.19c.293 0 .54-.09.74-.27.2-.187.3-.424.3-.71v-.06h-1.06c-.22 0-.39.043-.51.13-.12.08-.18.203-.18.37 0 .166.063.3.19.4.133.093.307.14.52.14Zm6.479-4.19c.574 0 1.027.183 1.36.55.334.36.5.84.5 1.44v3.07h-1.34v-2.89c0-.287-.086-.517-.26-.69-.166-.18-.386-.27-.66-.27-.273 0-.5.09-.68.27-.173.173-.26.403-.26.69v2.89h-1.35v-4.95h1.24v.45c.174-.174.384-.31.63-.41.254-.1.527-.15.82-.15Zm5.29 0c.646 0 1.16.183 1.54.55.386.36.58.883.58 1.57v2.94h-1.24v-.48c-.18.186-.4.333-.66.44-.254.106-.537.16-.85.16-.527 0-.944-.137-1.25-.41a1.384 1.384 0 0 1-.46-1.07c0-.447.166-.797.5-1.05.34-.26.796-.39 1.37-.39h1.24v-.22c0-.274-.08-.487-.24-.64-.154-.154-.38-.23-.68-.23-.254 0-.48.056-.68.17-.2.106-.41.276-.63.51l-.7-.83c.573-.68 1.293-1.02 2.16-1.02Zm-.27 4.19c.293 0 .54-.09.74-.27.2-.187.3-.424.3-.71v-.06h-1.06c-.22 0-.39.043-.51.13-.12.08-.18.203-.18.37 0 .166.063.3.19.4.133.093.306.14.52.14Zm3.789-6.63h1.35v7.5h-1.35v-7.5Zm7.586 2.55-2.37 5.38c-.227.513-.497.89-.81 1.13-.314.24-.7.36-1.16.36-.28 0-.57-.04-.87-.12v-1.13c.306.026.5.04.58.04.24 0 .443-.047.61-.14.166-.094.306-.27.42-.53l.15-.34-1.9-4.65h1.43l1.21 3.25 1.29-3.25h1.42Zm4.066 3.82v1.13c-.32.08-.63.12-.93.12-.627 0-1.114-.154-1.46-.46-.347-.314-.52-.78-.52-1.4v-2.07h-.78v-1.14h.78v-1.25h1.35v1.25h1.4v1.14h-1.4v1.95c0 .28.073.48.22.6.146.113.38.17.7.17.08 0 .293-.014.64-.04Zm1.08-3.82h1.35v4.95h-1.35v-4.95Zm.67-.97a.847.847 0 0 1-.61-.24.785.785 0 0 1-.25-.59c0-.24.083-.44.25-.6.166-.16.37-.24.61-.24s.443.08.61.24c.173.16.26.36.26.6 0 .233-.087.43-.26.59a.848.848 0 0 1-.61.24Zm4.485 6.04c-.486 0-.933-.114-1.34-.34-.4-.234-.72-.547-.96-.94-.233-.4-.35-.84-.35-1.32 0-.48.117-.917.35-1.31.24-.394.56-.704.96-.93a2.71 2.71 0 0 1 1.34-.34c.487 0 .914.11 1.28.33.367.213.657.51.87.89l-.94.73a1.867 1.867 0 0 0-.52-.53 1.164 1.164 0 0 0-.67-.19c-.38 0-.693.13-.94.39-.24.253-.36.573-.36.96 0 .393.12.72.36.98.247.253.56.38.94.38.254 0 .474-.06.66-.18.194-.127.37-.304.53-.53l.94.72a2.37 2.37 0 0 1-.88.9c-.366.22-.79.33-1.27.33Zm4.848 0c-.434 0-.827-.084-1.18-.25a2.38 2.38 0 0 1-.87-.71l.68-.82c.433.446.896.67 1.39.67.18 0 .33-.034.45-.1a.345.345 0 0 0 .18-.31.27.27 0 0 0-.12-.24 1.788 1.788 0 0 0-.39-.21l-.53-.22c-.454-.187-.794-.394-1.02-.62-.22-.227-.33-.524-.33-.89 0-.467.166-.83.5-1.09.34-.26.78-.39 1.32-.39.74 0 1.333.246 1.78.74l-.68.83c-.334-.314-.704-.47-1.11-.47a.717.717 0 0 0-.39.09.29.29 0 0 0-.14.26c0 .093.036.17.11.23.08.06.216.13.41.21l.48.2c.48.193.83.403 1.05.63.226.22.34.513.34.88 0 .493-.184.88-.55 1.16-.36.28-.82.42-1.38.42Z"/><rect width="46.235" height="46.235" x="228.119" y="69.608" fill="url(#f)" rx="5.779"/><path fill="#FF6492" fill-rule="evenodd" d="M266.65 92.725c0 8.512-6.901 15.412-15.412 15.412-8.512 0-15.412-6.9-15.412-15.412 0-8.511 6.9-15.411 15.412-15.411 8.511 0 15.412 6.9 15.412 15.411Zm-5.161-.07c0 5.701-4.589 10.323-10.251 10.323-5.661 0-10.25-4.622-10.25-10.323 0-5.701 4.589-10.323 10.25-10.323 5.662 0 10.251 4.622 10.251 10.323Z" clip-rule="evenodd"/><path fill="#0F0F23" fill-opacity=".7" fill-rule="evenodd" d="M261.698 104.044a15.37 15.37 0 0 0 4.952-11.319c0-8.511-6.9-15.411-15.412-15.411v5.018h.001c5.661 0 10.25 4.622 10.25 10.323a10.326 10.326 0 0 1-3.351 7.634l3.56 3.755Z" clip-rule="evenodd"/><path fill="#F6F6F8" d="M286.138 93.381c.366.133.653.34.86.62.206.273.31.61.31 1.01a1.85 1.85 0 0 1-1.05 1.7c-.327.16-.7.24-1.12.24h-2.94v-6.6h2.34c.4 0 .76.08 1.08.24.32.154.566.37.74.65.18.273.27.59.27.95 0 .48-.164.877-.49 1.19Zm-2.64-1.87v1.51h.93c.273 0 .483-.067.63-.2a.723.723 0 0 0 .23-.56c0-.233-.077-.416-.23-.55-.147-.133-.357-.2-.63-.2h-.93Zm1.54 4.28c.293 0 .523-.073.69-.22.166-.147.25-.35.25-.61 0-.253-.084-.453-.25-.6-.167-.153-.397-.23-.69-.23h-1.54v1.66h1.54Zm3.47-5.44h1.35v6.6h-1.35v-6.6Zm8.955 5.47v1.13c-.32.08-.63.12-.93.12-.627 0-1.114-.153-1.46-.46-.347-.313-.52-.78-.52-1.4v-2.07h-.78v-1.14h.78v-1.25h1.35v1.25h1.4v1.14h-1.4v1.95c0 .28.073.48.22.6.146.114.38.17.7.17.08 0 .293-.013.64-.04Zm3.342 1.24c-.487 0-.933-.113-1.34-.34a2.62 2.62 0 0 1-.95-.94c-.233-.4-.35-.837-.35-1.31 0-.473.117-.907.35-1.3.233-.4.553-.713.96-.94.407-.227.853-.34 1.34-.34.487 0 .933.117 1.34.35.407.227.727.537.96.93.24.393.36.827.36 1.3a2.578 2.578 0 0 1-1.33 2.25c-.407.227-.853.34-1.34.34Zm.01-1.24a1.2 1.2 0 0 0 .91-.38c.247-.253.37-.573.37-.96 0-.386-.123-.71-.37-.97-.24-.26-.543-.39-.91-.39-.373 0-.68.13-.92.39-.24.254-.36.577-.36.97 0 .387.12.707.36.96.24.254.547.38.92.38Zm6.174 1.24c-.487 0-.933-.113-1.34-.34a2.62 2.62 0 0 1-.95-.94c-.233-.4-.35-.837-.35-1.31 0-.473.117-.907.35-1.3.233-.4.553-.713.96-.94.407-.227.853-.34 1.34-.34.487 0 .933.117 1.34.35.407.227.727.537.96.93.24.393.36.827.36 1.3a2.578 2.578 0 0 1-1.33 2.25c-.407.227-.853.34-1.34.34Zm.01-1.24a1.2 1.2 0 0 0 .91-.38c.247-.253.37-.573.37-.96 0-.386-.123-.71-.37-.97-.24-.26-.543-.39-.91-.39-.373 0-.68.13-.92.39-.24.254-.36.577-.36.97 0 .387.12.707.36.96.24.254.547.38.92.38Zm3.814-6.37h1.35v7.5h-1.35v-7.5Zm4.386 7.62a2.73 2.73 0 0 1-1.18-.25 2.381 2.381 0 0 1-.87-.71l.68-.82c.433.447.896.67 1.39.67.18 0 .33-.033.45-.1a.345.345 0 0 0 .18-.31.27.27 0 0 0-.12-.24 1.788 1.788 0 0 0-.39-.21l-.53-.22c-.454-.186-.794-.393-1.02-.62-.22-.227-.33-.523-.33-.89 0-.466.166-.83.5-1.09.34-.26.78-.39 1.32-.39.74 0 1.333.247 1.78.74l-.68.83c-.334-.313-.704-.47-1.11-.47a.717.717 0 0 0-.39.09.29.29 0 0 0-.14.26c0 .094.036.17.11.23.08.06.216.13.41.21l.48.2c.48.194.83.404 1.05.63.226.22.34.513.34.88 0 .493-.184.88-.55 1.16-.36.28-.82.42-1.38.42Z"/><g filter="url(#g)"><rect width="46.235" height="46.235" x="205" y="127.575" fill="url(#h)" rx="5.779"/><path stroke="#fff" stroke-opacity=".24" stroke-width=".482" d="M228.119 127.601v46.235M205.002 150.692h46.235"/><circle cx="224.478" cy="164.428" r=".886" fill="#FF83A8"/><circle cx="216.947" cy="165.757" r=".886" fill="#FF83A8"/><circle cx="222.261" cy="160.44" r=".886" fill="#FF83A8"/><circle cx="232.011" cy="152.908" r=".886" fill="#FF83A8"/><circle cx="239.099" cy="155.123" r=".886" fill="#FF83A8"/><circle cx="230.238" cy="136.07" r=".886" fill="#FF83A8"/><circle cx="239.986" cy="142.274" r=".886" fill="#FF83A8"/><circle cx="236.443" cy="145.818" r=".886" fill="#FF83A8"/><circle cx="242.201" cy="135.627" r=".886" fill="#FF83A8"/><circle cx="224.919" cy="156.009" r=".886" fill="#FF83A8"/><circle cx="224.919" cy="152.465" r=".886" fill="#FF83A8"/><circle cx="239.099" cy="165.757" r=".886" fill="#FF83A8"/><circle cx="234.226" cy="143.16" r=".886" fill="#FF83A8"/><circle cx="239.986" cy="151.135" r=".886" fill="#FF83A8"/><circle cx="232.011" cy="148.034" r=".886" fill="#FF83A8"/><circle cx="239.099" cy="138.729" r=".886" fill="#FF83A8"/><circle cx="229.794" cy="156.895" r=".886" fill="#FF83A8"/><circle cx="221.376" cy="154.68" r=".886" fill="#FF83A8"/><circle cx="228.023" cy="150.692" r=".886" fill="#FF83A8"/><circle cx="235.997" cy="149.806" r=".886" fill="#FF83A8"/><circle cx="239.099" cy="148.034" r=".886" fill="#FF83A8"/><circle cx="232.453" cy="159.997" r=".886" fill="#FF83A8"/><circle cx="220.046" cy="163.099" r=".886" fill="#FF83A8"/><circle cx="225.808" cy="160.44" r=".886" fill="#FF83A8"/><circle cx="225.363" cy="148.034" r=".886" fill="#FF83A8"/><circle cx="242.646" cy="144.489" r=".886" fill="#FF83A8"/><circle cx="235.554" cy="155.123" r=".886" fill="#FF83A8"/><circle cx="211.185" cy="139.172" r=".886" fill="#FF83A8"/><circle cx="217.388" cy="161.326" r=".886" fill="#FF83A8"/><circle cx="212.072" cy="163.985" r=".886" fill="#FF83A8"/></g><path fill="#F6F6F8" d="M263.553 140.504h2.16c.7 0 1.323.137 1.87.41.547.274.97.657 1.27 1.15.307.494.46 1.067.46 1.72 0 .64-.153 1.214-.46 1.72-.3.5-.723.894-1.27 1.18-.547.28-1.17.42-1.87.42h-2.16v-6.6Zm2.15 5.38c.44 0 .827-.086 1.16-.26.34-.173.6-.416.78-.73.187-.32.28-.69.28-1.11 0-.64-.203-1.143-.61-1.51-.4-.366-.937-.55-1.61-.55h-.8v4.16h.8Zm6.794-3.84c.647 0 1.16.184 1.54.55.387.36.58.884.58 1.57v2.94h-1.24v-.48c-.18.187-.4.334-.66.44a2.16 2.16 0 0 1-.85.16c-.526 0-.943-.136-1.25-.41a1.386 1.386 0 0 1-.46-1.07c0-.446.167-.796.5-1.05.34-.26.797-.39 1.37-.39h1.24v-.22c0-.273-.08-.486-.24-.64-.153-.153-.38-.23-.68-.23-.253 0-.48.057-.68.17-.2.107-.41.277-.63.51l-.7-.83c.574-.68 1.294-1.02 2.16-1.02Zm-.27 4.19c.294 0 .54-.09.74-.27.2-.186.3-.423.3-.71v-.06h-1.06c-.22 0-.39.044-.51.13-.12.08-.18.204-.18.37 0 .167.064.3.19.4.134.094.307.14.52.14Zm6.969-.26v1.13c-.32.08-.63.12-.93.12-.626 0-1.113-.153-1.46-.46-.346-.313-.52-.78-.52-1.4v-2.07h-.78v-1.14h.78v-1.25h1.35v1.25h1.4v1.14h-1.4v1.95c0 .28.074.48.22.6.147.114.38.17.7.17.08 0 .294-.013.64-.04Zm3.111-3.93c.646 0 1.16.184 1.54.55.386.36.58.884.58 1.57v2.94h-1.24v-.48c-.18.187-.4.334-.66.44-.254.107-.537.16-.85.16-.527 0-.944-.136-1.25-.41a1.383 1.383 0 0 1-.46-1.07c0-.446.166-.796.5-1.05.34-.26.796-.39 1.37-.39h1.24v-.22c0-.273-.08-.486-.24-.64-.154-.153-.38-.23-.68-.23-.254 0-.48.057-.68.17-.2.107-.41.277-.63.51l-.7-.83c.573-.68 1.293-1.02 2.16-1.02Zm-.27 4.19c.293 0 .54-.09.74-.27.2-.186.3-.423.3-.71v-.06h-1.06c-.22 0-.39.044-.51.13-.12.08-.18.204-.18.37 0 .167.063.3.19.4.133.094.306.14.52.14Zm8.722-4.19c.646 0 1.16.184 1.54.55.386.36.58.884.58 1.57v2.94h-1.24v-.48c-.18.187-.4.334-.66.44-.254.107-.537.16-.85.16-.527 0-.944-.136-1.25-.41a1.383 1.383 0 0 1-.46-1.07c0-.446.166-.796.5-1.05.34-.26.796-.39 1.37-.39h1.24v-.22c0-.273-.08-.486-.24-.64-.154-.153-.38-.23-.68-.23-.254 0-.48.057-.68.17-.2.107-.41.277-.63.51l-.7-.83c.573-.68 1.293-1.02 2.16-1.02Zm-.27 4.19c.293 0 .54-.09.74-.27.2-.186.3-.423.3-.71v-.06h-1.06c-.22 0-.39.044-.51.13-.12.08-.18.204-.18.37 0 .167.063.3.19.4.133.094.306.14.52.14Zm6.619-4.19c.46 0 .87.114 1.23.34a2.3 2.3 0 0 1 .86.92c.206.387.31.827.31 1.32 0 .494-.104.937-.31 1.33a2.36 2.36 0 0 1-.86.93c-.36.227-.77.34-1.23.34-.3 0-.577-.05-.83-.15a1.841 1.841 0 0 1-.65-.45v2.28h-1.35v-6.75h1.24v.62a1.64 1.64 0 0 1 .66-.54c.28-.126.59-.19.93-.19Zm-.25 3.95c.36 0 .663-.123.91-.37.246-.253.37-.583.37-.99 0-.413-.124-.743-.37-.99a1.202 1.202 0 0 0-.91-.38c-.34 0-.634.117-.88.35-.247.227-.37.564-.37 1.01 0 .44.12.78.36 1.02.246.234.543.35.89.35Zm6.639-3.95c.46 0 .87.114 1.23.34.367.22.653.527.86.92.207.387.31.827.31 1.32 0 .494-.103.937-.31 1.33a2.353 2.353 0 0 1-.86.93c-.36.227-.77.34-1.23.34-.3 0-.577-.05-.83-.15a1.85 1.85 0 0 1-.65-.45v2.28h-1.35v-6.75h1.24v.62c.167-.233.387-.413.66-.54.28-.126.59-.19.93-.19Zm-.25 3.95c.36 0 .663-.123.91-.37.247-.253.37-.583.37-.99 0-.413-.123-.743-.37-.99a1.2 1.2 0 0 0-.91-.38c-.34 0-.633.117-.88.35-.247.227-.37.564-.37 1.01 0 .44.12.78.36 1.02.247.234.543.35.89.35Zm5.409 1.23c-.433 0-.827-.083-1.18-.25a2.394 2.394 0 0 1-.87-.71l.68-.82c.433.447.897.67 1.39.67.18 0 .33-.033.45-.1a.344.344 0 0 0 .18-.31.27.27 0 0 0-.12-.24 1.74 1.74 0 0 0-.39-.21l-.53-.22c-.453-.186-.793-.393-1.02-.62-.22-.226-.33-.523-.33-.89 0-.466.167-.83.5-1.09.34-.26.78-.39 1.32-.39.74 0 1.333.247 1.78.74l-.68.83c-.333-.313-.703-.47-1.11-.47a.717.717 0 0 0-.39.09.292.292 0 0 0-.14.26c0 .094.037.17.11.23.08.06.217.13.41.21l.48.2c.48.194.83.404 1.05.63.227.22.34.514.34.88 0 .494-.183.88-.55 1.16-.36.28-.82.42-1.38.42Zm-39.693 10.32a23.62 23.62 0 0 1-.88 1.21l1.11 1.35h-1.58l-.4-.49c-.533.407-1.13.61-1.79.61-.427 0-.803-.076-1.13-.23a1.841 1.841 0 0 1-.77-.65c-.18-.28-.27-.6-.27-.96 0-.353.097-.673.29-.96.2-.293.547-.633 1.04-1.02-.2-.26-.347-.503-.44-.73a1.902 1.902 0 0 1-.14-.71c0-.473.157-.853.47-1.14.313-.293.727-.44 1.24-.44.487 0 .883.137 1.19.41.307.267.46.614.46 1.04 0 .314-.087.607-.26.88-.167.267-.44.557-.82.87l.97 1.17c.207-.293.397-.566.57-.82.12-.16.24-.33.36-.51l1.04.74-.26.38Zm-3.27-3.01a.496.496 0 0 0-.35.12.426.426 0 0 0-.13.33c0 .114.027.227.08.34.06.107.163.25.31.43l.02-.01c.193-.153.33-.286.41-.4.08-.12.12-.246.12-.38a.4.4 0 0 0-.12-.31c-.08-.08-.193-.12-.34-.12Zm.74 4.13-1.14-1.38c-.273.227-.457.407-.55.54a.71.71 0 0 0-.14.43c0 .234.083.424.25.57.167.14.383.21.65.21.32 0 .63-.123.93-.37Zm9.461-3.62c.573 0 1.027.184 1.36.55.333.36.5.84.5 1.44v3.07h-1.34v-2.89c0-.286-.087-.516-.26-.69a.858.858 0 0 0-.66-.27c-.273 0-.5.09-.68.27-.173.174-.26.404-.26.69v2.89h-1.35v-4.95h1.24v.45c.173-.173.383-.31.63-.41.253-.1.527-.15.82-.15Zm5.62 5.17a2.7 2.7 0 0 1-1.34-.34 2.61 2.61 0 0 1-.95-.94c-.234-.4-.35-.836-.35-1.31 0-.473.116-.906.35-1.3.233-.4.553-.713.96-.94a2.71 2.71 0 0 1 1.34-.34c.486 0 .933.117 1.34.35.406.227.726.537.96.93.24.394.36.827.36 1.3a2.577 2.577 0 0 1-1.33 2.25c-.407.227-.854.34-1.34.34Zm.01-1.24c.366 0 .67-.126.91-.38.246-.253.37-.573.37-.96 0-.386-.124-.71-.37-.97-.24-.26-.544-.39-.91-.39-.374 0-.68.13-.92.39-.24.254-.36.577-.36.97 0 .387.12.707.36.96.24.254.546.38.92.38Zm6.994 0v1.13c-.32.08-.63.12-.93.12-.627 0-1.114-.153-1.46-.46-.347-.313-.52-.78-.52-1.4v-2.07h-.78v-1.14h.78v-1.25h1.35v1.25h1.4v1.14h-1.4v1.95c0 .28.073.48.22.6.146.114.38.17.7.17.08 0 .293-.013.64-.04Zm5.532-.89h-3.47c.08.314.24.557.48.73.247.167.55.25.91.25.487 0 .947-.166 1.38-.5l.56.92c-.587.494-1.247.74-1.98.74-.513 0-.977-.113-1.39-.34a2.494 2.494 0 0 1-.97-.93c-.233-.4-.35-.84-.35-1.32 0-.48.113-.916.34-1.31.227-.4.537-.713.93-.94.4-.226.84-.34 1.32-.34.453 0 .857.104 1.21.31.353.2.627.477.82.83.2.347.3.734.3 1.16 0 .24-.03.487-.09.74Zm-2.29-1.95c-.287 0-.537.09-.75.27a1.33 1.33 0 0 0-.43.73h2.25c-.007-.306-.113-.55-.32-.73a1.104 1.104 0 0 0-.75-.27Zm6.363-1.09c.46 0 .87.114 1.23.34.367.22.654.527.86.92.207.394.31.837.31 1.33 0 .494-.103.937-.31 1.33a2.346 2.346 0 0 1-.86.93c-.36.22-.77.33-1.23.33a2.16 2.16 0 0 1-.92-.19 1.715 1.715 0 0 1-.67-.54v.61h-1.24v-7.5h1.35v3.03c.36-.393.854-.59 1.48-.59Zm-.25 3.95c.367 0 .67-.123.91-.37.247-.253.37-.586.37-1 0-.406-.123-.733-.37-.98a1.22 1.22 0 0 0-.91-.38c-.346 0-.643.12-.89.36-.24.234-.36.57-.36 1.01 0 .447.124.787.37 1.02.247.227.54.34.88.34Zm6.17 1.22a2.7 2.7 0 0 1-1.34-.34 2.61 2.61 0 0 1-.95-.94c-.234-.4-.35-.836-.35-1.31 0-.473.116-.906.35-1.3.233-.4.553-.713.96-.94a2.71 2.71 0 0 1 1.34-.34c.486 0 .933.117 1.34.35.406.227.726.537.96.93.24.394.36.827.36 1.3a2.577 2.577 0 0 1-1.33 2.25c-.407.227-.854.34-1.34.34Zm.01-1.24c.366 0 .67-.126.91-.38.246-.253.37-.573.37-.96 0-.386-.124-.71-.37-.97-.24-.26-.544-.39-.91-.39-.374 0-.68.13-.92.39-.24.254-.36.577-.36.97 0 .387.12.707.36.96.24.254.546.38.92.38Zm6.173 1.24c-.486 0-.933-.113-1.34-.34a2.618 2.618 0 0 1-.95-.94c-.233-.4-.35-.836-.35-1.31 0-.473.117-.906.35-1.3.234-.4.554-.713.96-.94.407-.226.854-.34 1.34-.34.487 0 .934.117 1.34.35.407.227.727.537.96.93.24.394.36.827.36 1.3 0 .474-.12.91-.36 1.31a2.563 2.563 0 0 1-.97.94 2.7 2.7 0 0 1-1.34.34Zm.01-1.24c.367 0 .67-.126.91-.38.247-.253.37-.573.37-.96 0-.386-.123-.71-.37-.97-.24-.26-.543-.39-.91-.39-.373 0-.68.13-.92.39-.24.254-.36.577-.36.97 0 .387.12.707.36.96.24.254.547.38.92.38Zm7.154 1.13-1.99-2.74v2.74h-1.35v-7.5h1.35v4.66l1.78-2.11h1.6l-1.86 2.19 2.01 2.76h-1.54Zm3.956.12a2.73 2.73 0 0 1-1.18-.25 2.394 2.394 0 0 1-.87-.71l.68-.82c.434.447.897.67 1.39.67.18 0 .33-.033.45-.1a.344.344 0 0 0 .18-.31.27.27 0 0 0-.12-.24 1.74 1.74 0 0 0-.39-.21l-.53-.22c-.453-.186-.793-.393-1.02-.62-.22-.226-.33-.523-.33-.89 0-.466.167-.83.5-1.09.34-.26.78-.39 1.32-.39.74 0 1.334.247 1.78.74l-.68.83c-.333-.313-.703-.47-1.11-.47a.722.722 0 0 0-.39.09.292.292 0 0 0-.14.26c0 .094.037.17.11.23.08.06.217.13.41.21l.48.2c.48.194.83.404 1.05.63.227.22.34.514.34.88 0 .494-.183.88-.55 1.16-.36.28-.82.42-1.38.42Z"/><rect width="67.789" height="67.789" x="1" y="59.277" fill="#fff" fill-opacity=".12" rx="10.168"/><path fill="#FF6492" d="m49.407 84.744-14.51-8.52v5.895l14.51 8.483v-5.858Z"/><path fill="#141446" d="m49.406 90.602-4.353 2.57-10.16-5.955-5.805 3.39-4.354-2.382 10.162-6.106 14.51 8.483Z"/><path fill="#A14474" d="m29.088 90.606-4.354-2.381v4.946l4.354-2.565Z"/><path fill="#141446" d="m20.38 101.599 14.514-8.428 14.512 8.428-14.512 8.52-14.513-8.52Z"/><path fill="#FF6492" d="m49.407 95.75-14.512-8.625v6.046l14.512 8.428V95.75Z"/><path fill="#7A77FF" d="M24.735 93.171v-4.946l10.161-6.106v-5.895l-14.515 8.52v16.855l14.513-8.428v-6.046l-10.16 6.046Z"/><path fill="#F6F6F8" d="M103.425 145.12c-.647 0-1.24-.15-1.78-.45-.533-.3-.957-.71-1.27-1.23a3.394 3.394 0 0 1-.46-1.74c0-.633.157-1.21.47-1.73.313-.527.737-.94 1.27-1.24.54-.3 1.133-.45 1.78-.45.627 0 1.193.147 1.7.44.513.287.917.687 1.21 1.2l-1.02.72c-.467-.74-1.097-1.11-1.89-1.11-.407 0-.773.093-1.1.28-.32.187-.573.447-.76.78-.18.327-.27.7-.27 1.12 0 .42.09.793.27 1.12.187.327.44.583.76.77.327.18.693.27 1.1.27.793 0 1.423-.37 1.89-1.11l1.02.72a3.129 3.129 0 0 1-1.2 1.21 3.463 3.463 0 0 1-1.72.43Zm6.317 0c-.433 0-.826-.093-1.18-.28a2.127 2.127 0 0 1-.82-.81c-.193-.347-.29-.75-.29-1.21v-2.77h1.35v2.88c0 .287.087.517.26.69.18.173.407.26.68.26.26 0 .477-.087.65-.26.18-.173.27-.403.27-.69v-2.88h1.35v2.77c0 .46-.1.863-.3 1.21a2.05 2.05 0 0 1-.81.81 2.4 2.4 0 0 1-1.16.28Zm6.491-5.18c.46 0 .87.113 1.23.34.367.22.654.527.86.92.207.393.31.837.31 1.33 0 .493-.103.937-.31 1.33a2.36 2.36 0 0 1-.86.93c-.36.22-.77.33-1.23.33a2.16 2.16 0 0 1-.92-.19 1.733 1.733 0 0 1-.67-.54v.61h-1.24v-7.5h1.35v3.03c.36-.393.854-.59 1.48-.59Zm-.25 3.95c.367 0 .67-.123.91-.37.247-.253.37-.587.37-1 0-.407-.123-.733-.37-.98a1.22 1.22 0 0 0-.91-.38c-.346 0-.643.12-.89.36-.24.233-.36.57-.36 1.01 0 .447.124.787.37 1.02.247.227.54.34.88.34Zm8.359-.91h-3.47c.08.313.24.557.48.73.247.167.55.25.91.25.487 0 .947-.167 1.38-.5l.56.92c-.586.493-1.246.74-1.98.74-.513 0-.976-.113-1.39-.34a2.515 2.515 0 0 1-.97-.93c-.233-.4-.35-.84-.35-1.32 0-.48.114-.917.34-1.31.227-.4.537-.713.93-.94.4-.227.84-.34 1.32-.34.454 0 .857.103 1.21.31.354.2.627.477.82.83.2.347.3.733.3 1.16 0 .24-.03.487-.09.74Zm-2.29-1.95c-.286 0-.536.09-.75.27-.213.18-.356.423-.43.73h2.25c-.006-.307-.113-.55-.32-.73a1.1 1.1 0 0 0-.75-.27Zm9.918 3.11h-2.7l-.37.86h-1.45l2.95-6.72h.45l2.94 6.72h-1.45l-.37-.86Zm-1.35-3.34-.88 2.23h1.76l-.88-2.23Zm4.172-2.4h2.48c.46 0 .87.09 1.23.27.36.173.64.423.84.75.206.32.31.69.31 1.11 0 .42-.104.793-.31 1.12-.2.32-.48.57-.84.75-.36.18-.77.27-1.23.27h-1.13V145h-1.35v-6.6Zm2.48 3.09c.313 0 .556-.087.73-.26.18-.18.27-.413.27-.7 0-.28-.09-.507-.27-.68-.18-.173-.424-.26-.73-.26h-1.13v1.9h1.13Zm3.557-3.09h1.35v6.6h-1.35v-6.6Z"/><rect width="67.789" height="21.08" x="88" y="56" fill="#DA3466" rx="10.54"/><path fill="#fff" d="M113.552 70.683c1.638 0 2.873-.962 2.873-2.483 0-1.183-.754-1.846-2.054-2.444l-.962-.442c-.702-.338-1.196-.572-1.196-1.222 0-.702.611-1.04 1.3-1.04.741 0 1.365.377 1.807 1.04l.962-.741c-.52-.884-1.508-1.534-2.769-1.534-1.482 0-2.704.91-2.704 2.327 0 1.261.962 1.898 2.002 2.379l.949.442c.754.351 1.261.611 1.261 1.287 0 .741-.598 1.196-1.482 1.196-1.066 0-1.755-.65-2.249-1.365l-.975.741c.65 1.131 1.807 1.859 3.237 1.859Zm15.958 1.43c-2.015 0-3.471-.754-4.641-2.301a4.358 4.358 0 0 0 1.807-3.562c0-2.509-2.028-4.433-4.511-4.433-2.496 0-4.498 1.924-4.498 4.433s1.989 4.433 4.498 4.433a4.55 4.55 0 0 0 1.573-.273c1.339 1.898 3.276 2.886 5.551 2.886.546 0 1.027-.065 1.443-.143v-1.092c-.442.026-.884.052-1.222.052Zm-10.413-5.876c0-1.82 1.3-3.159 3.068-3.159 1.781 0 3.094 1.352 3.094 3.172 0 1.833-1.326 3.172-3.081 3.172-1.781 0-3.081-1.339-3.081-3.185Zm9.234 4.303h5.304v-1.235h-3.926V61.96h-1.378v8.58Z"/><rect width="67.789" height="21.08" x="88" y="80.469" fill="#DA3466" rx="10.54"/><path fill="#fff" d="m114.72 95.01-2.574-3.537c1.027-.39 1.651-1.287 1.651-2.418 0-1.56-1.17-2.626-2.912-2.626h-3.133v8.58h1.378v-3.314h1.573l2.444 3.315h1.573Zm-5.59-7.359h1.729c.975 0 1.521.586 1.521 1.418 0 .819-.546 1.403-1.521 1.403h-1.729v-2.82Zm6.823 7.359h5.798v-1.236h-4.42v-2.716h3.211V89.86h-3.211v-2.197h4.264V86.43h-5.642v8.58Zm10.027.142c1.638 0 2.873-.962 2.873-2.483 0-1.182-.754-1.846-2.054-2.444l-.962-.441c-.702-.339-1.196-.573-1.196-1.223 0-.702.611-1.04 1.3-1.04.741 0 1.365.377 1.807 1.04l.962-.74c-.52-.885-1.508-1.534-2.769-1.534-1.482 0-2.704.91-2.704 2.326 0 1.261.962 1.898 2.002 2.38l.949.442c.754.35 1.261.61 1.261 1.287 0 .74-.598 1.196-1.482 1.196-1.066 0-1.755-.65-2.249-1.366l-.975.741c.65 1.131 1.807 1.86 3.237 1.86Zm6.651-.142h1.378v-7.346h2.899V86.43h-7.163v1.234h2.886v7.346Z"/><rect width="67.789" height="21.08" x="88" y="104.939" fill="#DA3466" rx="10.54"/><path fill="#fff" d="M100.013 119.622c1.768 0 3.263-.923 4.004-2.262v-2.418H100v1.222h2.639v.923c-.52.78-1.404 1.3-2.561 1.3-1.872 0-3.16-1.365-3.16-3.211 0-1.807 1.249-3.159 3.082-3.159 1.118 0 1.963.507 2.561 1.352l1.001-.819c-.806-1.131-2.041-1.794-3.549-1.794-2.535 0-4.524 1.924-4.524 4.433s1.976 4.433 4.524 4.433Zm8.737-6.591c-.728 0-1.404.312-1.859.897v-.832h-1.274v6.383h1.365v-3.406c0-1.183.858-1.768 1.872-1.768h.416v-1.209a1.881 1.881 0 0 0-.52-.065Zm4.072-.078c-1.079 0-2.028.429-2.691 1.365l.793.806c.507-.598 1.027-.949 1.768-.949.871 0 1.365.481 1.365 1.365v.416h-1.807c-1.43 0-2.353.702-2.353 1.82 0 1.105.884 1.846 2.223 1.846.884 0 1.586-.312 2.041-.858v.715h1.274v-3.861c0-1.768-1.079-2.665-2.613-2.665Zm-.416 5.616c-.624 0-1.118-.286-1.118-.845 0-.52.403-.78 1.131-.78h1.638v.117c0 .871-.754 1.508-1.651 1.508Zm8.426-5.616c-.936 0-1.755.377-2.223 1.04v-.897h-1.274v8.723h1.365v-3.12c.494.585 1.261.923 2.132.923 1.82 0 3.133-1.43 3.133-3.341 0-1.898-1.313-3.328-3.133-3.328Zm-.221 5.421c-.962 0-1.924-.65-1.924-2.093 0-1.456.975-2.08 1.924-2.08 1.105 0 1.95.858 1.95 2.093 0 1.235-.858 2.08-1.95 2.08Zm8.136-5.421c-.78 0-1.417.286-1.846.78v-4.004h-1.365v9.75h1.365v-3.796c0-.871.611-1.482 1.456-1.482s1.391.598 1.391 1.482v3.796h1.365v-3.991c0-1.495-.897-2.535-2.366-2.535Zm15.68 8.099c-2.015 0-3.471-.754-4.641-2.301a4.358 4.358 0 0 0 1.807-3.562c0-2.509-2.028-4.433-4.511-4.433-2.496 0-4.498 1.924-4.498 4.433s1.989 4.433 4.498 4.433a4.55 4.55 0 0 0 1.573-.273c1.339 1.898 3.276 2.886 5.551 2.886.546 0 1.027-.065 1.443-.143V121c-.442.026-.884.052-1.222.052Zm-10.413-5.876c0-1.82 1.3-3.159 3.068-3.159 1.781 0 3.094 1.352 3.094 3.172 0 1.833-1.326 3.172-3.081 3.172-1.781 0-3.081-1.339-3.081-3.185Zm9.234 4.303h5.304v-1.235h-3.926v-7.345h-1.378v8.58Z"/></g><defs><linearGradient id="b" x1="-118.634" x2="250.87" y1="97.414" y2="97.414" gradientUnits="userSpaceOnUse"><stop stop-color="#fff" stop-opacity="0"/><stop offset=".51" stop-color="#FF6492"/><stop offset="1" stop-color="#FF6492" stop-opacity="0"/></linearGradient><linearGradient id="d" x1="223.061" x2="207.167" y1="36.791" y2="57.982" gradientUnits="userSpaceOnUse"><stop stop-color="#222234"/><stop offset="1" stop-color="#32293C"/></linearGradient><linearGradient id="e" x1="228.119" x2="228.119" y1="25.059" y2="57.42" gradientUnits="userSpaceOnUse"><stop stop-color="#FF6492"/><stop offset="1" stop-color="#FF6492" stop-opacity="0"/></linearGradient><linearGradient id="f" x1="258.22" x2="228.119" y1="95.547" y2="94.825" gradientUnits="userSpaceOnUse"><stop stop-color="#222234"/><stop offset="1" stop-color="#32293C"/></linearGradient><linearGradient id="h" x1="228.118" x2="205" y1="155.508" y2="129.983" gradientUnits="userSpaceOnUse"><stop stop-color="#222234"/><stop offset="1" stop-color="#32293C"/></linearGradient><filter id="c" width="59.72" height="59.72" x="198.257" y="4.831" color-interpolation-filters="sRGB" filterUnits="userSpaceOnUse"><feFlood flood-opacity="0" result="BackgroundImageFix"/><feGaussianBlur in="BackgroundImageFix" stdDeviation="3.371"/><feComposite in2="SourceAlpha" operator="in" result="effect1_backgroundBlur_887_47599"/><feBlend in="SourceGraphic" in2="effect1_backgroundBlur_887_47599" result="shape"/></filter><filter id="g" width="59.721" height="59.746" x="198.257" y="120.832" color-interpolation-filters="sRGB" filterUnits="userSpaceOnUse"><feFlood flood-opacity="0" result="BackgroundImageFix"/><feGaussianBlur in="BackgroundImageFix" stdDeviation="3.371"/><feComposite in2="SourceAlpha" operator="in" result="effect1_backgroundBlur_887_47599"/><feBlend in="SourceGraphic" in2="effect1_backgroundBlur_887_47599" result="shape"/></filter><clipPath id="a"><path fill="#fff" d="M0 0h327v193H0z"/></clipPath></defs></svg>