<svg width="174" height="32" viewBox="0 0 174 32" fill="none" xmlns="http://www.w3.org/2000/svg">
<g clip-path="url(#clip0_981_3085)">
<path d="M173.721 11.494L169.469 22.7831C169.293 23.2784 169.072 23.7565 168.808 24.2113C168.601 24.5684 168.34 24.891 168.033 25.1674C167.754 25.4123 167.425 25.5944 167.068 25.7015C166.665 25.8174 166.248 25.8729 165.828 25.8661C165.311 25.8742 164.796 25.8047 164.3 25.6599C163.861 25.5233 163.439 25.3368 163.043 25.1042L164.096 22.8425C164.308 22.9688 164.532 23.0723 164.766 23.1513C164.982 23.2289 165.209 23.2704 165.438 23.2742C165.665 23.2862 165.89 23.2327 166.088 23.1202C166.282 22.9735 166.436 22.7788 166.532 22.5553L162.202 11.494H165.527L168.045 18.999L170.461 11.494H173.721Z" fill="black"/>
<path d="M161.538 22.5114H158.4V16.3732C158.4 15.6325 158.242 15.0736 157.925 14.6969C157.608 14.3201 157.156 14.131 156.569 14.1296C155.976 14.1296 155.512 14.318 155.174 14.6948C154.837 15.0716 154.668 15.6311 154.667 16.3732V22.5192H151.527V16.3732C151.527 15.6325 151.369 15.0736 151.052 14.6969C150.735 14.3201 150.282 14.131 149.693 14.1296C149.1 14.1296 148.635 14.318 148.298 14.6948C147.961 15.0716 147.792 15.6311 147.793 16.3732V22.5192H144.657V11.4938H147.794V13.061C147.976 12.8258 148.172 12.6028 148.383 12.3933C148.598 12.1787 148.837 11.9888 149.095 11.8272C149.368 11.6577 149.663 11.5265 149.973 11.4372C150.967 11.1684 152.027 11.2781 152.944 11.7451C153.474 12.0466 153.901 12.4979 154.172 13.0418C154.611 12.5 155.159 12.0553 155.781 11.7362C156.411 11.4326 157.103 11.281 157.803 11.2939C158.972 11.2939 159.887 11.6365 160.548 12.3217C161.209 13.007 161.539 14.0144 161.539 15.3439L161.538 22.5114Z" fill="black"/>
<path d="M140.338 16.1379C140.242 15.4394 139.994 14.8739 139.596 14.4414C139.197 14.0089 138.669 13.7942 138.014 13.7973C137.353 13.7973 136.82 14.0109 136.413 14.4383C136.007 14.8656 135.742 15.4354 135.619 16.1476L140.338 16.1379ZM143.394 17.3131C143.394 17.4639 143.394 17.5943 143.383 17.7043C143.373 17.8142 143.366 17.9435 143.352 18.094H135.654C135.805 18.8062 136.118 19.3443 136.592 19.7083C137.066 20.0723 137.655 20.2542 138.357 20.254C138.839 20.2622 139.317 20.1713 139.762 19.9869C140.232 19.7702 140.664 19.4792 141.041 19.1253L142.841 20.706C142.327 21.3427 141.679 21.8585 140.942 22.2167C140.199 22.5804 139.325 22.7623 138.32 22.7623C137.533 22.7697 136.753 22.6303 136.018 22.3511C135.331 22.0899 134.705 21.6898 134.181 21.1759C133.661 20.6644 133.25 20.0536 132.973 19.38C132.677 18.6452 132.531 17.8589 132.544 17.0672V17.0268C132.54 16.2679 132.677 15.515 132.948 14.8056C133.202 14.1297 133.583 13.5084 134.072 12.9756C134.573 12.4337 135.182 12.0034 135.862 11.7129C136.541 11.4223 137.274 11.2781 138.014 11.2897C138.935 11.2897 139.733 11.4543 140.407 11.7834C141.06 12.095 141.635 12.5475 142.091 13.1082C142.544 13.6749 142.88 14.3247 143.082 15.0207C143.297 15.7521 143.405 16.5105 143.404 17.2726L143.394 17.3131Z" fill="black"/>
<path d="M128.242 17.0258V16.9841C128.248 16.56 128.175 16.1384 128.027 15.7405C127.896 15.3873 127.7 15.0614 127.449 14.779C127.215 14.5156 126.926 14.3052 126.603 14.1618C126.11 13.9438 125.56 13.886 125.031 13.9966C124.504 14.1073 124.023 14.3807 123.66 14.7782C123.404 15.0593 123.204 15.3861 123.071 15.7414C122.922 16.1425 122.849 16.5679 122.857 16.9956V17.0372C122.851 17.4614 122.923 17.8829 123.071 18.2808C123.204 18.6375 123.404 18.9657 123.66 19.2475C124.025 19.6424 124.505 19.914 125.032 20.0245C125.56 20.135 126.109 20.079 126.603 19.8641C126.926 19.7208 127.214 19.5106 127.449 19.2475C127.7 18.9635 127.896 18.6358 128.027 18.2808C128.177 17.8798 128.251 17.4545 128.245 17.0266L128.242 17.0258ZM131.338 22.5146H128.201V20.9313C127.823 21.4437 127.35 21.8789 126.807 22.2134C126.264 22.5503 125.579 22.7185 124.753 22.7177C124.108 22.7179 123.47 22.592 122.874 22.3469C122.265 22.0978 121.717 21.7231 121.265 21.2475C120.777 20.7292 120.396 20.1215 120.141 19.4583C119.845 18.6805 119.701 17.8539 119.716 17.0226V16.9807C119.701 16.149 119.844 15.3221 120.139 14.5438C120.394 13.8825 120.772 13.2754 121.254 12.7546C121.702 12.2773 122.248 11.9019 122.854 11.6541C123.457 11.408 124.103 11.2824 124.754 11.2844C125.593 11.2844 126.284 11.449 126.828 11.7781C127.346 12.085 127.809 12.474 128.201 12.9298V7.5058H131.338V22.5146Z" fill="black"/>
<path d="M115.609 18.6293V18.0739C115.314 17.9445 115.006 17.8446 114.69 17.7758C114.334 17.6985 113.971 17.6606 113.607 17.6626C112.932 17.6626 112.402 17.7929 112.017 18.0535C111.831 18.1759 111.679 18.3445 111.578 18.5429C111.476 18.7412 111.429 18.9624 111.439 19.1847V19.2255C111.43 19.4162 111.468 19.6063 111.551 19.7785C111.634 19.9508 111.759 20.0999 111.913 20.2126C112.235 20.4455 112.643 20.5618 113.153 20.5618C113.896 20.5618 114.491 20.3838 114.939 20.0276C115.154 19.8641 115.327 19.6522 115.445 19.4091C115.562 19.1661 115.619 18.8989 115.613 18.6293H115.609ZM118.581 22.5148H115.547V21.3226C115.158 21.7503 114.688 22.0964 114.163 22.3407C113.627 22.5935 112.973 22.7202 112.202 22.721C111.702 22.7247 111.204 22.6526 110.726 22.5073C110.285 22.3731 109.874 22.1527 109.519 21.8588C109.174 21.5688 108.895 21.2071 108.704 20.7991C108.497 20.3442 108.394 19.8488 108.405 19.3493V19.3088C108.391 18.7692 108.504 18.2339 108.735 17.7459C108.949 17.315 109.265 16.9416 109.654 16.6571C110.076 16.3555 110.553 16.1359 111.057 16.0098C111.648 15.8608 112.255 15.789 112.863 15.7961C113.358 15.79 113.853 15.8312 114.34 15.919C114.756 16.0006 115.166 16.1106 115.567 16.2482V16.0632C115.567 15.4054 115.368 14.9068 114.969 14.5675C114.57 14.2282 113.978 14.0569 113.194 14.0537C112.657 14.0468 112.12 14.0985 111.594 14.2076C111.099 14.3208 110.612 14.4686 110.138 14.6499L109.354 12.2662C109.969 12.0013 110.604 11.7869 111.254 11.6252C112.039 11.4472 112.842 11.3644 113.647 11.3785C115.368 11.3785 116.619 11.7965 117.401 12.6327C118.183 13.4688 118.576 14.6339 118.581 16.1281L118.581 22.5148Z" fill="black"/>
<path d="M108.096 20.7466C107.572 21.328 106.954 21.818 106.268 22.1964C105.579 22.5738 104.685 22.7621 103.586 22.7613C102.796 22.7684 102.013 22.6146 101.284 22.3096C100.604 22.0286 99.9858 21.6158 99.4667 21.0951C98.9472 20.5745 98.5371 19.9563 98.2596 19.2765C97.9707 18.5751 97.8246 17.8233 97.8305 17.0651V17.0246C97.8242 15.5141 98.4091 14.0606 99.4621 12.9734C99.9816 12.4453 100.602 12.0255 101.285 11.7385C102.028 11.432 102.824 11.2793 103.627 11.2899C104.673 11.2899 105.54 11.4544 106.228 11.7836C106.917 12.1129 107.534 12.5738 108.044 13.1403L106.116 15.1989C105.791 14.8544 105.42 14.5567 105.012 14.3143C104.579 14.0815 104.091 13.9675 103.598 13.9841C103.223 13.9777 102.852 14.0582 102.513 14.2193C102.19 14.3758 101.902 14.596 101.667 14.8666C101.421 15.1472 101.232 15.4716 101.109 15.8227C100.976 16.1955 100.91 16.5886 100.912 16.9841V17.0257C100.91 17.4313 100.976 17.8345 101.109 18.2179C101.233 18.5726 101.425 18.8994 101.677 19.1794C101.925 19.4534 102.227 19.6737 102.564 19.8267C102.928 19.9881 103.323 20.0687 103.721 20.0628C104.198 20.0731 104.67 19.9628 105.093 19.7423C105.516 19.5071 105.908 19.22 106.259 18.8876L108.096 20.7466Z" fill="black"/>
<path d="M93.7487 18.6292V18.0737C93.4531 17.9442 93.1452 17.8443 92.8293 17.7756C92.4736 17.6984 92.1104 17.6605 91.7463 17.6625C91.0722 17.6625 90.5422 17.7928 90.157 18.0534C89.9703 18.1758 89.8191 18.3445 89.7181 18.5429C89.6168 18.7413 89.5695 18.9624 89.58 19.1846V19.2254C89.5712 19.4163 89.61 19.6063 89.6928 19.7786C89.776 19.9508 89.9006 20.0999 90.0552 20.2125C90.372 20.4455 90.7854 20.5619 91.2952 20.5617C92.0373 20.5617 92.6324 20.3837 93.0801 20.0275C93.2951 19.8641 93.4687 19.6521 93.5857 19.4091C93.7031 19.166 93.761 18.8988 93.7542 18.6292H93.7487ZM96.7209 22.5147H93.6896V21.3225C93.3006 21.7499 92.8305 22.096 92.3059 22.3406C91.7687 22.5934 91.1153 22.7201 90.3453 22.7209C89.8453 22.7246 89.3477 22.6525 88.8696 22.5072C88.4278 22.373 88.0173 22.1526 87.6621 21.8587C87.3162 21.5686 87.0378 21.207 86.8469 20.799C86.6395 20.3441 86.5373 19.8487 86.5475 19.3492V19.3087C86.534 18.7692 86.6471 18.234 86.8778 17.7458C87.0923 17.3147 87.407 16.941 87.796 16.6559C88.2192 16.3542 88.6956 16.1346 89.2003 16.0085C89.7904 15.8595 90.3973 15.7876 91.0063 15.7949C91.5009 15.7888 91.9951 15.83 92.4821 15.9178C92.8981 15.9996 93.3082 16.11 93.709 16.248V16.0631C93.709 15.4052 93.5093 14.9067 93.1106 14.5674C92.7118 14.2281 92.1201 14.0537 91.3354 14.0441C90.7977 14.0373 90.2613 14.0888 89.735 14.1978C89.2404 14.3113 88.7547 14.4591 88.2808 14.6401L87.4957 12.2563C88.1102 11.9915 88.7454 11.7771 89.395 11.6153C90.1794 11.4386 90.9823 11.3569 91.786 11.3718C93.5063 11.3718 94.7573 11.7898 95.5396 12.6259C96.3222 13.4621 96.7154 14.6272 96.7196 16.1214L96.7209 22.5147Z" fill="black"/>
<path d="M77.8065 17.0258V16.9842C77.8116 16.5603 77.7389 16.139 77.5911 15.7415C77.4598 15.3881 77.2642 15.0619 77.0142 14.7791C76.7793 14.5156 76.4904 14.3052 76.1673 14.1619C75.674 13.9439 75.1241 13.8861 74.5961 13.9967C74.0678 14.1073 73.588 14.3807 73.2243 14.7782C72.9688 15.0593 72.769 15.3862 72.6355 15.7415C72.486 16.1426 72.4134 16.5679 72.421 16.9956V17.0373C72.4155 17.4614 72.4881 17.8829 72.6355 18.2808C72.7677 18.6376 72.9679 18.9658 73.2243 19.2475C73.5897 19.6424 74.0695 19.9141 74.597 20.0246C75.1245 20.1351 75.6736 20.079 76.1673 19.8642C76.4904 19.7207 76.7793 19.5101 77.0142 19.2467C77.2646 18.9625 77.4602 18.6348 77.5911 18.28C77.7398 17.8788 77.8129 17.4535 77.8065 17.0258ZM80.9029 22.5147H77.7656V20.9314C77.3875 21.4437 76.9141 21.8789 76.3713 22.2134C75.8278 22.5504 75.1431 22.7185 74.3174 22.7177C73.6737 22.7205 73.0355 22.5975 72.4391 22.3556C71.8309 22.1064 71.2827 21.7317 70.8304 21.2562C70.343 20.7378 69.9607 20.1301 69.706 19.4667C69.4112 18.6889 69.2676 17.8622 69.2833 17.031V16.9893C69.2676 16.1577 69.4112 15.3307 69.706 14.5525C69.9595 13.8898 70.3375 13.2812 70.8194 12.7589C71.2667 12.2817 71.8128 11.9063 72.4193 11.6584C73.022 11.4129 73.6674 11.2877 74.3182 11.29C75.157 11.29 75.8485 11.4545 76.3925 11.7836C76.9103 12.0905 77.3736 12.4795 77.7656 12.9353V7.50729H80.9029V22.5147Z" fill="black"/>
<path d="M68.0427 22.5149H64.9041V20.9531C64.7233 21.1885 64.5269 21.4116 64.3162 21.6208C64.1008 21.8351 63.8621 22.0246 63.6041 22.1857C63.3342 22.3542 63.0427 22.4858 62.7378 22.5769C62.3893 22.6772 62.0278 22.7255 61.6654 22.7205C60.4676 22.7205 59.5418 22.3573 58.8884 21.6308C58.235 20.9044 57.9081 19.9038 57.9081 18.6288V11.494H61.0454V17.6423C61.0454 18.3831 61.2105 18.9418 61.5408 19.3184C61.8715 19.695 62.3395 19.8834 62.9448 19.8836C63.5513 19.8836 64.0294 19.6951 64.3799 19.3184C64.7305 18.9415 64.9054 18.3829 64.9054 17.6423V11.494H68.0439L68.0427 22.5149Z" fill="black"/>
<path d="M53.696 17.0662V17.0258C53.6989 16.6289 53.6284 16.2349 53.489 15.8632C53.217 15.1384 52.6675 14.5506 51.9609 14.2288C51.5905 14.0614 51.1876 13.9772 50.7813 13.9821C50.3661 13.9743 49.9543 14.0552 49.5733 14.2193C49.2316 14.3698 48.9258 14.5904 48.6758 14.8666C48.4253 15.1451 48.2327 15.47 48.1081 15.8227C47.978 16.196 47.9138 16.5889 47.9185 16.9841V17.0258C47.9143 17.4226 47.9827 17.8168 48.1204 18.1892C48.3911 18.9094 48.9343 19.4953 49.6337 19.8213C50.0058 19.9905 50.4109 20.0749 50.8201 20.0683C51.2349 20.0761 51.6463 19.9956 52.0277 19.8322C52.3693 19.6812 52.6751 19.4606 52.9264 19.1846C53.1765 18.906 53.3691 18.5812 53.4937 18.2285C53.6284 17.8557 53.6968 17.4624 53.696 17.0662ZM56.7923 17.0258C56.7978 17.793 56.6432 18.5529 56.3379 19.2573C56.0418 19.9391 55.6139 20.5562 55.0788 21.0735C54.531 21.6026 53.8865 22.0218 53.1799 22.3084C52.4196 22.6155 51.6057 22.7691 50.7851 22.7602C49.9724 22.7674 49.1661 22.6173 48.4114 22.3182C47.709 22.0405 47.0683 21.6289 46.5247 21.1065C45.9938 20.5904 45.5689 19.9757 45.2749 19.2972C44.9704 18.593 44.8158 17.8334 44.8213 17.0665V17.026C44.8158 16.2586 44.9704 15.4984 45.2753 14.7937C45.5727 14.1125 46.0001 13.4956 46.5344 12.9775C47.0831 12.4494 47.728 12.0303 48.4342 11.7425C49.1936 11.4353 50.0071 11.2817 50.8273 11.2905C51.6399 11.283 52.4466 11.4332 53.2018 11.7327C53.9038 12.0098 54.5445 12.4206 55.0885 12.9421C55.6194 13.458 56.0435 14.0728 56.337 14.7515C56.642 15.4556 56.797 16.2152 56.7915 16.9821L56.7923 17.0258Z" fill="black"/>
<path d="M43.4781 7.5058H40.3397V22.5146H43.4781V7.5058Z" fill="black"/>
<path d="M39.2258 20.7467C38.699 21.3287 38.078 21.8188 37.3886 22.1964C36.7006 22.5738 35.8068 22.7621 34.7071 22.7613C33.917 22.7684 33.1337 22.6147 32.4053 22.3096C31.7247 22.0287 31.107 21.616 30.5879 21.0953C30.0689 20.5746 29.6589 19.9564 29.3819 19.2765C29.0922 18.5752 28.9463 17.8234 28.9528 17.0651V17.0246C28.9464 15.5144 29.5312 14.0611 30.5831 12.9734C31.1026 12.4454 31.7224 12.0255 32.4065 11.7385C33.1489 11.4317 33.9463 11.2791 34.7501 11.2899C35.7961 11.2899 36.6631 11.4545 37.3511 11.7836C38.04 12.1129 38.6572 12.5738 39.1676 13.1403L37.2447 15.1989C36.92 14.8542 36.5485 14.5565 36.1409 14.3143C35.7617 14.0949 35.2901 13.9852 34.7261 13.9852C34.3515 13.98 33.9807 14.0612 33.6428 14.2224C33.3204 14.3787 33.0329 14.5982 32.7977 14.8678C32.5527 15.1484 32.3635 15.4728 32.2401 15.8238C32.1086 16.1969 32.0432 16.5899 32.0469 16.9853V17.0269C32.0439 17.4325 32.1103 17.8357 32.2433 18.219C32.3673 18.5737 32.5604 18.9005 32.8116 19.1806C33.0598 19.4545 33.3617 19.6748 33.6988 19.8279C34.0624 19.9893 34.4569 20.0698 34.855 20.064C35.3324 20.0744 35.8047 19.9641 36.2277 19.7435C36.6507 19.5082 37.0424 19.2211 37.3938 18.8888L39.2258 20.7467Z" fill="black"/>
<path d="M12.2858 28.5504C9.83701 28.5504 7.78323 26.7328 7.42857 24.3803C5.20581 25.2508 2.59843 24.3878 1.37359 22.2755C0.148753 20.1632 0.703218 17.4816 2.57133 16C0.703218 14.5172 0.149619 11.8357 1.37417 9.7245C2.59872 7.61331 5.20581 6.74943 7.42916 7.61963C7.78323 5.26722 9.83701 3.44956 12.2858 3.44956C14.7346 3.44956 16.7881 5.26722 17.1431 7.61963C19.365 6.74915 21.9727 7.61217 23.1981 9.7245C24.4235 11.8368 23.8678 14.5172 22.0003 16C23.8678 17.4822 24.4223 20.1626 23.1975 22.2749C21.9727 24.3872 19.3652 25.25 17.1425 24.3798C16.7881 26.7316 14.7343 28.5504 12.2858 28.5504ZM7.81668 23.2732C7.93262 23.2733 8.04391 23.3188 8.1264 23.4C8.20893 23.4811 8.25602 23.5914 8.25754 23.7069C8.28635 25.8933 10.0925 27.6719 12.2867 27.6719C14.4809 27.6719 16.2882 25.8933 16.3156 23.7069C16.3166 23.6307 16.3374 23.5561 16.3761 23.4904C16.4147 23.4246 16.4699 23.37 16.5361 23.332C16.6024 23.2939 16.6774 23.2736 16.7539 23.2731C16.8304 23.2726 16.9057 23.292 16.9724 23.3292C18.8863 24.3976 21.3372 23.7275 22.4328 21.8352C23.5285 19.9429 22.8869 17.494 20.9995 16.3785C20.9338 16.3396 20.8794 16.2843 20.8416 16.2181C20.8038 16.1519 20.7839 16.077 20.7839 16.0009C20.7839 15.9247 20.8038 15.8498 20.8416 15.7836C20.8794 15.7174 20.9338 15.6621 20.9995 15.6232C22.8869 14.5063 23.5297 12.0579 22.4328 10.1665C21.336 8.27503 18.8863 7.60384 16.9707 8.67305C16.9039 8.71033 16.8286 8.72964 16.7522 8.72917C16.6757 8.72871 16.6006 8.70839 16.5344 8.67032C16.4681 8.63225 16.413 8.57764 16.3743 8.51193C16.3356 8.44621 16.3148 8.37158 16.3138 8.29539C16.2864 6.10928 14.4789 4.33039 12.285 4.33039C10.0911 4.33039 8.28407 6.10698 8.25666 8.29312C8.25573 8.36927 8.23495 8.4439 8.1963 8.50961C8.1577 8.57537 8.10254 8.62997 8.03631 8.66805C7.97008 8.70616 7.89507 8.72644 7.81858 8.7269C7.74209 8.72741 7.66683 8.70805 7.60014 8.67078C5.68531 7.60097 3.23507 8.27129 2.13796 10.1642C1.04086 12.0571 1.68355 14.5054 3.57097 15.6209C3.6367 15.6598 3.69113 15.7151 3.72894 15.7813C3.76674 15.8475 3.78662 15.9224 3.78662 15.9986C3.78662 16.0747 3.76674 16.1496 3.72894 16.2158C3.69113 16.282 3.6367 16.3373 3.57097 16.3762C1.68355 17.4931 1.04086 19.9414 2.13796 21.8329C3.23507 23.7244 5.68447 24.395 7.60014 23.3264C7.66619 23.2902 7.74044 23.2715 7.81579 23.2721L7.81668 23.2732Z" fill="black"/>
<path d="M15.4306 14.0528C15.4017 13.9013 15.3381 13.7586 15.2446 13.6356C15.1512 13.5127 15.0305 13.4129 14.892 13.344C14.7572 13.2794 14.6381 13.1864 14.5428 13.0715C14.4476 12.9565 14.3785 12.8224 14.3404 12.6783L13.8347 10.6582C13.7975 10.5042 13.7969 10.3437 13.8329 10.1894C13.8688 10.0352 13.9404 9.89143 14.042 9.76959C14.2966 9.45899 14.4635 9.08638 14.5254 8.69013C14.5874 8.29392 14.5421 7.88841 14.3943 7.5154C13.9604 6.41688 12.6949 5.82755 11.5704 6.20004C11.0943 6.3572 10.6839 6.66723 10.4036 7.08155C10.1233 7.49588 9.98885 7.9911 10.0214 8.48967C10.0539 8.98824 10.2515 9.46202 10.5832 9.83674C10.915 10.2115 11.3622 10.466 11.8547 10.5605C12.0118 10.5887 12.1603 10.6529 12.2881 10.7481C12.416 10.8433 12.5198 10.9669 12.5914 11.1091L13.5074 12.9804C13.5718 13.1132 13.6062 13.2584 13.6081 13.4058C13.6099 13.5533 13.5794 13.6993 13.5184 13.8337C13.4337 14.0233 13.4102 14.2344 13.4509 14.4379C13.4917 14.6414 13.5948 14.8273 13.746 14.97C13.8973 15.1127 14.0892 15.2052 14.2954 15.2348C14.5017 15.2643 14.712 15.2294 14.8975 15.135C15.0913 15.0356 15.2479 14.8767 15.3439 14.6818C15.4399 14.4869 15.4703 14.2663 15.4306 14.0528Z" fill="black"/>
<path d="M12.1659 12.3129C12.0197 12.2621 11.8637 12.2456 11.7101 12.2647C11.5565 12.2839 11.4093 12.3381 11.2802 12.4231C11.1567 12.5072 11.0164 12.5637 10.8689 12.5884C10.7213 12.6133 10.5702 12.6059 10.4259 12.5668L8.41646 11.9923C8.26403 11.9473 8.12423 11.8675 8.00821 11.7592C7.89214 11.651 7.80311 11.5172 7.74812 11.3686C7.6054 10.9935 7.36487 10.6632 7.0513 10.4116C6.7377 10.16 6.36247 9.99623 5.96419 9.9372C4.79212 9.76257 3.64687 10.5592 3.40841 11.7155C3.30682 12.2049 3.37109 12.714 3.59117 13.1631C3.81124 13.6122 4.17467 13.9759 4.62451 14.1972C5.07435 14.4185 5.5852 14.4849 6.077 14.386C6.5688 14.2871 7.01376 14.0284 7.34214 13.6506C7.44512 13.5292 7.57512 13.4333 7.72185 13.3706C7.86853 13.3079 8.02789 13.2802 8.18725 13.2896L10.2722 13.4347C10.4199 13.4456 10.5634 13.4886 10.6926 13.5607C10.8217 13.6329 10.9334 13.7324 11.0198 13.8522C11.1423 14.02 11.3141 14.1459 11.5114 14.2124C11.7087 14.279 11.9219 14.283 12.1216 14.2238C12.3212 14.1647 12.4976 14.0454 12.6264 13.8823C12.7551 13.7192 12.83 13.5204 12.8406 13.3132C12.851 13.0964 12.791 12.882 12.6695 12.7018C12.5479 12.5217 12.3714 12.3853 12.1659 12.3129Z" fill="black"/>
<path d="M9.02032 14.2596C8.90328 14.3604 8.81116 14.4868 8.75114 14.6288C8.69117 14.7709 8.66486 14.9248 8.67432 15.0787C8.68564 15.2273 8.66439 15.3766 8.61206 15.5162C8.55973 15.6559 8.47758 15.7825 8.37131 15.8874L6.86792 17.3334C6.75265 17.4426 6.61336 17.5233 6.46118 17.5693C6.309 17.6153 6.14813 17.6252 5.99139 17.5983C5.59399 17.5339 5.18649 17.5762 4.81099 17.7209C4.43548 17.8657 4.10553 18.1076 3.85514 18.4217C3.11615 19.3453 3.23638 20.7313 4.12358 21.5142C4.4983 21.8464 4.97307 22.0454 5.47349 22.08C5.97394 22.1147 6.47178 21.983 6.88903 21.7057C7.30629 21.4283 7.61942 21.0209 7.77933 20.5473C7.93924 20.0737 7.93691 19.5607 7.7727 19.0885C7.7186 18.9389 7.70026 18.7788 7.71914 18.6209C7.73798 18.4631 7.79357 18.3117 7.88142 18.179L9.0503 16.4529C9.13355 16.331 9.24265 16.2287 9.36986 16.1534C9.49712 16.0781 9.63941 16.0315 9.78673 16.017C9.99386 15.9951 10.1891 15.9098 10.3456 15.7729C10.502 15.636 10.6121 15.4541 10.6606 15.2523C10.709 15.0506 10.6935 14.8388 10.6162 14.6462C10.5388 14.4535 10.4035 14.2895 10.2287 14.1766C10.0451 14.0592 9.82842 14.0039 9.61074 14.0189C9.39309 14.0338 9.18605 14.1182 9.02032 14.2596Z" fill="black"/>
<path d="M9.14089 17.9464C9.1699 18.0979 9.23359 18.2406 9.32702 18.3635C9.4204 18.4865 9.54103 18.5863 9.67952 18.6552C9.81438 18.7197 9.93358 18.8126 10.0289 18.9275C10.1241 19.0424 10.1932 19.1765 10.2314 19.3206L10.7365 21.3419C10.7737 21.4959 10.7742 21.6565 10.7381 21.8107C10.702 21.965 10.6303 22.1087 10.5286 22.2305C10.2739 22.5411 10.107 22.9137 10.045 23.3099C9.98299 23.7061 10.0282 24.1117 10.176 24.4847C10.6102 25.5832 11.8755 26.1726 13 25.8003C13.4768 25.6437 13.8879 25.3338 14.1688 24.9193C14.4496 24.5048 14.5845 24.0091 14.552 23.5101C14.5195 23.011 14.3217 22.5368 13.9894 22.1619C13.6572 21.787 13.2093 21.5325 12.7162 21.4384C12.5591 21.4103 12.4107 21.3461 12.2829 21.2509C12.1551 21.1557 12.0513 21.0321 11.9798 20.8899L11.0635 19.0188C10.9992 18.886 10.9649 18.7407 10.963 18.5932C10.9611 18.4458 10.9916 18.2997 11.0525 18.1653C11.1372 17.9757 11.1608 17.7646 11.12 17.5611C11.0793 17.3576 10.9761 17.1717 10.8249 17.0289C10.6737 16.8862 10.4817 16.7937 10.2755 16.7642C10.0693 16.7347 9.85894 16.7695 9.67344 16.864C9.47975 16.9635 9.32335 17.1225 9.22743 17.3174C9.13151 17.5124 9.10118 17.7329 9.14089 17.9464Z" fill="black"/>
<path d="M12.4058 19.6859C12.5522 19.737 12.7083 19.7536 12.8622 19.7345C13.0161 19.7154 13.1634 19.6611 13.2927 19.5759C13.4162 19.4918 13.5566 19.4353 13.7042 19.4105C13.8518 19.3858 14.003 19.3932 14.1473 19.4323L16.1564 20.0067C16.3089 20.0517 16.4487 20.1316 16.5649 20.2399C16.6809 20.3481 16.77 20.4819 16.8251 20.6305C16.9677 21.0055 17.2082 21.3359 17.5217 21.5875C17.8352 21.8391 18.2105 22.0029 18.6087 22.0619C19.7802 22.2362 20.9246 21.4395 21.1642 20.2833C21.2658 19.7939 21.2015 19.2847 20.9814 18.8357C20.7614 18.3866 20.398 18.0229 19.9481 17.8016C19.4982 17.5803 18.9874 17.5139 18.4956 17.6128C18.0038 17.7117 17.5589 17.9703 17.2305 18.3481C17.1275 18.4696 16.9975 18.5655 16.8508 18.6282C16.7041 18.691 16.5447 18.7188 16.3854 18.7094L14.3004 18.5641C14.1527 18.5534 14.0091 18.5104 13.8798 18.4383C13.7505 18.3662 13.6387 18.2667 13.5522 18.1468C13.4297 17.9789 13.258 17.853 13.0607 17.7864C12.8634 17.7198 12.6501 17.7157 12.4504 17.7748C12.2507 17.8339 12.0743 17.9532 11.9454 18.1163C11.8166 18.2794 11.7417 18.4784 11.7311 18.6856C11.7208 18.9024 11.7808 19.1168 11.9023 19.2969C12.0239 19.4771 12.2004 19.6135 12.4058 19.6859Z" fill="black"/>
<path d="M15.5508 17.7392C15.6678 17.6383 15.7599 17.5119 15.8199 17.3699C15.8799 17.2278 15.9063 17.0739 15.8968 16.9201C15.8855 16.7715 15.9067 16.6222 15.9589 16.4826C16.0112 16.3429 16.0933 16.2163 16.1996 16.1114L17.7041 14.6653C17.8195 14.5563 17.9588 14.4755 18.111 14.4295C18.2633 14.3836 18.4242 14.3736 18.5809 14.4005C18.9783 14.4649 19.3858 14.4226 19.7612 14.2779C20.1368 14.1332 20.4667 13.8914 20.7172 13.5774C21.455 12.6538 21.3351 11.2675 20.449 10.4837C20.0743 10.1515 19.5996 9.95241 19.0992 9.91766C18.5987 9.88295 18.1008 10.0146 17.6835 10.2919C17.2662 10.5692 16.953 10.9766 16.7931 11.4503C16.6331 11.9239 16.6354 12.437 16.7996 12.9091C16.8537 13.0588 16.8721 13.2189 16.8532 13.3768C16.8344 13.5348 16.7788 13.6862 16.6909 13.8189L15.5223 15.5447C15.439 15.6666 15.3298 15.7689 15.2026 15.8443C15.0753 15.9196 14.933 15.9663 14.7856 15.981C14.5784 16.0026 14.383 16.0878 14.2264 16.2247C14.0698 16.3616 13.9597 16.5435 13.9113 16.7453C13.8628 16.9472 13.8784 17.1591 13.9559 17.3517C14.0334 17.5444 14.1689 17.7083 14.3439 17.821C14.5272 17.9384 14.7436 17.9938 14.961 17.979C15.1784 17.9643 15.3852 17.8802 15.5508 17.7392Z" fill="black"/>
</g>
<defs>
<clipPath id="clip0_981_3085">
<rect width="173" height="32" fill="white" transform="translate(0.720825)"/>
</clipPath>
</defs>
</svg>
