<svg width="76" height="32" viewBox="0 0 76 32" fill="none" xmlns="http://www.w3.org/2000/svg">
<g clip-path="url(#clip0_935_1501)">
<path fill-rule="evenodd" clip-rule="evenodd" d="M55.2041 24.6916C56.7095 24.3922 58.0926 23.6545 59.1798 22.5714C59.1833 22.5679 59.1869 22.5644 59.1904 22.5609L56.0077 19.3782C55.4133 19.9727 54.5921 20.3403 53.6851 20.3403C51.8712 20.3403 50.4007 18.8698 50.4007 17.0559C50.4007 15.2419 51.8712 13.7714 53.6851 13.7714C54.5921 13.7714 55.4133 14.139 56.0076 14.7334L59.1904 11.5507C58.1015 10.4619 56.7143 9.72041 55.2041 9.42001C54.7192 9.32356 54.2287 9.27398 53.739 9.2706C53.7211 9.27048 53.7032 9.27042 53.6852 9.27042C49.3855 9.27042 45.8998 12.7561 45.8998 17.0558C45.8998 21.3404 49.3609 24.8165 53.6396 24.8411C53.6548 24.8412 53.67 24.8412 53.6852 24.8412C53.7032 24.8412 53.7211 24.8412 53.739 24.841" fill="black"/>
<path fill-rule="evenodd" clip-rule="evenodd" d="M60.878 14.0765C60.4867 13.1319 59.9133 12.2737 59.1903 11.5507L56.0076 14.7334C56.602 15.3278 56.9696 16.1489 56.9696 17.0559C56.9696 17.9628 56.602 18.7839 56.0077 19.3783L59.1903 22.5609C59.9133 21.838 60.4867 20.9797 60.878 20.0352C61.2692 19.0906 61.4706 18.0782 61.4706 17.0558C61.4706 16.0334 61.2692 15.0211 60.878 14.0765Z" fill="black" fill-opacity="0.5"/>
<path fill-rule="evenodd" clip-rule="evenodd" d="M28.9463 14.3004V24.6008H31.0805H33.2147V24.108V23.6153L33.2999 23.6795L33.3851 23.7437L33.6067 23.8909L33.8284 24.038L34.0892 24.1685L34.35 24.299L34.5873 24.3907L34.8245 24.4824L35.0466 24.5495L35.2688 24.6165L35.5393 24.6778L35.8099 24.7392L36.0904 24.7801L36.371 24.821L36.7836 24.845L37.1962 24.8689L37.6353 24.8448L38.0743 24.8207L38.385 24.7804L38.6956 24.7402L38.9957 24.6788L39.2958 24.6175L39.601 24.5299L39.9062 24.4423L40.1826 24.3401L40.4591 24.238L40.8598 24.0393L41.2606 23.8407L41.4779 23.7047L41.6952 23.5687L41.9622 23.3683L42.2293 23.1679L42.4631 22.9588L42.697 22.7497L42.8827 22.5464L43.0685 22.3431L43.2296 22.1409L43.3907 21.9387L43.5203 21.7517L43.6499 21.5647L43.7702 21.3644L43.8906 21.164L44.0223 20.9011L44.154 20.6382L44.2578 20.3916L44.3615 20.1449L44.4579 19.8524L44.5544 19.5598L44.6246 19.2797L44.6947 18.9997L44.7369 18.7797L44.779 18.5597L44.8174 18.2586L44.8558 17.9576L44.8794 17.5668L44.9031 17.1761L44.8901 16.7597L44.8771 16.3434L44.8469 16.0283L44.8167 15.7132L44.7778 15.4595L44.739 15.2057L44.6683 14.8783L44.5977 14.5509L44.5169 14.2839L44.4361 14.0169L44.3468 13.7705L44.2575 13.5242L44.1463 13.2764L44.035 13.0286L43.8933 12.7715L43.7516 12.5143L43.5963 12.2801L43.441 12.0459L43.3002 11.8656L43.1595 11.6852L42.9585 11.4628L42.7575 11.2403L42.5014 11.0155L42.2453 10.7907L42.043 10.6433L41.8406 10.4958L41.6421 10.371L41.4436 10.2463L41.2018 10.1202L40.96 9.99416L40.7474 9.9035L40.5348 9.81282L40.3366 9.7408L40.1384 9.66876L39.8622 9.59042L39.586 9.51209L39.2911 9.45179L38.9962 9.39151L38.6829 9.35141L38.3697 9.31133L37.9358 9.28826L37.5018 9.2652L37.1048 9.28836L36.7079 9.31151L36.4292 9.35197L36.1505 9.39243L35.9201 9.44367L35.6896 9.49489L35.4592 9.56112L35.2287 9.62733L34.9682 9.7232L34.7077 9.81907L34.3971 9.97464L34.0864 10.1302L33.8871 10.2629L33.6876 10.3956L33.5915 10.4762L33.4953 10.5567V7.27835V4H31.2208H28.9463V14.3004ZM63.2141 14.3004V24.6008H65.4883H67.7625L67.7678 19.686L67.7731 14.7713L67.8276 14.5709L67.8822 14.3705L67.9772 14.1801L68.0723 13.9898L68.2433 13.8185L68.4144 13.6473L68.5847 13.5642L68.755 13.4811L68.8853 13.4452L69.0155 13.4093L69.3462 13.409L69.6769 13.4087L69.8071 13.4438L69.9374 13.4788L70.1225 13.5697L70.3077 13.6607L70.4446 13.7957L70.5816 13.9307L70.6644 14.0705L70.7473 14.2102L70.7975 14.3441L70.8478 14.4779L70.8929 14.6747L70.938 14.8715L70.9442 19.7361L70.9503 24.6008H73.2252H75.5L75.4926 19.3253L75.4853 14.0499L75.4611 13.8194L75.4368 13.589L75.3991 13.3282L75.3614 13.0674L75.3076 12.8272L75.2539 12.587L75.1842 12.3565L75.1146 12.1261L75.0146 11.8828L74.9147 11.6395L74.7907 11.4171L74.6667 11.1947L74.5368 11.0091L74.4069 10.8235L74.136 10.5528L73.8651 10.2821L73.6748 10.1473L73.4844 10.0125L73.1838 9.86164L72.8832 9.71076L72.6083 9.6211L72.3334 9.53142L72.0855 9.48124L71.8377 9.43106L71.5689 9.39834L71.3001 9.3656L70.8291 9.36437L70.3582 9.36313L70.1578 9.38822L69.9574 9.41331L69.757 9.45323L69.5566 9.49315L69.3469 9.55397L69.1371 9.61481L68.896 9.71843L68.6548 9.82208L68.4444 9.94757L68.234 10.0731L67.9985 10.263L67.7631 10.4529V7.22644V4H65.4886H63.2141V14.3004ZM7.83451 9.26426L7.73431 9.27089L7.45688 9.30167L7.17947 9.33245L6.90906 9.38239L6.63866 9.43235L6.40494 9.49217L6.17122 9.552L5.92072 9.63375L5.67023 9.71549L5.43977 9.80545L5.20932 9.89538L4.88868 10.0518L4.56805 10.2082L4.29751 10.3711L4.02698 10.534L3.78295 10.7088L3.53893 10.8836L3.32204 11.0628L3.10515 11.2419L2.77374 11.5738L2.44234 11.9056L2.22609 12.1762L2.00987 12.4467L1.83424 12.7072L1.65859 12.9677L1.55415 13.1455L1.44972 13.3233L1.32301 13.5764L1.19632 13.8294L1.11089 14.0298L1.02548 14.2302L0.946563 14.4507L0.867627 14.6711L0.788791 14.9404L0.709955 15.2098L0.641039 15.5517L0.572123 15.8935L0.536051 16.1741L0.5 16.4546V17.136V17.8173L0.536472 18.0879L0.572964 18.3584L0.622963 18.6189L0.672962 18.8794L0.723121 19.0798L0.773301 19.2802L0.873539 19.5867L0.973777 19.8931L1.07161 20.1311L1.16946 20.3692L1.32163 20.673L1.47379 20.9768L1.63549 21.2407L1.79719 21.5046L1.91899 21.675L2.04081 21.8453L2.22892 22.0811L2.41703 22.317L2.69095 22.6001L2.96488 22.8832L3.18531 23.0732L3.40575 23.2633L3.59613 23.4075L3.7865 23.5518L3.99692 23.6923L4.20733 23.8328L4.42777 23.9599L4.64821 24.0871L4.9488 24.2314L5.2494 24.3757L5.54516 24.489L5.84095 24.6022L6.14635 24.6899L6.45178 24.7775L6.69225 24.828L6.93273 24.8785L7.20326 24.919L7.4738 24.9595L7.77363 24.9833L8.07344 25.007L8.54516 24.9958L9.01685 24.9846L9.27736 24.9528L9.53788 24.921L9.76222 24.8804L9.98657 24.8398L10.2698 24.7703L10.553 24.7007L10.8324 24.6095L11.1117 24.5182L11.3568 24.4175L11.602 24.3168L11.8769 24.1797L12.1519 24.0427L12.3478 23.9277L12.5438 23.8127L12.7242 23.6922L12.9045 23.5718L13.0976 23.426L13.2907 23.2802L13.4459 23.1483L13.6011 23.0164L13.7729 22.8557L13.9446 22.695L12.3303 21.0808L10.7161 19.4665L10.568 19.5998L10.42 19.7332L10.2294 19.8604L10.0389 19.9876L9.85851 20.0775L9.67816 20.1673L9.50141 20.2297L9.32466 20.2921L9.16118 20.3338L8.99769 20.3756L8.78683 20.4037L8.57598 20.4317H8.36556H8.15514L7.94321 20.4035L7.73125 20.3753L7.60253 20.3428L7.4738 20.3104L7.31348 20.2594L7.15316 20.2085L6.89265 20.0797L6.63213 19.9509L6.442 19.816L6.25186 19.681L6.02116 19.4503L5.79047 19.2196L5.65512 19.0295L5.51975 18.8394L5.39052 18.5788L5.26128 18.3183L5.20142 18.1354L5.14154 17.9524L5.0981 17.7346L5.05463 17.5167L5.04441 17.2061L5.03417 16.8955L5.06748 16.6651L5.10078 16.4346L5.15158 16.2459L5.20238 16.0571L5.26252 15.9052L5.32264 15.7533L5.42212 15.5629L5.52157 15.3725L5.64901 15.1943L5.77642 15.0161L5.91028 14.8683L6.04415 14.7206L6.20787 14.5832L6.37162 14.4459L6.52191 14.3456L6.67221 14.2453L6.87984 14.1413L7.08749 14.0373L7.2944 13.968L7.50131 13.8988L7.69796 13.8549L7.89463 13.811L8.34552 13.8105L8.79641 13.8101L9.0018 13.8552L9.20719 13.9003L9.39257 13.9624L9.57796 14.0244L9.76767 14.1129L9.95737 14.2015L10.1799 14.3497L10.4025 14.4979L10.5579 14.6431L10.7133 14.7882L12.3247 13.1769L13.9361 11.5655L13.8111 11.4381L13.6861 11.3106L13.4356 11.0998L13.1851 10.8891L12.9246 10.7034L12.6641 10.5177L12.4036 10.3613L12.143 10.2049L11.8024 10.0404L11.4617 9.87589L11.1711 9.76483L10.8805 9.65377L10.6068 9.57371L10.333 9.49367L10.0557 9.43313L9.77836 9.37259L9.4978 9.33247L9.21725 9.29233L8.94771 9.27135L8.67818 9.25039L8.30644 9.25399L7.93471 9.2576L7.83451 9.26426ZM14.7986 14.4857L14.799 19.4606L14.8182 19.8565L14.8375 20.2524L14.8688 20.5278L14.9001 20.8032L14.9694 21.1439L15.0387 21.4846L15.0993 21.6848L15.16 21.8851L15.222 22.0556L15.284 22.2261L15.4098 22.4866L15.5356 22.7471L15.6962 22.9876L15.8568 23.228L16.0195 23.4133L16.1821 23.5987L16.3469 23.7402L16.5117 23.8817L16.7202 24.0222L16.9287 24.1626L17.1109 24.2541L17.2931 24.3456L17.4735 24.4155L17.6539 24.4853L17.8099 24.5322L17.9659 24.579L18.1907 24.629L18.4154 24.6791L18.6659 24.7139L18.9164 24.7487L19.4675 24.7498L20.0186 24.7509L20.2591 24.7138L20.4996 24.6768L20.7601 24.6103L21.0206 24.5438L21.202 24.4742L21.3835 24.4047L21.5846 24.3037L21.7857 24.2028L21.9943 24.0627L22.2029 23.9225L22.3482 23.7891L22.4935 23.6556V24.1182V24.5807H24.748H27.0024V17.0458V9.5109H24.7283H22.4541L22.4487 14.4056L22.4434 19.3003L22.3885 19.4992L22.3337 19.6982L22.2447 19.88L22.1557 20.0618L22.0491 20.1875L21.9424 20.3132L21.8322 20.3951L21.7221 20.477L21.6111 20.533L21.5001 20.5891L21.3505 20.636L21.201 20.683L20.8703 20.6829L20.5396 20.6829L20.41 20.6472L20.2804 20.6115L20.1317 20.5399L19.9831 20.4684L19.8293 20.3152L19.6755 20.162L19.5933 20.0017L19.5111 19.8413L19.4691 19.7108L19.427 19.5802L19.3936 19.4202L19.3601 19.2602L19.3532 14.3855L19.3463 9.5109H17.0723H14.7983L14.7986 14.4857ZM37.4623 13.3303L37.6535 13.359L37.8782 13.419L38.103 13.4789L38.315 13.5695L38.527 13.66L38.7157 13.773L38.9044 13.886L39.0705 14.0198L39.2366 14.1536L39.3869 14.3137L39.5372 14.4738L39.6717 14.6626L39.8062 14.8515L39.9151 15.0619L40.0241 15.2723L40.0988 15.4727L40.1735 15.6731L40.2402 15.9366L40.3068 16.2002L40.3402 16.4877L40.3736 16.7753L40.3619 17.1961L40.3501 17.6169L40.3116 17.8374L40.2731 18.0578L40.2399 18.1881L40.2067 18.3183L40.1457 18.5087L40.0847 18.6991L39.9465 18.9796L39.8083 19.2602L39.6728 19.45L39.5372 19.6398L39.3362 19.8408L39.1352 20.0417L38.9599 20.1655L38.7846 20.2894L38.5698 20.3991L38.3549 20.5089L38.1526 20.5791L37.9504 20.6494L37.7619 20.6897L37.5733 20.73L37.3789 20.7539L37.1844 20.7779L36.7877 20.768L36.391 20.758L36.2006 20.7234L36.0103 20.6888L35.7798 20.6196L35.5493 20.5505L35.3191 20.4403L35.0889 20.3301L34.8983 20.2029L34.7077 20.0758L34.5574 19.9437L34.4071 19.8116L34.2706 19.6561L34.1342 19.5007L34.0055 19.309L33.8768 19.1173L33.7582 18.8681L33.6397 18.6189L33.5687 18.3976L33.4977 18.1764L33.4573 17.9768L33.4168 17.7773L33.3925 17.5869L33.3682 17.3965L33.3688 17.0258L33.3694 16.655L33.4038 16.3977L33.4382 16.1404L33.4955 15.9067L33.5527 15.6731L33.6162 15.4927L33.6797 15.3124L33.7775 15.112L33.8752 14.9116L33.9723 14.7613L34.0694 14.611L34.1941 14.4566L34.3187 14.3022L34.4818 14.1506L34.645 13.9991L34.8166 13.8823L34.9882 13.7655L35.1185 13.6944L35.2487 13.6232L35.4291 13.5522L35.6095 13.4811L35.7851 13.4304L35.9607 13.3797L36.1454 13.3477L36.33 13.3156L36.5208 13.2985L36.7116 13.2814L36.9914 13.2915L37.2711 13.3016L37.4623 13.3303Z" fill="black"/>
</g>
<defs>
<clipPath id="clip0_935_1501">
<rect width="75" height="32" fill="white" transform="translate(0.5)"/>
</clipPath>
</defs>
</svg>
