<?xml version="1.0" encoding="utf-8"?>
<!-- Generator: Adobe Illustrator 26.0.1, SVG Export Plug-In . SVG Version: 6.00 Build 0)  -->
<svg version="1.1" id="Layer_6" xmlns="http://www.w3.org/2000/svg" xmlns:xlink="http://www.w3.org/1999/xlink" x="0px" y="0px"
	 viewBox="0 0 105 32" style="enable-background:new 0 0 105 32;" xml:space="preserve">
<style type="text/css">
	.st0{fill:#FFFFFF;}
</style>
<g>
	<path d="M16,14.8v-2.1h-1.5v2.1h-1.2V9.7h1.2v2H16v-2h1.2v5.2H16z"/>
	<path d="M21.4,14.8L21.3,14h-1.5l-0.2,0.8h-1.3l1.6-5.2h1.5l1.6,5.2H21.4z M20.5,11l-0.5,2h1L20.5,11z"/>
	<path d="M25.9,14.8l-0.6-1.8h-0.5v1.8h-1.2V9.7h2.1c0.9-0.1,1.6,0.6,1.7,1.6c0,0.1,0,0.1,0,0.2c0,0.9-0.5,1.3-0.9,1.5l0.9,2
		L25.9,14.8L25.9,14.8z M26,11.4c0.1-0.3-0.2-0.6-0.5-0.6c-0.1,0-0.1,0-0.1,0h-0.7V12h0.7c0.3,0.1,0.6-0.2,0.6-0.5
		C26,11.4,26,11.4,26,11.4z"/>
	<path d="M29.4,14.8l-1.6-5.2h1.3l0.9,3.8l0.9-3.8h1.3l-1.5,5.2H29.4L29.4,14.8z"/>
	<path d="M35.5,14.8L35.3,14h-1.5l-0.2,0.8h-1.3l1.6-5.2h1.5l1.6,5.2H35.5L35.5,14.8z M34.6,11l-0.5,2h1L34.6,11z"/>
	<path d="M40.1,14.8l-0.7-1.8h-0.5v1.8h-1.2V9.7h2.1c0.9-0.1,1.6,0.6,1.7,1.6c0,0.1,0,0.1,0,0.2c0,0.9-0.5,1.3-0.9,1.5l0.9,2
		L40.1,14.8L40.1,14.8z M40.1,11.4c0.1-0.3-0.2-0.6-0.5-0.6c-0.1,0-0.1,0-0.1,0h-0.7V12h0.7c0.3,0.1,0.6-0.2,0.6-0.5
		C40.1,11.4,40.1,11.4,40.1,11.4z"/>
	<path d="M42.4,14.8V9.7h1.8c1.5,0,2.3,1.1,2.3,2.6s-0.9,2.6-2.3,2.6L42.4,14.8L42.4,14.8z M45.4,12.2c0-0.9-0.4-1.5-1.1-1.5h-0.6v3
		h0.6C45,13.8,45.4,13.2,45.4,12.2z"/>
	<path d="M14.1,22.3v-4.1H13v-1.1h3.5v1.1h-1.1v4.1H14.1z"/>
	<path d="M20.8,22.3v-2.1h-1.6v2.1H18v-5.2h1.2v2h1.6v-2h1.2v5.2H20.8z"/>
	<path d="M25.8,19.8c0-1.6,0.9-2.7,2.3-2.7c1.1,0,1.6,0.7,1.9,1.3L29,18.9c-0.1-0.4-0.4-0.7-0.8-0.7c-0.6,0-1.1,0.6-1.1,1.6
		c0,0.9,0.4,1.6,1.1,1.6c0.4-0.1,0.8-0.4,0.8-0.8l1.1,0.5c-0.3,0.6-0.8,1.4-1.9,1.4C26.7,22.5,25.8,21.3,25.8,19.8z"/>
	<path d="M34.1,22.3v-2.1h-1.6v2.1h-1.2v-5.2h1.2v2h1.6v-2h1.2v5.2H34.1L34.1,22.3z"/>
	<path d="M39.9,22.3l-0.2-0.8h-1.5L38,22.3h-1.3l1.6-5.2h1.5l1.5,5.2H39.9L39.9,22.3z M39,18.5l-0.5,2h1L39,18.5z"/>
	<path d="M45.1,22.3l-1.6-2.8v2.8h-1.2v-5.2h1.3l1.5,2.6v-2.6h1.2v5.2H45.1z"/>
	<rect x="0.7" y="9.8" class="st0" width="10.3" height="3.2"/>
	<path class="st0" d="M11,13.3H0.7c0.1,3.6,1.9,6.8,5.2,8.9C9.1,20,10.9,16.9,11,13.3z"/>
	<path class="st0" d="M0.1,9.3v3.8v0.5c0.2,3.8,2.1,7,5.5,9.1l0.3,0.2l0.3-0.2c3.5-2.2,5.5-5.6,5.5-9.4V9.3H0.1z M11.2,13.2
		c-0.1,3.8-1.9,7-5.3,9.2H5.8l-0.1-0.1c-3.4-2.2-5.3-5.4-5.3-9.2V9.7h10.8V13.2L11.2,13.2z"/>
	<path d="M11,9.8H0.7V13H11V9.8z M3.8,12.1c-0.1,0-0.1,0-0.1,0s-0.1,0.1-0.1,0.1c0,0.1,0,0.2,0,0.3c-0.1,0.1-0.1,0.1-0.2,0.1H2.8
		c-0.1,0-0.1,0-0.2,0.1l-0.1,0.1c-0.1,0.1-0.1,0.1-0.2,0c-0.1-0.1-0.1-0.1-0.1-0.1s-0.1,0-0.2,0H1.5c-0.1,0.1-0.2,0-0.3-0.1
		c0-0.1,0-0.2,0-0.3c0-0.1-0.1-0.1-0.1-0.1l0,0C1,12.1,1,12.1,1,12c0-0.1,0.1-0.1,0.2-0.1l0,0c0.1-0.2,0.1-0.3,0.1-0.5
		c0-0.1,0-0.2,0-0.4C1.1,11,1,11,1,10.8c0.1-0.1,0.1-0.1,0.2-0.1c0.1-0.1-0.1-0.3,0.1-0.4c0.1,0,0.1,0,0.2,0h0.1c0.1,0,0.1,0,0.1,0
		l0.1-0.1c0.1,0,0.1,0.1,0.2,0.1c0.2,0,0.3,0,0.4,0c0.1,0.1,0.1,0.1,0.2,0.1c0-0.1,0.1-0.1,0.1-0.1c0.1-0.1,0.2-0.1,0.2-0.1
		c0.1,0,0.2,0,0.4,0c0.1,0,0.1-0.1,0.2,0c0.1-0.1,0.2,0,0.4,0.1c0.1,0.1,0.1,0.2,0.1,0.3l0,0c0,0.1,0,0,0.1,0.1c0.1,0,0.1,0,0.1,0
		C3.9,10.8,4,10.8,4,11V11c0,0.1-0.1,0.1-0.2,0.1c0,0.1,0,0.1,0,0.2v0.6c0,0.1,0.1,0,0.2,0.1C4,11.8,4,12.1,3.8,12.1z M7,12.1
		c-0.1,0-0.1,0-0.1,0c-0.1,0-0.1,0.1-0.1,0.1c0,0.1,0,0.2,0,0.3c-0.1,0.1-0.1,0.1-0.2,0.1H6c-0.1,0-0.1,0-0.2,0.1H5.8
		c-0.1,0.1-0.1,0.1-0.2,0c-0.1-0.1-0.1-0.1-0.1-0.1c-0.1,0-0.1,0-0.1,0H4.8c-0.1,0.1-0.2,0-0.3-0.1c0-0.1,0-0.2,0-0.3
		c0-0.1-0.1-0.1-0.1-0.1l0,0c-0.2,0-0.2,0-0.2-0.1c-0.1-0.1,0.1-0.1,0.2-0.1l0,0c0.1-0.2,0.1-0.3,0.1-0.5c0-0.1,0-0.2,0-0.4
		c-0.2,0-0.3,0-0.3-0.2c0.1-0.1,0.1-0.1,0.2-0.1c0.1-0.1-0.1-0.3,0.1-0.4c0.1,0,0.1,0,0.2,0h0.1c0.1,0,0.1,0,0.1,0l0.1-0.1
		c0.1,0,0.1,0.1,0.2,0.1c0.2,0,0.3,0,0.5,0c0.1,0.1,0.1,0.1,0.2,0.1c0-0.1,0.1-0.1,0.1-0.1c0.1-0.1,0.2-0.1,0.2-0.1
		c0.1,0,0.2,0,0.3,0c0.1,0,0.2-0.1,0.2,0c0.1-0.1,0.2,0,0.4,0.1c0.1,0.1,0.1,0.2,0.1,0.3l0,0c0,0.1,0,0,0.1,0.1c0.1,0,0.1,0,0.1,0
		c0.1,0,0.2,0.1,0.2,0.2V11c-0.1,0.1-0.1,0.1-0.3,0.1c0,0.1,0,0.1,0,0.2v0.6c0,0.1,0.1,0,0.2,0.1C7.2,11.8,7.2,12.1,7,12.1L7,12.1z
		 M10.5,12.1c-0.1,0-0.1,0-0.1,0s-0.1,0.1-0.1,0.1c0,0.1,0,0.2,0,0.3c-0.1,0.1-0.1,0.1-0.2,0.1H9.3c-0.1,0-0.1,0-0.2,0.1L9,12.6
		c-0.1,0.1-0.1,0.1-0.2,0c-0.1-0.1-0.1-0.1-0.1-0.1s-0.1,0-0.1,0H7.9c-0.1,0.1-0.2,0-0.3-0.1c0-0.1,0-0.2,0-0.3
		c0-0.1-0.1-0.1-0.1-0.1l0,0c-0.2,0-0.2,0-0.2-0.1c0-0.1,0.1-0.1,0.2-0.1l0,0c0.1-0.2,0.1-0.3,0.1-0.5c0-0.1,0-0.2,0-0.4
		c-0.2,0-0.3,0-0.3-0.2c0.1-0.1,0.1-0.1,0.2-0.1c0.1-0.1-0.1-0.3,0.1-0.4c0.1,0,0.1,0,0.2,0h0.1c0.1,0,0.1,0,0.1,0L8,10.3
		c0.1,0,0.1,0.1,0.2,0.1c0.2,0,0.5-0.1,0.6,0c0.1,0.1,0.1,0.1,0.2,0.1c0-0.1,0.1-0.1,0.1-0.1c0.1-0.1,0.2-0.1,0.2-0.1
		c0.1,0,0.5,0.1,0.6,0c0.1,0,0.1-0.1,0.2,0c0.1-0.1,0.2,0,0.4,0.1c0.1,0.1,0.1,0.2,0.1,0.3l0,0c0,0.1,0,0,0.1,0.1c0.1,0,0.1,0,0.1,0
		c0.1,0,0.2,0.1,0.2,0.2V11c-0.1,0.1-0.1,0.1-0.3,0.1c0,0.1,0,0.1,0,0.2v0.6c0.1,0.1,0.1,0.1,0.2,0.1C10.7,11.8,10.8,12.1,10.5,12.1
		L10.5,12.1z"/>
	<path d="M0.4,9.7v3.6c0.1,3.8,1.9,7,5.3,9.2l0.1,0.1l0.1-0.1c3.4-2.2,5.3-5.4,5.3-9.2V9.7H0.4z M5.8,22.2c-3.3-2.1-5-5.2-5.2-8.9
		h10.3C10.9,16.9,9.1,20,5.8,22.2z M11,13H0.7V9.8H11V13L11,13z M1.2,11.8C1,11.7,0.9,11.8,1,12C1,12.1,1,12.1,1.2,12.1
		c0.1,0,0.1,0.1,0.1,0.1l0,0c0,0.1,0,0.2,0,0.3c0.1,0,0.2,0.1,0.3,0h0.6c0.1,0,0.1,0,0.1,0s0.1,0.1,0.1,0.1c0.1,0,0.2,0,0.2,0
		l0.1-0.1c0.1-0.1,0.1-0.1,0.2,0h0.6c0.1,0.1,0.2,0.1,0.2,0c0-0.1,0-0.2,0-0.3c0-0.1,0-0.1,0.1-0.1s0.1,0,0.1,0
		c0.2,0,0.2-0.2,0.1-0.2c-0.1-0.1-0.2,0-0.2-0.1v-0.6c0-0.1,0-0.1,0-0.2c0.2,0,0.2,0,0.3-0.1c0.1-0.1-0.1-0.2-0.1-0.2c0,0,0,0-0.1,0
		s-0.1,0-0.1,0s-0.1,0-0.1-0.1l0,0c0-0.1,0-0.2-0.1-0.3c-0.1,0-0.2,0-0.4,0c-0.1-0.1-0.1-0.1-0.2,0c-0.1,0-0.2,0-0.4,0
		c-0.1,0-0.2,0.1-0.2,0.1s-0.1,0.1-0.1,0.1c-0.1-0.1-0.1-0.1-0.2-0.1c-0.2,0-0.3,0-0.4,0c-0.1,0-0.1-0.1-0.2-0.1
		c-0.1,0-0.1,0.1-0.1,0.1s-0.1,0-0.1,0h0.1c-0.1,0-0.1,0-0.2,0s0.1,0.2-0.1,0.3c-0.1,0-0.2,0-0.2,0.1C1,11,1.1,11,1.2,11
		c0,0.1,0,0.2,0,0.4C1.2,11.5,1.2,11.7,1.2,11.8C1.2,11.8,1.2,11.8,1.2,11.8z M2.3,12.2C2.3,12.2,2.2,12.2,2.3,12.2
		c-0.3-0.1-0.5,0-0.7,0c-0.1-0.1,0.1-0.2,0.1-0.2c0.2,0.1,0.4,0.1,0.5,0.1C2.3,12.1,2.3,12.2,2.3,12.2C2.4,12.2,2.4,12.2,2.3,12.2z
		 M3.4,10.4c0.1-0.1,0.1-0.1,0.2-0.1c0,0,0,0,0.1,0.1c0,0.1-0.1,0.3,0,0.3s0.1,0,0.1,0h0.1c0.1,0,0.1,0,0.1,0.1
		c0.1,0.1,0.1,0.1,0,0.1L3.8,11c-0.1,0-0.1,0-0.1,0c0,0,0,0.1,0,0.2c0,0.1-0.1,0.4,0,0.6c0,0.1,0.1,0.1,0.2,0.1c0,0.1,0,0.1,0.1,0.1
		C4,12.1,3.7,12,3.7,12.1c-0.1,0.1,0.1,0.2,0,0.3c0,0.1-0.1,0.1-0.1,0.1H3.2c-0.1,0-0.1,0-0.2,0s-0.2,0-0.4,0c0-0.1,0-0.1,0-0.1
		c0-0.1,0-0.1,0.1-0.1c0.1,0,0.2,0,0.3,0c0.1,0,0.1,0,0.2,0c0.1,0,0.2,0,0.3-0.1c0-0.3,0-0.5,0-0.8v-0.6c0-0.1,0-0.2,0-0.2
		C3.5,10.5,3.5,10.5,3.4,10.4C3.4,10.5,3.4,10.4,3.4,10.4L3.4,10.4z M3.3,10.5L3.3,10.5C3.4,10.4,3.4,10.5,3.3,10.5
		c0.1,0.1,0.1,0.1,0.1,0.1c0,0.1,0,0.2,0,0.4c0,0.1,0,0.1,0,0.1s0,0.1,0,0.1c0,0.3,0,0.9,0,0.9c0,0.1,0,0.1-0.1,0.1
		c0-0.1-0.1-0.1-0.1-0.2C3.3,11.3,3.3,11.1,3.3,10.5z M3.4,12.1C3.4,12.1,3.4,12.2,3.4,12.1c0.1,0.1-0.1,0.1-0.1,0.1
		c-0.2,0-0.3,0-0.6,0c-0.1-0.1-0.1-0.1,0-0.1c0.1-0.1,0.4,0,0.6-0.1C3.3,12.1,3.3,12.1,3.4,12.1L3.4,12.1z M2.5,11.3
		c0-0.2,0-0.4,0-0.5c0-0.1,0-0.2,0-0.2s0-0.1,0-0.1c0.1-0.1,0.1-0.1,0.2-0.1c0.1-0.1,0.3,0,0.4,0c0.1,0,0.1,0,0.1,0
		c0.1,0,0.1,0.1,0.1,0.1c0,0.5,0,1,0,1.3c0,0.1,0,0.1,0,0.2c-0.1,0-0.1,0-0.2,0s-0.2,0-0.2,0c-0.1,0-0.1,0-0.2,0
		c-0.1,0-0.1,0.1-0.1,0.1c-0.1,0.1-0.1,0.1-0.1,0.1c0-0.1,0-0.2,0-0.2C2.5,11.7,2.5,11.4,2.5,11.3L2.5,11.3z M2.6,12.2
		C2.6,12.3,2.6,12.3,2.6,12.2c0.1,0.1,0.1,0.1,0,0.2c0,0.1-0.1,0.1-0.1,0.1c-0.1,0-0.1,0-0.1,0c-0.1,0-0.1,0-0.1-0.1
		c-0.1,0-0.1-0.1-0.1-0.1l0,0c0-0.1,0.1-0.1,0.1-0.1l0,0C2.5,12.2,2.5,12.2,2.6,12.2L2.6,12.2L2.6,12.2z M1.7,11.8
		c0-0.4,0-0.8,0-1.2c0-0.1,0-0.1,0-0.2l0,0c0.1-0.1,0.1-0.1,0.1-0.1c0.1,0,0.1,0,0.1,0h0.1c0.1,0,0.1,0,0.1,0c0.1,0,0.1,0,0.1,0
		c0.1,0,0.2,0.1,0.3,0.1c0,0.4,0,0.8,0,1.1c0,0.2,0,0.3-0.1,0.5c-0.1,0-0.1-0.1-0.1-0.1c-0.2,0-0.3,0.1-0.5,0c0.1,0,0-0.1-0.1-0.1
		C1.7,11.9,1.7,11.9,1.7,11.8z M1.6,10.5L1.6,10.5L1.6,10.5l0.1,1.1c0,0.2,0,0.3-0.1,0.5c-0.1,0-0.1,0.1-0.1,0.1
		c-0.1-0.4,0-0.7,0-0.9c0-0.1,0-0.1,0-0.2V11v-0.1c0-0.1,0-0.1,0-0.2S1.5,10.5,1.6,10.5z M1.3,11.8c0-0.1,0-0.1,0-0.2v-0.2
		c0-0.2,0-0.3-0.1-0.4C1.2,10.9,1.1,11,1,10.9c0-0.1,0-0.1,0.1-0.2l0,0c0.1,0,0.2,0.1,0.2,0c0-0.1,0-0.2,0-0.2s0.1-0.1,0.1-0.1
		c0.1-0.1,0.1,0,0.2,0.1c0,0,0,0.1-0.1,0.1l-0.1-0.1c-0.1,0.1-0.1,0.2,0,0.4c0,0.3,0,0.4,0,0.6v0.1c0,0.1,0,0.1,0,0.1
		c0,0.1,0,0.1,0,0.1s0,0.1,0,0.1c0,0.1,0,0.1,0,0.1c0,0.1-0.1,0.3,0.1,0.4c0.1,0,0.2,0,0.2,0c0.2,0,0.4,0,0.5,0
		c0.1,0.1,0.1,0.1,0.1,0.1c0,0.1,0,0.1,0,0.1l0,0c-0.3,0-0.6,0-0.9,0c-0.1-0.1-0.1-0.1-0.1-0.2c0-0.1,0.1-0.2-0.1-0.2
		c-0.1,0-0.1,0-0.2,0s0-0.1,0-0.1s0-0.1,0-0.1c0.1,0,0.1,0,0.1,0C1.2,11.8,1.3,11.8,1.3,11.8L1.3,11.8z M1.8,11L1.8,11L1.8,11
		l0.3-0.1V11l0,0C2,11,2,11,2,11s0,0.1,0,0.1l0.1,0.4l0.1-0.4l0,0C2.2,11,2.2,11,2.2,11l0,0V11h0.2V11l0,0c-0.1,0-0.1,0-0.1,0.1
		c-0.1,0-0.1,0.1-0.1,0.1l-0.2,0.6l0,0l-0.2-0.6C1.8,11,1.8,11,1.8,11L1.8,11z M8.1,11.1L8.1,11.1v-0.3l0,0l0.1,0.1h0.4
		c0,0,0.1,0,0.1-0.1h0.1v0.3H8.6C8.6,11,8.6,11,8.6,11H8.5v0.6c0,0.1,0,0.1,0.1,0.1l0,0v0.1H8.3v-0.1h0.1c0.1,0,0.1,0,0.1-0.1v-0.6
		H8.3C8.2,11,8.2,11,8.1,11.1L8.1,11.1L8.1,11.1z M3.1,11.7H2.6v-0.1h0.1c0.1,0,0.1,0,0.1-0.1v-0.4c0-0.1,0-0.1-0.1-0.1l0,0v-0.1
		h0.5v0.2H3.1l0,0C3.1,11,3,11,3,11H2.8v0.3h0.1c0.1,0,0.1,0,0.1-0.1l0,0h0.1v0.3H3v-0.1c0-0.1,0-0.1-0.1-0.1H2.8v0.2
		c0,0.1,0,0.1,0,0.1l0,0h0.1c0.1,0,0.1-0.1,0.1-0.1l0,0h0.1C3.1,11.5,3.1,11.7,3.1,11.7z M9.7,11.5c0-0.1-0.1-0.1-0.1-0.2H9.6
		c-0.1-0.1-0.1-0.1-0.1-0.1c-0.1-0.1-0.1-0.1-0.1-0.2c0-0.1,0.1-0.2,0.2-0.2l0,0c0.1,0,0.1,0,0.1,0.1l0,0l0,0h0.1v0.2H9.8
		c0-0.1-0.1-0.2-0.2-0.2C9.5,11,9.5,11,9.5,11l0,0c0,0.1,0.1,0.1,0.1,0.1h0.1l0.1,0.1l0.1,0.1c0.1,0.1,0.1,0.1,0.1,0.2
		c0,0.1-0.1,0.2-0.2,0.2l0,0c-0.1,0-0.1,0-0.1-0.1l0,0l0,0l0,0H9.5l0,0l-0.1-0.2h0.1c0,0.1,0.1,0.2,0.2,0.2
		C9.6,11.7,9.7,11.6,9.7,11.5C9.7,11.5,9.7,11.5,9.7,11.5z M7.5,11.8c-0.2-0.1-0.3,0.1-0.2,0.2c0.1,0.1,0.1,0.1,0.2,0.1
		c0.1,0,0.1,0,0.1,0l0,0c0,0.1,0,0.2,0,0.3c0.1,0.1,0.2,0.1,0.4,0.1h0.8c0.1,0,0.1,0,0.1,0s0.1,0.1,0.1,0.1c0.1,0.1,0.1,0.1,0.2,0
		L9,12.5c0.1-0.1,0.1-0.1,0.2-0.1h0.9c0.1,0.1,0.2,0.1,0.2,0c0-0.1,0-0.2,0-0.3c0-0.1,0-0.1,0.1-0.1s0.1,0,0.1,0
		c0.2,0,0.2-0.2,0.1-0.3c-0.1-0.1-0.2,0.1-0.2-0.1v-0.6c0-0.1,0-0.1,0-0.2c0.2,0,0.2,0,0.3-0.1c0.1-0.1-0.1-0.2-0.1-0.2
		c0,0,0,0-0.1,0s-0.1,0-0.1,0s-0.1,0-0.1-0.1l0,0c0-0.1,0-0.2-0.1-0.3c-0.1-0.1-0.2-0.1-0.4-0.1c-0.1-0.1-0.1-0.1-0.2,0
		c-0.1,0.1-0.5,0-0.6,0c-0.1,0-0.2,0.1-0.2,0.1c-0.1,0-0.1,0.1-0.1,0.1c-0.1-0.1-0.1-0.1-0.2-0.1c-0.1-0.1-0.4,0-0.6,0
		c-0.1-0.1-0.1-0.1-0.2-0.1c-0.1,0-0.1,0.1-0.1,0.1s-0.1,0-0.1,0H7.7c-0.1,0-0.1,0-0.2,0c-0.1,0.1,0.1,0.3-0.1,0.4
		c-0.2,0-0.2,0-0.2,0.1c-0.1,0.2,0.1,0.2,0.3,0.2c0,0.1,0,0.2,0,0.4C7.6,11.5,7.6,11.6,7.5,11.8C7.5,11.8,7.5,11.8,7.5,11.8
		L7.5,11.8z M8.8,12.2L8.8,12.2c-0.3-0.1-0.6,0-0.9,0c-0.1-0.1,0.1-0.2,0.2-0.2c0.2,0.1,0.5,0.1,0.7,0.1c0.1,0,0.1,0.1,0.1,0.1
		C8.9,12.2,8.8,12.2,8.8,12.2L8.8,12.2z M9,12.5L9,12.5c-0.1,0-0.1,0-0.1,0s-0.1,0-0.1-0.1c-0.1,0-0.1-0.1-0.1-0.1l0,0
		c0-0.1,0.1-0.1,0.1-0.1l0,0c0.1-0.1,0.1-0.1,0.2,0.1c0,0,0,0,0,0.1C9,12.4,9,12.4,9,12.5C9,12.4,9,12.4,9,12.5z M10.1,10.4
		c0.1-0.1,0.1-0.1,0.2-0.1c0,0,0,0,0.1,0.1c0.1,0.1-0.1,0.3,0.1,0.3c0.1,0,0.1,0,0.1,0h0.1c0.1,0,0.1,0,0.1,0.1
		c0.1,0.1,0.1,0.1,0.1,0.1S10.6,11,10.6,11c-0.1,0-0.1,0-0.1,0c-0.1,0.1-0.1,0.1-0.1,0.2s-0.1,0.4,0,0.6c0,0.1,0.1,0.1,0.2,0.1
		c0.1,0,0.1,0.1,0.1,0.1c0.1,0.2-0.2,0.1-0.3,0.2c-0.1,0.1,0.1,0.2,0,0.3c0,0.1-0.1,0.1-0.1,0.1H9.9H9.7c-0.1,0-0.4,0-0.5,0
		c-0.1-0.1-0.1-0.1-0.1-0.1c0-0.1,0-0.1,0.1-0.1c0.1,0,0.4,0,0.4,0s0.3,0,0.4,0c0.1,0,0.2,0,0.3-0.1c0-0.3,0-0.5,0-0.8v-0.6
		c0-0.1,0-0.2,0-0.2C10.2,10.5,10.2,10.5,10.1,10.4C10.1,10.5,10.1,10.4,10.1,10.4L10.1,10.4z M10,10.5L10,10.5L10,10.5
		C10,10.4,10,10.5,10,10.5c0.1,0.1,0.1,0.1,0.1,0.1c0,0.1,0,0.3,0,0.4s0,0.1,0,0.1s0,0.1,0,0.1c0,0.3,0,0.9,0,0.9
		c0,0.1,0,0.1-0.1,0.1C10,12,10,12,9.9,11.9C10,11.3,10,11.1,10,10.5z M10,12.1C10.1,12.1,10.1,12.2,10,12.1
		c0.1,0.1-0.1,0.1-0.1,0.1c-0.2,0-0.5,0-0.8,0c-0.1-0.1-0.1-0.1,0-0.1C9.2,12.1,9.8,12.1,10,12.1C10,12.1,10,12.1,10,12.1z M8,11.8
		c0-0.4,0-0.8,0-1.2c0-0.1,0-0.1,0-0.2l0,0c0.1-0.1,0.1-0.1,0.1-0.1c0.1,0,0.1,0,0.1,0h0.1c0.1,0,0.2,0.1,0.3,0c0.1-0.1,0.1,0,0.1,0
		c0.1,0,0.2,0.1,0.3,0.1c0,0.1,0,0.1,0,0.2h0.1c0-0.1,0-0.1,0-0.1s0-0.1,0.1-0.1C9,10.4,9,10.4,9.1,10.4c0.1-0.1,0.5,0,0.6,0
		c0.1,0,0.1,0,0.1,0c0.1,0,0.1,0.1,0.1,0.1c0,0.5,0,1,0,1.3c0,0.1,0,0.1,0,0.2C9.8,12,9.7,12,9.6,12s-0.4,0-0.5,0C9.1,12,9,12,9,12
		s-0.1,0.1-0.1,0.1c-0.1,0.1-0.1,0.1-0.1,0.1c0-0.1,0-0.2,0-0.2H8.8c0,0.1,0,0.1-0.1,0.2c-0.1,0-0.1-0.1-0.2-0.1
		c-0.2,0-0.5,0.1-0.6,0c-0.1,0-0.1-0.1-0.1-0.1C8,11.9,8,11.8,8,11.8z M7.9,10.5L7.9,10.5L7.9,10.5L8,11.6c0,0.2,0,0.3-0.1,0.5
		c-0.1,0.1-0.1,0.1-0.1,0.1c-0.1-0.4,0-0.7,0-0.9c0-0.1,0-0.1,0-0.2V11v-0.1c0-0.1,0-0.1,0-0.2C7.8,10.6,7.8,10.5,7.9,10.5L7.9,10.5
		z M7.6,11.8c0-0.1,0-0.1,0-0.2c0-0.1,0-0.1,0-0.2c0-0.2,0-0.3-0.1-0.4C7.5,11,7.3,11.1,7.2,11c-0.1-0.1,0-0.1,0.1-0.2h0.1
		c0.1-0.1,0.2,0,0.2-0.1s0-0.2,0-0.2s0.1-0.1,0.1-0.1c0.1-0.1,0.1,0,0.2,0.1l-0.1,0.1l-0.1,0.1c-0.1,0.1-0.1,0.2,0,0.4
		c0,0.3,0,0.4,0,0.6c0,0.1,0,0.1,0,0.1c0,0.1,0,0.1,0,0.1c0,0.1,0,0.1,0,0.1s0,0.1,0,0.1c0,0.1,0,0.1,0,0.1c0,0.1-0.1,0.3,0.1,0.4
		c0.1,0,0.2,0,0.2,0c0.2,0,0.5,0,0.6,0c0.1-0.1,0.1-0.1,0.1-0.1c0,0.1,0,0.1-0.1,0.1l0,0c-0.3,0-0.7,0-1.1,0
		c-0.1-0.1-0.1-0.1-0.1-0.2c0-0.1,0.1-0.2-0.1-0.2c-0.1,0-0.1,0-0.2,0c-0.1,0-0.1-0.1-0.1-0.1l0.1-0.1l0.1-0.1
		C7.5,11.8,7.6,11.8,7.6,11.8L7.6,11.8z M8.9,11.6L8.9,11.6C8.9,11.6,8.9,11.5,8.9,11.6L8.9,11.6v-0.2h0.2l0.1,0.2v0.1
		c0,0.1,0,0.1-0.1,0.1l0,0l0,0v0.1h0.3v-0.1l0,0c-0.1,0-0.1-0.1-0.1-0.1l-0.2-0.6H9v0.1l-0.2,0.6c0,0.1-0.1,0.1-0.1,0.1H8.7v0.1
		L8.9,11.6L8.9,11.6L8.9,11.6z M9,11.1L9,11.3H8.9L9,11.1z M9.5,16.8c-0.1-0.1-0.2-0.2-0.3-0.2c-0.1-0.1-0.1-0.2-0.1-0.2
		C9,16.4,9,16.2,9,16.2c-0.1-0.1-0.3-0.3-0.4-0.2c-0.1,0.1-0.2,0.3-0.3,0.4c-0.1,0.1-0.2,0.2-0.4,0.2c-0.5,0.1-1,0.1-1.5,0.1
		c-0.1,0-0.1-0.1-0.1-0.1c0-0.4,0-0.9,0.1-1.3c0.1-0.2,0.2-0.3,0.3-0.4c0.2-0.1,0.4-0.2,0.4-0.2c-0.1-0.2-0.2-0.3-0.3-0.3
		c-0.2-0.1-0.4-0.1-0.4-0.1c-0.1-0.1-0.2-0.2-0.2-0.3c-0.1-0.1-0.2-0.2-0.3-0.3c-0.1,0.1-0.2,0.2-0.3,0.3c-0.1,0.1-0.2,0.2-0.2,0.3
		c-0.1,0.1-0.3,0.1-0.4,0.1c-0.2,0.1-0.3,0.2-0.3,0.3s0.2,0.1,0.4,0.2c0.1,0.1,0.2,0.2,0.3,0.4c0.1,0.4,0.1,0.9,0.1,1.3
		c0,0.1-0.1,0.1-0.1,0.1c-0.5,0.1-1,0.1-1.5,0c-0.2-0.1-0.3-0.1-0.4-0.2c-0.1-0.2-0.2-0.3-0.3-0.4c-0.1-0.1-0.3,0.1-0.4,0.2
		c-0.1,0.1-0.1,0.2-0.1,0.2c0,0.1-0.1,0.2-0.1,0.2c-0.1,0.1-0.2,0.1-0.3,0.2c-0.1,0.1-0.2,0.2-0.3,0.4c0.1,0.1,0.2,0.2,0.3,0.3
		s0.3,0.2,0.4,0.2c0.1,0.1,0.1,0.2,0.1,0.4c0,0.1,0.1,0.2,0.2,0.3c0.1,0,0.2,0,0.2,0c0.1-0.1,0.1-0.2,0.2-0.4
		c0.1-0.1,0.2-0.2,0.4-0.3c0.2-0.1,0.3-0.1,0.5-0.1c0.2,0,0.9,0,1,0s0.2,0.1,0.2,0.2s0,1.6,0,1.7c0,0.2-0.1,0.4-0.2,0.5
		c-0.2,0.2-0.4,0.3-0.5,0.4c-0.1,0.1,0,0.1,0.1,0.2c0.1,0.1,0.2,0.2,0.3,0.2s0.3,0.1,0.4,0.2c0.1,0.1,0.2,0.2,0.2,0.3
		c0.1,0.2,0.2,0.3,0.4,0.4c0.2-0.1,0.3-0.3,0.4-0.4c0.1-0.1,0.1-0.2,0.2-0.3c0.2-0.1,0.3-0.1,0.4-0.2c0.1-0.1,0.2-0.2,0.3-0.2
		c0.1-0.1,0.1-0.2,0.1-0.2C7,20.3,6.8,20.2,6.6,20c-0.1-0.2-0.2-0.4-0.2-0.5c0-0.1,0-1.6,0-1.7c0-0.1,0.1-0.2,0.2-0.2
		c0.1,0,0.7,0,1,0c0.2,0,0.3,0.1,0.5,0.1c0.1,0.1,0.2,0.2,0.3,0.3s0.2,0.3,0.2,0.4c0.1,0.1,0.1,0.1,0.2,0C8.9,18.3,9,18.2,9.1,18
		c0.1-0.1,0.1-0.4,0.1-0.4c0.1-0.1,0.2-0.1,0.4-0.2c0.1-0.1,0.2-0.2,0.3-0.3C9.6,17.1,9.5,16.9,9.5,16.8L9.5,16.8z M2.9,16.5
		C3,16.4,3,16.4,3.1,16.4h0.1h0.1c0.1,0.1,0.1,0.1,0.1,0.1s0.1,0.1,0.1,0.2c0,0.1-0.1,0.2-0.1,0.3c-0.1,0.1-0.1,0.1-0.1,0.2
		c0,0.1-0.1,0.1-0.1,0.1s0,0.1,0,0.1s0,0-0.1,0.1c0,0,0,0-0.1-0.1c0-0.1,0-0.1,0-0.1c0-0.1,0-0.1-0.1-0.2C3,17,2.9,17,2.9,16.9
		c-0.1-0.1-0.1-0.2-0.1-0.3C2.9,16.6,2.9,16.5,2.9,16.5z M3.2,17.4C3.3,17.4,3.3,17.4,3.2,17.4c0.1,0.1,0.1,0.1,0,0.1c0,0,0,0-0.1,0
		H2.9c-0.1,0-0.1,0-0.1-0.1s0-0.1,0.1-0.1c0,0,0,0,0.1,0H3.2L3.2,17.4z M2.7,17.1C2.7,17.1,2.7,17.1,2.7,17.1
		c-0.1,0-0.1,0.1-0.1,0.1c0,0.1-0.1,0.1-0.1,0.1c-0.1,0-0.1-0.1-0.1-0.1c-0.1-0.1-0.1-0.1-0.1-0.1s0-0.1,0.1-0.2s0.1-0.1,0.2-0.1
		c0.1,0,0.1,0,0.2,0.1c0.1,0.1,0.1,0.1,0.2,0.2c0.1,0.1,0.1,0.1,0.1,0.2s0,0.1,0,0.2c0,0-0.1,0.1-0.1,0l0,0v-0.1
		c0-0.1-0.1-0.1-0.1-0.1c-0.1-0.1-0.1-0.2-0.1-0.2C2.8,17.1,2.7,17.1,2.7,17.1L2.7,17.1z M3.3,17.8c-0.1,0-0.1,0-0.1-0.1
		c0,0.1,0,0.1,0,0.1c0,0.1,0,0.1-0.1,0.1l0,0H3.1C3,17.8,3,17.8,3,17.8c0-0.1,0-0.1,0-0.1c0,0.1-0.1,0.1-0.1,0.1
		c-0.1,0-0.1-0.1-0.1-0.1s0.1-0.1,0.1-0.1c0-0.1,0.1-0.1,0.1-0.1h0.2c0,0.1,0.1,0.1,0.1,0.1c0.1,0.1,0.1,0.1,0.1,0.1
		C3.4,17.7,3.4,17.7,3.3,17.8z M3.8,17.1c0,0.1,0,0.1-0.1,0.1s-0.1,0.1-0.1,0.1c0-0.1,0-0.1-0.1-0.1c0-0.1-0.1-0.1-0.1-0.1
		c-0.1,0-0.1,0-0.1,0c-0.1,0-0.1,0.1-0.1,0.1c-0.1,0.1-0.1,0.1-0.1,0.1s-0.1,0.1-0.1,0.1v-0.1H3.2l0,0c0-0.1,0-0.1,0-0.2
		c0-0.1,0.1-0.1,0.1-0.2c0.1-0.1,0.1-0.1,0.2-0.2c0.1-0.1,0.1-0.1,0.2-0.1c0.1,0,0.2,0.1,0.2,0.1C3.8,17,3.8,17.1,3.8,17.1L3.8,17.1
		z M6.1,14.4c0.1-0.1,0.1-0.1,0.2-0.1c0.1,0,0.2,0.1,0.2,0.1c0.1,0.1,0.1,0.1,0.1,0.2c0,0.1,0,0.1-0.1,0.1c-0.1,0.1-0.1,0.1-0.1,0.1
		c0-0.1,0-0.1-0.1-0.1l-0.1-0.1H6.2c-0.1,0-0.1,0.1-0.1,0.1c-0.1,0.1-0.1,0.1-0.1,0.1S6,14.9,6,14.9s0,0,0,0.1H5.9l0,0
		c0-0.1,0-0.1,0-0.2S6,14.7,6,14.6C6,14.5,6.1,14.5,6.1,14.4L6.1,14.4z M5.9,20.5C5.9,20.5,5.9,20.5,5.9,20.5
		C5.9,20.5,5.8,20.6,5.9,20.5L5.9,20.5C5.8,20.5,5.8,20.5,5.9,20.5c-0.1-0.1-0.1-0.1-0.1-0.2c0-0.1-0.1-0.1-0.1-0.2
		c0-0.1,0-0.1,0-0.2c0-0.1,0-0.2,0.1-0.2c0.1-0.1,0.1-0.1,0.1-0.1c0,0,0,0,0.1,0h0.1c0.1,0.1,0.1,0.1,0.1,0.1s0.1,0.1,0.1,0.2
		S6.2,20,6.2,20.2C6,20.2,6,20.3,6,20.3C5.9,20.3,5.9,20.4,5.9,20.5L5.9,20.5z M6,20.6C6.1,20.6,6.1,20.6,6,20.6L6,20.6l-0.4,0.1
		c-0.1,0-0.1-0.1-0.1-0.1c0-0.1,0.1-0.1,0.1-0.1L6,20.6C6,20.6,6,20.6,6,20.6z M5.9,17.7C5.9,17.8,5.9,17.8,5.9,17.7
		c0,0.1,0,0.1-0.1,0.1H5.8c0,0,0,0-0.1,0l0,0c0-0.1,0-0.1,0-0.1c-0.1,0-0.1,0-0.1,0c-0.1,0-0.1-0.1-0.1-0.1c0.1,0,0.1-0.1,0.1-0.1
		c0-0.1,0.1-0.1,0.1-0.1H6c0,0.1,0.1,0.1,0.1,0.1c0.1,0.1,0.1,0.1,0.1,0.1c0.1,0-0.1,0.1-0.1,0.1C6,17.8,5.9,17.7,5.9,17.7z M6,17.5
		H5.6c-0.1,0-0.1,0-0.1-0.1s0-0.1,0.1-0.1c0,0,0,0,0.1,0h0.4c0.1,0,0.1,0,0.1,0.1C6.1,17.5,6.1,17.5,6,17.5
		C6.1,17.5,6.1,17.5,6,17.5z M5.9,17.2C5.9,17.3,5.9,17.3,5.9,17.2c0,0.1,0,0.1-0.1,0.1c0,0,0,0-0.1-0.1c0-0.1,0-0.1,0-0.1
		c0-0.1-0.1-0.1-0.1-0.2S5.6,17,5.6,16.9c-0.1-0.1-0.1-0.2-0.1-0.3c0-0.1,0-0.2,0.1-0.2c0.1-0.1,0.1-0.1,0.1-0.1h0.1h0.1
		c0.1,0.1,0.1,0.1,0.1,0.1c0.1,0.1,0.1,0.1,0.1,0.2c0,0.1-0.1,0.2-0.1,0.3c-0.1,0.1-0.1,0.1-0.1,0.2C5.9,17.1,5.9,17.2,5.9,17.2
		L5.9,17.2z M5.9,15.2C5.9,15.3,5.9,15.3,5.9,15.2c0,0.1,0,0.1-0.1,0.1H5.8c0,0,0,0-0.1,0c-0.1,0,0.1,0,0.1-0.1s0-0.1,0-0.1
		c-0.1,0.1-0.1,0.1-0.1,0.1c-0.1,0-0.1-0.1-0.1-0.1c0.1,0,0.1-0.1,0.1-0.1c0-0.1,0.1-0.1,0.1-0.1H6c0,0.1,0.1,0.1,0.1,0.1
		c0.1,0.1,0.1,0.1,0.1,0.1s-0.1,0.1-0.1,0.1C6,15.3,5.9,15.3,5.9,15.2L5.9,15.2z M5.6,15C5.6,14.9,5.6,14.9,5.6,15L6,14.9
		c0.1,0,0.1,0.1,0.1,0.1c0,0.1-0.1,0.1-0.1,0.1L5.6,15C5.6,15.1,5.6,15.1,5.6,15L5.6,15z M5.7,14c0.1-0.1,0.1-0.1,0.1-0.1h0.1h0.1
		C6,13.9,6,13.9,6.1,14s0.1,0.1,0.1,0.2s-0.1,0.2-0.1,0.3C6,14.5,6,14.6,6,14.7c0,0.1-0.1,0.1-0.1,0.2c0,0.1,0,0.1,0,0.1
		s0,0-0.1,0.1c0,0-0.1,0-0.1-0.1c0-0.1,0-0.1,0-0.1c0-0.1,0-0.1-0.1-0.2c0-0.1,0-0.1,0-0.2s0-0.2,0-0.3C5.7,14.2,5.7,14.1,5.7,14
		L5.7,14z M5.3,14.7C5.3,14.8,5.2,14.8,5.3,14.7c-0.1,0.1-0.1,0.1-0.1,0c0,0,0-0.1-0.1-0.1c0-0.1,0-0.1,0.1-0.2
		c0.1-0.1,0.1-0.1,0.2-0.1c0.1,0,0.1,0,0.2,0.1c0.1,0.1,0.1,0.1,0.2,0.2c0.1,0.1,0.1,0.1,0.1,0.2c0,0.1,0,0.1,0,0.2H5.6l0,0
		c0,0,0,0,0-0.1c0-0.1-0.1-0.1-0.1-0.1c-0.1-0.1-0.1-0.1-0.1-0.1c0-0.1-0.1-0.1-0.1-0.1C5.4,14.7,5.4,14.7,5.3,14.7
		C5.3,14.7,5.3,14.7,5.3,14.7L5.3,14.7z M5.3,17.1C5.3,17.2,5.2,17.2,5.3,17.1c-0.1,0.1-0.1,0.1-0.1,0.1c0-0.1,0-0.1,0-0.1
		s0.1-0.1,0.1-0.2c0.1-0.1,0.1-0.1,0.2-0.1c0.1,0,0.1,0,0.2,0.1c0.1,0.1,0.1,0.1,0.2,0.2c0,0,0,0.1,0,0.1s0,0.1,0,0.2l0,0l0,0v-0.1
		c0-0.1-0.1-0.1-0.1-0.1c-0.1-0.1-0.1-0.1-0.1-0.1c-0.1-0.1-0.1-0.1-0.1-0.1s-0.1,0-0.1,0C5.4,17.1,5.3,17.1,5.3,17.1L5.3,17.1z
		 M5.4,20.3C5.4,20.3,5.4,20.3,5.4,20.3c-0.1,0-0.1,0.1-0.1,0.1c0,0.1-0.1,0.1-0.1,0.1c-0.1,0-0.1,0-0.1-0.1v-0.1c0-0.1,0-0.1,0-0.2
		C5.2,20,5.3,20,5.4,20c0.1,0,0.1,0,0.2,0.1c0.1,0.1,0.1,0.1,0.2,0.2c0.1,0.1,0.1,0.1,0.1,0.2s0,0.1,0,0.2H5.7l0,0c0,0,0,0,0-0.1
		c0-0.1-0.1-0.1-0.1-0.1c-0.1-0.1-0.1-0.1-0.1-0.1C5.5,20.3,5.5,20.3,5.4,20.3z M6.1,20.9c-0.1,0-0.1,0-0.1-0.1c0,0.1,0,0.1,0,0.1
		c0,0.1,0,0.1-0.1,0.1H5.8H5.8c-0.1,0-0.1-0.1-0.1-0.1c0-0.1,0-0.1,0-0.1c-0.1,0.1-0.1,0.1-0.1,0.1s-0.1-0.1-0.1-0.1
		s0.1-0.1,0.1-0.1c0-0.1,0.1-0.1,0.1-0.1h0.2c0,0.1,0.1,0.1,0.1,0.1C6,20.9,6.1,20.9,6.1,20.9C6.2,20.9,6.1,20.9,6.1,20.9z
		 M6.5,20.2c0.1,0.1,0.1,0.1,0.1,0.2c0,0.1,0,0.1-0.1,0.1c-0.1,0.1-0.1,0.1-0.1,0.1c0-0.1,0-0.1-0.1-0.1c0-0.1-0.1-0.1-0.1-0.1H6.3
		c-0.1,0-0.1,0.1-0.1,0.1c-0.1,0.1-0.1,0.1-0.1,0.1s-0.1,0.1-0.1,0.1s0,0,0,0.1H6l0,0c0-0.1,0-0.1,0-0.2c0-0.1,0.1-0.1,0.1-0.2
		c0.1-0.1,0.1-0.1,0.2-0.2c0.1-0.1,0.1-0.1,0.2-0.1C6.4,20,6.4,20.1,6.5,20.2L6.5,20.2z M6.5,17.1c0,0.1,0,0.1-0.1,0.1
		c-0.1,0.1-0.1,0.1-0.1,0.1c0-0.1,0-0.1-0.1-0.1c0-0.1-0.1-0.1-0.1-0.1H6.2c-0.1,0-0.1,0.1-0.1,0.1c-0.1,0.1-0.1,0.1-0.1,0.1
		S6,17.3,6,17.3v-0.1H5.9l0,0c0-0.1,0-0.1,0-0.2C5.9,17.1,6,17,6,16.9c0.1-0.1,0.1-0.1,0.2-0.2c0.1-0.1,0.1-0.1,0.2-0.1
		c0.1,0,0.2,0.1,0.2,0.1C6.5,17,6.5,17.1,6.5,17.1L6.5,17.1z M8.5,16.5c0-0.1,0.1-0.1,0.1-0.1h0.1l0,0c0.1,0.1,0.1,0.1,0.1,0.1
		c0.1,0.1,0.1,0.1,0.1,0.2c0,0.1-0.1,0.2-0.1,0.3s0,0.1,0,0.2s-0.1,0.1-0.1,0.2s0,0.1,0,0.1s0,0-0.1,0.1c0,0-0.1,0-0.1-0.1
		s0-0.1,0-0.1c0-0.1-0.1-0.1-0.1-0.2s-0.1-0.1-0.1-0.2c-0.1-0.1-0.1-0.2-0.1-0.3C8.4,16.6,8.5,16.5,8.5,16.5L8.5,16.5z M8.8,17.4
		C8.8,17.4,8.8,17.5,8.8,17.4C8.8,17.5,8.8,17.5,8.8,17.4l-0.4,0.1c-0.1,0-0.1-0.1-0.1-0.1l0,0c0-0.1,0.1-0.1,0.1-0.1L8.8,17.4
		L8.8,17.4z M8.2,17.1C8.2,17.1,8.2,17.1,8.2,17.1c-0.1,0-0.1,0.1-0.1,0.1c0,0.1-0.1,0.1-0.1,0.1c-0.1,0-0.1-0.1-0.1-0.1
		c-0.1-0.1-0.1-0.1-0.1-0.1s0-0.1,0.1-0.2c0.1-0.1,0.1-0.1,0.2-0.1c0.1,0,0.1,0,0.2,0.1s0.1,0.1,0.2,0.2c0.1,0.1,0.1,0.1,0.1,0.2
		s0,0.1,0,0.2H8.5l0,0v-0.1c-0.1-0.1-0.1-0.1-0.1-0.2C8.2,17.1,8.2,17.1,8.2,17.1L8.2,17.1z M8.8,17.8c-0.1,0-0.1,0-0.1-0.1
		c0,0.1,0,0.1,0,0.1c0,0.1,0,0.1-0.1,0.1c0,0,0,0-0.1,0H8.5c-0.1-0.1-0.1-0.1-0.1-0.1c0-0.1,0-0.1,0-0.1c0.1,0.1,0,0.1-0.1,0.1
		c-0.1,0-0.1-0.1-0.1-0.1c0.1,0,0.1-0.1,0.1-0.1c0-0.1,0.1-0.1,0.1-0.1h0.2c0,0.1,0.1,0.1,0.1,0.1C8.8,17.7,8.8,17.7,8.8,17.8
		C8.9,17.7,8.8,17.7,8.8,17.8L8.8,17.8z M9.2,17.2C9.2,17.2,9.2,17.2,9.2,17.2c-0.1,0-0.1,0-0.1,0c0-0.1-0.1-0.1-0.1-0.1
		c-0.1-0.1-0.2,0-0.2,0.1c-0.1,0.1-0.1,0.1-0.1,0.1s-0.1,0.1-0.1,0.1v-0.1H8.7l0,0c0-0.1,0-0.1,0-0.2c0-0.1,0.1-0.1,0.1-0.2
		c0.1-0.1,0.1-0.1,0.2-0.2C9,16.7,9,16.7,9.1,16.7c0.1,0,0.2,0.1,0.2,0.1c0.1,0.1,0.1,0.1,0.1,0.2C9.3,17.1,9.2,17.1,9.2,17.2z
		 M4.4,11.8c-0.1-0.1-0.2,0.1-0.2,0.2c0.1,0.1,0.1,0.1,0.2,0.1c0.1,0,0.1,0.1,0.1,0.1l0,0c0,0.1,0,0.2,0,0.3c0.1,0,0.2,0.1,0.3,0
		h0.6c0.1,0,0.1,0,0.1,0c0.1,0,0.1,0.1,0.1,0.1c0.1,0,0.1,0,0.2,0l0,0c0.1-0.1,0.1-0.1,0.2-0.1h0.6c0.1,0.1,0.2,0,0.2,0
		c0-0.1,0.1-0.2,0-0.3c0-0.1,0-0.1,0.1-0.1c0.1,0,0.1,0,0.1,0c0.2,0,0.2-0.2,0.1-0.3c-0.1-0.1-0.2,0.1-0.2-0.1v-0.6
		c0-0.1,0-0.1,0-0.2c0.2,0,0.2,0,0.3-0.1c0.1-0.1-0.1-0.2-0.1-0.2c0,0,0,0-0.1,0c-0.1,0-0.1,0-0.1,0s-0.1,0-0.1-0.1l0,0
		c0-0.1,0-0.2-0.1-0.3c-0.1-0.1-0.2-0.1-0.4-0.1c-0.1-0.1-0.1-0.1-0.2,0c-0.1,0-0.2,0-0.3,0c-0.1,0-0.2,0.1-0.2,0.1
		c-0.1,0-0.1,0.1-0.1,0.1c-0.1,0-0.1-0.1-0.2-0.1c-0.2,0-0.3,0-0.5,0c-0.1,0-0.1-0.1-0.2-0.1c-0.1,0-0.1,0.1-0.1,0.1
		c-0.1,0-0.1,0-0.1,0H4.5c-0.1,0-0.1,0-0.2,0c-0.1,0,0.1,0.2-0.1,0.3c-0.2,0-0.2,0-0.2,0.1C4,11,4.2,11,4.3,11c0,0.1,0,0.2,0,0.4
		C4.4,11.5,4.4,11.7,4.4,11.8C4.4,11.8,4.4,11.8,4.4,11.8z M5.5,12.2C5.5,12.2,5.5,12.2,5.5,12.2c-0.3-0.1-0.5,0-0.7,0
		c-0.1-0.1,0.1-0.2,0.1-0.2c0.2,0.1,0.4,0.1,0.5,0.1C5.5,12.1,5.5,12.2,5.5,12.2C5.6,12.2,5.5,12.2,5.5,12.2z M6.6,10.4
		c0.1-0.1,0.1-0.1,0.2,0l0,0c0.1,0.1-0.1,0.3,0.1,0.3c0.1,0,0.1,0,0.1,0h0.1c0,0,0,0,0.1,0.1c0.1,0.1,0.1,0.1,0.1,0.1S7,11,7,11
		c-0.1,0-0.1,0-0.1,0c-0.1,0.1-0.1,0.1-0.1,0.2s-0.1,0.4,0,0.6c0,0.1,0.1,0.1,0.2,0.1c0.1,0,0.1,0.1,0.1,0.1
		c0.1,0.2-0.2,0.1-0.3,0.2c-0.1,0.1,0.1,0.2,0,0.3c0,0.1-0.1,0.1-0.1,0.1H6.4c-0.1,0-0.1,0-0.2,0c-0.1,0-0.2,0-0.3,0
		c-0.1,0-0.1-0.1-0.1-0.1l0,0c0-0.1,0-0.1,0.1-0.1c0.1,0,0.2,0,0.3,0c0.1,0,0.1,0,0.2,0c0.1,0,0.2,0,0.3-0.1c0-0.3,0-0.5,0-0.8v-0.6
		c0-0.1,0-0.2,0-0.2C6.6,10.5,6.6,10.5,6.6,10.4C6.6,10.5,6.6,10.4,6.6,10.4L6.6,10.4z M6.5,10.5L6.5,10.5
		C6.5,10.4,6.5,10.5,6.5,10.5c0.1,0.1,0.1,0.1,0.1,0.1c0,0.1,0,0.3,0,0.4s0,0.1,0,0.1s0,0.1,0,0.1c0,0.3,0,0.9,0,0.9
		c0,0.1,0,0.1-0.1,0.1C6.5,12,6.5,12,6.4,11.9C6.4,11.3,6.5,11.1,6.5,10.5z M6.5,12.1C6.5,12.1,6.5,12.2,6.5,12.1
		c0.1,0.1-0.1,0.1-0.1,0.1c-0.2,0-0.3,0-0.5,0c-0.1-0.1-0.1-0.1,0-0.1C5.9,12.1,6.2,12.1,6.5,12.1C6.4,12.1,6.5,12.1,6.5,12.1
		L6.5,12.1z M5.6,11.3c0-0.2,0-0.4,0-0.5c0-0.1,0-0.2,0-0.2s0-0.1,0.1-0.1c0.1-0.1,0.1-0.1,0.2-0.1c0.1-0.1,0.2,0,0.4,0
		c0.1,0,0.1,0,0.1,0c0.1,0,0.1,0.1,0.1,0.1c0,0.5,0,1,0,1.3c0,0.1,0,0.1,0,0.2c-0.1,0.1-0.2,0.1-0.2,0.1s-0.1,0-0.2,0
		c-0.1,0-0.1,0-0.2,0c-0.1,0,0.1,0,0,0c0,0.1,0,0.1-0.1,0.1c0-0.1,0-0.2,0-0.2C5.6,11.7,5.7,11.4,5.6,11.3L5.6,11.3z M5.8,12.2
		C5.8,12.3,5.8,12.3,5.8,12.2c0.1,0.1,0.1,0.1,0,0.2c0,0.1,0,0.1-0.1,0.1c-0.1,0-0.1,0-0.1,0H5.6c-0.1,0-0.1-0.1-0.1-0.1v-0.1
		c0-0.1,0.1-0.1,0.1-0.1l0,0C5.6,12.2,5.8,12.2,5.8,12.2L5.8,12.2z M4.9,11.8c0-0.4,0-0.8,0-1.2c0-0.1,0-0.1,0-0.2l0,0
		c0-0.1,0.1-0.1,0.1-0.1c0.1,0,0.1,0,0.1,0h0.1c0.1,0,0.1,0,0.2,0c0.1,0,0.1,0,0.1,0c0.1,0,0.2,0.1,0.3,0.1c0,0.4,0,0.8,0,1.1l0,0
		H5.5c0,0-0.1,0-0.1-0.1v-0.1l-0.1-0.1c0-0.1-0.1-0.1-0.1-0.1c0.1-0.1,0.1-0.1,0.1-0.2S5.4,11,5.4,11c0-0.1-0.1-0.1-0.1-0.1
		s-0.2,0-0.2,0l0,0V11l0,0c0.1,0,0.1,0,0.1,0.1v0.5c0,0.1,0,0.1-0.1,0.1H4.9v0.1h0.3v-0.1H5.2c-0.1,0-0.1,0-0.1-0.1v-0.2h0.1
		c0.1,0.1,0.1,0.1,0.1,0.1l0.1,0.1c0.1,0.1,0.1,0.1,0.1,0.2c0.1,0.1,0.1,0.1,0.2,0.1h0.1c0,0.1,0,0.3-0.1,0.4
		c-0.1,0-0.1-0.1-0.2-0.1c-0.2,0-0.3,0.1-0.5,0C4.8,12,4.8,12,4.8,12C4.9,11.9,4.9,11.9,4.9,11.8L4.9,11.8z M5.4,11.1
		c0,0.1-0.1,0.1-0.1,0.2H5.2H5.2V11h0.1C5.3,11,5.4,11,5.4,11.1C5.4,11.1,5.4,11.1,5.4,11.1L5.4,11.1z M4.8,10.5L4.8,10.5L4.8,10.5
		l0.1,1.1c0,0.2,0,0.3-0.1,0.5c-0.1,0-0.1,0.1-0.1,0.1c-0.1-0.4,0-0.7,0-0.9c0-0.1,0-0.1,0-0.2V11v-0.1c0-0.1,0-0.1,0-0.2
		C4.6,10.6,4.6,10.5,4.8,10.5L4.8,10.5z M4.5,11.8c0-0.1,0-0.1,0-0.2c0-0.1,0-0.1,0-0.2c0-0.2,0-0.3-0.1-0.4c-0.1-0.1-0.2,0-0.2-0.1
		c-0.1-0.1,0-0.1,0.1-0.2h0.1c0.1,0,0.1,0.1,0.2,0c0-0.1,0-0.2,0-0.2s0.1-0.1,0.1-0.1c0.1-0.1,0.1,0,0.2,0.1c0,0,0,0.1-0.1,0.1v-0.1
		c-0.1,0.1-0.1,0.2,0,0.4c0,0.3,0,0.4,0,0.6v0.1c0,0.1,0,0.1,0,0.1c0,0.1,0,0.1,0,0.1s0,0.1,0,0.1c0,0.1,0,0.1,0,0.1
		c0,0.1-0.1,0.3,0.1,0.4c0.1,0,0.2,0,0.2,0c0.2,0,0.4,0,0.5,0c0.1,0,0.1,0.1,0.1,0.1c0,0.1,0,0.1-0.1,0.1l0,0c-0.3,0-0.6,0-0.9,0
		c0,0-0.1-0.1,0-0.1c0-0.1,0.1-0.2-0.1-0.2c-0.1,0-0.1,0-0.2,0v-0.1l0.1-0.1c0.1,0,0.1,0,0.1,0C4.4,11.8,4.4,11.8,4.5,11.8L4.5,11.8
		z M6.2,11.7H5.9v-0.1l0,0c0.1,0,0.1,0,0.1-0.1v-0.4c0-0.1,0-0.1-0.1-0.1l0,0v-0.1h0.3V11l0,0c-0.1,0-0.1,0-0.1,0.1v0.5
		C6.1,11.6,6.1,11.7,6.2,11.7L6.2,11.7L6.2,11.7L6.2,11.7z"/>
	<ellipse cx="16.7" cy="21.9" rx="0.4" ry="0.5"/>
	<ellipse cx="23.4" cy="21.9" rx="0.4" ry="0.5"/>
	<polygon points="48.3,24.8 48.1,24.8 48.1,17.9 48.1,7.2 48.3,7.2 48.3,11 	"/>
	<g>
		<path d="M49.9,14.8h1.6v0.5h-1.1v0.6h0.9v0.5h-0.9v1.1h-0.6V14.8L49.9,14.8z"/>
		<path d="M52.3,14.8H53l0.8,2.6h-0.6l-0.2-0.6h-0.8l-0.2,0.6h-0.6L52.3,14.8z M52.4,16.3h0.6l-0.1-0.2c-0.1-0.3-0.2-0.6-0.2-0.8
			l0,0c-0.1,0.3-0.1,0.6-0.2,0.8L52.4,16.3z"/>
		<path d="M53.9,16.1c0-0.9,0.6-1.3,1.2-1.3c0.4,0,0.6,0.2,0.8,0.4l-0.3,0.4c-0.1-0.1-0.3-0.2-0.5-0.2c-0.4,0-0.6,0.3-0.6,0.8
			c0,0.5,0.3,0.8,0.6,0.8c0.2,0,0.4-0.1,0.5-0.2l0.3,0.4c-0.2,0.3-0.5,0.4-0.8,0.4C54.5,17.5,53.9,17,53.9,16.1z"/>
		<path d="M56.3,16.2v-1.4h0.6v1.5c0,0.5,0.2,0.7,0.5,0.7c0.3,0,0.5-0.2,0.5-0.7v-1.5h0.6v1.4c0,0.9-0.4,1.2-1.1,1.2
			C56.7,17.5,56.3,17.1,56.3,16.2z"/>
		<path d="M59,14.8h0.6v2.1h1.1v0.5H59V14.8z"/>
		<path d="M61.1,14.8h0.7c0.8,0,1.3,0.4,1.3,1.3s-0.5,1.3-1.3,1.3h-0.8V14.8z M61.8,16.9c0.5,0,0.8-0.2,0.8-0.8s-0.3-0.8-0.8-0.8
			h-0.1V17L61.8,16.9L61.8,16.9z"/>
		<path d="M64.1,14.8h0.7l0.8,2.6H65l-0.2-0.6H64l-0.2,0.6h-0.6L64.1,14.8z M64.1,16.3h0.6l-0.1-0.2c-0.1-0.3-0.2-0.6-0.2-0.8l0,0
			c-0.1,0.3-0.1,0.6-0.2,0.8L64.1,16.3z"/>
		<path d="M65.9,14.8h0.7c0.8,0,1.3,0.4,1.3,1.3s-0.5,1.3-1.3,1.3h-0.8V14.8z M66.6,16.9c0.5,0,0.8-0.2,0.8-0.8s-0.3-0.8-0.8-0.8
			h-0.1V17L66.6,16.9L66.6,16.9z"/>
		<path d="M68.5,14.8h1.6v0.5h-1.1v0.5H70v0.5h-0.9v0.6h1.1v0.5h-1.7V14.8z"/>
		<path d="M71.5,14.8h0.7c0.8,0,1.3,0.4,1.3,1.3s-0.5,1.3-1.3,1.3h-0.8V14.8z M72.2,16.9c0.5,0,0.8-0.2,0.8-0.8s-0.3-0.8-0.8-0.8
			h-0.1V17L72.2,16.9L72.2,16.9z"/>
		<path d="M74,14.8h1.6v0.5h-1.1v0.5h0.9v0.5h-0.9v0.6h1.1v0.5H74C74,17.3,74,14.8,74,14.8z"/>
		<path d="M76.8,17.1l0.4-0.4c0.2,0.2,0.4,0.3,0.6,0.3s0.4-0.1,0.4-0.3c0-0.2-0.2-0.2-0.4-0.3l-0.4-0.2c-0.3-0.1-0.5-0.4-0.5-0.7
			c0-0.4,0.4-0.8,0.9-0.8c0.3,0,0.6,0.1,0.8,0.4l-0.3,0.4c-0.2-0.1-0.4-0.2-0.5-0.2c-0.2,0-0.4,0.1-0.4,0.2s0.2,0.2,0.4,0.3l0.4,0.2
			c0.3,0.1,0.5,0.4,0.5,0.7c0,0.4-0.4,0.8-1,0.8C77.5,17.5,77.1,17.3,76.8,17.1z"/>
		<path d="M79.8,14.8h0.7l0.8,2.6h-0.6l-0.2-0.6h-0.8l-0.2,0.6h-0.6L79.8,14.8z M79.8,16.3h0.6l-0.1-0.2c-0.1-0.3-0.2-0.6-0.2-0.8
			l0,0c-0.1,0.3-0.1,0.6-0.2,0.8L79.8,16.3z"/>
		<path d="M81.5,16.2v-1.4h0.6v1.5c0,0.5,0.2,0.7,0.5,0.7s0.5-0.2,0.5-0.7v-1.5h0.6v1.4c0,0.9-0.4,1.2-1.1,1.2
			C81.9,17.5,81.5,17.1,81.5,16.2z M82.3,14.4l0.7-0.6l0.3,0.4l-0.7,0.5L82.3,14.4z"/>
		<path d="M84.2,14.8h0.7c0.8,0,1.3,0.4,1.3,1.3s-0.5,1.3-1.3,1.3h-0.8V14.8z M84.9,16.9c0.5,0,0.8-0.2,0.8-0.8s-0.3-0.8-0.8-0.8
			h-0.1V17L84.9,16.9L84.9,16.9z"/>
		<path d="M86.7,14.8h1.6v0.5h-1.1v0.5h0.9v0.5h-0.9v0.6h1.1v0.5h-1.7V14.8z"/>
		<path d="M89.8,14.8h0.9c0.6,0,1.1,0.2,1.1,0.8c0,0.6-0.5,0.9-1.1,0.9h-0.4v0.9h-0.6V14.8L89.8,14.8z M90.7,16.1
			c0.4,0,0.5-0.2,0.5-0.4c0-0.3-0.2-0.4-0.5-0.4h-0.3v0.8L90.7,16.1L90.7,16.1z"/>
		<path d="M92.2,16.2v-1.4h0.6v1.5c0,0.5,0.2,0.7,0.5,0.7c0.3,0,0.5-0.2,0.5-0.7v-1.5h0.6v1.4c0,0.9-0.4,1.2-1.1,1.2
			C92.5,17.5,92.2,17.1,92.2,16.2z M92.9,14.4l0.7-0.6l0.3,0.4l-0.7,0.5L92.9,14.4z"/>
		<path d="M94.8,14.8h0.9c0.5,0,0.9,0.2,0.9,0.6c0,0.2-0.1,0.5-0.4,0.6l0,0c0.3,0.1,0.5,0.3,0.5,0.6c0,0.5-0.5,0.8-1.1,0.8h-1
			L94.8,14.8L94.8,14.8z M95.7,15.8c0.3,0,0.4-0.1,0.4-0.3s-0.1-0.3-0.4-0.3h-0.3v0.6H95.7z M95.8,16.9c0.3,0,0.5-0.1,0.5-0.4
			s-0.2-0.3-0.5-0.3h-0.4v0.6H95.8z"/>
		<path d="M97.3,14.8h0.6v2.1h1.1v0.5h-1.6V14.8L97.3,14.8z"/>
		<path d="M99.4,14.8h0.6v2.6h-0.6V14.8z"/>
		<path d="M100.5,16.1c0-0.9,0.6-1.3,1.2-1.3c0.4,0,0.6,0.2,0.8,0.4l-0.3,0.4c-0.1-0.1-0.3-0.2-0.5-0.2c-0.4,0-0.6,0.3-0.6,0.8
			c0,0.5,0.3,0.8,0.6,0.8c0.2,0,0.4-0.1,0.5-0.2l0.3,0.4c-0.2,0.3-0.5,0.4-0.8,0.4C101,17.5,100.5,17,100.5,16.1z"/>
		<path d="M103.4,14.8h0.7l0.8,2.6h-0.6l-0.2-0.6h-0.8l-0.2,0.6h-0.6L103.4,14.8z M103.5,16.3h0.6l-0.1-0.2
			c-0.1-0.3-0.2-0.6-0.2-0.8l0,0c-0.1,0.3-0.1,0.6-0.2,0.8L103.5,16.3z"/>
	</g>
</g>
</svg>
