<svg id="Layer_6" data-name="Layer 6" xmlns="http://www.w3.org/2000/svg" viewBox="0 0 84.186 9.431"><rect x="0.174" y="0.174" width="7.604" height="2.341" fill="#fff"/><path d="M25.185,11.457h-7.6V13.8h7.6ZM19.9,13.086a.194.194,0,0,0-.076,0,.041.041,0,0,0-.026.047.774.774,0,0,1,0,.2.308.308,0,0,1-.172.023h-.491a.18.18,0,0,0-.131.018.063.063,0,0,1-.033.029.186.186,0,0,1-.143,0,.4.4,0,0,0-.051-.041.463.463,0,0,0-.105-.006H18.22a.331.331,0,0,1-.235-.031,1.753,1.753,0,0,1,0-.205.041.041,0,0,0-.041-.04h0c-.105,0-.15,0-.166-.08-.025-.117.049-.154.162-.137h.012a.6.6,0,0,0,.029-.326v-.253c-.117,0-.23,0-.205-.142.016-.082.067-.094.176-.086.084-.049-.019-.223.065-.257a.443.443,0,0,1,.115,0h.039a.309.309,0,0,0,.1,0,.216.216,0,0,1,.045-.029,1.178,1.178,0,0,1,.131.029,2.4,2.4,0,0,1,.317,0,.462.462,0,0,1,.131.071.1.1,0,0,1,.057-.035.485.485,0,0,1,.183-.043,1.551,1.551,0,0,0,.255,0c.058-.012.1-.034.131,0a.592.592,0,0,1,.268.017.47.47,0,0,1,.015.2v.023c0,.018.01.012.024.016a.421.421,0,0,0,.072,0,.119.119,0,0,1,.108.129l0,.021c-.026.079-.092.069-.2.073a.3.3,0,0,0,0,.127v.409c.016.082.083.023.161.066S20.041,13.094,19.9,13.086Zm2.316,0a.224.224,0,0,0-.073,0,.042.042,0,0,0-.029.047.734.734,0,0,1-.01.2.292.292,0,0,1-.172.023H21.48a.176.176,0,0,0-.131.02.055.055,0,0,1-.031.029.187.187,0,0,1-.143,0,.4.4,0,0,0-.051-.041.375.375,0,0,0-.082,0h-.473a.332.332,0,0,1-.235-.031,1.736,1.736,0,0,1,0-.2.041.041,0,0,0-.041-.041h0c-.105,0-.15,0-.166-.08-.024-.117.047-.154.164-.137H20.3a.6.6,0,0,0,.027-.334v-.253c-.117,0-.23,0-.2-.142.014-.082.068-.094.176-.086.082-.049-.02-.223.063-.257a.443.443,0,0,1,.115,0h.039a.309.309,0,0,0,.1,0,.216.216,0,0,1,.045-.029,1.178,1.178,0,0,1,.131.029,2.518,2.518,0,0,1,.325,0,.427.427,0,0,1,.131.071.1.1,0,0,1,.058-.035.464.464,0,0,1,.18-.045,1.145,1.145,0,0,0,.219,0c.057-.012.1-.034.131,0a.593.593,0,0,1,.268.017.455.455,0,0,1,.016.2.089.089,0,0,1,0,.023c0,.018.01.012.027.016a.388.388,0,0,0,.069,0,.118.118,0,0,1,.108.129l0,.021c-.027.079-.095.069-.2.073a.3.3,0,0,0,0,.127v.409c.016.082.084.023.162.066a.112.112,0,0,1-.068.207Zm2.622,0a.194.194,0,0,0-.076,0,.043.043,0,0,0-.027.047.774.774,0,0,1,0,.2.307.307,0,0,1-.172.023H23.9a.182.182,0,0,0-.131.02.048.048,0,0,1-.03.029.186.186,0,0,1-.143,0,.348.348,0,0,0-.052-.041.366.366,0,0,0-.081,0h-.582a.327.327,0,0,1-.237-.031,1.735,1.735,0,0,1,0-.2.041.041,0,0,0-.041-.041h0c-.1,0-.149,0-.166-.08-.024-.117.047-.154.162-.137h.012a.587.587,0,0,0,.033-.334v-.253c-.117,0-.227,0-.2-.142.015-.082.068-.094.176-.086.084-.049-.02-.223.064-.257a.435.435,0,0,1,.114,0h.039a.309.309,0,0,0,.1,0,.248.248,0,0,1,.037-.029,1.178,1.178,0,0,1,.131.029,3.49,3.49,0,0,1,.422,0,.451.451,0,0,1,.131.071.089.089,0,0,1,.057-.035.478.478,0,0,1,.182-.045,3.528,3.528,0,0,0,.424,0c.057-.012.1-.034.129,0a.586.586,0,0,1,.266.017.47.47,0,0,1,.016.2.089.089,0,0,1,0,.023c0,.018.01.012.027.016a.388.388,0,0,0,.069,0,.118.118,0,0,1,.108.129l0,.021c-.027.079-.1.069-.205.073a.3.3,0,0,0,0,.127v.409c.016.082.084.023.162.066s.1.215-.054.207Z" transform="translate(-17.408 -11.283)"/><path d="M17.408,11.283V13.92a8.007,8.007,0,0,0,3.924,6.763l.047.031.047-.031a7.992,7.992,0,0,0,3.933-6.763V11.283Zm3.975,9.224a7.822,7.822,0,0,1-3.8-6.533h7.6A7.811,7.811,0,0,1,21.383,20.507Zm3.8-6.711h-7.6V11.457h7.6V13.8Zm-7.249-.929c-.113-.017-.187.02-.162.137.016.073.061.086.166.08a.041.041,0,0,1,.041.04h0a1.753,1.753,0,0,0,0,.205.331.331,0,0,0,.239.031h.452a.393.393,0,0,1,.084,0,.4.4,0,0,1,.051.041.186.186,0,0,0,.143,0,.063.063,0,0,0,.033-.029.181.181,0,0,1,.133-.012h.491a.314.314,0,0,0,.172,0,.7.7,0,0,0,0-.205.044.044,0,0,1,.027-.047.242.242,0,0,1,.076,0c.149,0,.143-.131.059-.205s-.145.017-.162-.065v-.409a.339.339,0,0,1,0-.127c.1,0,.168,0,.205-.074a.118.118,0,0,0-.084-.145l-.021,0h-.071c-.041,0-.025,0-.025-.017a.081.081,0,0,0,0-.022.474.474,0,0,0-.014-.2.593.593,0,0,0-.268-.016c-.031-.045-.072-.023-.131,0a1.563,1.563,0,0,1-.256,0,.476.476,0,0,0-.182.043.089.089,0,0,0-.057.035.479.479,0,0,0-.131-.072,2.4,2.4,0,0,0-.317,0c-.044-.012-.087-.021-.131-.029a.231.231,0,0,0-.045.029.316.316,0,0,1-.1,0h-.038a.443.443,0,0,0-.115,0c-.084.035.018.205-.065.258-.109,0-.16,0-.176.086-.025.137.088.139.2.141v.254a.584.584,0,0,1-.033.315A.017.017,0,0,1,17.936,12.867Zm.836.317a.028.028,0,0,1-.022,0c-.182-.021-.319.012-.518,0-.051-.062.053-.119.1-.125a1.916,1.916,0,0,0,.386.022.216.216,0,0,1,.092.039C18.824,13.155,18.787,13.165,18.772,13.184Zm.819-1.306a.1.1,0,0,1,.135-.014l.014.014c.033.051-.028.191.039.219a.2.2,0,0,0,.06,0h.043a.079.079,0,0,1,.051.015.068.068,0,0,1,.008.1.073.073,0,0,1-.045.023H19.8c-.07.017-.058.09-.058.168s-.014.321,0,.448c0,.076.093.027.16.047a.083.083,0,0,1,.049.053c.025.15-.18.037-.2.125s.016.131,0,.2a.073.073,0,0,1-.076.051h-.616c-.037-.015-.029-.039-.029-.066a.044.044,0,0,1,.029-.039c.076,0,.151,0,.227,0h.164a.318.318,0,0,0,.192-.028V12.155a1.459,1.459,0,0,0,0-.162.478.478,0,0,0-.051-.1s0-.017,0-.009Zm-.082.049c0-.014,0-.018.016-.024s.035.014.045.024a.108.108,0,0,1,.041.064,2.129,2.129,0,0,1,0,.288.457.457,0,0,1,0,.074c0,.02,0,.041,0,.061.013.205,0,.647,0,.686s0,.037-.022.022a.428.428,0,0,1-.076-.135C19.5,12.527,19.511,12.351,19.509,11.927Zm.021,1.2a.086.086,0,0,1,.028.045c0,.043-.1.029-.149.029H19a.06.06,0,0,1,0-.086c.041-.055.319,0,.46-.045a.1.1,0,0,1,.068.055Zm-.627-.613V11.97a.2.2,0,0,1,.023-.079.347.347,0,0,1,.112-.056,2.275,2.275,0,0,1,.309,0c.022,0,.043,0,.064,0a.074.074,0,0,1,.057.056v1a.351.351,0,0,1,0,.121.352.352,0,0,1-.159.039,1.015,1.015,0,0,1-.156,0,.612.612,0,0,0-.121,0,.171.171,0,0,0-.055.029.067.067,0,0,1-.061.016.374.374,0,0,1,0-.149c-.013-.158-.013-.35-.013-.434Zm.068.712a.134.134,0,0,1,.014.053.25.25,0,0,1-.026.08.053.053,0,0,1-.041.028.068.068,0,0,1-.056,0,.1.1,0,0,1-.038-.024.086.086,0,0,1-.039-.045.141.141,0,0,1,0-.041.1.1,0,0,1,.055-.1h0a.086.086,0,0,1,.118.027.085.085,0,0,1,.011.026Zm-.669-.336v-.894a.475.475,0,0,1,.01-.119h0a.094.094,0,0,1,.07-.035h.141a.408.408,0,0,0,.092.013.476.476,0,0,0,.057-.013.206.206,0,0,1,.2.09v.819a1.185,1.185,0,0,1-.017.331.471.471,0,0,1-.122-.034c-.111-.013-.225.014-.336,0a.2.2,0,0,1-.09-.033A.477.477,0,0,1,18.3,12.885Zm-.078-.988a.031.031,0,0,1,.038.021v.805a.9.9,0,0,1-.025.338.128.128,0,0,1-.073.068c-.017-.258,0-.51,0-.694v-.207a.9.9,0,0,1,0-.127A.185.185,0,0,1,18.224,11.9Zm-.205.957a.984.984,0,0,0,0-.133v-.143A1.153,1.153,0,0,0,18,12.257c-.053-.045-.141.031-.184-.047a.078.078,0,0,1,.043-.1l.026-.006c.066-.018.1.029.127-.034a.988.988,0,0,0,0-.172.049.049,0,0,1,.043-.051.109.109,0,0,1,.119.024.3.3,0,0,0-.018.041.259.259,0,0,0-.031.035.835.835,0,0,0,0,.264v.6a.17.17,0,0,0,0,.045v.115c0,.069-.037.229.029.256a.584.584,0,0,0,.167,0h.36a.057.057,0,0,1,.054.039.05.05,0,0,1-.025.065l-.006,0h-.655a.089.089,0,0,1-.037-.1c0-.07.037-.148-.022-.176a.329.329,0,0,0-.117,0,.072.072,0,0,1-.063-.068.087.087,0,0,1,.041-.073.148.148,0,0,1,.055-.013c.043,0,.1.023.108-.045Zm.346-.614h0V12.2h.213v.045h-.014c-.033,0-.047.01-.047.032a.188.188,0,0,0,.01.047l.09.3.086-.315a.161.161,0,0,0,0-.031c0-.024-.014-.032-.047-.032h0V12.2h.164v.045h0a.048.048,0,0,0-.048.034c-.008.025-.016.049-.022.074l-.135.454H18.57l-.145-.489c-.021-.067-.029-.073-.06-.073Zm4.717.123h-.033l.012-.184h.029a.022.022,0,0,0,.027.014h.315a.019.019,0,0,0,.018-.016h.027l.012.184h-.035c-.014-.1-.02-.108-.067-.108h-.07v.409c0,.065,0,.08.051.08h.011v.045h-.232v-.041h.027c.041,0,.053-.01.053-.08v-.409h-.071c-.054,0-.062,0-.074.108h0Zm-3.72.432h-.375v-.049h.025c.039,0,.049,0,.049-.078V12.32c0-.067-.01-.077-.049-.077h0V12.2h.346v.143h-.037c0-.074-.014-.08-.049-.08h-.119v.205h.086c.041,0,.049,0,.051-.066h.031v.205h-.035v-.027c0-.043-.012-.055-.051-.055h-.082v.129a.14.14,0,0,0,0,.076h.1c.051,0,.066-.017.078-.093h.031Zm4.87-.129a.141.141,0,0,0-.068-.115l-.037-.026a.27.27,0,0,1-.069-.07.205.205,0,0,1-.031-.118.141.141,0,0,1,.124-.157h.009a.254.254,0,0,1,.09.023h.021l.012.157h-.014a.126.126,0,0,0-.1-.121.06.06,0,0,0-.059.06v0a.11.11,0,0,0,.055.092l.015.01.018.019.043.038a.23.23,0,0,1,.074.17.163.163,0,0,1-.141.18h0a.2.2,0,0,1-.079-.02h-.019V12.8H24.04l-.017-.176h.031a.138.138,0,0,0,.106.139.08.08,0,0,0,.074-.085Zm-1.637.205c-.115-.017-.188.02-.162.137.017.073.062.086.166.08a.041.041,0,0,1,.041.041h0a1.736,1.736,0,0,0,0,.2.328.328,0,0,0,.247.027h.563a.375.375,0,0,1,.082,0,.4.4,0,0,1,.051.041.186.186,0,0,0,.143,0,.055.055,0,0,0,.031-.029.182.182,0,0,1,.131-.02h.659a.305.305,0,0,0,.172.008.782.782,0,0,0,0-.205.044.044,0,0,1,.026-.047.242.242,0,0,1,.076,0c.152,0,.143-.131.06-.205s-.146.017-.162-.065v-.409a.3.3,0,0,1,0-.127c.1,0,.168,0,.2-.074a.117.117,0,0,0-.083-.145l-.021,0H24.75c-.041,0-.027,0-.027-.017a.081.081,0,0,0,0-.022.473.473,0,0,0-.016-.2.585.585,0,0,0-.266-.016c-.031-.045-.072-.023-.129,0a3.332,3.332,0,0,1-.424,0,.478.478,0,0,0-.182.045.086.086,0,0,0-.057.035.479.479,0,0,0-.131-.072,2.7,2.7,0,0,0-.422,0,1.1,1.1,0,0,0-.127-.053.266.266,0,0,0-.045.029.309.309,0,0,1-.1,0h-.039a.435.435,0,0,0-.114,0c-.084.034.02.2-.064.257-.106,0-.161,0-.176.086-.024.137.088.139.205.142v.253a.584.584,0,0,1-.033.315l0,.011Zm.941.317a.028.028,0,0,1-.022,0c-.18-.021-.424.012-.614,0-.051-.062.053-.119.1-.125a3.125,3.125,0,0,0,.493.023.207.207,0,0,1,.092.038c.013.031-.026.041-.041.06Zm.192.172a.053.053,0,0,1-.04.028.077.077,0,0,1-.056,0,.109.109,0,0,1-.049-.016.087.087,0,0,1-.037-.045.281.281,0,0,1,0-.041.1.1,0,0,1,.056-.1h0a.087.087,0,0,1,.122.021.128.128,0,0,1,.011.02.194.194,0,0,1,.012.053A.224.224,0,0,1,23.728,13.36Zm.807-1.484a.1.1,0,0,1,.135-.014l.014.014c.033.051-.027.188.039.219a.208.208,0,0,0,.061,0h.043a.077.077,0,0,1,.051.015.065.065,0,0,1,.016.091.067.067,0,0,1-.05.027h-.092c-.072.017-.058.09-.058.168s-.014.321,0,.448c0,.076.094.027.16.047a.085.085,0,0,1,.047.053c.025.15-.182.037-.2.125s.017.131,0,.195a.074.074,0,0,1-.075.051h-.788c-.037-.015-.029-.039-.027-.066a.044.044,0,0,1,.029-.039h.559a.313.313,0,0,0,.19-.028V12.155a1.459,1.459,0,0,0,0-.162.478.478,0,0,0-.051-.1s0-.017,0-.009Zm-.086.051a.019.019,0,0,1,.015-.024h0c.021-.01.035.014.045.024a.106.106,0,0,1,.041.064,2.306,2.306,0,0,1,0,.288c0,.025,0,.049,0,.074v.061c.012.205,0,.649,0,.686s-.01.037-.022.022a.388.388,0,0,1-.078-.135C24.443,12.527,24.453,12.351,24.449,11.927Zm.018,1.193a.076.076,0,0,1,.029.045c0,.043-.105.029-.152.029h-.575a.062.062,0,0,1,0-.086c.041-.055.487,0,.629-.045A.1.1,0,0,1,24.467,13.12Zm-1.5-.235v-.894a.592.592,0,0,1,0-.119h0a.1.1,0,0,1,.07-.035h.135c.047,0,.164.017.205.013a.472.472,0,0,0,.057-.013.205.205,0,0,1,.194.1v.116h.035a.482.482,0,0,1,0-.076.168.168,0,0,1,.023-.079.364.364,0,0,1,.11-.054c.1-.014.375,0,.477,0h.063a.074.074,0,0,1,.058.056v1a.409.409,0,0,1,0,.121.36.36,0,0,1-.16.039h-.325a.612.612,0,0,0-.121,0,.161.161,0,0,0-.055.029.067.067,0,0,1-.062.016.415.415,0,0,1,0-.149H23.64a.534.534,0,0,1-.018.143.5.5,0,0,1-.125-.035c-.108-.012-.329.014-.438,0a.187.187,0,0,1-.09-.059A.409.409,0,0,1,22.969,12.885Zm-.075-.99a.03.03,0,0,1,.038.021v.8a.9.9,0,0,1-.026.338.126.126,0,0,1-.074.067c-.016-.257,0-.509,0-.693V12.22a.9.9,0,0,1,0-.127.184.184,0,0,1,.062-.2Zm-.2.957a.984.984,0,0,0,0-.133v-.143a1.192,1.192,0,0,0-.016-.321c-.054-.045-.142.03-.187-.047a.08.08,0,0,1,.049-.1.074.074,0,0,1,.025,0c.066-.018.1.029.127-.034a.988.988,0,0,0,0-.172.048.048,0,0,1,.045-.049.109.109,0,0,1,.119.024.317.317,0,0,0-.021.041.239.239,0,0,0-.028.035.78.78,0,0,0,0,.264v.6a.338.338,0,0,0,0,.045v.115c.01.069-.035.229.028.256a.591.591,0,0,0,.168,0h.462a.057.057,0,0,1,.054.039.05.05,0,0,1-.025.065l-.006,0h-.759a.089.089,0,0,1-.039-.1c0-.07.037-.148-.023-.176a.312.312,0,0,0-.114,0,.073.073,0,0,1-.064-.068.087.087,0,0,1,.039-.067.185.185,0,0,1,.037-.019c.059,0,.113.023.125-.045Zm.982-.1h-.016c-.047,0-.051-.016-.051-.033a.1.1,0,0,1,0-.035l.026-.106h.133l.025.1a.28.28,0,0,1,0,.041.029.029,0,0,1-.024.033h-.019V12.8h.217v-.051h0a.086.086,0,0,1-.064-.084l-.131-.473h-.1v.031l-.1.446c-.017.066-.031.086-.06.086h-.014V12.8h.178v-.051Zm.031-.436.055.205h-.1Zm.325,4.279c-.078-.068-.182-.105-.2-.141a.55.55,0,0,1-.062-.18.706.706,0,0,0-.092-.154c-.067-.086-.2-.186-.254-.108a.887.887,0,0,1-.188.262.945.945,0,0,1-.278.149,10.408,10.408,0,0,1-1.117.016.078.078,0,0,1-.06-.088,7.871,7.871,0,0,1,.025-.959.623.623,0,0,1,.2-.248c.109-.086.281-.106.285-.18a.449.449,0,0,0-.229-.229c-.119-.062-.266-.064-.307-.1a1.936,1.936,0,0,1-.164-.228,1.646,1.646,0,0,0-.2-.2,1.638,1.638,0,0,0-.2.2,1.833,1.833,0,0,1-.162.23c-.041.03-.188.034-.309.094a.449.449,0,0,0-.229.229c0,.072.176.1.284.18a.611.611,0,0,1,.205.248,7.871,7.871,0,0,1,.025.959.081.081,0,0,1-.06.088,10.408,10.408,0,0,1-1.1-.008.721.721,0,0,1-.466-.409c-.039-.078-.184.024-.254.108a.661.661,0,0,0-.09.154.576.576,0,0,1-.063.18c-.031.037-.138.074-.2.141a.784.784,0,0,0-.217.258.538.538,0,0,0,.2.2c.071.051.229.118.245.133s.037.171.078.253a.7.7,0,0,0,.25.244c.077.026.118.035.139,0s.088-.168.129-.244a.779.779,0,0,1,.251-.237.919.919,0,0,1,.34-.059H20.9a.113.113,0,0,1,.114.1v1.275a.613.613,0,0,1-.149.376.852.852,0,0,1-.393.242c-.064.018-.01.071.026.125a.934.934,0,0,0,.205.165,1.181,1.181,0,0,0,.289.1.313.313,0,0,1,.141.2.928.928,0,0,0,.262.315.948.948,0,0,0,.26-.313.319.319,0,0,1,.141-.2,1.174,1.174,0,0,0,.286-.1.915.915,0,0,0,.205-.167c.035-.052.088-.107.024-.123a.863.863,0,0,1-.392-.242.608.608,0,0,1-.15-.378V17.26a.113.113,0,0,1,.113-.1h.728a.919.919,0,0,1,.34.059.788.788,0,0,1,.237.237c.043.074.109.2.129.244s.062.02.139,0a.7.7,0,0,0,.25-.244c.041-.071.078-.245.092-.26s.174-.081.246-.135a.533.533,0,0,0,.2-.2.759.759,0,0,0-.223-.258Zm-4.768-.266a.527.527,0,0,1,.072-.09h.035a.477.477,0,0,1,.071.09.32.32,0,0,1,.035.145.713.713,0,0,1-.035.184c-.018.058-.028.086-.038.119a.833.833,0,0,0-.025.11.3.3,0,0,1,0,.06.055.055,0,0,1-.018.016.049.049,0,0,1-.019-.016q0-.03,0-.06a.7.7,0,0,0-.024-.11.485.485,0,0,0-.039-.119.767.767,0,0,1-.035-.184A.341.341,0,0,1,19.259,16.327Zm.2.687a.038.038,0,0,1,.045.028.038.038,0,0,1-.028.044.048.048,0,0,1-.017,0h-.237a.037.037,0,0,1-.045-.027.039.039,0,0,1,.027-.045h.255Zm-.409-.235a.172.172,0,0,0-.064,0,.1.1,0,0,0-.047.041.257.257,0,0,0-.02.059.185.185,0,0,1-.047-.041.158.158,0,0,1-.027-.073.14.14,0,0,1,.027-.1.226.226,0,0,1,.147-.065.217.217,0,0,1,.105.025.3.3,0,0,1,.1.114.589.589,0,0,1,.039.109.27.27,0,0,1,0,.106.021.021,0,0,1-.028.009.02.02,0,0,1-.009-.009v-.016a.35.35,0,0,0-.025-.047.3.3,0,0,0-.069-.08.154.154,0,0,0-.084-.031Zm.436.481a.123.123,0,0,1-.092-.027c0,.021,0,.041,0,.062a.115.115,0,0,1-.029.057h-.037A.1.1,0,0,1,19.3,17.3a.321.321,0,0,1,0-.062.122.122,0,0,1-.092.027c-.038,0-.077-.025-.059-.029a.234.234,0,0,0,.084-.051.221.221,0,0,0,.033-.047h.176a.186.186,0,0,0,.032.047.243.243,0,0,0,.084.051C19.573,17.233,19.534,17.248,19.491,17.26Zm.358-.5a.149.149,0,0,1-.025.073.191.191,0,0,1-.057.049.219.219,0,0,0-.021-.059.1.1,0,0,0-.049-.041.2.2,0,0,0-.147.035.336.336,0,0,0-.07.08c-.009.015-.018.031-.026.047v.016a.02.02,0,0,1-.028.007l-.007-.007a.27.27,0,0,1,0-.106.708.708,0,0,1,.039-.109.316.316,0,0,1,.1-.114.2.2,0,0,1,.105-.025.229.229,0,0,1,.145.066.139.139,0,0,1,.043.088Zm1.737-1.94a.215.215,0,0,1,.111-.033.227.227,0,0,1,.147.064.141.141,0,0,1,.037.1.145.145,0,0,1-.027.074.193.193,0,0,1-.057.049.214.214,0,0,0-.021-.06A.1.1,0,0,0,21.727,15a.134.134,0,0,0-.063,0,.151.151,0,0,0-.088.035.246.246,0,0,0-.068.079.31.31,0,0,0-.026.047v.017a.021.021,0,0,1-.028.006l-.007-.006a.275.275,0,0,1,0-.107.52.52,0,0,1,.039-.106.32.32,0,0,1,.1-.137ZM21.4,19.259a.58.58,0,0,1,0,.059.02.02,0,0,1-.026.013.019.019,0,0,1-.013-.013.58.58,0,0,1,0-.059.857.857,0,0,0-.031-.11.517.517,0,0,0-.039-.119.772.772,0,0,1-.032-.184.334.334,0,0,1,.032-.146.445.445,0,0,1,.072-.09H21.4a.408.408,0,0,1,.071.09.321.321,0,0,1,.035.146.777.777,0,0,1-.035.184c-.016.055-.028.086-.038.119a.833.833,0,0,0-.025.11Zm.1.127a.037.037,0,0,1,.037.037.038.038,0,0,1-.037.037h-.239a.037.037,0,1,1,0-.074H21.5Zm-.057-2.153c0,.021,0,.041,0,.062a.115.115,0,0,1-.029.057h-.018a.061.061,0,0,1-.019,0,.111.111,0,0,1-.043-.059c0-.021,0-.041,0-.062a.127.127,0,0,1-.092.027c-.039,0-.075-.025-.059-.029a.242.242,0,0,0,.086-.051.221.221,0,0,0,.033-.047h.176a.186.186,0,0,0,.032.047.242.242,0,0,0,.086.051c.019,0-.02.027-.059.029A.122.122,0,0,1,21.441,17.233Zm.067-.147h-.245a.037.037,0,0,1-.045-.027.039.039,0,0,1,.027-.045h.263a.037.037,0,0,1,.018.072A.054.054,0,0,1,21.508,17.086Zm-.1-.2q0,.03,0,.06a.055.055,0,0,1-.018.016.06.06,0,0,1-.019-.016q0-.03,0-.06a.831.831,0,0,0-.041-.1.478.478,0,0,0-.039-.121.875.875,0,0,1-.032-.184.345.345,0,0,1,.032-.145.527.527,0,0,1,.072-.09H21.4a.477.477,0,0,1,.071.09.331.331,0,0,1,.033.145.719.719,0,0,1-.033.184c-.018.058-.03.086-.038.121a.816.816,0,0,0-.019.11Zm.018-1.455a.321.321,0,0,1,0,.062.106.106,0,0,1-.028.057l-.019.01-.016-.01a.116.116,0,0,1-.033-.051c0-.02,0-.041,0-.061a.117.117,0,0,1-.09.028c-.039,0-.077-.024-.059-.03a.237.237,0,0,0,.084-.052.221.221,0,0,0,.033-.047h.176a.186.186,0,0,0,.032.047.245.245,0,0,0,.086.052c.017,0-.02.028-.059.03a.123.123,0,0,1-.107-.028Zm-.216-.184a.039.039,0,0,1,.041-.034H21.5a.04.04,0,0,1,.041.034.041.041,0,0,1-.041.039h-.243a.04.04,0,0,1-.041-.033Zm.073-.72a.445.445,0,0,1,.072-.09h.033a.477.477,0,0,1,.071.09.318.318,0,0,1,.033.145.711.711,0,0,1-.033.184c-.016.058-.03.086-.039.119a.991.991,0,0,0-.022.111.542.542,0,0,1,0,.057.055.055,0,0,1-.019.018.058.058,0,0,1-.02-.018.58.58,0,0,1,0-.059.267.267,0,0,0-.025-.111,1.083,1.083,0,0,1-.038-.119.711.711,0,0,1-.033-.184.338.338,0,0,1,.02-.137Zm-.315.5a.212.212,0,0,0-.02.06.21.21,0,0,1-.058-.049.153.153,0,0,1-.026-.074.137.137,0,0,1,.037-.1.227.227,0,0,1,.147-.066.206.206,0,0,1,.106.023.319.319,0,0,1,.105.114.685.685,0,0,1,.039.107.27.27,0,0,1,0,.106.021.021,0,0,1-.029.007l-.006-.007a.043.043,0,0,1,0-.016.24.24,0,0,0-.027-.047.272.272,0,0,0-.067-.08.158.158,0,0,0-.088-.035.138.138,0,0,0-.064,0,.106.106,0,0,0-.049.063Zm.012,1.8a.257.257,0,0,0-.02.059.193.193,0,0,1-.057-.041.148.148,0,0,1-.027-.073.143.143,0,0,1,.045-.1.233.233,0,0,1,.147-.065.222.222,0,0,1,.107.025.3.3,0,0,1,.1.114.525.525,0,0,1,.039.109.237.237,0,0,1,0,.106.02.02,0,0,1-.028.007l-.007-.007v-.016a.354.354,0,0,0-.026-.047.3.3,0,0,0-.07-.08.151.151,0,0,0-.088-.035.167.167,0,0,0-.063,0,.1.1,0,0,0-.054.051Zm.107,2.331a.138.138,0,0,0-.064,0,.1.1,0,0,0-.049.041.2.2,0,0,0-.02.059A.186.186,0,0,1,20.9,19.2a.151.151,0,0,1-.027-.074.141.141,0,0,1,.037-.1.222.222,0,0,1,.147-.066.234.234,0,0,1,.1.025.314.314,0,0,1,.105.115.661.661,0,0,1,.039.108.27.27,0,0,1,0,.106.021.021,0,0,1-.029.007l-.006-.007a.043.043,0,0,1,0-.016.439.439,0,0,0-.027-.047.279.279,0,0,0-.069-.08A.155.155,0,0,0,21.089,19.151Zm.448.481a.123.123,0,0,1-.092-.027v.061a.114.114,0,0,1-.029.058h-.037a.112.112,0,0,1-.047-.058c0-.02,0-.041,0-.061a.121.121,0,0,1-.09.027c-.039,0-.075-.025-.059-.029a.249.249,0,0,0,.084-.051.237.237,0,0,0,.026-.053h.178a.249.249,0,0,0,.033.047.258.258,0,0,0,.086.051C21.6,19.607,21.568,19.629,21.537,19.632Zm.323-.594a.138.138,0,0,1,.035.1.151.151,0,0,1-.027.074.186.186,0,0,1-.057.047.2.2,0,0,0-.02-.059.1.1,0,0,0-.047-.041.138.138,0,0,0-.064,0,.151.151,0,0,0-.088.035.289.289,0,0,0-.069.079.439.439,0,0,0-.027.047.049.049,0,0,1,0,.017.021.021,0,0,1-.028.006l-.007-.006a.242.242,0,0,1,0-.107.7.7,0,0,1,.039-.108.328.328,0,0,1,.1-.115.249.249,0,0,1,.107-.024.228.228,0,0,1,.139.053Zm.039-2.271a.144.144,0,0,1-.024.073.214.214,0,0,1-.058.05.249.249,0,0,0-.02-.06.1.1,0,0,0-.047-.041.172.172,0,0,0-.064,0,.163.163,0,0,0-.086.035.279.279,0,0,0-.069.08.359.359,0,0,0-.027.047v.016a.02.02,0,0,1-.028.007l-.007-.007a.27.27,0,0,1,0-.106.708.708,0,0,1,.039-.109.319.319,0,0,1,.105-.114.222.222,0,0,1,.1-.025.232.232,0,0,1,.147.066.132.132,0,0,1,.027.086Zm1.433-.438a.47.47,0,0,1,.047-.092h.032a.445.445,0,0,1,.072.09.32.32,0,0,1,.035.145.758.758,0,0,1-.035.184c-.016.058-.029.086-.039.121a.691.691,0,0,0-.022.11v.06a.065.065,0,0,1-.021.016.053.053,0,0,1-.02-.016.3.3,0,0,1,0-.06,1.03,1.03,0,0,0-.025-.11.478.478,0,0,0-.039-.121.817.817,0,0,1-.033-.184.345.345,0,0,1,.029-.145Zm.2.687a.039.039,0,0,1,.039.035.038.038,0,0,1-.039.039H23.28a.04.04,0,0,1-.041-.037v0a.042.042,0,0,1,.041-.035h.256Zm-.409-.235a.172.172,0,0,0-.064,0,.116.116,0,0,0-.047.041.257.257,0,0,0-.02.059.192.192,0,0,1-.076-.043.147.147,0,0,1-.024-.073.134.134,0,0,1,.034-.1.234.234,0,0,1,.148-.065.21.21,0,0,1,.1.025.307.307,0,0,1,.1.114.525.525,0,0,1,.039.109.27.27,0,0,1,0,.106.02.02,0,0,1-.028.007l-.006-.007v-.016a.385.385,0,0,0-.095-.127.155.155,0,0,0-.085-.031Zm.436.481a.126.126,0,0,1-.09-.027c0,.021,0,.041,0,.062a.115.115,0,0,1-.029.057.054.054,0,0,1-.018,0l-.047,0a.1.1,0,0,1-.029-.057.321.321,0,0,1,0-.062.127.127,0,0,1-.092.027c-.039,0-.076-.025-.06-.029a.226.226,0,0,0,.084-.051.221.221,0,0,0,.033-.047h.176a.221.221,0,0,0,.033.047.234.234,0,0,0,.084.051c.016,0-.025.019-.06.031Zm.319-.424a.191.191,0,0,1-.057.049.26.26,0,0,0-.021-.059.115.115,0,0,0-.049-.041.157.157,0,0,0-.149.027.261.261,0,0,0-.068.08.268.268,0,0,0-.026.047v.016a.021.021,0,0,1-.029.007l-.006-.007a.237.237,0,0,1,0-.106.525.525,0,0,1,.039-.109.307.307,0,0,1,.1-.108.2.2,0,0,1,.1-.025.235.235,0,0,1,.148.066.141.141,0,0,1,.037.1A.177.177,0,0,1,23.882,16.838Zm-3.6-3.971c-.115-.017-.189.02-.164.137.016.073.061.086.166.08a.041.041,0,0,1,.041.04h0a1.753,1.753,0,0,0,0,.205.33.33,0,0,0,.235.031h.464a.375.375,0,0,1,.082,0,.3.3,0,0,1,.051.041.189.189,0,0,0,.144,0,.06.06,0,0,0,.028-.013.182.182,0,0,1,.131-.02h.452a.3.3,0,0,0,.181-.008.743.743,0,0,0,.01-.205.044.044,0,0,1,.028-.047.23.23,0,0,1,.074,0c.152,0,.143-.131.059-.205s-.145.017-.161-.065v-.409a.3.3,0,0,1,0-.127c.1,0,.168,0,.2-.074a.117.117,0,0,0-.083-.145l-.021,0h-.07c-.038,0-.026,0-.026-.017a.081.081,0,0,0,0-.022.473.473,0,0,0-.016-.2.6.6,0,0,0-.269-.016c-.03-.045-.073-.023-.13,0a1.145,1.145,0,0,1-.219,0,.473.473,0,0,0-.181.045.091.091,0,0,0-.057.035.465.465,0,0,0-.131-.072,2.518,2.518,0,0,0-.325,0c-.043-.012-.087-.021-.131-.029a.266.266,0,0,0-.045.029.309.309,0,0,1-.1,0h-.039a.553.553,0,0,0-.115,0c-.084.035.019.205-.063.258-.107,0-.162,0-.176.086-.025.137.088.139.2.141v.254a.593.593,0,0,1-.03.315A.02.02,0,0,1,20.285,12.867Zm.843.317a.026.026,0,0,1-.021,0c-.182-.021-.327.012-.526,0-.051-.062.054-.119.1-.125a2,2,0,0,0,.394.022.22.22,0,0,1,.093.039C21.181,13.155,21.144,13.165,21.128,13.184Zm.783-1.306a.1.1,0,0,1,.139-.011l.011.011c.033.051-.029.191.037.219a.208.208,0,0,0,.061,0H22.2a.079.079,0,0,1,.051.015.065.065,0,0,1-.035.118h-.092c-.069.017-.057.09-.057.168s-.014.321,0,.448c0,.076.094.027.16.047a.083.083,0,0,1,.047.053c.024.15-.18.037-.205.125s.016.131,0,.2a.075.075,0,0,1-.076.051h-.567a.049.049,0,0,1-.027-.064v0a.041.041,0,0,1,.028-.039,1.49,1.49,0,0,1,.189,0h.163a.315.315,0,0,0,.191-.028V12.155a1.1,1.1,0,0,0,0-.162.529.529,0,0,0-.051-.1l-.007-.009Zm-.086.049c0-.014,0-.018.017-.024s.035.014.045.024a.119.119,0,0,1,.041.064,2.306,2.306,0,0,1,0,.288c0,.025,0,.049,0,.074v.061c.012.205,0,.647,0,.686s-.01.037-.023.022a.381.381,0,0,1-.075-.135C21.821,12.527,21.83,12.351,21.825,11.927Zm.021,1.2a.076.076,0,0,1,.029.045c0,.043-.105.029-.15.029h-.37a.06.06,0,0,1,0-.086c.039-.055.28,0,.421-.045a.1.1,0,0,1,.07.055Zm-.587-.613V11.97a.167.167,0,0,1,.022-.079.381.381,0,0,1,.111-.054,1.763,1.763,0,0,1,.272,0h.063a.073.073,0,0,1,.058.056v1a.409.409,0,0,1,0,.121.36.36,0,0,1-.16.039.592.592,0,0,1-.119,0,.6.6,0,0,0-.12,0,.157.157,0,0,0-.054.029.064.064,0,0,1-.059.016.374.374,0,0,1,0-.149c-.014-.16-.012-.352-.014-.436Zm.073.72a.168.168,0,0,1,.015.053.226.226,0,0,1-.025.08.054.054,0,0,1-.043.026.066.066,0,0,1-.055,0,.1.1,0,0,1-.039-.024.091.091,0,0,1-.037-.045.141.141,0,0,1,0-.041.094.094,0,0,1,.053-.1h0a.086.086,0,0,1,.12.022A.08.08,0,0,1,21.332,13.229Zm-.675-.344v-.894a.474.474,0,0,1,0-.119h0a.1.1,0,0,1,.061-.041h.1a.9.9,0,0,0,.147.012.478.478,0,0,0,.057-.012.206.206,0,0,1,.2.1v.819H21.2a.075.075,0,0,1-.028-.025.411.411,0,0,1-.039-.082l-.019-.036a.455.455,0,0,0-.049-.086.159.159,0,0,0,.09-.154.163.163,0,0,0-.076-.151.245.245,0,0,0-.128-.025,1.328,1.328,0,0,0-.168.013h-.023v.045h.013c.038,0,.051,0,.051.077v.348c0,.07-.013.08-.051.08h-.015V12.8h.223v-.049h-.018c-.035,0-.049,0-.049-.074v-.131h.043a.656.656,0,0,1,.049.09l.022.047a.256.256,0,0,0,.07.1.174.174,0,0,0,.1.024h.027a.926.926,0,0,1-.017.278.5.5,0,0,1-.124-.034c-.109-.013-.234.014-.34,0a.2.2,0,0,1-.09-.033.506.506,0,0,1,0-.129Zm.391-.52a.11.11,0,0,1-.082.133.094.094,0,0,1-.041,0h-.016v-.268h.014a.106.106,0,0,1,.121.09.1.1,0,0,1,0,.043Zm-.467-.47a.029.029,0,0,1,.038.021v.8a.917.917,0,0,1-.024.338.123.123,0,0,1-.074.067c-.016-.257,0-.509,0-.693V12.22a.9.9,0,0,1,0-.127.189.189,0,0,1,.053-.2Zm-.2.957c0-.044,0-.088,0-.133v-.143a1.193,1.193,0,0,0-.017-.321c-.053-.045-.141.03-.186-.047a.08.08,0,0,1,.049-.1.086.086,0,0,1,.023,0c.063-.018.1.029.127-.034a1.645,1.645,0,0,0,0-.172.048.048,0,0,1,.045-.049.106.106,0,0,1,.116.024.1.1,0,0,1-.018.041.245.245,0,0,0-.029.035.835.835,0,0,0,0,.264v.6a.338.338,0,0,0,0,.045v.115c0,.069-.037.229.029.256a.591.591,0,0,0,.168,0h.366a.057.057,0,0,1,.053.039.049.049,0,0,1-.024.065l-.007,0h-.663a.091.091,0,0,1-.036-.1c0-.07.036-.148-.023-.176a.312.312,0,0,0-.114,0,.073.073,0,0,1-.064-.068.087.087,0,0,1,.039-.067.148.148,0,0,1,.055-.013c.043-.01.09.017.1-.051Zm1.268-.059h-.2v-.047h0c.037,0,.047-.01.047-.08v-.348c0-.067-.01-.078-.047-.078h0V12.2h.2v.045h0c-.038,0-.049,0-.049.077v.348c0,.07.011.08.049.08h0v.041Z" transform="translate(-17.408 -11.283)"/><path d="M31.373,18.748V16.5H29.741v2.241H28.408v-5.5h1.333v2.087h1.632V13.25H32.7v5.5Z" transform="translate(-17.408 -11.283)"/><path d="M37.067,18.748l-.208-.84H35.278l-.213.84H33.629l1.634-5.5h1.608l1.637,5.5Zm-1-4.112-.537,2.11h1.08Z" transform="translate(-17.408 -11.283)"/><path d="M41.838,18.748,41.1,16.86h-.505v1.888H39.258v-5.5H41.5a1.7,1.7,0,0,1,1.78,1.625c0,.052,0,.1,0,.155a1.613,1.613,0,0,1-.908,1.591l.952,2.127Zm.082-3.7a.584.584,0,0,0-.521-.64.535.535,0,0,0-.1,0h-.709V15.69H41.3a.583.583,0,0,0,.621-.544A.681.681,0,0,0,41.92,15.045Z" transform="translate(-17.408 -11.283)"/><path d="M45.439,18.748l-1.631-5.5h1.433l1,3.931,1-3.931h1.442l-1.64,5.5H45.434Z" transform="translate(-17.408 -11.283)"/><path d="M51.892,18.748l-.207-.84H50.1l-.216.84H48.454l1.631-5.5h1.608l1.641,5.5Zm-1-4.112-.537,2.11h1.062Z" transform="translate(-17.408 -11.283)"/><path d="M56.66,18.748l-.741-1.888h-.5v1.888H54.084v-5.5h2.241a1.7,1.7,0,0,1,1.78,1.625c0,.052,0,.1,0,.155a1.618,1.618,0,0,1-.908,1.591l.94,2.124H56.66Zm.088-3.7a.583.583,0,0,0-.521-.64.533.533,0,0,0-.1,0H55.42V15.69h.709a.583.583,0,0,0,.621-.544A.568.568,0,0,0,56.748,15.045Z" transform="translate(-17.408 -11.283)"/><path d="M59.191,18.748v-5.5h1.935A2.459,2.459,0,0,1,63.63,16a2.445,2.445,0,0,1-2.5,2.743H59.2Zm3.073-2.743c0-1.021-.4-1.59-1.138-1.59h-.6v3.172h.6C61.844,17.587,62.264,16.968,62.264,16.005Z" transform="translate(-17.408 -11.283)"/><path d="M67.741,18.742V14.408H66.574V13.241h3.694v1.167H69.08v4.334Z" transform="translate(-17.408 -11.283)"/><path d="M74.865,18.742V16.5H73.233v2.242H71.9v-5.5h1.333V15.33h1.632V13.246H76.2v5.5Z" transform="translate(-17.408 -11.283)"/><path d="M80.106,16c0-1.681.948-2.842,2.449-2.842A2.022,2.022,0,0,1,84.507,14.6l-1.094.469a.947.947,0,0,0-.858-.732c-.686,0-1.089.683-1.089,1.663s.4,1.664,1.089,1.664a.956.956,0,0,0,.858-.791l1.094.47a2.037,2.037,0,0,1-1.952,1.5C81.054,18.841,80.106,17.671,80.106,16Z" transform="translate(-17.408 -11.283)"/><path d="M88.794,18.742V16.5H87.163v2.242H85.835v-5.5h1.333V15.33H88.8V13.246h1.328v5.5H88.794Z" transform="translate(-17.408 -11.283)"/><path d="M94.914,18.742l-.207-.841H93.131l-.216.841H91.482l1.631-5.5h1.608l1.62,5.5H94.914Zm-1-4.112-.537,2.11h1.062Z" transform="translate(-17.408 -11.283)"/><path d="M100.339,18.742l-1.69-2.933v2.933H97.316v-5.5h1.36l1.608,2.793V13.246h1.31v5.5Z" transform="translate(-17.408 -11.283)"/><ellipse cx="53.059" cy="6.971" rx="0.444" ry="0.505"/><ellipse cx="60.113" cy="6.971" rx="0.444" ry="0.505"/></svg>