<?xml version="1.0" encoding="utf-8"?>
<!-- Generator: Adobe Illustrator 26.0.1, SVG Export Plug-In . SVG Version: 6.00 Build 0)  -->
<svg version="1.1" id="Layer_6" xmlns="http://www.w3.org/2000/svg" xmlns:xlink="http://www.w3.org/1999/xlink" x="0px" y="0px"
	 viewBox="0 0 119 32" style="enable-background:new 0 0 119 32;" xml:space="preserve">
<style type="text/css">
	.st0{fill:#A19EA5;}
	.st1{fill:#FFFFFF;}
	.st2{fill:#5A595A;}
</style>
<path class="st0" d="M41.4,13.1V7.8h-3.8v5.3h-3.2v-13h3.2V5h3.8V0.1h3.1v13H41.4z"/>
<path class="st0" d="M54.9,13.1l-0.5-2h-3.7l-0.5,2h-3.4l3.9-13h3.8l3.9,13H54.9z M52.6,3.4l-1.3,5h2.5L52.6,3.4z"/>
<path class="st0" d="M66.2,13.1l-1.8-4.5h-1.2v4.5h-3.1v-13h5.3c2.2-0.1,4.1,1.6,4.2,3.8c0,0.1,0,0.2,0,0.4c0.2,1.6-0.7,3.1-2.1,3.8
	l2.2,5L66.2,13.1z M66.4,4.3c0.1-0.8-0.5-1.4-1.2-1.5c0,0,0,0,0,0h-1.9v3h1.7c0.8,0.1,1.4-0.5,1.5-1.3c0,0,0,0,0,0
	C66.4,4.5,66.4,4.4,66.4,4.3z"/>
<path class="st0" d="M74.7,13.1l-3.9-13h3.4l2.4,9.3l2.4-9.3h3.4l-3.8,13L74.7,13.1L74.7,13.1z"/>
<path class="st0" d="M90,13.1l-0.5-2h-3.7l-0.5,2h-3.4l3.9-13h3.8l3.9,13H90z M87.6,3.4l-1.3,5h2.5L87.6,3.4z"/>
<path class="st0" d="M101.2,13.1l-1.8-4.5h-1.2v4.5h-3.2v-13h5.3c2.2-0.1,4.1,1.6,4.2,3.8c0,0,0,0,0,0c0,0.1,0,0.2,0,0.4
	c0.2,1.6-0.7,3.1-2.1,3.8l2.2,5L101.2,13.1L101.2,13.1z M101.4,4.3c0.1-0.8-0.5-1.4-1.2-1.5c0,0,0,0,0,0h-1.9v3h1.7
	c0.8,0.1,1.4-0.5,1.5-1.3c0,0,0,0,0,0C101.4,4.5,101.4,4.4,101.4,4.3z"/>
<path class="st0" d="M107.2,13.1v-13h4.6c3.8,0,5.9,2.7,5.9,6.5s-2.1,6.5-5.9,6.5L107.2,13.1L107.2,13.1z M114.5,6.6
	c0-2.4-0.9-3.8-2.7-3.8h-1.4v7.5h1.4C113.5,10.3,114.5,8.9,114.5,6.6z"/>
<path class="st0" d="M36.6,31.7V21.5h-2.7v-2.8h8.7v2.8h-2.8v10.2L36.6,31.7z"/>
<path class="st0" d="M53.4,31.7v-5.3h-3.9v5.3h-3.1v-13h3.1v4.9h3.9v-4.9h3.2v13H53.4z"/>
<path class="st0" d="M65.8,25.2c0-4,2.2-6.7,5.8-6.7c2.8,0,4,1.8,4.6,3.4L73.7,23c-0.2-1-1-1.7-2-1.7c-1.6,0-2.6,1.6-2.6,3.9
	s0.9,3.9,2.6,3.9c1-0.1,1.9-0.9,2-1.9l2.6,1.1c-0.6,1.6-1.8,3.5-4.6,3.5C68.1,32,65.8,29.2,65.8,25.2z"/>
<path class="st0" d="M86.4,31.7v-5.3h-3.9v5.3h-3.2v-13h3.2v4.9h3.8v-4.9h3.1v13H86.4z"/>
<path class="st0" d="M100.8,31.7l-0.5-2h-3.7l-0.5,2h-3.4l3.9-13h3.8l3.8,13H100.8L100.8,31.7z M98.5,22l-1.3,5h2.5L98.5,22z"/>
<path class="st0" d="M113.6,31.7l-4-6.9v6.9h-3.2v-13h3.2l3.8,6.6v-6.6h3.1v13H113.6z"/>
<rect x="1.9" y="0.7" class="st1" width="25.6" height="7.9"/>
<path class="st0" d="M27.5,0.7H1.9v7.9h25.6V0.7z M9.7,6.1H9.4c-0.1,0-0.1,0.1-0.1,0.2c0,0.2,0,0.5,0,0.7C9.2,7.1,9,7.1,8.8,7.1H7.1
	C7,7,6.8,7.1,6.7,7.1c0,0-0.1,0.1-0.1,0.1c-0.2,0.1-0.3,0.1-0.5,0L5.9,7.1c-0.1,0-0.2,0-0.4,0H4C3.8,7.2,3.5,7.1,3.3,7
	c0-0.2,0-0.5,0-0.7c0-0.1-0.1-0.1-0.1-0.1l0,0c-0.4,0-0.5,0-0.6-0.3s0.2-0.5,0.5-0.5l0,0c0.1-0.3,0.2-0.7,0.1-1.1V3.5
	c-0.4,0-0.8,0-0.7-0.5c0.1-0.3,0.2-0.3,0.6-0.3C3.4,2.5,3,2,3.3,1.8c0.1,0,0.3,0,0.4,0h0.1c0.1,0,0.2,0,0.3,0c0,0,0.1-0.1,0.2-0.1
	l0.4,0.1c0.4,0,0.7,0,1.1,0C6,1.9,6.1,2,6.3,2.1C6.3,2,6.4,2,6.5,2c0.2-0.1,0.4-0.1,0.6-0.2c0.3,0,0.6,0,0.9,0c0.2,0,0.3-0.1,0.4,0
	c0.3-0.1,0.6,0,0.9,0.1c0.1,0.2,0.1,0.5,0,0.7v0.1c0,0.1,0,0,0.1,0.1c0.1,0,0.2,0,0.2,0c0.2,0,0.4,0.2,0.4,0.4c0,0,0,0,0,0
	c0,0,0,0,0,0.1C10,3.5,9.7,3.4,9.4,3.4c0,0.1,0,0.3,0,0.4v1.4c0.1,0.3,0.3,0.1,0.5,0.2C10.2,5.6,10.2,6.2,9.7,6.1z M17.5,6.1h-0.2
	c-0.1,0-0.1,0.1-0.1,0.2c0,0.2,0,0.5,0,0.7c-0.2,0.1-0.4,0.1-0.6,0.1H15c-0.1,0-0.3,0-0.4,0.1c0,0-0.1,0.1-0.1,0.1
	c-0.2,0.1-0.3,0.1-0.5,0l-0.2-0.1h-1.9c-0.3,0.1-0.5,0-0.8-0.1c0-0.2,0-0.5,0-0.7c0-0.1-0.1-0.1-0.1-0.1l0,0c-0.4,0-0.5,0-0.6-0.3
	c-0.1-0.3,0.2-0.5,0.5-0.5l0,0c0.1-0.4,0.2-0.7,0.1-1.1V3.5c-0.4,0-0.8,0-0.7-0.5c0-0.3,0.2-0.3,0.6-0.3c0.3-0.2-0.1-0.7,0.2-0.9
	c0.1,0,0.3,0,0.4,0h0.1c0.1,0,0.2,0,0.3,0l0.2-0.1l0.4,0.1c0.4,0,0.7,0,1.1,0c0.2,0.1,0.3,0.1,0.4,0.2C14.3,2,14.3,2,14.4,2
	c0.2-0.1,0.4-0.1,0.6-0.2c0.2,0,0.5,0,0.7,0c0.2,0,0.3-0.1,0.4,0c0.3-0.1,0.6,0,0.9,0.1c0.1,0.2,0.1,0.5,0.1,0.7c0,0,0,0.1,0,0.1
	c0,0.1,0,0,0.1,0.1c0.1,0,0.2,0,0.2,0c0.2,0,0.4,0.2,0.4,0.4c0,0,0,0,0,0.1c-0.1,0.3-0.3,0.2-0.7,0.3c0,0.1,0,0.3,0,0.4v1.4
	c0.1,0.3,0.3,0.1,0.5,0.2c0.2,0.1,0.2,0.3,0.1,0.5C17.7,6.1,17.6,6.2,17.5,6.1L17.5,6.1z M26.3,6.1c-0.1,0-0.2,0-0.2,0
	C26,6.2,26,6.2,26,6.3c0,0.2,0,0.5,0,0.7c-0.2,0.1-0.4,0.1-0.6,0.1h-2.2c-0.2,0-0.3,0-0.4,0.1c0,0-0.1,0.1-0.1,0.1
	c-0.2,0.1-0.3,0.1-0.5,0L22,7.1h-2.2c-0.3,0.1-0.6,0-0.8-0.1c0-0.2,0-0.5,0-0.7c0-0.1-0.1-0.1-0.1-0.1l0,0c-0.4,0-0.5,0-0.6-0.3
	c-0.1-0.3,0.2-0.5,0.5-0.5l0,0C19,5.1,19,4.7,18.9,4.3V3.5c-0.4,0-0.8,0-0.7-0.5c0-0.3,0.2-0.3,0.6-0.3c0.3-0.2-0.1-0.7,0.2-0.9
	c0.1,0,0.3,0,0.4,0h0.2c0.1,0,0.2,0,0.3,0l0.1-0.1c0.2,0,0.3,0.1,0.4,0.1c0.5,0,0.9,0,1.4,0c0.2,0.1,0.3,0.1,0.4,0.2
	C22.4,2,22.5,2,22.6,2c0.2-0.1,0.4-0.1,0.6-0.2c0.5,0,1,0,1.4,0c0.2,0,0.3-0.1,0.4,0c0.3-0.1,0.6,0,0.9,0.1C26,2.1,26.1,2.3,26,2.5
	v0.1c0,0.1,0,0,0.1,0.1c0.1,0,0.2,0,0.2,0c0.2,0,0.4,0.2,0.4,0.4c0,0,0,0,0,0.1c-0.1,0.3-0.3,0.2-0.7,0.3c0,0.1,0,0.3,0,0.4v1.4
	c0.1,0.3,0.3,0.1,0.5,0.2C26.8,5.6,26.9,6.2,26.3,6.1L26.3,6.1z"/>
<path class="st2" d="M1.3,0.1V9c0.1,9.4,4.8,17.4,13.3,22.8l0.2,0.1l0.2-0.1C23.3,26.4,28,18.3,28.2,9V0.1H1.3z M14.7,31.2
	c-8.1-5.2-12.6-13-12.8-22h25.6C27.3,18.1,22.8,25.9,14.7,31.2z M27.5,8.5H1.9V0.7h25.6V8.5z M3.1,5.4C2.7,5.4,2.5,5.5,2.5,5.9
	c0.1,0.2,0.2,0.3,0.6,0.3c0.1,0,0.1,0.1,0.1,0.1l0,0c0,0.2,0,0.5,0,0.7C3.5,7.1,3.8,7.1,4,7.1h1.8C5.9,7.1,6,7.2,6,7.2
	c0.2,0.1,0.3,0.1,0.5,0c0,0,0.1,0,0.1-0.1c0.1-0.1,0.3-0.1,0.5,0h1.6c0.2,0,0.4,0,0.6,0c0-0.2,0-0.5,0-0.7c0-0.1,0-0.1,0.1-0.2
	c0.1,0,0.2,0,0.3,0c0.5,0,0.5-0.4,0.2-0.7S9.4,5.6,9.3,5.4V3.9c0-0.1,0-0.3,0-0.4c0.4,0,0.6,0,0.7-0.2C10,3,9.9,2.8,9.7,2.8
	c0,0,0,0,0,0H9.4c-0.1,0-0.1,0-0.1-0.1V2.6c0-0.2,0-0.5,0-0.7C9,1.8,8.7,1.8,8.4,1.9c-0.1-0.2-0.2-0.1-0.4,0c-0.3,0-0.6,0-0.9,0
	c-0.2,0-0.4,0-0.6,0.1C6.4,2,6.3,2.1,6.3,2.1C6.1,2,6,2,5.8,1.9c-0.4,0-0.7,0-1.1,0L4.3,1.8c-0.1,0-0.1,0.1-0.2,0.1
	c-0.1,0-0.2,0-0.3,0H3.7c-0.1,0-0.3,0-0.4,0C3,2,3.4,2.6,3.1,2.8c-0.4,0-0.5,0-0.6,0.3C2.4,3.5,2.8,3.5,3.2,3.5v0.9
	C3.2,4.7,3.2,5.1,3.1,5.4C3.1,5.4,3.1,5.4,3.1,5.4z M5.9,6.5H5.8c-0.6-0.1-1.1,0-1.7,0C3.9,6.3,4.3,6.1,4.4,6.1
	c0.4,0.1,0.9,0.1,1.3,0.1c0.1,0,0.2,0.1,0.3,0.1C6.1,6.4,6,6.4,5.9,6.5L5.9,6.5z M8.7,2.1C8.8,1.9,9,1.9,9.2,2v0
	c0.1,0.2-0.1,0.6,0.1,0.7c0.1,0,0.1,0,0.2,0h0.2c0.1,0,0.1,0,0.2,0.1c0.1,0.1,0.1,0.2,0,0.3c0,0-0.1,0.1-0.2,0.1H9.3
	C9.1,3.3,9.1,3.6,9.1,3.8s0,1.1,0,1.5c0,0.3,0.3,0.1,0.5,0.2c0.1,0,0.1,0.1,0.2,0.2c0.1,0.5-0.6,0.1-0.7,0.4s0.1,0.4,0,0.7
	c0,0.1-0.1,0.2-0.3,0.2h-2c-0.1,0-0.1-0.1-0.1-0.2c0-0.1,0-0.1,0.1-0.1c0.3,0,0.5,0,0.8,0h0.5c0.2,0,0.5,0,0.7-0.1V3
	c0-0.2,0-0.4,0-0.5C8.8,2.3,8.7,2.2,8.7,2.1C8.7,2.1,8.7,2.1,8.7,2.1L8.7,2.1z M8.4,2.2C8.4,2.2,8.4,2.2,8.4,2.2
	c0.1-0.1,0.2-0.1,0.2,0c0.1,0.1,0.1,0.1,0.1,0.2c0,0.3,0,0.6,0,0.9v0.2c0,0.1,0,0.1,0,0.2c0,0.7,0,2.2,0,2.3s0,0.1-0.1,0.1
	C8.6,6.1,8.5,6,8.4,5.8C8.4,4.3,8.4,3.7,8.4,2.2L8.4,2.2z M8.5,6.3c0,0,0.1,0.1,0.1,0.2c0,0.1-0.4,0.1-0.5,0.1H6.7
	c-0.1-0.1-0.1-0.2,0-0.3c0.1-0.2,1.1,0,1.6-0.2C8.3,6.1,8.4,6.2,8.5,6.3L8.5,6.3z M6.4,4.2V2.4c0-0.1,0-0.2,0-0.2
	C6.5,2.1,6.7,2,6.8,2c0.3,0,0.7,0,1,0h0.2C8.2,2,8.2,2,8.3,2.1v3.4c0,0.1,0,0.3,0,0.4C8.1,6,7.9,6.1,7.7,6.1c-0.2,0-0.3,0-0.5,0H6.8
	c-0.1,0-0.1,0.1-0.2,0.1C6.5,6.2,6.5,6.2,6.4,6.2c0-0.2,0-0.3,0-0.5C6.4,5.2,6.4,4.5,6.4,4.2L6.4,4.2z M6.6,6.6c0,0.1,0,0.1,0,0.2
	c0,0.1,0,0.2-0.1,0.3c0,0.1-0.1,0.1-0.1,0.1c-0.1,0-0.1,0-0.2,0c0,0-0.1,0-0.1-0.1C6,7,6,7,6,6.9c0,0,0-0.1,0-0.1
	c0-0.1,0.1-0.3,0.2-0.3l0,0C6.3,6.3,6.4,6.4,6.6,6.6C6.5,6.5,6.5,6.5,6.6,6.6C6.5,6.5,6.5,6.6,6.6,6.6L6.6,6.6z M4.3,5.5v-3
	c0-0.1,0-0.3,0-0.4l0,0C4.4,2,4.5,1.9,4.6,1.9H5c0.1,0,0.2,0,0.3,0c0.1,0,0.1,0,0.2,0c0.3,0,0.5,0.1,0.7,0.3V5
	c0.1,0.4,0.1,0.7,0,1.1C6.1,6.1,5.9,6.1,5.8,6C5.4,5.9,5,6,4.7,6C4.6,6,4.5,6,4.4,5.9C4.3,5.8,4.3,5.6,4.3,5.5z M4.1,2.1
	c0.1,0,0.1,0,0.1,0.1v2.7c0,0.4,0,0.8-0.1,1.1c0,0.1-0.1,0.2-0.2,0.2c-0.1-0.9,0-1.7,0-2.3V3.3c0-0.1,0-0.3,0-0.4
	C3.8,2.6,3.9,2.3,4.1,2.1z M3.4,5.4c0-0.2,0-0.3,0-0.5V4.4c0-0.4,0-0.7,0-1.1C3.1,3.2,2.8,3.5,2.7,3.2c-0.1-0.1,0-0.3,0.1-0.3
	c0,0,0,0,0,0c0,0,0.1,0,0.1,0C3.1,2.8,3.3,3,3.4,2.7c0-0.2,0-0.4,0-0.6c0-0.1,0-0.2,0.1-0.2c0,0,0,0,0.1,0c0.1-0.1,0.3,0,0.4,0.1
	c0,0-0.1,0.1-0.1,0.1c0,0-0.1,0.1-0.1,0.1c0,0.3,0,0.6,0,0.9v2c0,0.1,0,0.1,0,0.2v0.4c0,0.2-0.1,0.8,0.1,0.9c0.2,0,0.4,0,0.6,0h1.2
	c0.1,0,0.2,0.1,0.2,0.1c0,0.1,0,0.2-0.1,0.2H3.5C3.4,6.9,3.3,6.8,3.4,6.6c0-0.2,0.1-0.5-0.1-0.6C3.2,6,3,6,2.9,6
	C2.8,6,2.7,5.9,2.7,5.8c0-0.1,0.1-0.2,0.1-0.2c0.1,0,0.1,0,0.2,0C3.1,5.6,3.3,5.6,3.4,5.4L3.4,5.4z M4.5,3.3L4.5,3.3V3.2h0.7v0.2
	l0,0c-0.1,0-0.2,0-0.2,0.1c0,0.1,0,0.1,0,0.2l0.3,1l0.3-1.1V3.4c0-0.1-0.1-0.1-0.2-0.1l0,0V3.2h0.5v0.2l0,0C6,3.3,6,3.4,6,3.4
	c0,0.1-0.1,0.2-0.1,0.2L5.4,5.2H5.2L4.7,3.6C4.7,3.3,4.6,3.3,4.5,3.3L4.5,3.3z M20.4,3.7h-0.1l0-0.6h0.1c0,0,0,0.1,0.1,0h1.1
	c0,0,0.1,0,0.1-0.1h0.1l0,0.6h-0.1c0-0.3-0.1-0.4-0.2-0.4h-0.2v1.4c0,0.2,0,0.3,0.2,0.3l0,0v0.2h-0.8V5h0.1c0.1,0,0.2,0,0.2-0.3V3.4
	h-0.2C20.5,3.4,20.4,3.4,20.4,3.7L20.4,3.7L20.4,3.7z M7.9,5.2H6.6V5h0.1c0.1,0,0.2,0,0.2-0.3V3.6c0-0.2,0-0.3-0.2-0.3l0,0V3.2h1.2
	v0.5H7.8c0-0.3,0-0.3-0.2-0.3H7.2V4h0.3c0.1,0,0.2,0,0.2-0.2h0.1v0.7H7.6V4.4c0-0.1,0-0.2-0.2-0.2H7.2v0.4c0,0.1,0,0.2,0,0.3h0.3
	c0.2,0,0.2-0.1,0.3-0.3h0.1L7.9,5.2z M24.3,4.7c0-0.2-0.1-0.3-0.2-0.4L24,4.3c-0.1-0.1-0.2-0.1-0.2-0.2c-0.1-0.1-0.1-0.3-0.1-0.4
	c0-0.3,0.2-0.5,0.4-0.5l0,0c0.1,0,0.2,0,0.3,0.1h0.1v0.5h0c0-0.2-0.1-0.4-0.3-0.4c-0.1,0-0.2,0.1-0.2,0.2l0,0c0,0.1,0.1,0.2,0.2,0.3
	h0l0.1,0.1L24.4,4c0.2,0.2,0.2,0.4,0.2,0.6c0,0.3-0.2,0.6-0.5,0.6l0,0c-0.1,0-0.2,0-0.3-0.1h-0.1v0h-0.1l-0.1-0.6h0.1
	c0,0.2,0.1,0.4,0.4,0.5C24.3,5.1,24.4,4.9,24.3,4.7L24.3,4.7z M18.8,5.4c-0.4-0.1-0.6,0.1-0.5,0.5c0.1,0.4,0.2,0.3,0.6,0.3
	c0.1,0,0.1,0.1,0.1,0.1l0,0c0,0.2,0,0.5,0,0.7c0.3,0.1,0.6,0.2,0.8,0.1h2.2c0.1,0,0.1,0.1,0.2,0.1c0.2,0.1,0.3,0.1,0.5,0
	c0,0,0.1,0,0.1-0.1C22.8,7,23,7,23.2,7h2.2c0.2,0.1,0.4,0.1,0.6,0c0-0.2,0-0.5,0-0.7c0-0.1,0-0.1,0.1-0.2c0.1,0,0.2,0,0.3,0
	c0.5,0,0.5-0.4,0.2-0.7S26,5.6,25.9,5.3V3.9c0-0.1,0-0.3,0-0.4c0.3,0,0.6,0,0.7-0.2c0.1-0.2-0.1-0.4-0.3-0.5c0,0,0,0,0,0H26
	c-0.1,0-0.1,0-0.1-0.1V2.6c0-0.2,0-0.5-0.1-0.7c-0.3-0.1-0.6-0.1-0.9,0c-0.1-0.2-0.2-0.1-0.4,0c-0.5,0-0.9,0-1.4,0
	c-0.2,0-0.4,0.1-0.6,0.2c-0.1,0-0.1,0.1-0.2,0.1C22.2,2,22,2,21.9,1.9c-0.5,0-0.9,0-1.4,0L20,1.7c-0.1,0-0.1,0.1-0.2,0.1
	c-0.1,0-0.2,0-0.3,0h-0.1c-0.1,0-0.3,0-0.4,0c-0.3,0.1,0.1,0.7-0.2,0.9c-0.4,0-0.5,0-0.6,0.3c-0.1,0.5,0.3,0.5,0.7,0.5v0.9
	C19,4.7,18.9,5,18.8,5.4L18.8,5.4L18.8,5.4z M22,6.5C21.9,6.5,21.9,6.5,22,6.5c-0.7-0.1-1.5,0-2.2,0c-0.2-0.2,0.2-0.4,0.3-0.4
	c0.5,0.1,1.1,0.1,1.7,0.1c0.1,0,0.2,0.1,0.3,0.1C22.1,6.4,22,6.4,22,6.5L22,6.5z M22.6,7.1c0,0.1-0.1,0.1-0.1,0.1
	c-0.1,0-0.1,0-0.2,0l-0.2-0.1C22.1,7.1,22,7,22,7V6.8c0-0.1,0.1-0.3,0.2-0.3l0,0c0.1-0.1,0.3-0.1,0.4,0.1c0,0,0,0,0,0.1
	c0,0.1,0,0.1,0,0.2C22.6,6.9,22.6,7,22.6,7.1z M25.3,2.1c0.1-0.1,0.3-0.2,0.5,0c0,0,0,0,0,0c0,0,0,0,0,0c0.1,0.2-0.1,0.6,0.1,0.7
	c0.1,0,0.1,0,0.2,0h0.1c0.1,0,0.1,0,0.2,0c0.1,0.1,0.1,0.2,0,0.3c0,0.1-0.1,0.1-0.2,0.1H26c-0.2,0.1-0.2,0.3-0.2,0.6
	c0,0.5,0,1,0,1.5c0,0.3,0.3,0.1,0.5,0.2c0.1,0,0.1,0.1,0.2,0.2c0.1,0.5-0.6,0.1-0.7,0.4c-0.1,0.3,0.1,0.4,0,0.7
	c0,0.1-0.1,0.2-0.3,0.2H23c-0.1-0.1-0.1-0.1-0.1-0.2c0-0.1,0-0.1,0.1-0.1h1.9c0.2,0,0.4,0,0.6-0.1V3c0-0.2,0-0.4,0-0.5
	C25.5,2.4,25.4,2.2,25.3,2.1C25.3,2.1,25.3,2.1,25.3,2.1L25.3,2.1z M25,2.2C25,2.2,25.1,2.2,25,2.2L25,2.2c0.1-0.1,0.2-0.1,0.2,0
	c0.1,0.1,0.1,0.1,0.1,0.2c0,0.3,0,0.6,0,0.9v0.5c0,0.7,0,2.2,0,2.3c0,0.1,0,0.1-0.1,0.1C25.2,6.1,25.1,6,25,5.8
	C25,4.3,25.1,3.7,25,2.2z M25.1,6.3c0,0,0.1,0.1,0.1,0.2c0,0.2-0.4,0.1-0.5,0.1h-1.9c-0.1-0.1-0.1-0.2,0-0.3c0,0,0,0,0,0
	c0.1-0.2,1.6,0,2.1-0.2C25,6.1,25.1,6.2,25.1,6.3z M20.1,5.5v-3c0-0.1,0-0.3,0-0.4l0,0c0.1-0.1,0.1-0.1,0.2-0.1h0.5
	c0.2,0,0.5,0.1,0.7,0c0.1,0,0.1,0,0.2,0c0.3,0,0.5,0.1,0.7,0.3v0.4h0.1V2.4c0-0.1,0.1-0.2,0.1-0.3C22.6,2.1,22.7,2,22.9,2
	c0.5,0,1.1,0,1.6,0c0.1,0,0.1,0,0.2,0c0.1,0,0.2,0.1,0.2,0.2v3.4c0,0.1,0,0.3,0,0.4c-0.2,0.1-0.4,0.1-0.5,0.1h-1.5
	c-0.1,0-0.1,0.1-0.2,0.1c-0.1,0.1-0.1,0.1-0.2,0.1c0-0.2,0-0.3,0-0.5h-0.1c0,0.2,0,0.3-0.1,0.5c-0.1,0-0.3-0.1-0.4-0.1
	c-0.4,0-1.1,0-1.5,0c-0.1,0-0.2-0.1-0.3-0.2C20,5.8,20,5.6,20.1,5.5z M19.8,2.1c0.1,0,0.1,0,0.1,0.1l0,0v2.7c0,0.4,0,0.8-0.1,1.1
	c0,0.1-0.1,0.2-0.2,0.2c-0.1-0.9,0-1.7,0-2.3V3.2c0-0.1,0-0.3,0-0.4C19.5,2.6,19.6,2.3,19.8,2.1L19.8,2.1z M19.1,5.4
	c0-0.1,0-0.3,0-0.4V4.5c0-0.4,0-0.7-0.1-1.1c-0.2-0.2-0.5,0.1-0.6-0.2c0-0.1,0-0.3,0.2-0.3c0,0,0,0,0,0h0.1C18.9,2.8,19,3,19.1,2.8
	c0.1-0.2,0-0.4,0-0.6c0-0.1,0.1-0.2,0.2-0.2c0.1-0.1,0.3,0,0.4,0.1c0,0-0.1,0.1-0.1,0.1c0,0-0.1,0.1-0.1,0.1c0,0.3,0,0.6,0,0.9v2.5
	c0,0.2-0.1,0.8,0.1,0.9c0.2,0,0.4,0,0.6,0h1.6c0.1,0,0.2,0.1,0.2,0.1c0,0.1,0,0.2-0.1,0.2h-2.6c-0.1-0.1-0.2-0.2-0.1-0.3
	c0-0.2,0.1-0.5-0.1-0.6c-0.1,0-0.3,0-0.4,0c-0.1,0-0.2-0.1-0.2-0.2c0-0.1,0-0.2,0.1-0.2c0,0,0.1,0,0.1-0.1C18.9,5.5,19,5.6,19.1,5.4
	L19.1,5.4z M22.4,5L22.4,5c-0.2,0-0.2-0.1-0.2-0.1c0,0,0-0.1,0-0.1l0.1-0.4h0.4l0.1,0.3c0,0,0,0.1,0,0.1c0,0,0,0.1-0.1,0.1
	c0,0,0,0,0,0h-0.1v0.2h0.8V5l0,0c-0.1,0-0.2-0.1-0.2-0.3l-0.5-1.6h-0.4v0.1l-0.3,1.5C22,4.9,21.9,5,21.9,5l0,0v0.2h0.6L22.4,5
	L22.4,5z M22.5,3.6l0.2,0.7h-0.3L22.5,3.6z M23.6,18c-0.3-0.2-0.6-0.4-0.7-0.5c-0.1-0.2-0.2-0.4-0.2-0.6c-0.1-0.2-0.2-0.4-0.3-0.5
	c-0.2-0.3-0.7-0.6-0.9-0.4c-0.2,0.3-0.4,0.6-0.6,0.9c-0.3,0.2-0.6,0.4-0.9,0.5c-1.3,0.1-2.5,0.1-3.8,0.1c-0.1,0-0.2-0.2-0.2-0.3
	c0-1.1,0-2.2,0.1-3.2c0.2-0.3,0.4-0.6,0.7-0.8c0.4-0.3,0.9-0.4,0.9-0.6c-0.2-0.3-0.4-0.6-0.8-0.8c-0.4-0.2-0.9-0.2-1-0.3
	c-0.2-0.2-0.4-0.5-0.5-0.8c-0.2-0.3-0.4-0.5-0.7-0.7c-0.3,0.2-0.5,0.4-0.7,0.7c-0.2,0.3-0.3,0.5-0.5,0.8c-0.1,0.1-0.6,0.1-1,0.3
	c-0.3,0.2-0.6,0.4-0.8,0.8c0,0.2,0.6,0.3,0.9,0.6c0.3,0.2,0.5,0.5,0.7,0.8c0.1,1.1,0.1,2.2,0.1,3.2c0,0.1-0.1,0.3-0.2,0.3
	c-1.2,0.1-2.5,0.1-3.7,0c-0.3-0.1-0.7-0.3-0.9-0.5c-0.3-0.2-0.5-0.5-0.6-0.9c-0.1-0.3-0.6,0.1-0.9,0.4c-0.1,0.2-0.2,0.3-0.3,0.5
	c0,0.2-0.1,0.4-0.2,0.6C6.3,17.7,6,17.8,5.7,18c-0.3,0.2-0.6,0.5-0.7,0.9c0.2,0.3,0.4,0.5,0.7,0.7C5.9,19.8,6.5,20,6.5,20
	s0.1,0.6,0.3,0.9c0.2,0.3,0.5,0.6,0.8,0.8c0.3,0.1,0.4,0.1,0.5,0s0.3-0.6,0.4-0.8c0.2-0.3,0.5-0.6,0.9-0.8c0.4-0.1,0.7-0.2,1.1-0.2
	H13c0.2,0,0.4,0.1,0.4,0.4v4.3c0,0.5-0.2,0.9-0.5,1.3c-0.4,0.4-0.8,0.7-1.3,0.8c-0.2,0.1,0,0.2,0.1,0.4c0.2,0.2,0.4,0.4,0.7,0.6
	c0.3,0.2,0.6,0.3,0.9,0.3c0.2,0.2,0.4,0.4,0.5,0.7c0.3,0.4,0.6,0.8,1,1c0.4-0.3,0.7-0.6,0.9-1.1c0.1-0.3,0.2-0.5,0.5-0.7
	c0.3-0.1,0.6-0.2,0.9-0.3c0.3-0.2,0.5-0.3,0.7-0.6c0.1-0.2,0.3-0.4,0.1-0.4c-0.5-0.2-1-0.4-1.3-0.8c-0.3-0.4-0.5-0.8-0.5-1.3v-4.3
	c0-0.2,0.2-0.4,0.4-0.4h2.5c0.4,0,0.8,0.1,1.1,0.2c0.3,0.2,0.6,0.5,0.8,0.8c0.1,0.2,0.4,0.7,0.4,0.8c0.1,0.1,0.2,0.1,0.5,0
	c0.3-0.2,0.6-0.5,0.8-0.8c0.1-0.2,0.3-0.8,0.3-0.9s0.6-0.3,0.8-0.5c0.3-0.2,0.5-0.4,0.7-0.7C24.2,18.5,23.9,18.2,23.6,18L23.6,18z
	 M7.5,17.1c0.1-0.1,0.1-0.2,0.2-0.3h0.1C7.9,16.9,8,17,8.1,17.1c0.1,0.2,0.1,0.3,0.1,0.5c0,0.2,0,0.4-0.1,0.6
	C8,18.4,8,18.5,7.9,18.6c0,0.1-0.1,0.3-0.1,0.4c0,0.1,0,0.1,0,0.2c0,0,0,0-0.1,0c0,0,0,0-0.1,0V19c0-0.1,0-0.3-0.1-0.4
	c0-0.1-0.1-0.3-0.1-0.4c-0.1-0.2-0.1-0.4-0.1-0.6C7.4,17.4,7.5,17.2,7.5,17.1L7.5,17.1z M8.3,19.4c0.1,0,0.1,0,0.2,0.1
	c0,0.1,0,0.1-0.1,0.2c0,0,0,0,0,0H7.5c-0.1,0-0.1,0-0.2-0.1c0-0.1,0-0.1,0.1-0.2H8.3z M6.9,18.6c-0.1,0-0.1,0-0.2,0
	c-0.1,0-0.1,0.1-0.2,0.1c0,0.1-0.1,0.1-0.1,0.2l-0.2-0.1c0-0.1-0.1-0.2-0.1-0.2c0-0.1,0-0.2,0-0.3C6.4,18.1,6.6,18,6.8,18
	c0.1,0,0.2,0,0.4,0.1c0.1,0.1,0.3,0.2,0.4,0.4c0.1,0.1,0.1,0.2,0.1,0.4c0,0.1,0,0.2,0,0.4c0,0-0.1,0-0.1,0l0,0v-0.1L7.4,19
	c-0.1-0.1-0.1-0.2-0.2-0.3C7.1,18.7,7,18.6,6.9,18.6L6.9,18.6z M8.4,20.2c-0.1,0-0.2,0-0.3-0.1c0,0.1,0,0.1,0,0.2
	c0,0.1,0,0.1-0.1,0.2H7.8c-0.1,0-0.1-0.1-0.1-0.2c0-0.1,0-0.1,0-0.2c-0.1,0.1-0.2,0.1-0.3,0.1c-0.1,0-0.3-0.1-0.2-0.1
	c0.1,0,0.2-0.1,0.3-0.2c0,0,0.1-0.1,0.1-0.2h0.6c0,0.1,0.1,0.1,0.1,0.2c0.1,0.1,0.2,0.1,0.3,0.2C8.6,20.1,8.5,20.2,8.4,20.2
	L8.4,20.2z M9.6,18.6c0,0.1,0,0.2-0.1,0.2c0,0.1-0.1,0.1-0.2,0.2c0-0.1,0-0.1-0.1-0.2c0-0.1-0.1-0.1-0.2-0.1c-0.1,0-0.1,0-0.2,0
	c-0.1,0-0.2,0-0.3,0.1c-0.1,0.1-0.2,0.2-0.2,0.3c0,0.1-0.1,0.1-0.1,0.2v0c0,0-0.1,0-0.1,0l0,0c0-0.1,0-0.2,0-0.4
	c0-0.1,0.1-0.2,0.1-0.4c0.1-0.2,0.2-0.3,0.4-0.4C8.7,18,8.9,18,9,18c0.2,0,0.4,0.1,0.5,0.2C9.6,18.3,9.6,18.4,9.6,18.6L9.6,18.6z
	 M15.4,12c0.1-0.1,0.2-0.1,0.4-0.1c0.2,0,0.4,0.1,0.5,0.2c0.1,0.1,0.1,0.2,0.1,0.3c0,0.1,0,0.2-0.1,0.2c0,0.1-0.1,0.1-0.2,0.2
	c0-0.1,0-0.1-0.1-0.2c-0.1-0.1-0.1-0.1-0.2-0.1c-0.1,0-0.1,0-0.2,0c-0.1,0-0.2,0-0.3,0.1c-0.1,0.1-0.2,0.2-0.2,0.3
	c0,0-0.1,0.1-0.1,0.2v0.1c0,0-0.1,0-0.1,0c0,0,0,0,0,0l0,0c0-0.1,0-0.2,0-0.4c0-0.1,0.1-0.2,0.1-0.4C15.1,12.3,15.3,12.1,15.4,12
	L15.4,12z M14.8,27v0.2c0,0-0.1,0-0.1,0c0,0,0,0,0,0l0,0C14.7,27.1,14.7,27,14.8,27c-0.1-0.1-0.2-0.3-0.2-0.4c0-0.1-0.1-0.3-0.1-0.4
	c-0.1-0.2-0.1-0.4-0.1-0.6c0-0.2,0-0.3,0.1-0.5c0.1-0.1,0.1-0.2,0.2-0.3h0.1c0.1,0.1,0.2,0.2,0.2,0.3c0.1,0.2,0.1,0.3,0.1,0.5
	c0,0.2-0.1,0.4-0.1,0.6c-0.1,0.2-0.1,0.3-0.1,0.4C14.9,26.7,14.9,26.8,14.8,27L14.8,27z M15.1,27.4c0.1,0,0.1,0.1,0.1,0.1
	s-0.1,0.1-0.1,0.1c0,0,0,0,0,0h-0.8c-0.1,0-0.1-0.1-0.1-0.1c0-0.1,0.1-0.1,0.1-0.1H15.1z M14.9,20.2c0,0.1,0,0.1,0,0.2
	c0,0.1,0,0.1-0.1,0.2h-0.1c-0.1,0-0.1-0.1-0.1-0.2c0-0.1,0-0.1,0-0.2c-0.1,0.1-0.2,0.1-0.3,0.1c-0.1,0-0.3-0.1-0.2-0.1
	c0.1,0,0.2-0.1,0.3-0.2c0,0,0.1-0.1,0.1-0.2H15c0,0.1,0.1,0.1,0.1,0.2c0.1,0.1,0.2,0.1,0.3,0.2c0.1,0-0.1,0.1-0.2,0.1
	C15.1,20.3,15,20.2,14.9,20.2z M15.1,19.7h-0.8c-0.1,0-0.1,0-0.2-0.1c0,0,0,0,0,0c0-0.1,0-0.1,0.1-0.2h0.9c0.1,0,0.1,0,0.2,0.1
	C15.3,19.6,15.3,19.6,15.1,19.7C15.2,19.7,15.2,19.7,15.1,19.7L15.1,19.7z M14.8,19c0,0.1,0,0.1,0,0.2c0,0,0,0-0.1,0.1
	c0,0-0.1,0-0.1-0.1V19c0-0.1-0.1-0.2-0.1-0.4c0-0.1-0.1-0.3-0.1-0.4c-0.1-0.2-0.1-0.4-0.1-0.6c0-0.2,0-0.3,0.1-0.5
	c0.1-0.1,0.1-0.2,0.2-0.3h0.1c0.1,0.1,0.2,0.2,0.2,0.3c0.1,0.2,0.1,0.3,0.1,0.5c0,0.2,0,0.4-0.1,0.6c-0.1,0.2-0.1,0.3-0.1,0.4
	C14.8,18.7,14.8,18.9,14.8,19L14.8,19z M14.9,14v0.2c0,0.1,0,0.1-0.1,0.2h-0.1h-0.1c0,0-0.1-0.1-0.1-0.2c0-0.1,0-0.1,0-0.2
	c-0.1,0.1-0.2,0.1-0.3,0.1c-0.1,0-0.3-0.1-0.2-0.1c0.1,0,0.2-0.1,0.3-0.2c0,0,0.1-0.1,0.1-0.2h0.6c0,0.1,0.1,0.1,0.1,0.2
	c0.1,0.1,0.2,0.1,0.3,0.2c0.1,0-0.1,0.1-0.2,0.1C15.1,14.2,15,14.1,14.9,14L14.9,14z M14.2,13.4c0-0.1,0.1-0.1,0.1-0.1h0.8
	c0.1,0,0.1,0,0.1,0.1c0,0.1-0.1,0.1-0.1,0.1h-0.8C14.2,13.5,14.2,13.5,14.2,13.4L14.2,13.4z M14.4,11c0.1-0.1,0.1-0.2,0.2-0.3h0.1
	c0.1,0.1,0.2,0.2,0.2,0.3c0.1,0.2,0.1,0.3,0.1,0.5c0,0.2,0,0.4-0.1,0.6c-0.1,0.2-0.1,0.3-0.1,0.4c0,0.1-0.1,0.3-0.1,0.4v0.2
	l-0.1,0.1l-0.1-0.1v-0.2c0-0.1,0-0.3-0.1-0.4c-0.1-0.2-0.1-0.2-0.1-0.4c-0.1-0.2-0.1-0.4-0.1-0.6C14.3,11.3,14.4,11.2,14.4,11
	L14.4,11z M13.3,12.7c0,0.1-0.1,0.1-0.1,0.2c-0.1,0-0.1-0.1-0.2-0.2c0-0.1-0.1-0.2-0.1-0.2c0-0.1,0-0.2,0.1-0.3
	c0.1-0.1,0.3-0.2,0.5-0.2c0.1,0,0.2,0,0.4,0.1c0.2,0.1,0.3,0.2,0.4,0.4c0.1,0.1,0.1,0.2,0.1,0.4c0,0.1,0,0.2,0,0.4c0,0-0.1,0-0.1,0
	c0,0,0,0,0,0l0,0v0c-0.1-0.2-0.2-0.3-0.4-0.5c-0.1-0.1-0.2-0.1-0.3-0.1c-0.1,0-0.1,0-0.2,0C13.4,12.5,13.3,12.6,13.3,12.7L13.3,12.7
	z M13.3,18.7c0,0.1-0.1,0.1-0.1,0.2c-0.1,0-0.1-0.1-0.2-0.1C13,18.7,13,18.6,13,18.6c0-0.1,0.1-0.3,0.2-0.3c0.1-0.1,0.3-0.2,0.5-0.2
	c0.1,0,0.2,0,0.4,0.1c0.1,0.1,0.3,0.2,0.4,0.4c0.1,0.1,0.1,0.2,0.1,0.4c0,0.1,0,0.2,0,0.4c0,0-0.1,0-0.1,0l0,0v-0.1
	c0-0.1-0.1-0.1-0.1-0.2c-0.1-0.1-0.1-0.2-0.2-0.3c-0.1-0.1-0.2-0.1-0.3-0.1c-0.1,0-0.1,0-0.2,0C13.4,18.6,13.4,18.7,13.3,18.7
	L13.3,18.7z M13.7,26.6h-0.2c-0.1,0-0.1,0.1-0.2,0.1c0,0.1-0.1,0.1-0.1,0.2c-0.1,0-0.1-0.1-0.2-0.2c0-0.1-0.1-0.2-0.1-0.2
	c0-0.1,0-0.2,0.1-0.3c0.1-0.1,0.3-0.2,0.5-0.2c0.1,0,0.2,0,0.4,0.1c0.1,0.1,0.3,0.2,0.4,0.4c0.1,0.1,0.1,0.2,0.1,0.4
	c0,0.1,0,0.2,0,0.4c0,0-0.1,0-0.1,0l0,0v-0.1c0-0.1-0.1-0.1-0.1-0.2c-0.1-0.1-0.1-0.2-0.2-0.3C13.9,26.6,13.8,26.6,13.7,26.6
	L13.7,26.6z M15.2,28.2c-0.1,0-0.2,0-0.3-0.1v0.2c0,0.1-0.1,0.1-0.1,0.2h-0.1c-0.1,0-0.1-0.1-0.2-0.2c0-0.1,0-0.1,0-0.2
	c-0.1,0.1-0.2,0.1-0.3,0.1c-0.1,0-0.3-0.1-0.2-0.1c0.1,0,0.2-0.1,0.3-0.2c0-0.1,0.1-0.1,0.1-0.2H15c0,0.1,0.1,0.1,0.1,0.2
	c0.1,0.1,0.2,0.1,0.3,0.2C15.4,28.1,15.3,28.2,15.2,28.2L15.2,28.2z M16.3,26.2c0.1,0.2,0.1,0.4,0,0.6c0,0.1-0.1,0.1-0.2,0.2
	c0-0.1,0-0.1-0.1-0.2c0-0.1-0.1-0.1-0.2-0.1c-0.1,0-0.1,0-0.2,0c-0.1,0-0.2,0-0.3,0.1c-0.1,0.1-0.2,0.2-0.2,0.3L15,27.2v0
	c0,0-0.1,0-0.1,0c0,0,0,0,0,0l0,0c0-0.1,0-0.2,0-0.4c0-0.1,0.1-0.3,0.1-0.4c0.1-0.2,0.2-0.3,0.4-0.4c0.1-0.1,0.2-0.1,0.4-0.1
	C15.9,26,16.1,26.1,16.3,26.2L16.3,26.2z M16.4,18.6c0,0.1,0,0.2-0.1,0.2c-0.1,0.1-0.1,0.1-0.2,0.2c0-0.1,0-0.1-0.1-0.2
	c0-0.1-0.1-0.1-0.2-0.1h-0.2c-0.1,0-0.2,0.1-0.3,0.1c-0.1,0.1-0.2,0.2-0.2,0.3l-0.1,0.2v0c0,0-0.1,0-0.1,0l0,0c0-0.1,0-0.2,0-0.4
	c0-0.1,0.1-0.3,0.1-0.4c0.1-0.2,0.2-0.3,0.4-0.4c0.1-0.1,0.2-0.1,0.4-0.1c0.2,0,0.4,0.1,0.5,0.2C16.4,18.3,16.4,18.4,16.4,18.6
	L16.4,18.6z M21.2,17.1c0-0.1,0.1-0.2,0.2-0.3h0.1c0.1,0.1,0.2,0.2,0.2,0.3c0.1,0.2,0.1,0.3,0.1,0.5c0,0.2-0.1,0.4-0.1,0.6
	c-0.1,0.2-0.1,0.3-0.1,0.4c0,0.1-0.1,0.2-0.1,0.4v0.2c0,0,0,0,0,0c0,0-0.1,0-0.1-0.1V19c0-0.1,0-0.2-0.1-0.4c0-0.1-0.1-0.3-0.1-0.4
	c-0.1-0.2-0.1-0.4-0.1-0.6C21.1,17.4,21.2,17.2,21.2,17.1L21.2,17.1z M21.9,19.4c0.1,0,0.1,0,0.1,0.1c0,0,0,0,0,0
	c0,0.1,0,0.1-0.1,0.1c0,0,0,0,0,0h-0.9c-0.1,0-0.1,0-0.1-0.1c0,0,0,0,0,0l0,0c0-0.1,0.1-0.1,0.1-0.1L21.9,19.4L21.9,19.4z
	 M20.6,18.6h-0.2c-0.1,0-0.1,0.1-0.2,0.1c0,0.1-0.1,0.1-0.1,0.2c-0.1,0-0.2-0.1-0.2-0.1c-0.1-0.1-0.1-0.2-0.1-0.2
	c0-0.1,0-0.2,0.1-0.3c0.1-0.1,0.3-0.2,0.5-0.2c0.1,0,0.2,0,0.4,0.1c0.1,0.1,0.3,0.2,0.4,0.4c0.1,0.1,0.1,0.2,0.1,0.4
	c0,0.1,0,0.2,0,0.4c0,0-0.1,0-0.1,0l0,0v-0.1c-0.1-0.2-0.2-0.3-0.3-0.4C20.8,18.6,20.7,18.6,20.6,18.6L20.6,18.6z M22.1,20.2
	c-0.1,0-0.2,0-0.3-0.1c0,0.1,0,0.1,0,0.2c0,0.1,0,0.1-0.1,0.2h-0.2c-0.1-0.1-0.1-0.1-0.1-0.2v-0.2c-0.1,0.1-0.2,0.1-0.3,0.1
	c-0.1,0-0.3-0.1-0.2-0.1c0.1,0,0.2-0.1,0.3-0.2c0,0,0.1-0.1,0.1-0.2h0.6c0,0.1,0.1,0.1,0.1,0.2c0.1,0.1,0.2,0.1,0.3,0.2
	C22.3,20.2,22.1,20.2,22.1,20.2L22.1,20.2z M23.1,18.8c-0.1,0.1-0.1,0.1-0.2,0.2c0-0.1,0-0.1-0.1-0.2c0-0.1-0.1-0.1-0.2-0.1
	c-0.2-0.1-0.4,0-0.5,0.1C22.1,18.8,22,18.9,22,19l-0.1,0.2v0.1c0,0-0.1,0-0.1,0l0,0c0-0.1,0-0.2,0-0.4c0-0.1,0.1-0.2,0.1-0.4
	c0.1-0.1,0.2-0.3,0.4-0.4c0.1-0.1,0.2-0.1,0.4-0.1c0.2,0,0.4,0.1,0.5,0.2c0.1,0.1,0.1,0.2,0.1,0.3C23.2,18.7,23.2,18.7,23.1,18.8
	L23.1,18.8z M11,5.4c-0.4-0.1-0.6,0.1-0.5,0.5c0.1,0.2,0.2,0.3,0.6,0.3c0.1,0,0.1,0.1,0.1,0.1l0,0c0,0.2,0,0.5,0,0.7
	c0.2,0.1,0.5,0.2,0.8,0.1h1.8c0.1,0,0.1,0.1,0.2,0.1c0.2,0.1,0.3,0.1,0.5,0c0,0,0.1,0,0.1,0c0.1-0.1,0.3-0.1,0.4-0.1h1.5
	c0.2,0.1,0.4,0.1,0.6,0c0-0.2,0-0.5,0-0.7c0-0.1,0-0.1,0.1-0.2c0.1,0,0.2,0,0.2,0c0.5,0,0.5-0.4,0.2-0.7s-0.5,0.1-0.5-0.2V3.9
	c0-0.1,0-0.3,0-0.4c0.3,0,0.6,0,0.7-0.2c0.1-0.2-0.1-0.4-0.3-0.5h-0.3c-0.1,0-0.1,0-0.1-0.1c0,0,0-0.1,0-0.1c0-0.2,0-0.5-0.1-0.7
	c-0.3-0.1-0.6-0.1-0.9,0c-0.1-0.2-0.2-0.1-0.4,0c-0.2,0-0.5,0-0.7,0c-0.2,0-0.4,0.1-0.6,0.2c-0.1,0-0.2,0-0.2,0.1
	C14,2.1,13.9,2,13.7,1.9c-0.4,0-0.7,0-1.1,0l-0.4-0.1L12,1.9c-0.1,0-0.2,0-0.3,0h-0.5C10.9,2,11.3,2.6,11,2.8c-0.4,0-0.5,0-0.6,0.3
	c-0.1,0.5,0.3,0.5,0.7,0.5v0.9C11.2,4.8,11.1,5.1,11,5.4C11,5.4,11,5.4,11,5.4z M13.8,6.5L13.8,6.5c-0.7-0.1-1.2,0-1.8,0
	c-0.2-0.2,0.2-0.4,0.3-0.4c0.4,0.1,0.9,0.1,1.3,0.1c0.1,0,0.2,0.1,0.3,0.1C14,6.4,13.9,6.4,13.8,6.5z M16.5,2.1
	c0.1-0.1,0.3-0.1,0.5,0c0,0,0,0,0,0l0,0c0.1,0.2-0.1,0.6,0.1,0.7c0.1,0,0.1,0,0.2,0h0.1c0.1,0,0.1,0,0.2,0.1c0.1,0.1,0.1,0.2,0,0.3
	c0,0.1-0.1,0.1-0.2,0.1h-0.3C16.9,3.3,17,3.6,17,3.8s0,1.1,0,1.5c0,0.3,0.3,0.1,0.5,0.2c0.1,0,0.1,0.1,0.2,0.2
	c0.1,0.5-0.6,0.1-0.7,0.4c-0.1,0.3,0.1,0.4,0,0.7c0,0.1-0.1,0.1-0.2,0.1h-1.9c-0.1,0-0.1-0.1-0.1-0.2c0,0,0,0,0,0l0,0
	c0-0.1,0-0.1,0.1-0.1c0.2,0,0.4,0,0.6,0h0.5c0.2,0,0.4,0,0.6-0.1V3c0-0.2,0-0.4,0-0.5C16.7,2.4,16.6,2.2,16.5,2.1L16.5,2.1L16.5,2.1
	z M16.2,2.2C16.2,2.2,16.2,2.2,16.2,2.2c0.1-0.1,0.2-0.1,0.2,0c0.1,0.1,0.1,0.1,0.1,0.2c0,0.3,0,0.6,0,0.9v0.5c0,0.7,0,2.2,0,2.3
	s0,0.1-0.1,0.1c-0.1-0.1-0.2-0.3-0.3-0.5C16.2,4.3,16.2,3.7,16.2,2.2z M16.3,6.3c0.1,0,0.1,0.1,0.1,0.2c0,0.1-0.4,0.1-0.5,0.1h-1.2
	c-0.1-0.1-0.1-0.2,0-0.3c0,0,0,0,0,0c0.1-0.2,0.9,0,1.4-0.2C16.1,6.1,16.2,6.2,16.3,6.3L16.3,6.3z M14.3,4.2V2.4
	c0-0.1,0-0.2,0.1-0.3C14.5,2,14.6,2,14.7,1.9c0.3,0,0.6,0,0.9,0c0.1,0,0.1,0,0.2,0C16,2,16.1,2,16.1,2.1v3.4c0,0.1,0,0.3,0,0.4
	c-0.2,0.1-0.4,0.1-0.5,0.1h-0.4c-0.1,0-0.3,0-0.4,0c-0.1,0-0.1,0.1-0.2,0.1c-0.1,0-0.1,0.1-0.2,0.1c0-0.2,0-0.3,0-0.5
	C14.4,5.2,14.4,4.5,14.3,4.2L14.3,4.2z M14.5,6.6c0,0.1,0,0.1,0,0.2c0,0.1,0,0.2-0.1,0.3c0,0.1-0.1,0.1-0.1,0.1c-0.1,0-0.1,0-0.2,0
	c0,0-0.1,0-0.1-0.1C14,7,13.9,7,13.9,6.9V6.8c0-0.1,0.1-0.3,0.2-0.3l0,0C14.2,6.4,14.4,6.4,14.5,6.6L14.5,6.6z M12.3,5.5v-3
	c0-0.1,0-0.3,0-0.4l0,0c0-0.1,0.1-0.1,0.2-0.1h0.3c0.2,0,0.3,0,0.5,0c0.1,0,0.1,0,0.2,0c0.3,0,0.5,0.1,0.7,0.3V5h-0.1
	c0,0-0.1,0-0.1-0.1c-0.1-0.1-0.1-0.2-0.1-0.3l-0.1-0.1c0-0.1-0.1-0.2-0.2-0.3c0.2-0.1,0.3-0.3,0.3-0.5c0-0.2-0.1-0.4-0.3-0.5
	c-0.1-0.1-0.3-0.1-0.4-0.1c-0.2,0-0.4,0-0.6,0h-0.1v0.2l0,0c0.1,0,0.2,0,0.2,0.3v1.2c0,0.2,0,0.3-0.2,0.3l0,0v0.2h0.7V5h-0.1
	c-0.1,0-0.2,0-0.2-0.2V4.3h0.1c0.1,0.1,0.1,0.2,0.2,0.3l0.1,0.2c0,0.1,0.1,0.3,0.2,0.3c0.1,0.1,0.2,0.1,0.3,0.1h0.1
	c0,0.3,0,0.6,0,0.9c-0.1,0-0.3-0.1-0.4-0.1c-0.4,0-0.8,0-1.1,0c-0.1,0-0.2,0-0.3-0.1C12.2,5.8,12.2,5.6,12.3,5.5L12.3,5.5z
	 M13.6,3.7c0,0.2-0.1,0.4-0.3,0.4c0,0,0,0,0,0c0,0-0.1,0-0.1,0h-0.1V3.3h0c0.2,0,0.4,0.1,0.4,0.3c0,0,0,0,0,0
	C13.6,3.6,13.6,3.7,13.6,3.7L13.6,3.7z M12,2.1c0.1,0,0.1,0,0.1,0.1l0,0v2.7c0,0.4,0,0.8-0.1,1.1c0,0.1-0.1,0.2-0.2,0.2
	c-0.1-0.9,0-1.7,0-2.3V3.2c0-0.1,0-0.3,0-0.4C11.7,2.6,11.8,2.3,12,2.1L12,2.1z M11.3,5.4c0-0.1,0-0.3,0-0.4V4.5
	c0-0.4,0-0.7-0.1-1.1c-0.2-0.2-0.5,0.1-0.6-0.2c-0.1-0.1,0-0.3,0.2-0.3c0,0,0,0,0,0h0.1c0.2-0.1,0.4,0.1,0.4-0.1c0-0.2,0-0.4,0-0.6
	c0-0.1,0.1-0.2,0.2-0.2c0.1-0.1,0.3,0,0.4,0.1c0,0,0,0.1-0.1,0.1c0,0-0.1,0.1-0.1,0.1c0,0.3,0,0.6,0,0.9v2.5c0,0.2-0.1,0.8,0.1,0.9
	c0.2,0,0.4,0,0.6,0h1.2c0.1,0,0.2,0.1,0.2,0.1c0,0.1,0,0.2-0.1,0.2h-2.3c-0.1-0.1-0.2-0.2-0.1-0.3c0-0.2,0.1-0.5-0.1-0.6
	c-0.1,0-0.3,0-0.4,0c-0.1,0-0.2-0.1-0.2-0.2c0-0.1,0.1-0.2,0.1-0.2c0.1,0,0.1,0,0.2,0C11.1,5.6,11.3,5.6,11.3,5.4L11.3,5.4z
	 M15.6,5.2h-0.7V5l0,0c0.1,0,0.2,0,0.2-0.3V3.6c0-0.2,0-0.3-0.2-0.3l0,0V3.2h0.7v0.2l0,0c-0.1,0-0.2,0-0.2,0.3v1.2
	c0,0.2,0,0.3,0.2,0.3l0,0L15.6,5.2L15.6,5.2z"/>
<ellipse class="st0" cx="43" cy="30.6" rx="1.1" ry="1.2"/>
<ellipse class="st0" cx="59.7" cy="30.6" rx="1.1" ry="1.2"/>
</svg>
