<svg xmlns="http://www.w3.org/2000/svg" viewBox="0 0 118.266 4.836"><g id="Layer_2" data-name="Layer 2"><path d="M.4,13.228H2.311v.2c-.538.048-.631.092-.631.674V15.23a1.073,1.073,0,0,0,.51-.312c.407-.367.846-.8,1.147-1.127.2-.22.177-.309-.126-.348l-.185-.019v-.2H4.748v.2a1.532,1.532,0,0,0-1.175.547c-.222.206-.729.677-1.152,1.076.514.592,1.249,1.413,1.644,1.826a1.054,1.054,0,0,0,.849.454v.2H3.747c-.494-.539-1.069-1.209-1.68-1.9a.415.415,0,0,0-.387-.2v1.24c0,.572.06.613.632.663v.2H.4v-.2c.564-.047.622-.091.622-.663V14.1c0-.587-.052-.633-.622-.674Z" transform="translate(-0.4 -12.786)"/><path d="M5.185,17.523v-.2c.566-.057.622-.086.622-.646v-2.6c0-.566-.058-.6-.622-.653v-.2H7.109v.2c-.569.057-.628.087-.628.653v2.6c0,.565.057.588.628.646v.2Z" transform="translate(-0.4 -12.786)"/><path d="M12.575,13.424c-.443.047-.588.117-.608.42-.01.219-.025.487-.025,1.1v2.646h-.288L8.677,14.157V15.78c0,.591.019.881.035,1.072.015.329.185.438.691.475v.2H7.7v-.2c.427-.032.6-.132.626-.453a10.941,10.941,0,0,0,.036-1.1V14.111a.593.593,0,0,0-.14-.454c-.132-.165-.283-.2-.617-.233v-.2H8.71l2.909,3.252V14.939a10.831,10.831,0,0,0-.034-1.086c-.021-.295-.173-.4-.736-.429v-.2h1.726Z" transform="translate(-0.4 -12.786)"/><path d="M17.615,15.718c-.427.055-.459.092-.459.493v.547a3.517,3.517,0,0,0,.042.629,7.957,7.957,0,0,1-1.605.235,2.271,2.271,0,0,1-2.557-2.258,2.361,2.361,0,0,1,2.63-2.228,8.044,8.044,0,0,1,1.446.163c.014.252.053.673.108,1.08L17,14.42a1.167,1.167,0,0,0-.819-.947,2.428,2.428,0,0,0-.64-.085,1.674,1.674,0,0,0-1.711,1.89,1.863,1.863,0,0,0,1.866,2.093,1.374,1.374,0,0,0,.568-.109.387.387,0,0,0,.223-.415V16.3c0-.479-.063-.53-.719-.58v-.2h1.849Z" transform="translate(-0.4 -12.786)"/><path d="M17.955,14.205c.347-.136.558-.337.558-.556,0-.235-.241-.314-.476-.357-.048-.008-.1-.1-.1-.194,0-.178.147-.312.378-.312a.643.643,0,0,1,.634.689c0,.492-.448.8-.9.926Z" transform="translate(-0.4 -12.786)"/><path d="M21.783,14.248c-.123-.434-.318-.873-.973-.873a.667.667,0,0,0-.722.706c0,.439.3.668.884.953.823.4,1.207.71,1.207,1.343,0,.71-.645,1.245-1.565,1.245a3.228,3.228,0,0,1-1.088-.216,9.765,9.765,0,0,1-.192-1.019l.226-.054a1.291,1.291,0,0,0,1.182,1.039.726.726,0,0,0,.788-.744c0-.487-.28-.7-.89-1.009-.733-.376-1.156-.7-1.156-1.322,0-.608.527-1.161,1.472-1.161a4.836,4.836,0,0,1,.936.124c.029.239.06.518.116.945Z" transform="translate(-0.4 -12.786)"/><path d="M29.045,13.424c-.442.028-.6.138-.612.43-.008.16-.023.428-.023,1.01v.741a2.067,2.067,0,0,1-.49,1.583,1.8,1.8,0,0,1-1.291.429,1.992,1.992,0,0,1-1.165-.312,1.671,1.671,0,0,1-.618-1.515V14.108c0-.6-.057-.638-.612-.684v-.2h1.9v.2c-.553.035-.611.087-.611.684v1.671c0,.924.465,1.445,1.287,1.445.963,0,1.287-.581,1.287-1.659v-.7c0-.581-.021-.829-.035-1.011-.022-.3-.189-.4-.7-.429v-.2h1.688Z" transform="translate(-0.4 -12.786)"/><path d="M34.192,13.424c-.443.047-.588.117-.608.42-.01.219-.025.487-.025,1.1v2.646h-.288l-2.977-3.428V15.78c0,.591.019.881.035,1.072.016.329.185.438.691.475v.2h-1.7v-.2c.427-.032.6-.132.626-.453a10.633,10.633,0,0,0,.036-1.1V14.111a.589.589,0,0,0-.14-.454c-.132-.165-.283-.2-.616-.233v-.2h1.105l2.909,3.252V14.939a10.831,10.831,0,0,0-.034-1.086c-.021-.295-.173-.4-.735-.429v-.2h1.725Z" transform="translate(-0.4 -12.786)"/><path d="M34.666,17.523v-.2c.565-.057.622-.086.622-.646v-2.6c0-.566-.059-.6-.622-.653v-.2H36.59v.2c-.57.057-.628.087-.628.653v2.6c0,.565.056.588.628.646v.2Z" transform="translate(-0.4 -12.786)"/><path d="M41.57,13.424c-.467.057-.59.116-.844.717-.193.449-1.114,2.559-1.488,3.455H38.98c-.374-.965-1.03-2.641-1.409-3.569-.2-.49-.313-.563-.745-.6v-.2h1.84l0,.2c-.516.055-.538.129-.439.379.183.495.7,1.818,1.1,2.823.379-.869.825-1.914,1.123-2.675.157-.4.08-.462-.495-.527v-.2H41.57Z" transform="translate(-0.4 -12.786)"/><path d="M45.43,16.46c-.04.173-.23.867-.3,1.063H41.693v-.194c.648-.049.7-.1.7-.648v-2.6c0-.583-.078-.617-.592-.662v-.2h2.162c.671,0,.938-.007,1.024-.013.007.157.036.661.065,1.022l-.222.032a1.948,1.948,0,0,0-.226-.522c-.114-.2-.262-.247-.67-.247H43.3c-.226,0-.242.018-.242.216v1.445h.759c.5,0,.542-.1.629-.551h.227v1.381h-.227c-.095-.478-.15-.546-.636-.546h-.752v1.282c0,.461.128.519.493.526h.623c.42,0,.5-.057.649-.231a2.788,2.788,0,0,0,.387-.617Z" transform="translate(-0.4 -12.786)"/><path d="M50.028,17.573c-.082,0-.16,0-.25-.012a1.288,1.288,0,0,1-1.138-.554c-.262-.342-.505-.757-.731-1.1-.134-.205-.226-.245-.559-.245h-.225v1.024c0,.557.075.592.629.646v.2H45.839v-.2c.571-.058.622-.089.622-.646V14.064c0-.555-.075-.584-.622-.64v-.2h1.826a2.09,2.09,0,0,1,1.144.23.976.976,0,0,1,.474.873,1.219,1.219,0,0,1-.9,1.124c.122.2.417.644.626.943a5.91,5.91,0,0,0,.549.682,1.006,1.006,0,0,0,.5.3Zm-2.594-2.149a1.155,1.155,0,0,0,.753-.188.991.991,0,0,0-.621-1.768.631.631,0,0,0-.361.066c-.061.045-.08.113-.08.278v1.612Z" transform="translate(-0.4 -12.786)"/><path d="M52.816,14.248c-.123-.434-.318-.873-.972-.873a.667.667,0,0,0-.723.706c0,.439.3.668.885.953.822.4,1.206.71,1.206,1.343,0,.71-.645,1.245-1.565,1.245a3.228,3.228,0,0,1-1.088-.216,10.037,10.037,0,0,1-.192-1.019l.227-.054a1.289,1.289,0,0,0,1.181,1.039.726.726,0,0,0,.788-.744c0-.487-.28-.7-.889-1.009-.734-.376-1.157-.7-1.157-1.322,0-.608.527-1.161,1.472-1.161a4.862,4.862,0,0,1,.937.124c.028.239.059.518.115.945Z" transform="translate(-0.4 -12.786)"/><path d="M53.737,17.523v-.2c.566-.057.622-.086.622-.646v-2.6c0-.566-.058-.6-.622-.653v-.2h1.924v.2c-.569.057-.628.087-.628.653v2.6c0,.565.057.588.628.646v.2Z" transform="translate(-0.4 -12.786)"/><path d="M58.268,13.228A2.9,2.9,0,0,1,60.3,13.8a1.853,1.853,0,0,1,.6,1.418A2.11,2.11,0,0,1,60.028,17a3.434,3.434,0,0,1-2.052.528H56.29v-.2c.588-.05.622-.1.622-.642V14.072c0-.566-.082-.6-.622-.648v-.2Zm-.682,3.406c0,.491.206.632.727.632a1.733,1.733,0,0,0,1.826-1.951,1.708,1.708,0,0,0-.754-1.563,2.121,2.121,0,0,0-1.183-.283.972.972,0,0,0-.528.092c-.063.044-.088.123-.088.369Z" transform="translate(-0.4 -12.786)"/><path d="M63.915,17.523v-.2c.452-.054.5-.121.4-.378s-.221-.571-.361-.96H62.471c-.106.28-.209.537-.3.8-.153.427-.042.479.527.542v.2H61.061v-.2c.441-.053.553-.1.8-.689l1.448-3.459.244-.043,1.365,3.5c.23.582.293.634.781.687v.2Zm-.684-3.456c-.219.551-.449,1.124-.653,1.639H63.85Z" transform="translate(-0.4 -12.786)"/><path d="M67.874,13.228a2.893,2.893,0,0,1,2.033.575,1.85,1.85,0,0,1,.6,1.418A2.11,2.11,0,0,1,69.634,17a3.438,3.438,0,0,1-2.052.528H65.9v-.2c.588-.05.622-.1.622-.642V14.072c0-.566-.082-.6-.622-.648v-.2Zm-.683,3.406c0,.491.206.632.728.632a1.733,1.733,0,0,0,1.826-1.951,1.706,1.706,0,0,0-.755-1.563,2.118,2.118,0,0,0-1.183-.283.977.977,0,0,0-.528.092c-.062.044-.088.123-.088.369Z" transform="translate(-0.4 -12.786)"/><path d="M74.771,16.46c-.04.173-.23.867-.3,1.063H71.034v-.194c.647-.049.695-.1.695-.648v-2.6c0-.583-.078-.617-.593-.662v-.2H73.3c.671,0,.938-.007,1.024-.013.007.157.036.661.065,1.022l-.222.032a1.981,1.981,0,0,0-.226-.522c-.114-.2-.262-.247-.671-.247h-.626c-.225,0-.242.018-.242.216v1.445h.76c.5,0,.542-.1.629-.551h.226v1.381H73.79c-.1-.478-.151-.546-.636-.546H72.4v1.282c0,.461.129.519.493.526h.623c.42,0,.5-.057.65-.231a2.825,2.825,0,0,0,.387-.617Z" transform="translate(-0.4 -12.786)"/><path d="M78.7,13.228a2.893,2.893,0,0,1,2.033.575,1.85,1.85,0,0,1,.6,1.418A2.11,2.11,0,0,1,80.464,17a3.436,3.436,0,0,1-2.052.528H76.725v-.2c.588-.05.622-.1.622-.642V14.072c0-.566-.082-.6-.622-.648v-.2Zm-.683,3.406c0,.491.206.632.728.632a1.733,1.733,0,0,0,1.826-1.951,1.706,1.706,0,0,0-.755-1.563,2.117,2.117,0,0,0-1.182-.283.979.979,0,0,0-.529.092c-.062.044-.088.123-.088.369Z" transform="translate(-0.4 -12.786)"/><path d="M85.6,16.46c-.04.173-.23.867-.3,1.063H81.864v-.194c.648-.049.695-.1.695-.648v-2.6c0-.583-.078-.617-.593-.662v-.2h2.163c.671,0,.938-.007,1.024-.013.007.157.036.661.065,1.022L85,14.269a1.981,1.981,0,0,0-.226-.522c-.114-.2-.262-.247-.671-.247h-.626c-.225,0-.242.018-.242.216v1.445h.76c.5,0,.542-.1.629-.551h.227v1.381H84.62c-.095-.478-.15-.546-.636-.546h-.753v1.282c0,.461.129.519.493.526h.623c.42,0,.5-.057.65-.231a2.788,2.788,0,0,0,.387-.617Z" transform="translate(-0.4 -12.786)"/><path d="M91.1,16.414c-.043.22-.251.909-.32,1.109H87.489v-.2c.632-.056.688-.091.688-.651v-2.6c0-.561-.07-.6-.622-.648v-.2h1.927v.2c-.556.051-.632.082-.632.648v2.666c0,.4.048.5.445.508l.517.007c.365,0,.469-.047.631-.214a2.313,2.313,0,0,0,.429-.683Z" transform="translate(-0.4 -12.786)"/><path d="M93.934,13.136a2.193,2.193,0,0,1,2.28,2.182,2.33,2.33,0,0,1-4.657.091A2.264,2.264,0,0,1,93.934,13.136Zm-.132.252c-.771,0-1.45.628-1.45,1.852s.669,2.124,1.653,2.124c.812,0,1.427-.6,1.427-1.861C95.432,14.13,94.7,13.388,93.8,13.388Z" transform="translate(-0.4 -12.786)"/><path d="M101.653,13.424c-.443.047-.588.117-.608.42-.01.219-.025.487-.025,1.1v2.646h-.288l-2.977-3.428V15.78c0,.591.019.881.035,1.072.015.329.185.438.691.475v.2h-1.7v-.2c.427-.032.6-.132.626-.453a10.633,10.633,0,0,0,.036-1.1V14.111a.589.589,0,0,0-.14-.454c-.132-.165-.283-.2-.617-.233v-.2h1.106L100.7,16.48V14.939a10.831,10.831,0,0,0-.034-1.086c-.021-.295-.173-.4-.735-.429v-.2h1.725Z" transform="translate(-0.4 -12.786)"/><path d="M104.105,13.228a2.893,2.893,0,0,1,2.033.575,1.85,1.85,0,0,1,.6,1.418A2.113,2.113,0,0,1,105.865,17a3.434,3.434,0,0,1-2.052.528h-1.686v-.2c.588-.05.622-.1.622-.642V14.072c0-.566-.082-.6-.622-.648v-.2Zm-.682,3.406c0,.491.206.632.727.632a1.733,1.733,0,0,0,1.826-1.951,1.708,1.708,0,0,0-.754-1.563,2.121,2.121,0,0,0-1.183-.283.972.972,0,0,0-.528.092c-.063.044-.088.123-.088.369Z" transform="translate(-0.4 -12.786)"/><path d="M111.528,17.573c-.082,0-.16,0-.25-.012a1.288,1.288,0,0,1-1.138-.554c-.262-.342-.5-.757-.731-1.1-.134-.205-.226-.245-.559-.245h-.225v1.024c0,.557.075.592.629.646v.2h-1.915v-.2c.571-.058.622-.089.622-.646V14.064c0-.555-.075-.584-.622-.64v-.2h1.826a2.09,2.09,0,0,1,1.144.23.976.976,0,0,1,.474.873,1.219,1.219,0,0,1-.9,1.124c.122.2.417.644.626.943a5.91,5.91,0,0,0,.549.682,1.006,1.006,0,0,0,.5.3Zm-2.594-2.149a1.155,1.155,0,0,0,.753-.188.991.991,0,0,0-.621-1.768.631.631,0,0,0-.361.066c-.061.045-.08.113-.08.278v1.612Z" transform="translate(-0.4 -12.786)"/><path d="M115.4,16.46c-.04.173-.23.867-.3,1.063h-3.438v-.194c.647-.049.695-.1.695-.648v-2.6c0-.583-.078-.617-.594-.662v-.2h2.163c.671,0,.939-.007,1.025-.013.007.157.036.661.064,1.022l-.221.032a1.981,1.981,0,0,0-.226-.522c-.114-.2-.263-.247-.671-.247h-.626c-.225,0-.242.018-.242.216v1.445h.76c.5,0,.542-.1.629-.551h.226v1.381h-.226c-.095-.478-.151-.546-.636-.546h-.753v1.282c0,.461.129.519.493.526h.623c.42,0,.5-.057.65-.231a2.786,2.786,0,0,0,.386-.617Z" transform="translate(-0.4 -12.786)"/><path d="M118.27,14.248c-.123-.434-.318-.873-.972-.873a.667.667,0,0,0-.723.706c0,.439.3.668.885.953.822.4,1.206.71,1.206,1.343,0,.71-.645,1.245-1.565,1.245a3.234,3.234,0,0,1-1.088-.216,10.037,10.037,0,0,1-.192-1.019l.227-.054a1.29,1.29,0,0,0,1.181,1.039.726.726,0,0,0,.788-.744c0-.487-.28-.7-.889-1.009-.734-.376-1.156-.7-1.156-1.322,0-.608.526-1.161,1.471-1.161a4.862,4.862,0,0,1,.937.124c.028.239.059.518.115.945Z" transform="translate(-0.4 -12.786)"/></g></svg>