<?xml version="1.0" encoding="utf-8"?>
<!-- Generator: Adobe Illustrator 26.0.1, SVG Export Plug-In . SVG Version: 6.00 Build 0)  -->
<svg version="1.1" id="Layer_1" xmlns="http://www.w3.org/2000/svg" xmlns:xlink="http://www.w3.org/1999/xlink" x="0px" y="0px"
	 viewBox="0 0 119 32" style="enable-background:new 0 0 119 32;" xml:space="preserve">
<style type="text/css">
	.st0{display:none;}
	.st1{display:inline;}
	.st2{fill:#FC0606;}
</style>
<g id="Layer_1_00000021808896932624088090000003407488659177783219_">
</g>
<g>
	<rect x="24.6" y="28.8" width="70.4" height="0.6"/>
	<rect x="24.6" y="30.9" width="70.4" height="1.1"/>
	<path d="M61,5.5c0-0.7,0.5-0.7,0.9-0.8C62,4.7,62,4.6,62,4.5s-0.1-0.1-0.1-0.2l0,0h-3.3c-0.1,0-0.2,0.1-0.2,0.2s0.1,0.2,0.2,0.2
		l0,0l0,0c0.6,0.1,1.2,0.2,1.2,0.8v1c0,0.2-0.1,0.4-0.3,0.6c-0.5,0.4-1.1,0.5-1.7,0.5c-2.1,0-3-1.7-3-3.5c0-2.4,1.5-3.6,3.1-3.6
		c1.5,0,2.5,0.6,3,1.8C61,2.4,61,2.5,61.1,2.5s0.2-0.1,0.2-0.2V0.6c0-0.1-0.1-0.2-0.1-0.2l0,0l0,0c-0.1,0-0.1,0.1-0.2,0.2
		c-0.1,0.2-0.2,0.3-0.3,0.3s-0.2-0.1-0.3-0.2C59.7,0.3,59.2,0,57.9,0c-2,0-4.5,1.1-4.5,4.1c0,3.1,2.3,4,4.3,4C59,8.2,60.1,7.8,61,7
		V5.5z"/>
	<path d="M63.1,1.3c0.1,0,0.3-0.1,0.3-0.2v0.1c0,0.3-0.3,0.6-0.7,0.8c-0.1,0-0.1,0.1-0.1,0.2c0,0.1,0.1,0.1,0.2,0.1
		c0.7-0.1,1.1-0.8,1.1-1.4S63.6,0,63.1,0c-0.3,0-0.7,0.2-0.7,0.6C62.5,1,62.7,1.3,63.1,1.3C63,1.3,63,1.3,63.1,1.3z"/>
	<path d="M69.1,2c0.1,0,0.1-0.1,0.1-0.1l0,0L69,0.2C69,0,69,0,68.9,0s-0.1,0-0.1,0.1c-0.1,0.1-0.1,0.3-0.3,0.3
		c-0.3,0-0.6-0.3-1.4-0.3c-1,0-2.4,0.5-2.4,1.9c0,1.5,1.2,2,2.2,2.4C68,4.8,68.8,5,68.8,6.1s-0.9,1.5-1.7,1.5
		c-0.9,0-1.9-0.4-2.3-1.7c0-0.1-0.1-0.2-0.2-0.2c-0.1,0-0.2,0.1-0.2,0.2v1.9c0,0.1,0.1,0.2,0.1,0.2l0,0l0,0c0.1,0,0.1,0,0.2-0.1
		s0.2-0.3,0.3-0.3c0.3,0,1,0.6,2.1,0.6s2.8-0.4,2.8-2.4c0-0.8-0.3-1.9-2.3-2.5c-1.4-0.4-1.8-0.9-1.8-1.6c0-0.6,0.4-1.1,1.3-1.1
		c0.7,0,1.4,0.3,1.9,1.3C69,2,69.1,2,69.1,2L69.1,2z"/>
	<path d="M41.7,1.4c0-0.6,0.2-0.9,0.8-1c0.1,0,0.2-0.1,0.2-0.2s-0.1-0.1-0.2-0.1h-2.9c-0.1,0-0.2,0.1-0.2,0.1s0.1,0.2,0.2,0.2
		c0.6,0.1,0.8,0.4,0.8,1v5.4c0,0.6-0.2,0.9-0.8,1c-0.1,0-0.2,0.1-0.2,0.2c0,0.1,0.1,0.1,0.2,0.1h2.9c0.1,0,0.2-0.1,0.2-0.1
		c0-0.1-0.1-0.2-0.2-0.2c-0.6-0.1-0.8-0.4-0.8-1V1.4z"/>
	<path d="M51.8,1.6c0-0.8,0.2-1.1,0.8-1.2c0.1,0,0.2-0.1,0.2-0.2s-0.1-0.1-0.2-0.1h-2.5C50,0.1,50,0.2,50,0.3s0.1,0.1,0.1,0.2
		c0.5,0.1,0.9,0.2,1,1.2C51.2,2.8,51.2,6,51.2,6L46,0.2h-2c-0.1,0-0.2,0.1-0.2,0.1s0.1,0.2,0.2,0.2c0.3,0.1,0.8,0.2,0.8,0.8
		c0,1.6,0,3.7-0.1,5.5c0,0.8-0.2,1.1-0.8,1.2c-0.1,0-0.2,0.1-0.2,0.2s0.1,0.1,0.2,0.1h2.5c0.1,0,0.1-0.1,0.1-0.2
		c0-0.1-0.1-0.1-0.1-0.2c-0.5-0.1-0.9-0.2-1-1.2c-0.1-1.1-0.1-5.2-0.1-5.2l6,6.7h0.4C51.7,8.1,51.7,3.3,51.8,1.6L51.8,1.6z"/>
	<path d="M28.2,2.6c0-0.9,0.2-1.7,1.9-1.9c0.2,0,0.3-0.1,0.3-0.3c0-0.1-0.1-0.2-0.2-0.2l0,0l0,0c-1.1,0.1-1.6,0.1-3,0.1
		c-1.2,0-2.7-0.1-2.9-0.1c-0.2-0.1-0.3,0-0.3,0.2s0.1,0.2,0.3,0.2c0.6,0.1,1.6,0.2,1.7,2.1c0,0.6,0,3.4,0,6.5c0,2,0,3.7-0.1,4.5
		c-0.1,1.8-1,2-1.7,2.1c-0.1,0-0.2,0.1-0.2,0.2s0.1,0.2,0.3,0.2c0.2,0,1.7-0.1,2.9-0.1c1.4,0,2.1,0,3.2,0.1c0.1,0,0.2-0.1,0.2-0.2
		l0,0c0-0.2-0.1-0.2-0.3-0.3c-1.8-0.2-2.1-1-2.1-1.9c0-0.4-0.1-1.4-0.1-2.4s0-2.1,0-2.3s0.2-0.3,0.3-0.3c0.1,0,0.2,0,0.3,0.1
		c1.1,0.9,4.5,5,6.5,7.4h4.1c0.2,0,0.2-0.1,0.2-0.2s-0.1-0.3-0.2-0.3l0,0c-0.8-0.1-1.3-0.2-2.3-1s-6.7-7.6-6.7-7.6
		C30.9,6.6,33.5,4,35,2.6c1.8-1.6,2.5-1.8,3.2-2c0.1,0,0.2-0.1,0.2-0.2c0-0.2-0.1-0.3-0.3-0.3c-0.4,0-1.6,0.1-2.3,0.1
		c-1.3,0-2.4-0.1-2.6-0.1c-0.2,0-0.4,0.1-0.4,0.3s0.1,0.2,0.3,0.3c0.3,0,0.5,0.1,0.8,0.2c0.3,0.1,0.4,0.2,0.4,0.5S34.2,1.9,34,2.1
		c-0.4,0.6-0.9,1.1-1.4,1.7c-1.6,1.6-3.5,3.5-4.1,4c-0.1,0-0.1,0.1-0.2,0.1s-0.1-0.1-0.1-0.2S28.2,4.6,28.2,2.6L28.2,2.6z"/>
	<g>
		<path d="M27.4,19.4c1.6,0,2.6,0.3,3.3,0.9c0.5,0.5,1,1.2,1,2.3c0,1.2-0.5,2.2-1.4,2.8c-0.9,0.6-1.9,0.8-3.3,0.8h-2.8V26
			c0.9-0.1,1-0.2,1-1v-4.2c0-0.9-0.1-1-1-1v-0.3L27.4,19.4L27.4,19.4z M26.3,24.8c0,0.8,0.3,1,1.2,1c1.9,0,2.9-1.2,2.9-3.1
			c0-1.1-0.4-2-1.2-2.5c-0.5-0.3-1.1-0.5-1.9-0.5c-0.5,0-0.7,0.1-0.8,0.2c-0.1,0.1-0.1,0.2-0.1,0.6L26.3,24.8L26.3,24.8z"/>
		<path d="M38.8,24.6c-0.1,0.3-0.4,1.4-0.5,1.7h-5.4V26c1-0.1,1.1-0.2,1.1-1v-4.1c0-0.9-0.1-1-1-1.1v-0.3h3.5c1.1,0,1.5,0,1.6,0
			c0,0.3,0.1,1.1,0.1,1.6l-0.4,0.1c-0.1-0.4-0.2-0.6-0.4-0.8C37.2,20.1,37,20,36.3,20h-1c-0.4,0-0.4,0-0.4,0.3v2.3h1.2
			c0.8,0,0.9-0.2,1-0.9h0.4v2.2h-0.4c-0.2-0.8-0.2-0.9-1-0.9h-1.2v2c0,0.7,0.2,0.8,0.8,0.8h1c0.7,0,0.8-0.1,1-0.4
			c0.2-0.2,0.5-0.7,0.6-1L38.8,24.6z"/>
		<path d="M48.5,24.5c-0.1,0.4-0.4,1.4-0.5,1.8h-5.3V26c1-0.1,1.1-0.1,1.1-1v-4.2c0-0.9-0.1-1-1-1v-0.3h3.1v0.3c-0.9,0.1-1,0.1-1,1
			V25c0,0.6,0.1,0.8,0.7,0.8h0.8c0.6,0,0.8-0.1,1-0.3c0.3-0.3,0.5-0.7,0.7-1.1L48.5,24.5z"/>
		<path d="M53.4,19.3c1.9,0,3.6,1.4,3.6,3.5c0,2.3-1.6,3.7-3.7,3.7c-2.2,0-3.7-1.5-3.7-3.5S51,19.3,53.4,19.3z M53.2,19.7
			c-1.2,0-2.3,1-2.3,3c0,1.9,1.1,3.4,2.6,3.4c1.3,0,2.3-1,2.3-3C55.8,20.9,54.7,19.7,53.2,19.7z"/>
		<path d="M66.2,19.7c-0.7,0.1-0.9,0.2-1,0.7c0,0.4,0,0.8,0,1.8v4.2h-0.5L60,20.9v2.6c0,0.9,0,1.4,0.1,1.7c0,0.5,0.3,0.7,1.1,0.8
			v0.3h-2.7V26c0.7-0.1,1-0.2,1-0.7c0-0.3,0.1-0.8,0.1-1.8v-2.7c0-0.3,0-0.5-0.2-0.7c-0.2-0.3-0.5-0.3-1-0.4v-0.3H60l4.7,5.2v-2.5
			c0-1,0-1.4-0.1-1.7c0-0.5-0.3-0.6-1.2-0.7v-0.3h2.8V19.7L66.2,19.7z"/>
		<path d="M70.6,19.4c1.6,0,2.6,0.3,3.3,0.9c0.5,0.5,1,1.2,1,2.3c0,1.2-0.5,2.2-1.4,2.8c-0.9,0.6-1.9,0.8-3.3,0.8h-2.7V26
			c0.9-0.1,1-0.2,1-1v-4.2c0-0.9-0.1-1-1-1v-0.3L70.6,19.4L70.6,19.4z M69.5,24.8c0,0.8,0.3,1,1.2,1c1.9,0,2.9-1.2,2.9-3.1
			c0-1.1-0.4-2-1.2-2.5c-0.5-0.3-1.1-0.5-1.9-0.5c-0.5,0-0.7,0.1-0.8,0.2s-0.1,0.2-0.1,0.6L69.5,24.8L69.5,24.8z"/>
		<path d="M82.9,26.4c-0.1,0-0.3,0-0.4,0c-0.9-0.1-1.4-0.3-1.8-0.9c-0.4-0.5-0.8-1.2-1.2-1.8c-0.2-0.3-0.4-0.4-0.9-0.4h-0.4v1.6
			c0,0.9,0.1,0.9,1,1v0.3h-3.1V26c0.9-0.1,1-0.1,1-1v-4.2c0-0.9-0.1-0.9-1-1v-0.3H79c0.9,0,1.4,0.1,1.8,0.4c0.5,0.3,0.8,0.8,0.8,1.4
			c0,0.9-0.6,1.5-1.4,1.8c0.2,0.3,0.7,1,1,1.5c0.4,0.6,0.6,0.8,0.9,1.1c0.3,0.3,0.5,0.4,0.8,0.5V26.4z M78.7,22.9
			c0.6,0,0.9-0.1,1.2-0.3c0.4-0.3,0.6-0.7,0.6-1.3c0-1.1-0.8-1.5-1.6-1.5c-0.3,0-0.5,0-0.6,0.1s-0.1,0.2-0.1,0.4v2.6L78.7,22.9
			L78.7,22.9z"/>
		<path d="M89.5,24.6c-0.1,0.3-0.4,1.4-0.5,1.7h-5.5V26c1-0.1,1.1-0.2,1.1-1v-4.1c0-0.9-0.1-1-1-1.1v-0.3h3.5c1.1,0,1.5,0,1.6,0
			c0,0.3,0.1,1.1,0.1,1.6l-0.4,0.1c-0.1-0.4-0.2-0.6-0.4-0.8c-0.2-0.3-0.4-0.4-1.1-0.4h-1c-0.4,0-0.4,0-0.4,0.3v2.3h1.2
			c0.8,0,0.9-0.2,1-0.9h0.4v2.2h-0.4c-0.2-0.8-0.2-0.9-1-0.9h-1.2v2c0,0.7,0.2,0.8,0.8,0.8h1c0.7,0,0.8-0.1,1-0.4
			c0.2-0.2,0.5-0.7,0.6-1L89.5,24.6z"/>
		<path d="M94.5,21c-0.2-0.7-0.5-1.4-1.6-1.4c-0.8,0-1.2,0.6-1.2,1.1c0,0.7,0.5,1.1,1.4,1.5c1.3,0.6,1.9,1.1,1.9,2.1
			c0,1.1-1,2-2.5,2c-0.7,0-1.3-0.2-1.7-0.3c-0.1-0.3-0.2-1.1-0.3-1.6l0.4-0.1c0.2,0.7,0.7,1.7,1.9,1.7c0.8,0,1.3-0.5,1.3-1.2
			c0-0.8-0.4-1.1-1.4-1.6c-1.2-0.6-1.9-1.1-1.9-2.1s0.8-1.9,2.4-1.9c0.6,0,1.3,0.2,1.5,0.2c0.1,0.4,0.1,0.8,0.2,1.5L94.5,21z"/>
	</g>
	<g>
		<path d="M40.5,13.7l0.8-2.7c0.1-0.2,0.1-0.4,0.1-0.5c0-0.2,0-0.3,0-0.4c0-0.1,0-0.2-0.1-0.3c0-0.1-0.1-0.1-0.2-0.2
			c-0.1,0-0.2-0.1-0.3-0.1c-0.2,0-0.2-0.1-0.2-0.1s0-0.1,0.1-0.1c0,0,0.1,0,0.2,0H41c0.4,0,0.8,0.1,1.3,0.1c0.3,0,0.7,0,1-0.1
			c0.1,0,0.1,0,0.1,0c0.1,0,0.1,0,0.1,0s0.1,0,0.1,0.1s-0.1,0.1-0.2,0.1l0,0c-0.1,0-0.2,0-0.2,0c-0.1,0-0.1,0-0.2,0.1
			c-0.1,0.1-0.2,0.1-0.3,0.3c-0.1,0.1-0.2,0.4-0.3,0.7l-1,3.4c-0.1,0.2-0.1,0.4-0.1,0.5c0,0.2,0,0.3,0,0.4c0,0.5,0.1,0.8,0.4,1.1
			c0.3,0.2,0.7,0.4,1.2,0.4c0.6,0,1.1-0.2,1.4-0.5c0.4-0.3,0.7-1,1-1.8c0.3-0.9,0.5-1.7,0.6-2.4c0.2-0.7,0.2-1.2,0.2-1.5
			c0-0.1,0-0.2-0.1-0.3c-0.1-0.1-0.1-0.1-0.2-0.2c-0.1,0-0.1,0-0.2,0l0,0c-0.1,0-0.2,0-0.2,0s0,0,0-0.1c0,0,0-0.1,0.1-0.1
			c0.1,0,0.1,0,0.1,0s0,0,0.1,0h0.1c0.1,0,0.2,0,0.4,0c0.1,0,0.3,0,0.4,0c0.3,0,0.5,0,0.8,0c0.1,0,0.1,0,0.1,0c0.1,0,0.1,0,0.1,0
			l0.1,0.1v0.1c0,0-0.1,0-0.2,0.1c0,0,0,0-0.1,0c-0.1,0-0.3,0.1-0.3,0.1c-0.1-0.1-0.2,0-0.3,0.1s-0.2,0.3-0.2,0.5l-0.7,2.7
			c-0.2,0.7-0.4,1.3-0.6,1.7s-0.3,0.7-0.5,0.9c-0.3,0.3-0.6,0.5-0.9,0.6s-0.7,0.2-1.2,0.2c-0.7,0-1.3-0.2-1.7-0.5
			c-0.4-0.3-0.6-0.8-0.6-1.3c0-0.2,0-0.3,0-0.5C40.4,14.1,40.5,13.9,40.5,13.7z"/>
		<path d="M48.6,16.5h-0.8l0.6-1.9c0.1-0.4,0.2-0.9,0.3-1.3c0.1-0.4,0.1-0.7,0.1-0.9c0-0.1,0-0.2-0.1-0.2c0-0.1-0.1-0.1-0.2-0.1
			c-0.2,0-0.3,0.1-0.5,0.4c-0.2,0.2-0.4,0.6-0.6,1.2l-0.2-0.1c0.2-0.6,0.5-1.1,0.7-1.3c0.3-0.3,0.5-0.4,0.8-0.4
			c0.2,0,0.3,0.1,0.4,0.2c0.1,0.1,0.2,0.4,0.2,0.6c0,0.2,0,0.3-0.1,0.5c-0.1,0.2-0.1,0.4-0.1,0.7c0.3-0.7,0.7-1.2,1-1.5
			c0.3-0.4,0.7-0.5,1-0.5s0.5,0.1,0.6,0.3c0.2,0.2,0.2,0.4,0.2,0.7c0,0.1,0,0.2,0,0.4c0,0.1-0.1,0.3-0.1,0.4l-0.7,2.2
			c0,0.1-0.1,0.2-0.1,0.3s0,0.1,0,0.2s0,0.2,0.1,0.2c0,0.1,0.1,0.1,0.2,0.1c0.2,0,0.3-0.1,0.5-0.4c0.2-0.2,0.4-0.6,0.6-1.1l0.2,0.1
			l-0.2,0.5c-0.2,0.4-0.4,0.7-0.6,0.9S51.3,17,51,17c-0.2,0-0.4-0.1-0.5-0.2c-0.1-0.1-0.2-0.3-0.2-0.6c0-0.1,0-0.2,0-0.3
			s0.1-0.3,0.2-0.6l0.6-1.7c0.1-0.2,0.1-0.3,0.1-0.5c0-0.1,0-0.3,0-0.4c0-0.1,0-0.2-0.1-0.3c-0.1-0.1,0.1-0.4,0-0.4
			c-0.1,0-0.3,0.1-0.4,0.2c-0.2,0.1-0.3,0.3-0.5,0.5c-0.5,0.6-0.9,1.5-1.3,2.7c0,0.1-0.1,0.2-0.1,0.2L48.6,16.5z"/>
		<path d="M53.9,14.4l0.4-1c0.1-0.3,0.2-0.5,0.3-0.7s0.1-0.3,0.1-0.4c0-0.1,0-0.1-0.1-0.2c0-0.1-0.1-0.1-0.1-0.1
			c-0.1,0-0.3,0.1-0.5,0.3s-0.4,0.5-0.6,1l-0.2-0.1c0.2-0.5,0.4-0.9,0.7-1.1c0.2-0.3,0.5-0.4,0.7-0.4s0.4,0.1,0.5,0.2
			c0.1,0.1,0.2,0.3,0.2,0.6c0,0.2,0,0.4-0.1,0.6c-0.1,0.2-0.2,0.6-0.3,1l-0.3,0.8c-0.1,0.4-0.2,0.6-0.3,0.8s-0.1,0.3-0.1,0.4
			s0,0.1,0.1,0.2l0.1,0.1c0.2,0,0.3-0.1,0.5-0.3c0.2-0.2,0.4-0.6,0.7-1.1l0.2,0.1c-0.2,0.5-0.5,0.9-0.7,1.2
			c-0.2,0.3-0.5,0.4-0.8,0.4c-0.2,0-0.4-0.1-0.5-0.2c-0.1-0.1-0.2-0.3-0.2-0.5c0-0.2,0-0.4,0.1-0.6C53.6,15.1,53.7,14.8,53.9,14.4z
			 M54.8,9.6c0-0.1,0-0.2,0.1-0.3c0.1-0.1,0.2-0.1,0.3-0.1c0.1,0,0.2,0,0.3,0.1c0.1,0.1,0.1,0.2,0.1,0.3s-0.1,0.2-0.1,0.3
			C55.4,10,55.3,10,55.2,10c-0.1,0-0.2,0-0.3-0.1C54.8,9.8,54.8,9.7,54.8,9.6z"/>
		<path d="M58.1,12.6c-0.1,0.1-0.3,0.2-0.4,0.3C57.6,13,57.5,13,57.3,13c-0.1,0-0.3,0-0.4-0.1c-0.2-0.1-0.3-0.1-0.3-0.1
			s-0.1,0-0.1,0.1L56.4,13l0,0c0,0.1,0,0.1,0,0.1h-0.1c-0.1,0-0.1,0-0.1-0.1s-0.1-0.2-0.1-0.3c0-0.2,0.1-0.4,0.2-0.5
			c0.1-0.1,0.3-0.2,0.5-0.2c0.1,0,0.3,0.1,0.5,0.2c0.2,0.1,0.3,0.2,0.4,0.2c0.2,0,0.3,0,0.4-0.1c0.1-0.1,0.1-0.2,0.2-0.4
			c0-0.1,0.1-0.2,0.1-0.2l0.1-0.1c0,0,0.1,0,0.1,0.1v0.1c0,0.1-0.1,0.3-0.2,0.5c-0.1,0.2-0.2,0.3-0.2,0.4c-0.2,0.4-0.3,0.8-0.4,1.2
			c-0.1,0.4-0.2,0.8-0.2,1.2s0.1,0.7,0.2,0.8c0.1,0.2,0.3,0.3,0.5,0.3s0.4-0.1,0.5-0.2c0.2-0.1,0.4-0.3,0.5-0.5
			c0.2-0.3,0.4-0.7,0.6-1.1c0.1-0.4,0.2-0.9,0.2-1.4c0-0.2,0-0.3,0-0.6c0-0.2,0-0.4,0-0.4c0-0.2,0-0.3,0.1-0.4
			c0.1-0.1,0.1-0.1,0.2-0.1c0.1,0,0.2,0.1,0.3,0.2s0.1,0.3,0.1,0.7s-0.1,0.8-0.2,1.2s-0.3,0.8-0.5,1.2c-0.3,0.5-0.6,0.9-1,1.2
			c-0.4,0.3-0.7,0.4-1.1,0.4c-0.4,0-0.6-0.1-0.9-0.3c-0.2-0.2-0.3-0.5-0.3-0.8c0-0.4,0.3-1.1,0.8-2C57.8,13.1,58,12.8,58.1,12.6z"/>
		<path d="M64.4,15.2c-0.3,0.5-0.6,0.9-0.9,1.1c-0.3,0.2-0.7,0.4-1.1,0.4c-0.3,0-0.6-0.1-0.8-0.3c-0.2-0.2-0.3-0.5-0.3-0.9
			c0-0.3,0.1-0.6,0.2-1c0.1-0.3,0.3-0.7,0.5-1c0.3-0.5,0.7-0.9,1.1-1.2c0.4-0.3,0.7-0.5,1.1-0.5c0.2,0,0.4,0.1,0.6,0.2
			c0.1,0.1,0.2,0.3,0.2,0.6c0,0.4-0.2,0.8-0.6,1.2c-0.4,0.4-1.1,0.7-1.9,1l-0.1,0.4c0,0.1-0.1,0.3-0.1,0.4s0,0.2,0,0.3
			c0,0.2,0.1,0.4,0.1,0.5c0.1,0.1,0.2,0.2,0.4,0.2s0.5-0.1,0.7-0.3c0.3-0.2,0.5-0.5,0.8-1L64.4,15.2z M62.3,14.5
			c0.6-0.2,1-0.5,1.4-1c0.4-0.4,0.6-0.8,0.6-1.1c0-0.1,0-0.3-0.1-0.3C64.1,12,64,12,63.9,12c-0.3,0-0.6,0.2-0.9,0.7
			C62.8,13.1,62.5,13.7,62.3,14.5z"/>
		<path d="M66.5,16.5h-0.8c0.3-0.9,0.6-1.7,0.7-2.3c0.2-0.6,0.2-1.2,0.2-1.7c0-0.1,0-0.2-0.1-0.3c0-0.1-0.1-0.1-0.2-0.1
			c-0.1,0-0.3,0.1-0.4,0.3c-0.2,0.2-0.4,0.6-0.6,1l-0.2-0.1c0.2-0.6,0.5-1,0.7-1.3c0.2-0.3,0.5-0.4,0.7-0.4c0.2,0,0.4,0.1,0.5,0.2
			c0.1,0.2,0.2,0.4,0.2,0.7c0,0.1,0,0.3,0,0.5s-0.1,0.4-0.1,0.6c0.3-0.7,0.6-1.2,0.8-1.5c0.3-0.3,0.5-0.5,0.8-0.5
			c0.2,0,0.3,0.1,0.4,0.1c0.1,0.1,0.1,0.2,0.1,0.4c0,0.1,0,0.2-0.1,0.3s-0.2,0.1-0.3,0.1s-0.2,0-0.3-0.1s-0.1-0.1-0.1-0.3l0,0l0,0
			c0-0.1,0-0.1,0-0.1h-0.1c-0.2,0-0.4,0.2-0.6,0.6c-0.2,0.4-0.5,1-0.8,1.8L66.5,16.5z"/>
		<path d="M70.2,16.6c-0.4,0-0.6-0.1-0.9-0.2c-0.2-0.1-0.3-0.3-0.3-0.6c0-0.1,0-0.2,0.1-0.3s0.1-0.1,0.2-0.1c0.1,0,0.2,0,0.2,0.1
			c0.1,0.1,0.1,0.2,0.1,0.3c0,0,0,0.1,0,0.2s0,0.1,0,0.2s0.1,0.2,0.2,0.2c0.1,0.1,0.3,0.1,0.5,0.1c0.3,0,0.5-0.1,0.7-0.2
			c0.2-0.2,0.3-0.3,0.3-0.6c0-0.2,0-0.3-0.1-0.5s-0.2-0.4-0.5-0.7l-0.1-0.1c-0.4-0.5-0.6-1-0.6-1.3c0-0.4,0.1-0.6,0.4-0.9
			c0.3-0.2,0.6-0.4,1-0.4c0.3,0,0.5,0.1,0.7,0.2c0.2,0.1,0.3,0.3,0.3,0.4c0,0.1,0,0.2-0.1,0.2c-0.1,0.1-0.1,0.1-0.2,0.1
			c-0.1,0-0.2,0-0.2-0.1c-0.1-0.1-0.1-0.1-0.1-0.2v-0.1c0-0.1,0-0.1,0-0.1c0-0.1,0-0.1-0.1-0.2s-0.2-0.1-0.3-0.1
			c-0.2,0-0.4,0.1-0.6,0.2c-0.1,0.1-0.2,0.3-0.2,0.5s0.2,0.5,0.5,0.9c0.1,0.1,0.1,0.2,0.2,0.2c0.3,0.4,0.5,0.6,0.6,0.9
			s0.2,0.4,0.2,0.7c0,0.4-0.2,0.8-0.4,1C71.1,16.5,70.7,16.6,70.2,16.6z"/>
		<path d="M73.5,14.4l0.4-1c0.1-0.3,0.2-0.5,0.3-0.7s0.1-0.3,0.1-0.4c0-0.1,0-0.1-0.1-0.2c0-0.1-0.1-0.1-0.1-0.1
			c-0.1,0-0.3,0.1-0.5,0.3c-0.2,0.2-0.4,0.5-0.6,1l-0.2-0.1c0.2-0.5,0.4-0.9,0.7-1.1c0.2-0.3,0.5-0.4,0.7-0.4c0.2,0,0.4,0.1,0.5,0.2
			c0.1,0.1,0.2,0.3,0.2,0.6c0,0.2,0,0.4-0.1,0.6s-0.2,0.6-0.3,1l-0.3,0.8c-0.1,0.4-0.2,0.6-0.3,0.8s-0.1,0.3-0.1,0.4s0,0.1,0.1,0.2
			s0.1,0.1,0.1,0.1c0.2,0,0.3-0.1,0.5-0.3c0.2-0.2,0.4-0.6,0.7-1.1l0.2,0.1c-0.2,0.5-0.5,0.9-0.7,1.2c-0.2,0.3-0.5,0.4-0.8,0.4
			c-0.2,0-0.4-0.1-0.5-0.2s-0.2-0.3-0.2-0.5c0-0.2,0-0.4,0.1-0.6C73.3,15.1,73.4,14.8,73.5,14.4z M74.4,9.6c0-0.1,0-0.2,0.1-0.3
			s0.2-0.1,0.3-0.1s0.2,0,0.3,0.1s0.1,0.2,0.1,0.3s-0.1,0.2-0.1,0.3C75,10,74.9,10,74.8,10c-0.1,0-0.2,0-0.3-0.1
			C74.5,9.8,74.4,9.7,74.4,9.6z"/>
		<path d="M78.5,14.9c-0.2,0.6-0.5,1-0.8,1.3c-0.3,0.3-0.6,0.4-1,0.4s-0.6-0.1-0.9-0.4c-0.2-0.2-0.3-0.6-0.3-1
			c0-0.3,0.1-0.7,0.2-1.1c0.1-0.4,0.3-0.7,0.6-1.1c0.3-0.4,0.6-0.8,0.9-1c0.3-0.2,0.6-0.4,1-0.4c0.2,0,0.3,0.1,0.5,0.2
			c0.1,0.1,0.2,0.3,0.3,0.5l0.6-2.5c0,0,0,0,0-0.1s0-0.1,0-0.2c0-0.1,0-0.2-0.1-0.2s-0.2-0.1-0.4-0.1c0,0-0.1,0-0.2,0c0,0,0,0-0.1,0
			l0.1-0.3l1.6-0.2l-1.2,4.6c-0.2,0.6-0.3,1.1-0.4,1.5c-0.1,0.4,0.1,1,0.1,1.2c0,0.1,0,0.2,0.1,0.3c0,0.1,0.1,0.1,0.2,0.1
			c0.1,0,0.3-0.1,0.5-0.4c0.2-0.2,0.4-0.6,0.6-1.1l0.2,0.1c-0.2,0.6-0.4,1-0.6,1.3c-0.3,0.3-0.5,0.4-0.8,0.4c-0.2,0-0.3-0.1-0.4-0.2
			s-0.2-0.3-0.2-0.5c0-0.1,0-0.2,0-0.4C78.4,15.5,78.5,15.2,78.5,14.9z M76.3,15.6c0,0.3,0.1,0.4,0.2,0.6c0.1,0.1,0.3,0.2,0.4,0.2
			c0.2,0,0.4-0.1,0.6-0.3c0.2-0.2,0.4-0.5,0.6-0.9c0.2-0.5,0.4-0.9,0.6-1.4c0.1-0.4,0.2-0.8,0.2-1.2c0-0.2-0.1-0.4-0.1-0.5
			C78.7,12,78.6,12,78.4,12s-0.4,0.1-0.6,0.2c-0.2,0.2-0.4,0.4-0.6,0.8c-0.3,0.5-0.5,0.9-0.6,1.4C76.4,14.8,76.3,15.2,76.3,15.6z"/>
		<path d="M83.7,15.2c-0.2,0.5-0.4,0.9-0.7,1.1c-0.3,0.2-0.6,0.4-1,0.4s-0.6-0.1-0.8-0.4c-0.2-0.2-0.3-0.6-0.3-1
			c0-0.3,0.1-0.7,0.2-1.1c0.2-0.4,0.4-0.8,0.6-1.2c0.3-0.4,0.6-0.7,1-1c0.4-0.2,0.7-0.4,1-0.4c0.2,0,0.4,0.1,0.5,0.2
			s0.2,0.3,0.3,0.5l0.2-0.6c0,0,0-0.1,0.1-0.1s0.1,0,0.1,0c0.1,0,0.2,0,0.3,0s0.1,0.1,0.1,0.1v0.1v0.1L84.4,15
			c0,0.2-0.1,0.3-0.1,0.5s0,0.3,0,0.4c0,0.1,0,0.1,0.1,0.2s0.1,0.1,0.2,0.1c0.1,0,0.3-0.1,0.5-0.4c0.2-0.3,0.4-0.7,0.5-1.2l0.2,0.1
			c-0.2,0.6-0.4,1-0.6,1.3c-0.2,0.3-0.5,0.5-0.8,0.5c-0.2,0-0.4-0.1-0.5-0.2s-0.2-0.3-0.2-0.5c0-0.1,0-0.2,0-0.3
			C83.6,15.5,83.7,15.4,83.7,15.2z M81.6,15.7c0,0.2,0.1,0.4,0.2,0.5c0.1,0.1,0.3,0.2,0.4,0.2c0.2,0,0.4-0.1,0.6-0.3
			c0.2-0.2,0.4-0.5,0.6-0.9c0.3-0.5,0.5-1,0.7-1.5c0.2-0.5,0.2-0.9,0.2-1.2c0-0.2-0.1-0.3-0.2-0.5c-0.1-0.1-0.2-0.2-0.4-0.2
			c-0.2,0-0.5,0.1-0.7,0.3c-0.2,0.2-0.5,0.5-0.7,1c-0.3,0.5-0.5,0.9-0.6,1.3C81.7,15,81.6,15.4,81.6,15.7z"/>
		<path d="M89,14.9c-0.2,0.6-0.5,1-0.8,1.3c-0.3,0.3-0.6,0.4-1,0.4s-0.6-0.1-0.9-0.4c-0.2-0.2-0.3-0.6-0.3-1c0-0.3,0.1-0.7,0.2-1.1
			c0.1-0.4,0.3-0.7,0.6-1.1c0.3-0.4,0.6-0.8,0.9-1s0.6-0.4,1-0.4c0.2,0,0.3,0.1,0.5,0.2c0.1,0.1,0.2,0.3,0.3,0.5l0.6-2.5
			c0,0,0,0,0-0.1s0-0.1,0-0.2c0-0.1,0-0.2-0.1-0.2s-0.2-0.1-0.4-0.1c0,0-0.1,0-0.2,0c0,0,0,0-0.1,0l0.1-0.3L91,8.7l-1,4.8
			c-0.2,0.6-0.3,1.1-0.4,1.5s-0.1,0.8-0.1,0.9c0,0.1,0,0.2,0.1,0.3c0,0.1,0.1,0.1,0.2,0.1s0.3-0.1,0.5-0.4c0.2-0.2,0.4-0.6,0.6-1.1
			l0.2,0.1c-0.2,0.6-0.4,1-0.6,1.3c-0.3,0.3-0.5,0.4-0.8,0.4c-0.2,0-0.3-0.1-0.4-0.2s-0.2-0.3-0.2-0.5c0-0.1,0-0.2,0-0.4
			C88.9,15.5,88.9,15.2,89,14.9z M86.8,15.6c0,0.3,0.1,0.4,0.2,0.6c0.1,0.1,0.3,0.2,0.4,0.2c0.2,0,0.4-0.1,0.6-0.3
			c0.2-0.2,0.4-0.5,0.6-0.9c0.2-0.5,0.4-0.9,0.6-1.4c0.1-0.4,0.2-0.8,0.2-1.2c0-0.2-0.1-0.4-0.1-0.5C89.2,12,89,12,88.9,12
			c-0.2,0-0.4,0.1-0.6,0.2c-0.2,0.2-0.4,0.4-0.6,0.8c-0.3,0.5-0.5,0.9-0.6,1.4C86.9,14.8,86.8,15.2,86.8,15.6z"/>
		<path d="M94.5,15.2c-0.3,0.5-0.6,0.9-0.9,1.1c-0.3,0.2-0.7,0.4-1.1,0.4c-0.3,0-0.6-0.1-0.8-0.3c-0.2-0.2-0.3-0.5-0.3-0.9
			c0-0.3,0.1-0.6,0.2-1c0.1-0.3,0.3-0.7,0.5-1c0.3-0.5,0.7-0.9,1.1-1.2s0.7-0.5,1.1-0.5c0.2,0,0.4,0.1,0.6,0.2
			c0.1,0.1,0.2,0.3,0.2,0.6c0,0.4-0.2,0.8-0.6,1.2s-1.1,0.7-1.9,1l-0.1,0.4c0,0.1-0.1,0.3-0.1,0.4c0,0.1,0,0.2,0,0.3
			c0,0.2,0.1,0.4,0.1,0.5s0.2,0.2,0.4,0.2c0.2,0,0.5-0.1,0.7-0.3c0.3-0.2,0.5-0.5,0.8-1L94.5,15.2z M92.5,14.5c0.6-0.2,1-0.5,1.4-1
			c0.4-0.4,0.6-0.8,0.6-1.1c0-0.1,0-0.3-0.1-0.3C94.3,12,94.2,12,94.1,12c-0.3,0-0.6,0.2-0.9,0.7C92.9,13.1,92.7,13.7,92.5,14.5z"/>
	</g>
</g>
<g class="st0">
	<g class="st1">
		<g>
			<path class="st2" d="M-479.2-106.6h50.6v5.5c-14.8,1.4-17.4,2.8-17.4,20.4v34.1c3.8-0.4,8.1-3.6,13.6-9.1
				c10.6-10.5,23.3-24,32-34.3c5.7-6.7,5.1-9.3-3-10.5l-5.3-0.6v-5.6h46v5.6c-14.2,1.8-19.1,2.8-31.8,16.5
				c-5.7,5.8-20.5,20.8-32.6,33.3c14.4,17.8,35.4,43.2,45.3,54.1c9.7,10.9,12.1,12.5,23.9,13.9v5.6h-30.3
				c-14.6-17.2-29.9-36.5-47.2-57.5c-4.4-5.6-7.6-5.9-10.6-5.8v37.7c0,17.2,1.7,18.6,17.4,20v5.6h-50.6v-5.6
				c15.5-1.4,17.1-2.8,17.1-20v-77.3c0-17.8-1.3-19.2-17.1-20.4V-106.6z"/>
		</g>
	</g>
</g>
<g>
	<g class="st0">
		<path class="st1" d="M-356.1-44.8v-2.7c8.6-0.9,9.4-1.2,9.4-9.3v-37.6c0-8.2-0.8-8.5-9.4-9.4v-2.7h28.1v2.7
			c-8.7,0.9-9.6,1.2-9.6,9.4v37.7c0,8.2,0.8,8.4,9.6,9.3v2.7L-356.1-44.8L-356.1-44.8z"/>
		<path class="st1" d="M-251.1-103.8c-6.7,0.7-8.9,1.6-9.2,6c-0.1,3-0.3,7-0.3,15.9v38.1h-4l-45-49.8v23.7c0,8.5,0.3,12.8,0.5,15.6
			c0.2,4.8,2.8,6.3,10.4,6.8v2.7h-25.5v-2.7c6.5-0.5,9-1.9,9.4-6.5c0.3-3,0.5-7.3,0.5-15.9v-24.2c0-2.7-0.2-4.2-2.1-6.3
			c-2-2.4-4.2-2.9-9.3-3.4v-2.7h15.7l44.5,47.7V-82c0-8.8-0.2-12.9-0.5-15.8c-0.3-4.3-2.7-5.6-11.1-6.1v-2.7h25.9v2.8
			C-251.2-103.8-251.1-103.8-251.1-103.8z"/>
		<path class="st1" d="M-180.1-70.7c-6.5,0.8-6.9,1.3-6.9,6.9v8c0,3.3,0.1,6.5,0.6,9c-6.5,1.3-15,3.4-23.8,3.4
			c-23.8,0-38.3-13.4-38.3-32.5c0-20,18.1-32,39.1-32c10.7,0,18.6,1.9,21.8,2.4c0.2,3.5,0.7,9.3,1.6,15.3l-3.2,0.6
			c-2.5-8.1-5.6-11.5-12.2-13.5c-2.4-0.8-6.7-1.2-9.8-1.2c-16.1,0-26.5,10-26.5,27.3c0,15.1,8.6,30.1,29,30.1c3.6,0,6.8-0.7,8.9-1.6
			c2.2-1.1,3.6-2.2,3.6-6.1v-7.8c0-6.9-0.8-7.7-10.9-8.4v-2.8h27L-180.1-70.7L-180.1-70.7z"/>
		<path class="st1" d="M-177.2-93.2c4.8-1.9,8.2-4.7,8.2-8s-3.6-4.5-6.9-5c-0.7-0.1-1.5-1.4-1.5-2.7c0-2.6,2.2-4.3,5.4-4.3
			c4.6,0,9.2,3.4,9.2,9.7c0,6.7-6.5,11.2-13.1,12.9L-177.2-93.2z"/>
		<path class="st1" d="M-122.9-92c-1.8-6.3-4.7-12.4-14.6-12.4c-8.2,0-11,5.4-11,10.3c0,6.5,4.6,9.9,13.3,14
			c12.6,5.9,18.1,10.3,18.1,19.3c0,10-9.6,17.6-23.1,17.6c-6.3,0-11.8-1.6-16.1-3.1c-0.8-2.7-2.1-9.1-2.8-14.2l3.3-0.8
			c2.1,6.4,6.7,14.6,17.6,14.6c7.6,0,12.2-4.7,12.2-10.9c0-7.3-4.3-10.3-13.5-14.8c-11-5.4-17.2-10-17.2-18.8
			c0-8.4,7.8-16.4,21.6-16.4c5.9,0,11.7,1.4,13.9,1.8c0.4,3.4,0.8,7.2,1.7,13.4L-122.9-92z"/>
	</g>
</g>
</svg>
