<svg id="Artboard_1" data-name="Artboard 1" xmlns="http://www.w3.org/2000/svg" viewBox="0 0 119.002 9.363"><polygon points="0.858 3.511 0 3.511 0 4.993 0 6.359 0.858 6.359 0.858 3.511"/><polygon points="1.873 3.511 1.873 4.993 1.873 6.359 2.731 6.359 2.731 3.511 1.873 3.511"/><polygon points="3.745 3.511 3.745 4.993 3.745 6.359 4.642 6.359 4.642 3.511 3.745 3.511"/><polygon points="0 3.004 3.238 3.004 6.515 3.004 6.515 2.185 0 2.185 0 3.004"/><polygon points="3.238 0 0 1.092 0 1.912 3.238 0.819 6.515 1.912 6.515 1.092 3.238 0"/><path d="M6.515,16.888c0,.039-.351.585-2.419.585H2.419c-2.146,0-2.38.312-2.419.312V18.6c.039-.039.273-.312,2.419-.312H4.1c2.068,0,2.419-.546,2.419-.585Z" transform="translate(0 -10.607)"/><path d="M6.515,18.253c0,.039-.351.585-2.419.585H2.419c-2.146,0-2.38.312-2.419.312v.819c.039,0,.273-.273,2.419-.312H4.1c2.068,0,2.419-.546,2.419-.585Z" transform="translate(0 -10.607)"/><path d="M5.657,14.118V16.81c.7-.156.858-.43.858-.469V14.118Z" transform="translate(0 -10.607)"/><text transform="translate(8.035 7.139)" font-size="7.5" font-family="ArialMT-Medium, Arial MT" font-weight="500">Hospital Geral de Massachusetts</text></svg>