<?xml version="1.0" encoding="utf-8"?>
<!-- Generator: Adobe Illustrator 26.0.1, SVG Export Plug-In . SVG Version: 6.00 Build 0)  -->
<svg version="1.1" id="Artboard_1" xmlns="http://www.w3.org/2000/svg" xmlns:xlink="http://www.w3.org/1999/xlink" x="0px" y="0px"
	 viewBox="0 0 119 32" style="enable-background:new 0 0 119 32;" xml:space="preserve">
<style type="text/css">
	.st0{fill:#A19EA5;}
	.st1{font-family:'ArialMT-ExtraBold';}
	.st2{font-size:6.4271px;}
</style>
<polygon class="st0" points="1.3,14.2 0,14.2 0,16.5 0,18.6 1.3,18.6 "/>
<polygon class="st0" points="2.9,14.2 2.9,16.5 2.9,18.6 4.2,18.6 4.2,14.2 "/>
<polygon class="st0" points="5.8,14.2 5.8,16.5 5.8,18.6 7.2,18.6 7.2,14.2 "/>
<polygon class="st0" points="0,13.4 5,13.4 10.1,13.4 10.1,12.1 0,12.1 "/>
<polygon class="st0" points="5,8.7 0,10.4 0,11.7 5,10 10.1,11.7 10.1,10.4 "/>
<path class="st0" d="M10.1,18.5c0,0.1-0.5,0.9-3.8,0.9H3.8c-3.3,0-3.7,0.5-3.8,0.5v1.3c0.1-0.1,0.4-0.5,3.8-0.5h2.6
	c3.2,0,3.8-0.8,3.8-0.9V18.5z"/>
<path class="st0" d="M10.1,20.6c0,0.1-0.5,0.9-3.8,0.9H3.8C0.4,21.5,0.1,22,0,22v1.3c0.1,0,0.4-0.4,3.8-0.5h2.6
	c3.2,0,3.8-0.8,3.8-0.9V20.6z"/>
<path class="st0" d="M8.8,14.2v4.2c1.1-0.2,1.3-0.7,1.3-0.7v-3.5H8.8z"/>
<text transform="matrix(1 0 0 1 11.1573 17.9877)" class="st0 st1 st2">Hospital Geral de Massachusetts</text>
</svg>
