<?xml version="1.0" encoding="utf-8"?>
<!-- Generator: Adobe Illustrator 26.0.1, SVG Export Plug-In . SVG Version: 6.00 Build 0)  -->
<svg version="1.1" id="Artboard_1" xmlns="http://www.w3.org/2000/svg" xmlns:xlink="http://www.w3.org/1999/xlink" x="0px" y="0px"
	 viewBox="0 0 173 32" style="enable-background:new 0 0 173 32;" xml:space="preserve">
<g>
	<g>
		<g>
			<polygon points="1.6,13.3 0,13.3 0,16 0,18.5 1.6,18.5 			"/>
			<polygon points="3.5,13.3 3.5,16 3.5,18.5 5,18.5 5,13.3 			"/>
			<polygon points="7,13.3 7,16 7,18.5 8.6,18.5 8.6,13.3 			"/>
			<polygon points="0,12.3 6,12.3 12.1,12.3 12.1,10.8 0,10.8 			"/>
			<polygon points="6,6.7 0,8.7 0,10.3 6,8.2 12.1,10.3 12.1,8.7 			"/>
			<path d="M12.1,18.3c0,0.1-0.7,1.1-4.5,1.1H4.5C0.5,19.4,0,20,0,20v1.6c0.1-0.1,0.5-0.6,4.5-0.6h3.1c3.9,0,4.5-1,4.5-1.1
				L12.1,18.3L12.1,18.3z"/>
			<path d="M12.1,20.9c0,0.1-0.7,1.1-4.5,1.1H4.5c-4,0-4.5,0.6-4.5,0.6v1.6c0.1,0,0.5-0.5,4.5-0.6h3.1c3.9,0,4.5-1,4.5-1.1
				L12.1,20.9L12.1,20.9z"/>
			<path d="M10.5,13.3v4.9c1.3-0.3,1.6-0.8,1.6-0.9v-4.2L10.5,13.3L10.5,13.3z"/>
		</g>
	</g>
	<g>
		<path d="M21.8,23.7L21.8,23.7C21.8,23.7,21.8,23.8,21.8,23.7C21.7,23.8,21.7,23.8,21.8,23.7c-0.1,0.1-0.2,0.1-0.3,0.1
			c-0.1,0-0.1,0-0.2,0h-0.1c0,0,0,0-0.1,0c0,0,0,0,0-0.1v-4.2l0,0l-1.6,4.2l0,0c0,0,0,0-0.1,0s-0.1,0-0.1,0h-0.1c-0.1,0-0.1,0-0.1,0
			H19c0,0,0,0-0.1,0s0,0,0,0l-1.6-4.2l0,0v4.2c0,0,0,0,0,0.1c0,0.1,0,0-0.1,0s-0.1,0-0.1,0s-0.1,0-0.2,0s-0.1,0-0.2,0h-0.1
			c0,0,0,0-0.1,0c-0.1,0,0,0,0-0.1v-4.5c0-0.1,0-0.2,0.1-0.2s0.1-0.1,0.2-0.1h0.4c0.1,0,0.2,0,0.2,0c0.1,0,0.1,0,0.2,0.1l0.1,0.1
			c0,0.1,0.1,0.1,0.1,0.2l1.4,3.5l0,0l1.5-3.5c0-0.1,0.1-0.1,0.1-0.2s0.1-0.1,0.1-0.1l0.1-0.1c0,0,0.1,0,0.2,0h0.4h0.1
			c0,0,0.1,0,0.1,0.1c0,0,0,0.1,0.1,0.1c0.1,0,0,0.1,0,0.1L21.8,23.7L21.8,23.7z"/>
		<path d="M25.9,21.8c0,0.1,0,0.2-0.1,0.2c-0.1,0-0.1,0.1-0.2,0.1h-2.2c0,0.2,0,0.4,0.1,0.5c0,0.2,0.1,0.3,0.2,0.4
			c0.1,0.1,0.2,0.2,0.4,0.3c0.2,0.1,0.3,0.1,0.5,0.1c0.2,0,0.3,0,0.4,0c0.1,0,0.2-0.1,0.3-0.1c0.1,0,0.2-0.1,0.2-0.1
			c0.1,0,0.1,0,0.1,0l0,0l0,0c0,0,0,0,0,0.1v0.1v0.1c0,0,0,0,0,0.1c0,0,0,0,0,0.1l0,0c0,0-0.1,0-0.1,0.1c0,0.1-0.2,0.1-0.3,0.1
			S24.9,24,24.7,24s-0.3,0-0.5,0c-0.3,0-0.5,0-0.7-0.1c-0.2-0.1-0.4-0.2-0.5-0.4s-0.3-0.4-0.3-0.6c-0.1-0.2-0.1-0.5-0.1-0.8
			c0-0.3,0-0.6,0.1-0.8c0.1-0.2,0.2-0.4,0.3-0.6c0.1-0.2,0.3-0.3,0.5-0.4c0.2-0.1,0.4-0.1,0.7-0.1c0.3,0,0.5,0,0.7,0.1
			c0.2,0.1,0.3,0.2,0.5,0.4c0.1,0.1,0.2,0.3,0.3,0.5C25.8,21.4,25.8,21.6,25.9,21.8L25.9,21.8L25.9,21.8z M25.2,21.6
			c0-0.3-0.1-0.6-0.2-0.8s-0.4-0.3-0.7-0.3c-0.2,0-0.3,0-0.4,0.1c-0.1,0.1-0.2,0.1-0.3,0.2c-0.1,0.1-0.1,0.2-0.2,0.3
			c0,0.1-0.1,0.3-0.1,0.4L25.2,21.6L25.2,21.6z"/>
		<path d="M31.7,23.7L31.7,23.7C31.7,23.7,31.6,23.8,31.7,23.7c-0.1,0.1-0.1,0.1-0.2,0.1c0,0-0.1,0-0.2,0c-0.1,0-0.1,0-0.2,0h-0.1
			c0,0,0,0-0.1,0c0,0,0,0,0-0.1v-2c0-0.1,0-0.3,0-0.4c0-0.1-0.1-0.2-0.1-0.3c-0.1-0.1-0.1-0.2-0.2-0.2c-0.1,0-0.2-0.1-0.3-0.1
			s-0.3,0.1-0.4,0.2c-0.1,0.1-0.3,0.3-0.5,0.5v2.3c0,0,0,0,0,0.1c0,0.1,0,0-0.1,0h-0.1c0,0-0.1,0-0.2,0c-0.1,0-0.1,0-0.2,0h-0.1l0,0
			c0,0,0,0,0-0.1v-2c0-0.1,0-0.3,0-0.4c0-0.1-0.1-0.2-0.1-0.3c-0.1-0.1-0.1-0.2-0.2-0.2c-0.1,0-0.2-0.1-0.3-0.1
			c-0.1,0-0.3,0.1-0.4,0.2s-0.3,0.3-0.5,0.5v2.3c0,0,0,0,0,0.1c0,0.1,0,0,0,0h-0.1c0,0-0.1,0-0.2,0c-0.1,0-0.1,0-0.2,0h-0.1l0,0
			c0,0,0,0,0-0.1v-3.3c0,0,0,0,0-0.1l0,0h0.1H27c0.1,0,0.1,0,0.1,0h0.1l0,0c0,0,0,0,0,0.1v0.5c0.2-0.2,0.4-0.4,0.6-0.5
			c0.2-0.1,0.4-0.2,0.6-0.2c0.1,0,0.3,0,0.4,0c0.1,0,0.2,0.1,0.3,0.1c0.1,0.1,0.2,0.1,0.2,0.2c0,0.1,0.1,0.2,0.2,0.3
			c0.1-0.1,0.2-0.2,0.3-0.3c0.1-0.1,0.2-0.2,0.3-0.2c0.1-0.1,0.2-0.1,0.3-0.1s0.2,0,0.3,0c0.2,0,0.4,0,0.6,0.1s0.3,0.2,0.4,0.3
			c0.1,0.1,0.2,0.3,0.2,0.5c0,0.2,0.1,0.4,0.1,0.6L31.7,23.7L31.7,23.7z"/>
		<path d="M35.8,21.9c0,0.3,0,0.6-0.1,0.8c-0.1,0.2-0.2,0.4-0.3,0.6c-0.1,0.2-0.3,0.3-0.5,0.4c-0.1,0.1-0.3,0.1-0.5,0.1
			c-0.1,0-0.2,0-0.3,0s-0.2-0.1-0.3-0.1c-0.1,0-0.2-0.1-0.3-0.2c-0.1-0.1-0.2-0.2-0.3-0.3v0.4c0,0,0,0,0,0.1c0,0.1,0,0,0,0h-0.1
			h-0.1c-0.1,0-0.1,0-0.1,0h-0.1l0,0c0,0,0,0,0-0.1v-4.9c0,0,0,0,0-0.1l0,0H33c0,0,0.1,0,0.2,0c0.1,0,0.1,0,0.2,0h0.1l0,0
			c0,0,0,0,0,0.1v2c0.1-0.1,0.2-0.2,0.3-0.3s0.2-0.1,0.3-0.2c0.1-0.1,0.2-0.1,0.3-0.1s0.2,0,0.3,0c0.2,0,0.5,0,0.6,0.1
			c0.1,0.1,0.3,0.2,0.4,0.4s0.2,0.4,0.2,0.6C35.8,21.4,35.8,21.7,35.8,21.9z M35.2,22c0-0.2,0-0.3,0-0.5c0-0.2-0.1-0.3-0.1-0.4
			s-0.2-0.2-0.3-0.3c-0.1-0.1-0.2-0.1-0.4-0.1c-0.1,0-0.2,0-0.2,0c-0.1,0-0.2,0.1-0.2,0.1c-0.1,0.1-0.2,0.1-0.3,0.2
			c-0.1,0.1-0.2,0.2-0.3,0.3v1.4c0.2,0.2,0.3,0.4,0.5,0.5c0.2,0.1,0.3,0.2,0.5,0.2c0.2,0,0.3,0,0.4-0.1c0.1-0.1,0.2-0.2,0.3-0.3
			c0.1-0.1,0.1-0.3,0.2-0.4C35.2,22.3,35.2,22.1,35.2,22z"/>
		<path d="M38.6,20.6C38.6,20.7,38.6,20.7,38.6,20.6v0.2l0,0l0,0c0,0,0,0-0.1,0h-0.1h-0.1h-0.1c-0.1,0-0.1,0-0.2,0s-0.1,0.1-0.2,0.1
			c-0.1,0.1-0.1,0.1-0.2,0.2c-0.1,0.1-0.2,0.2-0.2,0.4v2.2c0,0,0,0,0,0.1c0,0.1,0,0,0,0h-0.1c0,0-0.1,0-0.2,0s-0.1,0-0.2,0h-0.1l0,0
			c0,0,0,0,0-0.1v-3.3c0,0,0,0,0-0.1l0,0H37h0.1c0.1,0,0.1,0,0.1,0h0.1l0,0c0,0,0,0,0,0.1v0.5c0.1-0.1,0.2-0.2,0.3-0.3
			c0.1-0.1,0.2-0.2,0.2-0.2c0.1,0,0.1-0.1,0.2-0.1c0.1,0,0.1,0,0.2,0h0.1h0.1h0.1h0.1l0,0l0,0c0,0,0,0,0,0.1
			C38.6,20.5,38.6,20.5,38.6,20.6z"/>
		<path d="M42.3,21.9c0,0.3,0,0.5-0.1,0.8c-0.1,0.2-0.2,0.4-0.3,0.6c-0.1,0.2-0.3,0.3-0.6,0.4c-0.2,0.1-0.5,0.1-0.8,0.1
			s-0.5,0-0.7-0.1c-0.2-0.1-0.4-0.2-0.5-0.4c-0.1-0.2-0.2-0.4-0.3-0.6C39,22.5,39,22.2,39,21.9s0-0.5,0.1-0.8
			c0.1-0.2,0.2-0.4,0.3-0.6c0.1-0.2,0.3-0.3,0.5-0.4c0.2-0.1,0.5-0.1,0.8-0.1s0.5,0,0.7,0.1c0.2,0.1,0.4,0.2,0.5,0.4
			c0.1,0.2,0.2,0.4,0.3,0.6C42.3,21.4,42.3,21.6,42.3,21.9z M41.6,22c0-0.2,0-0.4-0.1-0.5c0-0.2-0.1-0.3-0.2-0.4s-0.2-0.2-0.3-0.3
			c-0.1-0.1-0.3-0.1-0.5-0.1c-0.2,0-0.3,0-0.5,0.1c-0.1,0.1-0.2,0.2-0.3,0.3c-0.1,0.1-0.2,0.3-0.2,0.4c0,0.1-0.1,0.3-0.1,0.5
			c0,0.2,0,0.4,0.1,0.5c0.1,0.1,0.1,0.3,0.2,0.4c0.1,0.1,0.2,0.2,0.3,0.3c0.1,0.1,0.3,0.1,0.5,0.1c0.2,0,0.3,0,0.5-0.1
			c0.1-0.1,0.2-0.2,0.3-0.3c0.1-0.1,0.2-0.3,0.2-0.4C41.6,22.3,41.6,22.2,41.6,22z"/>
		<path d="M47.5,19.2L47.5,19.2v0.2l0,0c0,0,0,0-0.1,0h-1.8V21h1.6c0,0,0,0,0.1,0c0.1,0,0,0,0,0s0,0,0,0.1v0.1v0.1v0.1l0,0
			c0,0,0,0-0.1,0h-1.6v2c0,0,0,0,0,0.1c0,0.1,0,0-0.1,0s-0.1,0-0.1,0s-0.1,0-0.2,0c-0.1,0-0.1,0-0.2,0h-0.1c0,0,0,0-0.1,0
			c-0.1,0,0,0,0-0.1V19c0-0.1,0-0.2,0.1-0.2s0.1-0.1,0.2-0.1h2.1c0,0,0,0,0.1,0l0,0v0.1C47.5,19.1,47.5,19.2,47.5,19.2z"/>
		<path d="M51.1,23.7L51.1,23.7C51.1,23.7,51.1,23.8,51.1,23.7c-0.1,0.1-0.1,0.1-0.2,0.1h-0.1c-0.1,0-0.1,0-0.1,0h-0.1l0,0
			c0,0,0,0,0-0.1v-0.5c-0.2,0.2-0.4,0.4-0.6,0.5c-0.3,0.1-0.5,0.1-0.7,0.1c-0.2,0-0.4,0-0.6-0.1c-0.2-0.1-0.3-0.2-0.4-0.3
			c-0.1-0.1-0.2-0.3-0.2-0.5c0-0.2-0.1-0.4-0.1-0.6v-2c0,0,0,0,0-0.1c0,0,0,0,0.1,0c0.1,0,0.1,0,0.1,0s0.1,0,0.2,0
			c0.1,0,0.1,0,0.2,0h0.1c0,0,0,0,0.1,0c0,0,0,0,0,0.1v1.9c0,0.2,0,0.4,0,0.5c0,0.1,0.1,0.2,0.1,0.3c0.1,0.1,0.1,0.2,0.2,0.2
			s0.2,0.1,0.3,0.1c0.2,0,0.3-0.1,0.5-0.2c0.2-0.1,0.3-0.3,0.5-0.5v-2.3c0,0,0,0,0-0.1c0,0,0,0,0.1,0c0.1,0,0.1,0,0.1,0s0.1,0,0.2,0
			c0.1,0,0.1,0,0.2,0h0.1c0,0,0,0,0.1,0c0,0,0,0,0,0.1L51.1,23.7L51.1,23.7z"/>
		<path d="M55.1,23.7C55.1,23.7,55,23.7,55.1,23.7C55,23.7,55,23.8,55.1,23.7c-0.1,0.1-0.2,0.1-0.2,0.1s-0.1,0-0.2,0s-0.1,0-0.2,0
			h-0.1l0,0c0,0,0,0,0-0.1v-1.9c0-0.2,0-0.4,0-0.5c0-0.1-0.1-0.2-0.1-0.3c-0.1-0.1-0.1-0.2-0.2-0.2s-0.2-0.1-0.3-0.1
			c-0.2,0-0.3,0.1-0.5,0.2c-0.2,0.1-0.3,0.3-0.5,0.5v2.3c0,0,0,0,0,0.1c0,0.1,0,0,0,0h-0.1c0,0-0.1,0-0.2,0c-0.1,0-0.1,0-0.2,0h-0.1
			l0,0c0,0,0,0,0-0.1v-3.3c0,0,0,0,0-0.1l0,0h0.1h0.1c0.1,0,0.1,0,0.1,0h0.1l0,0c0,0,0,0,0,0.1v0.5c0.2-0.2,0.4-0.4,0.6-0.5
			c0.2-0.1,0.4-0.2,0.6-0.2s0.4,0,0.6,0.1s0.3,0.2,0.4,0.3c0.1,0.1,0.2,0.3,0.2,0.5c0,0.2,0.1,0.4,0.1,0.6
			C55.1,21.6,55.1,23.7,55.1,23.7z"/>
		<path d="M59,23.7L59,23.7C59,23.7,59,23.8,59,23.7C58.9,23.8,58.9,23.8,59,23.7l-0.2,0.1c-0.1,0-0.1,0-0.1,0h-0.1l0,0
			c0,0,0,0,0-0.1v-0.5c-0.2,0.2-0.4,0.3-0.6,0.5c-0.3,0.1-0.5,0.1-0.8,0.1c-0.3,0-0.5,0-0.6-0.1c-0.2-0.1-0.3-0.2-0.4-0.4
			c-0.1-0.2-0.2-0.4-0.2-0.6C56,22.5,56,22.2,56,22c0-0.3,0-0.6,0.1-0.8s0.2-0.4,0.3-0.6c0.1-0.2,0.3-0.3,0.5-0.4
			c0.2-0.1,0.4-0.1,0.6-0.1s0.4,0,0.6,0.1s0.3,0.2,0.5,0.4v-1.9c0,0,0,0,0-0.1c0,0,0,0,0.1,0c0.1,0,0.1,0,0.1,0s0.1,0,0.2,0
			c0.1,0,0.1,0,0.2,0h0.1c0,0,0,0,0.1,0c0,0,0,0,0,0.1v4.9H59z M58.4,21.3c-0.2-0.2-0.3-0.4-0.5-0.5s-0.3-0.2-0.5-0.2
			c-0.2,0-0.3,0-0.4,0.1c-0.1,0.1-0.2,0.2-0.3,0.3s-0.1,0.3-0.2,0.4c-0.1,0.1,0,0.3,0,0.5s0,0.3,0,0.5c0,0.2,0.1,0.3,0.1,0.4
			s0.2,0.2,0.3,0.3c0.1,0.1,0.2,0.1,0.4,0.1c0.1,0,0.2,0,0.2,0c0.1,0,0.2-0.1,0.2-0.1s0.2-0.1,0.3-0.2c0.1-0.1,0.2-0.2,0.3-0.3
			L58.4,21.3L58.4,21.3z"/>
		<path d="M62.6,23.7L62.6,23.7C62.6,23.8,62.5,23.8,62.6,23.7c-0.1,0.1-0.2,0.1-0.3,0.1c-0.1,0-0.1,0-0.2,0s-0.1,0-0.1,0s0,0,0-0.1
			v-0.3c-0.2,0.2-0.3,0.3-0.5,0.4c-0.1,0-0.3,0-0.5,0c-0.2,0-0.3,0-0.5-0.1c-0.1,0-0.3-0.1-0.4-0.2c-0.1-0.1-0.2-0.2-0.2-0.3
			c-0.1-0.1-0.1-0.3-0.1-0.4c0-0.2,0-0.4,0.1-0.5c0.1-0.1,0.2-0.3,0.3-0.4s0.3-0.2,0.5-0.2c0.2,0,0.5-0.1,0.7-0.1H62v-0.3
			c0-0.1,0-0.2,0-0.4c0-0.1-0.1-0.2-0.1-0.3c-0.1-0.1-0.1-0.1-0.2-0.2c-0.1,0-0.2-0.1-0.4-0.1c-0.2,0-0.3,0-0.4,0.1
			c-0.1,0.1-0.2,0.1-0.3,0.1c-0.1,0-0.2,0.1-0.2,0.1c-0.1,0-0.1,0.1-0.1,0.1s0,0-0.1,0l0,0c0,0,0,0,0-0.1v-0.1c0-0.1,0-0.1,0-0.2
			c0-0.1,0-0.1,0.1-0.1c0,0,0.1-0.1,0.2-0.1c0.1,0,0.2-0.1,0.3-0.1S61,20,61.2,20c0.1,0,0.3,0,0.4,0c0.2,0,0.5,0,0.6,0.1
			c0.2,0.1,0.3,0.1,0.4,0.2c0.1,0.1,0.2,0.2,0.2,0.4c0,0.2,0.1,0.3,0.1,0.6v2.4H62.6z M62,22.1h-0.5c-0.2,0-0.3,0-0.5,0
			c-0.2,0-0.2,0.1-0.3,0.1c-0.1,0.1-0.1,0.1-0.2,0.2c0,0.1-0.1,0.2-0.1,0.3c0,0.2,0.1,0.3,0.2,0.4c0.1,0.1,0.3,0.2,0.5,0.2
			s0.3,0,0.5-0.1c0.2-0.1,0.3-0.2,0.4-0.4V22.1z"/>
		<path d="M66.6,23.7L66.6,23.7C66.5,23.7,66.5,23.8,66.6,23.7c-0.1,0.1-0.2,0.1-0.2,0.1h-0.1c-0.1,0-0.1,0-0.1,0h-0.1l0,0
			c0,0,0,0,0-0.1v-0.5c-0.2,0.2-0.4,0.3-0.6,0.5c-0.3,0.1-0.5,0.1-0.7,0.1c-0.3,0-0.5,0-0.6-0.1c-0.2-0.1-0.3-0.2-0.4-0.4
			c-0.1-0.2-0.2-0.4-0.2-0.6c-0.1-0.2-0.1-0.5-0.1-0.7c0-0.3,0-0.6,0.1-0.8c0.1-0.2,0.2-0.4,0.3-0.6c0.1-0.2,0.3-0.3,0.5-0.4
			c0.2-0.1,0.4-0.1,0.6-0.1c0.2,0,0.4,0,0.6,0.1c0.2,0.1,0.3,0.2,0.5,0.4v-1.9c0,0,0,0,0-0.1c0,0,0,0,0.1,0c0.1,0,0.1,0,0.1,0
			s0.1,0,0.2,0c0.1,0,0.1,0,0.2,0h0.1c0,0,0,0,0.1,0c0,0,0,0,0,0.1v4.9H66.6z M65.9,21.3c-0.2-0.2-0.3-0.4-0.5-0.5s-0.3-0.2-0.5-0.2
			c-0.2,0-0.3,0-0.4,0.1c-0.1,0.1-0.2,0.2-0.3,0.3c-0.1,0.1-0.1,0.3-0.2,0.4c-0.1,0.1,0,0.3,0,0.5s0,0.3,0,0.5
			c0,0.2,0.1,0.3,0.1,0.4s0.2,0.2,0.3,0.3c0.1,0.1,0.2,0.1,0.4,0.1c0.1,0,0.2,0,0.2,0c0.1,0,0.2-0.1,0.2-0.1s0.2-0.1,0.3-0.2
			c0.1-0.1,0.2-0.2,0.3-0.3L65.9,21.3L65.9,21.3z"/>
		<path d="M70.8,21.9c0,0.3,0,0.5-0.1,0.8c-0.1,0.2-0.2,0.4-0.3,0.6c-0.1,0.2-0.3,0.3-0.6,0.4c-0.2,0.1-0.5,0.1-0.8,0.1
			s-0.5,0-0.7-0.1c-0.2-0.1-0.4-0.2-0.5-0.4c-0.1-0.2-0.2-0.4-0.3-0.6c-0.1-0.2-0.1-0.5-0.1-0.8s0-0.5,0.1-0.8
			c0.1-0.2,0.2-0.4,0.3-0.6s0.3-0.3,0.5-0.4c0.2-0.1,0.5-0.1,0.8-0.1s0.5,0,0.7,0.1c0.2,0.1,0.4,0.2,0.5,0.4
			c0.1,0.2,0.2,0.4,0.3,0.6C70.7,21.4,70.8,21.6,70.8,21.9z M70.1,22c0-0.2,0-0.4-0.1-0.5c0-0.2-0.1-0.3-0.2-0.4s-0.2-0.2-0.3-0.3
			c-0.1-0.1-0.3-0.1-0.5-0.1c-0.2,0-0.3,0-0.5,0.1c-0.1,0.1-0.2,0.2-0.3,0.3c-0.1,0.1-0.2,0.3-0.2,0.4c0,0.1-0.1,0.3-0.1,0.5
			c0,0.2,0,0.4,0.1,0.5s0.1,0.3,0.2,0.4c0.1,0.1,0.2,0.2,0.3,0.3c0.1,0.1,0.3,0.1,0.5,0.1c0.2,0,0.3,0,0.5-0.1
			c0.1-0.1,0.2-0.2,0.3-0.3c0.1-0.1,0.2-0.3,0.2-0.4C70.1,22.3,70.1,22.2,70.1,22z"/>
		<path d="M73.6,20.6C73.6,20.7,73.6,20.7,73.6,20.6v0.2l0,0l0,0c0,0,0,0-0.1,0h-0.1h-0.1h-0.1c-0.1,0-0.1,0-0.2,0s-0.1,0.1-0.2,0.1
			c-0.1,0.1-0.1,0.1-0.2,0.2c-0.1,0.1-0.2,0.2-0.2,0.4v2.2c0,0,0,0,0,0.1c0,0.1,0,0,0,0h-0.1c0,0-0.1,0-0.2,0s-0.1,0-0.2,0h-0.1l0,0
			c0,0,0,0,0-0.1v-3.3c0,0,0,0,0-0.1l0,0h0.1H72c0.1,0,0.1,0,0.1,0h0.1l0,0c0,0,0,0,0,0.1v0.5c0.1-0.1,0.2-0.2,0.3-0.3
			c0.1-0.1,0.2-0.2,0.2-0.2c0.1,0,0.1-0.1,0.2-0.1c0.1,0,0.1,0,0.2,0h0.1h0.1h0.1h0.1l0,0l0,0c0,0,0,0,0,0.1
			C73.6,20.5,73.6,20.5,73.6,20.6z"/>
		<path d="M74.3,23.2c0,0.1,0,0.2,0,0.2c0,0.1,0,0.1,0,0.2c0,0.1,0,0.1-0.1,0.2c0,0.1-0.1,0.1-0.1,0.2l-0.6,0.8l0,0c0,0,0,0-0.1,0
			h-0.1h-0.1h-0.1h-0.1l0,0c0,0,0,0,0-0.1l0.5-1.1v-0.5c0-0.1,0-0.1,0-0.2c0,0,0-0.1,0.1-0.1h0.1c0,0,0.1,0,0.2,0c0.1,0,0.1,0,0.2,0
			c0.1,0,0.1,0,0.1,0l0.1,0.1C74.3,23.1,74.3,23.2,74.3,23.2z"/>
		<path d="M82.3,23.7L82.3,23.7C82.3,23.7,82.3,23.8,82.3,23.7C82.2,23.8,82.2,23.8,82.3,23.7c-0.1,0.1-0.2,0.1-0.3,0.1
			c-0.1,0-0.1,0-0.2,0h-0.1c0,0,0,0-0.1,0c0,0,0,0,0-0.1v-4.2l0,0L80,23.7l0,0c0,0,0,0-0.1,0s-0.1,0-0.1,0h-0.1c-0.1,0-0.1,0-0.1,0
			h-0.1c0,0,0,0-0.1,0c-0.1,0,0,0,0,0l-1.6-4.2l0,0v4.2c0,0,0,0,0,0.1c0,0.1,0,0-0.1,0c-0.1,0-0.1,0-0.1,0s-0.1,0-0.2,0
			c-0.1,0-0.1,0-0.2,0h-0.1c0,0,0,0-0.1,0s0,0,0-0.1v-4.5c0-0.1,0-0.2,0.1-0.2c0.1,0,0.1-0.1,0.2-0.1h0.4c0.1,0,0.2,0,0.2,0
			c0.1,0,0.1,0,0.2,0.1l0.1,0.1c0,0.1,0.1,0.1,0.1,0.2l1.4,3.5l0,0l1.5-3.5c0-0.1,0.1-0.1,0.1-0.2s0.1-0.1,0.1-0.1l0.1-0.1
			c0,0,0.1,0,0.2,0h0.4H82c0,0,0.1,0,0.1,0.1c0,0,0,0.1,0.1,0.1s0,0.1,0,0.1L82.3,23.7L82.3,23.7z"/>
		<path d="M86,23.7L86,23.7C86,23.8,85.9,23.8,86,23.7c-0.1,0.1-0.2,0.1-0.3,0.1c-0.1,0-0.1,0-0.2,0c-0.1,0-0.1,0-0.1,0s0,0,0-0.1
			v-0.3c-0.2,0.2-0.3,0.3-0.5,0.4c-0.1,0-0.3,0-0.5,0c-0.2,0-0.3,0-0.5-0.1c-0.1,0-0.3-0.1-0.4-0.2c-0.1-0.1-0.2-0.2-0.2-0.3
			c-0.1-0.1-0.1-0.3-0.1-0.4c0-0.2,0-0.4,0.1-0.5c0.1-0.1,0.2-0.3,0.3-0.4s0.3-0.2,0.5-0.2s0.5-0.1,0.7-0.1h0.5v-0.3
			c0-0.1,0-0.2,0-0.4c0-0.1-0.1-0.2-0.1-0.3c-0.1-0.1-0.1-0.1-0.2-0.2c-0.1,0-0.2-0.1-0.4-0.1s-0.3,0-0.4,0.1
			c-0.1,0.1-0.2,0.1-0.3,0.1c-0.1,0-0.2,0.1-0.2,0.1c-0.1,0-0.1,0.1-0.1,0.1s0,0-0.1,0l0,0c0,0,0,0,0-0.1v-0.1c0-0.1,0-0.1,0-0.2
			c0-0.1,0-0.1,0.1-0.1c0,0,0.1-0.1,0.2-0.1s0.2-0.1,0.3-0.1s0.2-0.1,0.4-0.1c0.1,0,0.3,0,0.4,0c0.2,0,0.5,0,0.6,0.1
			c0.2,0.1,0.3,0.1,0.4,0.2s0.2,0.2,0.2,0.4c0,0.2,0.1,0.3,0.1,0.6v2.4H86z M85.4,22.1h-0.5c-0.2,0-0.3,0-0.5,0s-0.2,0.1-0.3,0.1
			c-0.1,0.1-0.1,0.1-0.2,0.2c0,0.1-0.1,0.2-0.1,0.3c0,0.2,0.1,0.3,0.2,0.4c0.1,0.1,0.3,0.2,0.5,0.2c0.2,0,0.3,0,0.5-0.1
			c0.2-0.1,0.3-0.2,0.4-0.4V22.1z"/>
		<path d="M89.2,22.7c0,0.2,0,0.3-0.1,0.5c-0.1,0.2-0.2,0.3-0.3,0.3c-0.1,0.1-0.3,0.2-0.4,0.2c-0.1,0-0.4,0.1-0.6,0.1
			c-0.1,0-0.2,0-0.4,0c-0.1,0-0.2,0-0.3-0.1c-0.1-0.1-0.2-0.1-0.2-0.1c-0.1,0-0.1-0.1-0.1-0.1s0-0.1-0.1-0.1s0-0.1,0-0.2v-0.1V23
			l0,0l0,0c0,0,0.1,0,0.1,0.1c0.1,0,0.1,0.1,0.2,0.1s0.2,0.1,0.3,0.1c0.1,0,0.2,0.1,0.4,0.1c0.1,0,0.2,0,0.3,0s0.2-0.1,0.2-0.1
			c0.1,0,0.1-0.1,0.1-0.2s0.1-0.2,0.1-0.2c0-0.1,0-0.2-0.1-0.2c0-0.1-0.1-0.1-0.2-0.2c-0.1-0.1-0.2-0.1-0.3-0.1s-0.2-0.1-0.3-0.1
			s-0.2-0.1-0.3-0.1c0.1-0.3,0-0.4-0.1-0.4c-0.1,0-0.1-0.2-0.2-0.3c0-0.1-0.1-0.2-0.1-0.4c0-0.1,0-0.3,0.1-0.4
			c0.1-0.1,0.1-0.2,0.2-0.3c0.1-0.1,0.2-0.2,0.4-0.2c0.2-0.1,0.3-0.1,0.5-0.1c0.1,0,0.2,0,0.3,0s0.2,0,0.2,0.1c0.1,0,0.1,0,0.2,0.1
			c0.1,0,0.1,0,0.1,0.1c0,0,0,0,0.1,0.1c0,0,0,0,0,0.1c0,0,0,0,0,0.1v0.1v0.1V21l0,0l0,0h-0.1c0,0-0.1-0.1-0.2-0.1
			c-0.1,0-0.2-0.1-0.2-0.1c-0.1,0-0.2,0-0.3,0s-0.2,0-0.3,0s-0.1,0.1-0.2,0.1s-0.1,0.1-0.1,0.2s0,0.1,0,0.2c0,0.1,0,0.2,0.1,0.2
			s0.1,0.1,0.2,0.2c0.1,0.1,0.2,0.1,0.3,0.1c0.1,0,0.2,0.1,0.3,0.1c0.1,0,0.2,0.1,0.3,0.1c0.1,0.1,0.2,0.1,0.3,0.2
			c0.1,0.1,0.1,0.2,0.2,0.3C89.1,22.5,89.2,22.6,89.2,22.7z"/>
		<path d="M92.1,22.7c0,0.2,0,0.3-0.1,0.5c-0.1,0.2-0.2,0.3-0.3,0.3c-0.1,0.1-0.3,0.2-0.4,0.2s-0.4,0.1-0.6,0.1c-0.1,0-0.2,0-0.4,0
			c-0.1,0-0.2,0-0.3-0.1c-0.1-0.1-0.2-0.1-0.2-0.1c-0.1,0-0.1-0.1-0.1-0.1s0-0.1-0.1-0.1s0-0.1,0-0.2v-0.1V23l0,0l0,0
			c0,0,0.1,0,0.1,0.1c0.1,0,0.1,0.1,0.2,0.1c0.1,0,0.2,0.1,0.3,0.1s0.2,0.1,0.4,0.1c0.1,0,0.2,0,0.3,0c0.1,0,0.2-0.1,0.2-0.1
			c0.1,0,0.1-0.1,0.1-0.2s0.1-0.2,0.1-0.2c0-0.1,0-0.2-0.1-0.2c0-0.1-0.1-0.1-0.2-0.2s-0.2-0.1-0.3-0.1c-0.1,0-0.2-0.1-0.3-0.1
			c-0.1,0-0.2-0.1-0.3-0.1c0.1-0.3,0-0.4-0.1-0.4c-0.1-0.1-0.1-0.2-0.2-0.3c0-0.1-0.1-0.2-0.1-0.4c0-0.1,0-0.3,0.1-0.4
			c0.1-0.1,0.1-0.2,0.2-0.3c0.1-0.1,0.2-0.2,0.4-0.2c0.2-0.1,0.3-0.1,0.5-0.1c0.1,0,0.2,0,0.3,0c0.1,0,0.2,0,0.2,0.1
			c0.1,0,0.1,0,0.2,0.1c0.1,0,0.1,0,0.1,0.1c0,0,0,0,0.1,0.1c0,0,0,0,0,0.1c0,0,0,0,0,0.1v0.1v0.1V21l0,0l0,0h-0.1
			c0,0-0.1-0.1-0.2-0.1c-0.1,0-0.2-0.1-0.2-0.1c-0.1,0-0.2,0-0.3,0c-0.1,0-0.2,0-0.3,0c-0.1,0-0.1,0.1-0.2,0.1
			c-0.1,0-0.1,0.1-0.1,0.2s0,0.1,0,0.2c0,0.1,0,0.2,0.1,0.2c0.1,0,0.1,0.1,0.2,0.2s0.2,0.1,0.3,0.1c0.1,0,0.2,0.1,0.3,0.1
			c0.1,0,0.2,0.1,0.3,0.1c0.1,0.1,0.2,0.1,0.3,0.2c0.1,0.1,0.1,0.2,0.2,0.3C92.1,22.5,92.1,22.6,92.1,22.7z"/>
		<path d="M98.2,19.6L98.2,19.6v0.2c0,0,0,0,0,0.1l0,0c0,0-0.1,0-0.2-0.1c-0.1,0-0.2-0.1-0.3-0.2c-0.1-0.1-0.3-0.1-0.4-0.2
			c-0.2,0-0.4-0.1-0.6-0.1c-0.3,0-0.5,0-0.7,0.1c-0.2,0.1-0.4,0.2-0.6,0.4c-0.2,0.2-0.3,0.4-0.3,0.6c0,0.2-0.2,0.7-0.2,1
			s0,0.6,0.1,0.8s0.2,0.5,0.4,0.6c0.2,0.1,0.3,0.3,0.6,0.4c0.2,0.1,0.5,0.1,0.7,0.1c0.2,0,0.3,0,0.5-0.1c0.2,0,0.3-0.1,0.4-0.2v-1.4
			h-1.1c0,0-0.1,0-0.1-0.1c0,0,0-0.1,0-0.2v-0.1V21l0,0c0,0,0,0,0.1,0h1.6h0.1h0.1c0,0,0,0,0.1,0.1v0.1v1.8c0,0.1,0,0.1,0,0.2
			l-0.1,0.1c-0.1,0-0.2,0.1-0.3,0.1s-0.2,0.1-0.4,0.1c-0.1,0-0.3,0.1-0.4,0.1c-0.1,0-0.3,0-0.4,0c-0.4,0-0.7-0.1-1-0.2
			c-0.3-0.1-0.6-0.3-0.8-0.5c-0.2-0.2-0.4-0.5-0.5-0.8c-0.1-0.3-0.2-0.6-0.2-1c0-0.4,0.1-0.7,0.2-1.1c0.1-0.3,0.3-0.6,0.5-0.8
			s0.5-0.4,0.8-0.5s0.6-0.2,1-0.2c0.2,0,0.4,0,0.5,0c0.1,0,0.3,0.1,0.4,0.1c0.1,0,0.2,0.1,0.3,0.1c0.1,0.1,0.1,0.1,0.2,0.1
			s0.1,0.1,0.1,0.1C98.2,19.5,98.2,19.5,98.2,19.6z"/>
		<path d="M102.2,21.8c0,0.1,0,0.2-0.1,0.2c0,0-0.1,0.1-0.2,0.1h-2.2c0,0.2,0,0.4,0.1,0.5c0,0.2,0.1,0.3,0.2,0.4
			c0.1,0.1,0.2,0.2,0.3,0.3c0.1,0.1,0.3,0.1,0.5,0.1c0.2,0,0.3,0,0.4,0s0.2-0.1,0.3-0.1s0.2-0.1,0.2-0.1c0.1,0,0.1,0,0.1,0l0,0l0,0
			c0,0,0,0,0,0.1v0.1v0.1c0,0,0,0,0,0.1c0,0,0,0,0,0.1l0,0c0,0-0.1,0-0.1,0.1c-0.1,0-0.2,0.1-0.3,0.1c-0.1,0-0.2,0.1-0.4,0.1
			c-0.1,0-0.3,0-0.5,0c-0.3,0-0.5,0-0.7-0.1c-0.2-0.1-0.4-0.2-0.5-0.4c-0.1-0.2-0.3-0.4-0.3-0.6c0-0.2-0.1-0.5-0.1-0.8
			c0-0.3,0-0.6,0.1-0.8c0.1-0.2,0.2-0.4,0.3-0.6c0.1-0.2,0.3-0.3,0.5-0.4c0.2-0.1,0.4-0.1,0.7-0.1c0.3,0,0.5,0,0.7,0.1
			c0.2,0.1,0.3,0.2,0.5,0.4c0.1,0.1,0.2,0.3,0.3,0.5c0.1,0.2,0.1,0.4,0.1,0.6v0H102.2z M101.5,21.6c0-0.3-0.1-0.6-0.2-0.8
			c-0.1-0.2-0.4-0.3-0.7-0.3c-0.2,0-0.3,0-0.4,0.1c-0.1,0.1-0.2,0.1-0.3,0.2c-0.1,0.1-0.1,0.2-0.2,0.3c-0.1,0.1-0.1,0.3-0.1,0.4
			L101.5,21.6L101.5,21.6z"/>
		<path d="M105.9,23.7L105.9,23.7C105.9,23.7,105.9,23.8,105.9,23.7c-0.1,0.1-0.1,0.1-0.2,0.1c0,0-0.1,0-0.2,0s-0.1,0-0.2,0h-0.1
			l0,0c0,0,0,0,0-0.1v-1.9c0-0.2,0-0.4,0-0.5c0-0.1-0.1-0.2-0.1-0.3c-0.1-0.1-0.1-0.2-0.2-0.2s-0.2-0.1-0.3-0.1
			c-0.2,0-0.3,0.1-0.5,0.2c-0.2,0.1-0.3,0.3-0.5,0.5v2.3c0,0,0,0,0,0.1l0,0h-0.1c0,0-0.1,0-0.2,0c-0.1,0-0.1,0-0.2,0h-0.1l0,0
			c0,0,0,0,0-0.1v-3.3c0,0,0,0,0-0.1l0,0h0.1h0.1c0.1,0,0.1,0,0.1,0h0.1l0,0c0,0,0,0,0,0.1v0.5c0.2-0.2,0.4-0.4,0.6-0.5
			c0.2-0.1,0.4-0.2,0.6-0.2s0.4,0,0.6,0.1s0.3,0.2,0.4,0.3c0.1,0.1,0.2,0.3,0.2,0.5c0,0.2,0.1,0.4,0.1,0.6
			C105.9,21.6,105.9,23.7,105.9,23.7z"/>
		<path d="M109.9,21.8c0,0.1,0,0.2-0.1,0.2c0,0-0.1,0.1-0.2,0.1h-2.2c0,0.2,0,0.4,0.1,0.5c0,0.2,0.1,0.3,0.2,0.4
			c0.1,0.1,0.2,0.2,0.3,0.3c0.1,0.1,0.3,0.1,0.5,0.1s0.3,0,0.4,0c0.1,0,0.2-0.1,0.3-0.1c0.1,0,0.2-0.1,0.2-0.1c0.1,0,0.1,0,0.1,0
			l0,0l0,0c0,0,0,0,0,0.1v0.1v0.1c0,0,0,0,0,0.1c0,0,0,0,0,0.1l0,0c0,0-0.1,0-0.1,0.1c-0.1,0-0.2,0.1-0.3,0.1
			c-0.1,0-0.2,0.1-0.4,0.1c-0.1,0-0.3,0-0.5,0c-0.3,0-0.5,0-0.7-0.1c-0.2-0.1-0.4-0.2-0.5-0.4s-0.3-0.4-0.3-0.6
			c0-0.2-0.1-0.5-0.1-0.8c0-0.3,0-0.6,0.1-0.8c0.1-0.2,0.2-0.4,0.3-0.6c0.1-0.2,0.3-0.3,0.5-0.4c0.2-0.1,0.4-0.1,0.7-0.1
			c0.3,0,0.5,0,0.7,0.1c0.2,0.1,0.3,0.2,0.5,0.4c0.1,0.1,0.2,0.3,0.3,0.5c0.1,0.2,0.1,0.4,0.1,0.6v0H109.9z M109.2,21.6
			c0-0.3-0.1-0.6-0.2-0.8c-0.1-0.2-0.4-0.3-0.7-0.3c-0.2,0-0.3,0-0.4,0.1c-0.1,0.1-0.2,0.1-0.3,0.2c-0.1,0.1-0.1,0.2-0.2,0.3
			c-0.1,0.1-0.1,0.3-0.1,0.4L109.2,21.6L109.2,21.6z"/>
		<path d="M112.7,20.6C112.7,20.7,112.7,20.7,112.7,20.6v0.2l0,0l0,0c0,0,0,0-0.1,0h-0.1h-0.1h-0.1c-0.1,0-0.1,0-0.2,0
			s-0.1,0.1-0.2,0.1c-0.1,0.1-0.1,0.1-0.2,0.2c-0.1,0.1-0.2,0.2-0.2,0.4v2.2c0,0,0,0,0,0.1l0,0h-0.1c0,0-0.1,0-0.2,0s-0.1,0-0.2,0
			h-0.1l0,0c0,0,0,0,0-0.1v-3.3c0,0,0,0,0-0.1l0,0h0.1h0.1c0.1,0,0.1,0,0.1,0h0.1l0,0c0,0,0,0,0,0.1v0.5c0.1-0.1,0.2-0.2,0.3-0.3
			c0.1-0.1,0.2-0.2,0.2-0.2c0.1,0,0.1-0.1,0.2-0.1c0.1,0,0.1,0,0.2,0h0.1h0.1h0.1h0.1l0,0l0,0c0,0,0,0,0,0.1
			C112.7,20.5,112.7,20.5,112.7,20.6z"/>
		<path d="M115.7,23.7L115.7,23.7C115.6,23.8,115.6,23.8,115.7,23.7c-0.1,0.1-0.2,0.1-0.3,0.1c-0.1,0-0.1,0-0.2,0h-0.1
			c0,0,0,0,0-0.1v-0.3c-0.2,0.2-0.3,0.3-0.5,0.4c-0.2,0.1-0.4,0.1-0.6,0.1c-0.2,0-0.3,0-0.5-0.1c-0.2-0.1-0.3-0.1-0.4-0.2
			c-0.1-0.1-0.2-0.2-0.2-0.3c-0.1-0.1-0.1-0.3-0.1-0.4c0-0.2,0-0.4,0.1-0.5c0.1-0.1,0.2-0.3,0.3-0.4c0.1-0.1,0.3-0.2,0.5-0.2
			c0.2,0,0.5-0.1,0.7-0.1h0.5v-0.3c0-0.1,0-0.2,0-0.4c0-0.2-0.1-0.2-0.1-0.3c-0.1-0.1-0.1-0.1-0.2-0.2c-0.1,0-0.2-0.1-0.4-0.1
			c-0.2,0-0.3,0-0.4,0.1s-0.2,0.1-0.3,0.1s-0.2,0.1-0.2,0.1c-0.1,0-0.1,0.1-0.1,0.1s0,0-0.1,0l0,0c0,0,0,0,0-0.1v-0.1
			c0-0.1,0-0.1,0-0.2c0,0,0-0.1,0.1-0.1s0.1-0.1,0.2-0.1c0.1,0,0.2-0.1,0.3-0.1c0.1,0,0.2-0.1,0.4-0.1s0.3,0,0.4,0
			c0.2,0,0.5,0,0.6,0.1c0.2,0.1,0.3,0.1,0.4,0.2c0.1,0.1,0.2,0.2,0.2,0.4s0.1,0.3,0.1,0.6L115.7,23.7L115.7,23.7z M115.1,22.1h-0.5
			c-0.2,0-0.3,0-0.5,0c-0.1,0-0.2,0.1-0.3,0.1s-0.1,0.1-0.2,0.2c0,0.1-0.1,0.2-0.1,0.3c0,0.2,0.1,0.3,0.2,0.4
			c0.1,0.1,0.3,0.2,0.5,0.2c0.2,0,0.3,0,0.5-0.1c0.2-0.1,0.3-0.2,0.4-0.4V22.1z"/>
		<path d="M117.3,23.7L117.3,23.7C117.3,23.7,117.3,23.8,117.3,23.7c-0.1,0.1-0.1,0.1-0.2,0.1c0,0-0.1,0-0.2,0c-0.1,0-0.1,0-0.2,0
			h-0.1l0,0c0,0,0,0,0-0.1v-4.9c0,0,0,0,0-0.1l0,0h0.1c0,0,0.1,0,0.2,0c0.1,0,0.1,0,0.2,0h0.1l0,0c0,0,0,0,0,0.1L117.3,23.7
			L117.3,23.7z"/>
		<path d="M123.4,22.4c0,0.2,0,0.3-0.1,0.4c0,0.1-0.1,0.2-0.2,0.4c-0.1,0.1-0.2,0.2-0.3,0.3c-0.1,0.1-0.2,0.1-0.3,0.2
			c-0.1,0.1-0.3,0.1-0.4,0.1c-0.1,0-0.3,0-0.5,0h-1.3c-0.1,0-0.1,0-0.2-0.1c-0.1,0-0.1-0.1-0.1-0.2v-4.3c0-0.1,0-0.2,0.1-0.2
			s0.1-0.1,0.2-0.1h1.1c0.3,0,0.5,0,0.7,0.1c0.2,0.1,0.3,0.1,0.5,0.2c0.1,0.1,0.2,0.2,0.3,0.4s0.1,0.3,0.1,0.5c0,0.1,0,0.2,0,0.3
			c0,0.1-0.1,0.2-0.1,0.3c0,0.1-0.1,0.2-0.2,0.2c-0.1,0-0.2,0.1-0.3,0.2c0.1,0,0.3,0.1,0.4,0.1s0.2,0.2,0.3,0.3
			c0.1,0.1,0.2,0.2,0.2,0.4C123.4,22,123.4,22.2,123.4,22.4z M122.4,20.2c0-0.1,0-0.2,0-0.3c0-0.1-0.1-0.2-0.2-0.2
			c-0.1-0.1-0.2-0.1-0.3-0.2c-0.1,0-0.3-0.1-0.5-0.1h-0.7v1.6h0.7c0.2,0,0.3,0,0.4-0.1c0.1-0.1,0.2-0.1,0.3-0.2
			c0.1-0.1,0.1-0.2,0.2-0.3C122.4,20.5,122.4,20.3,122.4,20.2z M122.7,22.4c0-0.1,0-0.3-0.1-0.4c-0.1-0.1-0.1-0.2-0.2-0.3
			c-0.1-0.1-0.2-0.1-0.3-0.2c-0.1-0.1-0.3-0.1-0.5-0.1h-0.8v1.6h1c0.2,0,0.3,0,0.4-0.1c0.1,0,0.2-0.1,0.3-0.2S122.7,22.6,122.7,22.4
			C122.7,22.7,122.7,22.5,122.7,22.4z"/>
		<path d="M126.2,20.6C126.2,20.7,126.2,20.7,126.2,20.6v0.2l0,0l0,0c0,0,0,0-0.1,0H126h-0.1h-0.1c-0.1,0-0.1,0-0.2,0
			c-0.1,0-0.1,0.1-0.2,0.1c-0.1,0.1-0.1,0.1-0.2,0.2c-0.1,0.1-0.2,0.2-0.2,0.4v2.2c0,0,0,0,0,0.1l0,0h-0.1c0,0-0.1,0-0.2,0
			c-0.1,0-0.1,0-0.2,0h-0.1l0,0c0,0,0,0,0-0.1v-3.3c0,0,0,0,0-0.1l0,0h0.1h0.1c0.1,0,0.1,0,0.1,0h0.1l0,0c0,0,0,0,0,0.1v0.5
			c0.1-0.1,0.2-0.2,0.3-0.3c0.1-0.1,0.2-0.2,0.2-0.2c0.1,0,0.1-0.1,0.2-0.1c0.1,0,0.1,0,0.2,0h0.1h0.1h0.1h0.1l0,0l0,0
			c0,0,0,0,0,0.1C126.2,20.5,126.2,20.5,126.2,20.6z"/>
		<path d="M127.4,19.2c0,0.1,0,0.2-0.1,0.3c-0.1,0.1-0.2,0.1-0.3,0.1s-0.2,0-0.3-0.1c-0.1-0.1-0.1-0.2-0.1-0.3s0-0.2,0.1-0.3
			c0.1-0.1,0.2-0.1,0.3-0.1s0.2,0,0.3,0.1C127.4,18.9,127.4,19,127.4,19.2z M127.4,23.7L127.4,23.7
			C127.3,23.7,127.3,23.8,127.4,23.7c-0.1,0.1-0.1,0.1-0.2,0.1c0,0-0.1,0-0.2,0c-0.1,0-0.1,0-0.2,0h-0.1l0,0c0,0,0,0,0-0.1v-3.3l0,0
			l0,0h0.1c0,0,0.1,0,0.2,0c0.1,0,0.1,0,0.2,0h0.1l0,0l0,0L127.4,23.7L127.4,23.7z"/>
		<path d="M131.3,20.5c0,0.1,0,0.2,0,0.2l-0.1,0.1h-0.5c0.1,0.1,0.2,0.2,0.2,0.3s0.1,0.2,0.1,0.3c0,0.2,0,0.4-0.1,0.5
			c-0.1,0.2-0.2,0.3-0.3,0.4s-0.3,0.2-0.4,0.2c-0.2,0.1-0.3,0.1-0.5,0.1c-0.1,0-0.3,0-0.4-0.1c-0.1-0.1-0.2-0.1-0.3-0.1
			c0,0-0.1,0.1-0.1,0.2s0,0.1,0,0.2c0,0.1,0,0.2,0.1,0.2c0.1,0,0.2,0.1,0.3,0.1h0.9c0.2,0,0.3,0,0.5,0.1c0.1,0,0.3,0.1,0.4,0.2
			c0.1,0.1,0.2,0.2,0.2,0.3c0,0.1,0.1,0.2,0.1,0.4c0,0.2,0,0.3-0.1,0.5c-0.1,0.1-0.2,0.3-0.3,0.4c-0.1,0.1-0.3,0.2-0.5,0.3
			c-0.2,0.1-0.5,0.1-0.8,0.1c-0.3,0-0.5,0-0.7-0.1c-0.2,0-0.4-0.1-0.5-0.2c-0.1-0.1-0.2-0.2-0.3-0.3c-0.1-0.1-0.1-0.2-0.1-0.4
			c0-0.1,0-0.2,0-0.2l0.1-0.2c0,0,0.1-0.1,0.2-0.2c0.1-0.1,0.1-0.1,0.2-0.2c-0.1-0.1-0.2-0.1-0.3-0.2c-0.1-0.1-0.1-0.2-0.1-0.3
			c0-0.2,0-0.3,0.1-0.4c0.1-0.1,0.1-0.2,0.2-0.3c-0.1-0.1-0.1-0.2-0.2-0.3c0-0.1-0.1-0.3-0.1-0.4c0-0.2,0-0.4,0.1-0.5
			c0.1-0.1,0.2-0.3,0.3-0.4c0.1-0.1,0.3-0.2,0.4-0.2c0.1,0,0.3-0.1,0.5-0.1c0.1,0,0.2,0,0.3,0s0.2,0,0.3,0h1
			C131.1,20.5,131.2,20.5,131.3,20.5C131.2,20.7,131.3,20.4,131.3,20.5z M130.6,24c0-0.1-0.1-0.3-0.2-0.3s-0.3-0.1-0.5-0.1h-0.9
			c-0.1,0.1-0.1,0.1-0.2,0.2c-0.1,0.1-0.1,0.1-0.1,0.2c0,0.1-0.1,0.1-0.1,0.2s0,0.1,0,0.2c0,0.2,0.1,0.3,0.3,0.4
			c0.2,0.1,0.4,0.1,0.7,0.1c0.2,0,0.4,0,0.5-0.1c0.1,0,0.2-0.1,0.3-0.1c0.1-0.1,0.1-0.1,0.2-0.2S130.6,24.1,130.6,24z M130.3,21.3
			c0-0.2-0.1-0.4-0.2-0.5s-0.3-0.2-0.5-0.2c-0.1,0-0.2,0-0.3,0.1c-0.1,0-0.2,0.1-0.2,0.2c-0.1,0.1-0.1,0.2-0.1,0.2s0,0.2,0,0.3
			c0,0.2,0.1,0.4,0.2,0.5s0.3,0.2,0.5,0.2c0.1,0,0.2,0,0.3-0.1c0.1,0,0.2-0.1,0.2-0.2c0.1-0.1,0.1-0.2,0.1-0.2
			S130.3,21.4,130.3,21.3z"/>
		<path d="M134.9,23.7L134.9,23.7C134.9,23.7,134.8,23.8,134.9,23.7c-0.1,0.1-0.1,0.1-0.2,0.1c0,0-0.1,0-0.2,0c-0.1,0-0.1,0-0.2,0
			h-0.1l0,0c0,0,0,0,0-0.1v-1.9c0-0.2,0-0.4,0-0.5c0-0.1-0.1-0.2-0.1-0.3c-0.1-0.1-0.1-0.2-0.2-0.2s-0.2-0.1-0.3-0.1
			c-0.2,0-0.3,0.1-0.5,0.2c-0.2,0.1-0.3,0.3-0.5,0.5v2.3c0,0,0,0,0,0.1l0,0h-0.1c0,0-0.1,0-0.2,0c-0.1,0-0.1,0-0.2,0h-0.1l0,0
			c0,0,0,0,0-0.1v-4.9c0,0,0,0,0-0.1l0,0h0.1c0,0,0.1,0,0.2,0c0.1,0,0.1,0,0.2,0h0.1l0,0c0,0,0,0,0,0.1v2c0.2-0.2,0.4-0.3,0.5-0.4
			c0.1-0.1,0.4-0.1,0.6-0.1c0.2,0,0.4,0,0.6,0.1c0.2,0.1,0.3,0.2,0.4,0.3c0.1,0.1,0.2,0.3,0.2,0.5s0.1,0.4,0.1,0.6L134.9,23.7
			L134.9,23.7z"/>
		<path d="M138.5,23.7L138.5,23.7C138.4,23.8,138.4,23.8,138.5,23.7c-0.1,0.1-0.2,0.1-0.3,0.1c-0.1,0-0.1,0-0.2,0h-0.1
			c0,0,0,0,0-0.1v-0.3c-0.2,0.2-0.3,0.3-0.5,0.4c-0.2,0.1-0.4,0.1-0.6,0.1c-0.2,0-0.3,0-0.5-0.1c-0.2-0.1-0.3-0.1-0.4-0.2
			c-0.1-0.1-0.2-0.2-0.2-0.3c-0.1-0.1-0.1-0.3-0.1-0.4c0-0.2,0-0.4,0.1-0.5c0.1-0.1,0.2-0.3,0.3-0.4c0.1-0.1,0.3-0.2,0.5-0.2
			c0.2,0,0.5-0.1,0.7-0.1h0.5v-0.3c0-0.1,0-0.2,0-0.4c0-0.2,0-0.2,0-0.2c-0.1-0.1-0.1-0.1-0.2-0.2c-0.1,0-0.2-0.1-0.4-0.1
			c-0.2,0-0.3,0-0.4,0.1c-0.1,0.1-0.2,0.1-0.3,0.1s-0.2,0.1-0.2,0.1c-0.1,0-0.1,0.1-0.1,0.1s0,0-0.1,0l0,0c0,0,0,0,0-0.1v-0.1
			c0-0.1,0-0.1,0-0.2c0,0,0-0.1,0.1-0.1s0.1-0.1,0.2-0.1c0.1,0,0.2-0.1,0.3-0.1c0.1,0,0.2-0.1,0.4-0.1c0.2,0,0.3,0,0.4,0
			c0.2,0,0.5,0,0.6,0.1c0.2,0.1,0.3,0.1,0.4,0.2c0.1,0.1,0.2,0.2,0.2,0.4c0,0.2,0.1,0.3,0.1,0.6v2.2H138.5z M137.8,22.1h-0.5
			c-0.2,0-0.3,0-0.5,0c-0.1,0-0.2,0.1-0.3,0.1c-0.1,0-0.1,0.1-0.2,0.2c0,0.1-0.1,0.2-0.1,0.3c0,0.2,0.1,0.3,0.2,0.4
			c0.1,0.1,0.3,0.2,0.5,0.2s0.3,0,0.5-0.1c0.2-0.1,0.3-0.2,0.4-0.4L137.8,22.1L137.8,22.1z"/>
		<path d="M144.5,23.7L144.5,23.7C144.5,23.7,144.4,23.8,144.5,23.7c-0.1,0.1-0.1,0.1-0.2,0.1c0,0-0.1,0-0.2,0c-0.1,0-0.1,0-0.2,0
			h-0.1c0,0,0,0-0.1,0c0,0,0,0,0-0.1v-2c0-0.1,0-0.3,0-0.4c0-0.1-0.1-0.2-0.1-0.3c-0.1-0.1-0.1-0.2-0.2-0.2c-0.1,0-0.2-0.1-0.3-0.1
			s-0.3,0.1-0.4,0.2c-0.1,0.1-0.3,0.3-0.5,0.5v2.3c0,0,0,0,0,0.1c0,0,0,0-0.1,0h-0.1c0,0-0.1,0-0.2,0c-0.1,0-0.1,0-0.2,0h-0.1l0,0
			c0,0,0,0,0-0.1v-2c0-0.1,0-0.3,0-0.4c0-0.1-0.1-0.2-0.1-0.3c-0.1-0.1-0.1-0.2-0.2-0.2c-0.1,0-0.2-0.1-0.3-0.1s-0.3,0.1-0.4,0.2
			c-0.1,0.1-0.3,0.3-0.5,0.5v2.3c0,0,0,0,0,0.1l0,0h-0.1c0,0-0.1,0-0.2,0c-0.1,0-0.1,0-0.2,0h-0.1l0,0c0,0,0,0,0-0.1v-3.3
			c0,0,0,0,0-0.1l0,0h0.1h0.1c0.1,0,0.1,0,0.1,0h0.1l0,0c0,0,0,0,0,0.1v0.5c0.2-0.2,0.4-0.4,0.6-0.5c0.2-0.1,0.4-0.2,0.6-0.2
			c0.1,0,0.3,0,0.4,0s0.2,0.1,0.3,0.1c0.1,0.1,0.2,0.1,0.2,0.2c0.1,0.1,0.1,0.2,0.2,0.3c0.1-0.1,0.2-0.2,0.3-0.3
			c0.1-0.1,0.2-0.2,0.3-0.2c0.1-0.1,0.2-0.1,0.3-0.1s0.2,0,0.3,0c0.2,0,0.4,0,0.6,0.1s0.3,0.2,0.4,0.3c0.1,0.1,0.2,0.3,0.2,0.5
			c0,0.2,0.1,0.4,0.1,0.6L144.5,23.7L144.5,23.7z"/>
	</g>
	<g>
		<path d="M16.7,7.5H18v3.1h3.5V7.5h1.3V15h-1.3v-3.5H18V15h-1.3V7.5z"/>
		<path d="M24.7,10.1c0.5-0.5,1.2-0.7,1.8-0.7c0.8,0,1.5,0.3,1.9,0.8c0.5,0.5,0.8,1.3,0.8,2c0,0.9-0.3,1.6-0.8,2.1
			c-0.5,0.5-1.2,0.8-1.9,0.8s-1.4-0.2-1.8-0.7c-0.6-0.5-0.9-1.3-0.9-2.1C23.9,11.4,24.1,10.7,24.7,10.1z M25.5,13.8
			c0.3,0.3,0.6,0.4,1,0.4c0.2,0,0.3,0,0.5-0.1c0.2-0.1,0.4-0.2,0.5-0.3c0.4-0.4,0.6-0.9,0.6-1.6c0-0.6-0.2-1.1-0.5-1.5
			c-0.3-0.3-0.6-0.5-1.1-0.5c-0.4,0-0.8,0.1-1,0.4C25.2,11,25,11.5,25,12.2C25,13,25.2,13.5,25.5,13.8z"/>
		<path d="M33.5,11.1c-0.1-0.3-0.2-0.6-0.5-0.7c-0.1-0.1-0.2-0.1-0.4-0.1c-0.1,0-0.2,0-0.3,0s-0.2,0-0.3,0c-0.1,0-0.3,0.1-0.4,0.1
			c-0.3,0.1-0.4,0.3-0.4,0.5c0,0.2,0.1,0.3,0.3,0.4c0.2,0.1,0.5,0.2,1,0.3c0.8,0.2,1.4,0.4,1.6,0.6c0.4,0.3,0.7,0.7,0.7,1.2
			c0,0.5-0.2,0.9-0.6,1.3c-0.4,0.4-1.1,0.6-1.8,0.6c-0.8,0-1.4-0.2-1.8-0.6c-0.4-0.3-0.6-0.7-0.7-1.2l1.2-0.2
			c0.1,0.4,0.3,0.7,0.6,0.9c0.1,0.1,0.3,0.1,0.4,0.1c0.1,0,0.2,0,0.4,0h0.1c0.1,0,0.1,0,0.2,0c0.2,0,0.3-0.1,0.4-0.1
			c0.4-0.1,0.5-0.3,0.5-0.7c0-0.3-0.3-0.5-0.8-0.6c-1-0.2-1.6-0.5-2-0.7c-0.5-0.3-0.7-0.7-0.7-1.3c0-0.5,0.2-1,0.6-1.3
			c0.4-0.3,0.9-0.4,1.5-0.4c0.2,0,0.5,0,0.7,0c0.3,0,0.5,0.1,0.8,0.2c0.6,0.3,0.9,0.7,1.1,1.3L33.5,11.1z"/>
		<path d="M35.8,9.5h1.1v0.8l0,0c0,0,0-0.1,0.1-0.1c0-0.1,0.1-0.1,0.1-0.1c0.1-0.1,0.2-0.2,0.3-0.3c0.3-0.2,0.7-0.4,1.2-0.4
			c0.7,0,1.3,0.3,1.7,0.8c0.4,0.5,0.6,1.2,0.6,2s-0.2,1.6-0.7,2.1c-0.5,0.5-1,0.8-1.6,0.8c-0.4,0-0.8-0.1-1.1-0.3
			c-0.1-0.1-0.2-0.2-0.3-0.3l-0.1-0.1L37,14.3l0,0v2.7h-1.2V9.5z M37.4,13.8c0.3,0.3,0.6,0.4,1,0.4c0.6,0,1-0.3,1.2-0.8
			c0.1-0.2,0.1-0.4,0.2-0.7c0-0.1,0-0.2,0-0.3c0-0.1,0-0.1,0-0.2c0-0.7-0.1-1.2-0.4-1.5c-0.3-0.3-0.6-0.4-1-0.4s-0.7,0.2-1,0.5
			c-0.3,0.4-0.4,0.9-0.4,1.6C36.9,13,37.1,13.5,37.4,13.8z"/>
		<path d="M41.8,7.5H43v1.2h-1.2V7.5z M41.8,9.5H43V15h-1.2V9.5z"/>
		<path d="M45.7,9.5h1v1h-1v2.7c0,0.4,0,0.6,0.1,0.7c0.1,0.2,0.2,0.2,0.4,0.2c0.1,0,0.2,0,0.3,0h0.1h0.1l0,0l0.1,1
			c-0.1,0-0.1,0-0.2,0.1c-0.1,0-0.1,0-0.2,0c-0.2,0-0.4,0.1-0.6,0.1c-0.6,0-1.1-0.2-1.3-0.6c0-0.3,0-0.7,0-1.4v-2.8h-0.7v-1h0.7V8.3
			l1.2-0.7V9.5z"/>
		<path d="M47.3,11c0.2-0.5,0.4-0.9,0.7-1.1c0.4-0.4,1-0.5,1.8-0.5c0.8,0,1.5,0.2,1.7,0.6c0.3,0.3,0.4,0.8,0.4,1.6v1.9
			c0,0.4,0,0.8,0.1,1.1c0,0.1,0.1,0.2,0.1,0.3l0.1,0.1v0.1h-1.2c-0.1-0.2-0.2-0.5-0.2-0.7l-0.1,0.1c-0.1,0-0.1,0.1-0.2,0.1
			c-0.1,0.1-0.3,0.2-0.4,0.3c-0.4,0.2-0.8,0.3-1.3,0.3c-0.6,0-1.1-0.2-1.4-0.5c-0.3-0.3-0.5-0.7-0.5-1.2c0-0.6,0.3-1.1,0.9-1.4
			c0.2-0.1,0.4-0.2,0.7-0.3c0.1,0,0.2-0.1,0.3-0.1h0.2h0.1c0.3,0,0.5-0.1,0.8-0.1c0.4-0.1,0.6-0.1,0.8-0.2c0-0.2,0-0.4,0-0.5
			c0-0.3-0.2-0.5-0.5-0.6c-0.1,0-0.2-0.1-0.3-0.1c-0.1,0-0.1,0-0.1,0h-0.1c-0.5,0-0.8,0.1-1,0.3c-0.2,0.1-0.3,0.3-0.4,0.7L47.3,11z
			 M49.5,12.6h-0.2h-0.2c-0.2,0-0.3,0.1-0.4,0.1c-0.3,0.1-0.4,0.4-0.4,0.7c0,0.2,0.1,0.4,0.2,0.5c0.2,0.2,0.5,0.3,0.8,0.3
			c0.6,0,1-0.2,1.3-0.7c0.1-0.2,0.2-0.7,0.2-1.3C50.5,12.4,50.1,12.5,49.5,12.6z"/>
		<path d="M53.3,7.5h1.2V15h-1.2V7.5z"/>
		<path d="M62.2,11h3.3V14c-1,0.8-2,1.2-3.2,1.2c-1.2,0-2.1-0.4-2.8-1.2c-0.7-0.7-1-1.6-1-2.8c0-1,0.3-1.8,0.8-2.6
			c0.5-0.8,1.6-1.3,2.9-1.3C64,7.3,65,8,65.4,9.5l-1.2,0.3c-0.2-0.5-0.4-0.9-0.9-1.2c-0.3-0.2-0.7-0.3-1.2-0.3c-0.9,0-1.6,0.3-2,1
			c-0.3,0.5-0.5,1.1-0.5,1.7c0,0.9,0.2,1.6,0.6,2.1c0.4,0.6,1.1,0.9,1.9,0.9c0.5,0,0.9-0.1,1.3-0.3c0.2-0.1,0.3-0.2,0.5-0.3
			c0.1-0.1,0.2-0.2,0.3-0.2v-1.2h-2L62.2,11L62.2,11z"/>
		<path d="M67.6,12.6c0,0.5,0.2,0.9,0.4,1.2c0.3,0.3,0.6,0.5,1.1,0.5c0.4,0,0.7-0.1,0.9-0.4c0.1-0.1,0.2-0.2,0.2-0.3
			s0.1-0.2,0.1-0.3l1.2,0.2c-0.4,1.2-1.2,1.7-2.4,1.7c-1,0-1.6-0.3-2.1-1c-0.4-0.5-0.5-1.1-0.5-1.8c0-0.8,0.2-1.5,0.6-2
			c0.5-0.6,1.1-1,1.9-1s1.6,0.3,2,0.9c0.4,0.6,0.6,1.4,0.6,2.3H67.6z M70.3,11.8c0-0.2,0-0.3-0.1-0.4c-0.1-0.2-0.1-0.3-0.2-0.5
			c-0.2-0.4-0.6-0.6-1.1-0.6S68,10.6,67.8,11c-0.1,0.2-0.2,0.3-0.2,0.5c0,0.1,0,0.1,0,0.2v0.1v0.1C67.6,11.8,70.3,11.8,70.3,11.8z"
			/>
		<path d="M73.7,15h-1.2V9.5h1.1v0.8l0,0c0.1-0.1,0.1-0.2,0.2-0.3c0.1-0.1,0.2-0.2,0.3-0.3c0.2-0.2,0.5-0.3,0.8-0.3
			c0.2,0,0.4,0,0.6,0.1c0.1,0,0.1,0.1,0.2,0.1v0.1h0.1l-0.4,1.1h-0.1h-0.1c-0.1,0-0.1-0.1-0.2-0.1c-0.1-0.1-0.3-0.1-0.4-0.1
			c-0.4,0-0.7,0.3-0.9,0.8c-0.1,0.2-0.1,0.4-0.1,0.7c0,0.2,0,0.5,0,0.7L73.7,15L73.7,15z"/>
		<path d="M76,11c0.2-0.5,0.4-0.9,0.7-1.1c0.4-0.4,1-0.5,1.8-0.5c0.8,0,1.5,0.2,1.7,0.6c0.3,0.3,0.4,0.8,0.4,1.6v1.9
			c0,0.4,0,0.8,0.1,1.1c0,0.1,0.1,0.2,0.1,0.3l0.1,0.1v0.1h-1.2c-0.1-0.2-0.2-0.5-0.2-0.7l-0.1,0.1c-0.1,0-0.1,0.1-0.2,0.1
			c-0.1,0.1-0.3,0.2-0.4,0.3c-0.4,0.2-0.8,0.3-1.3,0.3c-0.6,0-1.1-0.2-1.4-0.5s-0.5-0.7-0.5-1.2c0-0.6,0.3-1.1,0.9-1.4
			c0.2-0.1,0.4-0.2,0.7-0.3c0.1,0,0.2-0.1,0.3-0.1h0.2h0.1c0.3,0,0.5-0.1,0.8-0.1c0.4-0.1,0.6-0.1,0.8-0.2c0-0.2,0-0.4,0-0.5
			c0-0.3-0.2-0.5-0.5-0.6c-0.1,0-0.2-0.1-0.3-0.1c-0.1,0-0.1,0-0.1,0h-0.1c-0.5,0-0.8,0.1-1,0.3c-0.2,0.1-0.3,0.3-0.4,0.7L76,11z
			 M78.1,12.6h-0.2h-0.2c-0.2,0-0.3,0.1-0.4,0.1c-0.3,0.1-0.4,0.4-0.4,0.7c0,0.2,0.1,0.4,0.2,0.5c0.2,0.2,0.5,0.3,0.8,0.3
			c0.6,0,1-0.2,1.3-0.7c0.1-0.2,0.2-0.7,0.2-1.3C79.2,12.4,78.7,12.5,78.1,12.6z"/>
		<path d="M81.9,7.5h1.2V15h-1.2V7.5z"/>
		<path d="M92,15h-1.1v-0.8l0,0c-0.2,0.4-0.6,0.7-1,0.8c-0.1,0-0.3,0.1-0.4,0.1c-0.1,0-0.1,0-0.2,0h-0.2c-0.7,0-1.3-0.3-1.7-0.9
			c-0.4-0.6-0.6-1.3-0.6-2c0-1,0.2-1.6,0.7-2.1c0.4-0.5,1-0.8,1.6-0.8c0.7,0,1.2,0.3,1.6,0.8l0,0V7.5h1.2L92,15L92,15z M88.3,11.1
			c-0.1,0.2-0.1,0.4-0.2,0.7c0,0.1,0,0.2,0,0.3v0.2c0,0.8,0.2,1.3,0.5,1.6c0.1,0.1,0.3,0.2,0.5,0.3c0.1,0,0.3,0.1,0.4,0.1
			c0.1,0,0.3,0,0.4-0.1c0.2-0.1,0.3-0.1,0.5-0.3c0.3-0.3,0.5-0.9,0.5-1.6c0-0.7-0.1-1.2-0.4-1.5c-0.2-0.4-0.6-0.5-1-0.5
			C88.9,10.4,88.5,10.7,88.3,11.1z"/>
		<path d="M94.1,12.6c0,0.5,0.2,0.9,0.4,1.2c0.3,0.3,0.6,0.5,1.1,0.5c0.4,0,0.7-0.1,0.9-0.4c0.1-0.1,0.2-0.2,0.2-0.3
			s0.1-0.2,0.1-0.3l1.2,0.2c-0.4,1.2-1.2,1.7-2.4,1.7c-1,0-1.6-0.3-2.1-1c-0.4-0.5-0.5-1.1-0.5-1.8c0-0.8,0.2-1.5,0.6-2
			c0.5-0.6,1.1-1,1.9-1s1.6,0.3,2,0.9c0.4,0.6,0.6,1.4,0.6,2.3H94.1z M96.9,11.8c0-0.2,0-0.3-0.1-0.4c-0.1-0.2-0.1-0.3-0.2-0.5
			c-0.2-0.4-0.6-0.6-1.1-0.6c-0.5,0-0.9,0.2-1.1,0.6c-0.1,0.2-0.2,0.3-0.2,0.5c0,0.1,0,0.1,0,0.2v0.1v0.1
			C94.2,11.8,96.9,11.8,96.9,11.8z"/>
		<path d="M109.6,7.5V15h-1.2V8.3l0,0l-2,6.7h-1.2l-2-6.7l0,0V15H102V7.5h2l1.8,6l0,0l1.8-6H109.6z"/>
		<path d="M110.7,11c0.2-0.5,0.4-0.9,0.7-1.1c0.4-0.4,1-0.5,1.8-0.5c0.8,0,1.5,0.2,1.7,0.6c0.3,0.3,0.4,0.8,0.4,1.6v1.9
			c0,0.4,0,0.8,0.1,1.1c0,0.1,0.1,0.2,0.1,0.3l0.1,0.1v0.1h-1.2c-0.1-0.2-0.2-0.5-0.2-0.7l-0.1,0.1c-0.1,0-0.1,0.1-0.2,0.1
			c-0.1,0.1-0.3,0.2-0.4,0.3c-0.4,0.2-0.8,0.3-1.2,0.3c-0.6,0-1.1-0.2-1.4-0.5s-0.5-0.7-0.5-1.2c0-0.6,0.3-1.1,0.9-1.4
			c0.2-0.1,0.4-0.2,0.7-0.3c0.1,0,0.2-0.1,0.3-0.1h0.2h0.1c0.3,0,0.5-0.1,0.8-0.1c0.4-0.1,0.6-0.1,0.8-0.2c0-0.2,0-0.4,0-0.5
			c0-0.3-0.2-0.5-0.5-0.6c-0.1,0-0.2-0.1-0.3-0.1c-0.1,0-0.1,0-0.1,0h-0.1c-0.5,0-0.8,0.1-1,0.3c-0.2,0.1-0.3,0.3-0.4,0.7L110.7,11z
			 M113,12.6h-0.2h-0.2c-0.2,0-0.3,0.1-0.4,0.1c-0.3,0.1-0.4,0.4-0.4,0.7c0,0.2,0.1,0.4,0.2,0.5c0.2,0.2,0.5,0.3,0.8,0.3
			c0.6,0,1-0.2,1.3-0.7c0.1-0.2,0.2-0.7,0.2-1.3C113.9,12.4,113.6,12.5,113,12.6z"/>
		<path d="M119.9,11.1c-0.1-0.3-0.2-0.6-0.5-0.7c-0.1-0.1-0.2-0.1-0.4-0.1c-0.1,0-0.2,0-0.3,0c-0.1,0-0.2,0-0.3,0
			c-0.1,0-0.3,0.1-0.4,0.1c-0.3,0.1-0.4,0.3-0.4,0.5c0,0.2,0.1,0.3,0.3,0.4c0.2,0.1,0.5,0.2,1,0.3c0.8,0.2,1.4,0.4,1.6,0.6
			c0.4,0.3,0.7,0.7,0.7,1.2c0,0.5-0.2,0.9-0.6,1.3c-0.4,0.4-1.1,0.6-1.8,0.6c-0.8,0-1.4-0.2-1.8-0.6c-0.4-0.3-0.6-0.7-0.7-1.2
			l1.2-0.2c0.1,0.4,0.3,0.7,0.6,0.9c0.1,0.1,0.3,0.1,0.4,0.1s0.2,0,0.4,0h0.1c0.1,0,0.1,0,0.2,0c0.2,0,0.3-0.1,0.4-0.1
			c0.4-0.1,0.5-0.3,0.5-0.7c0-0.3-0.3-0.5-0.8-0.6c-1-0.2-1.6-0.5-2-0.7c-0.5-0.3-0.7-0.7-0.7-1.3c0-0.5,0.2-1,0.6-1.3
			c0.4-0.3,0.9-0.4,1.5-0.4c0.2,0,0.5,0,0.7,0c0.3,0,0.5,0.1,0.8,0.2c0.6,0.3,0.9,0.7,1.1,1.3L119.9,11.1z"/>
		<path d="M125.4,11.1c-0.1-0.3-0.2-0.6-0.5-0.7c-0.1-0.1-0.2-0.1-0.4-0.1c-0.1,0-0.2,0-0.3,0s-0.2,0-0.3,0c-0.1,0-0.3,0.1-0.4,0.1
			c-0.3,0.1-0.4,0.3-0.4,0.5c0,0.2,0.1,0.3,0.3,0.4c0.2,0.1,0.5,0.2,1,0.3c0.8,0.2,1.4,0.4,1.6,0.6c0.4,0.3,0.7,0.7,0.7,1.2
			c0,0.5-0.2,0.9-0.6,1.3c-0.4,0.4-1.1,0.6-1.8,0.6c-0.8,0-1.4-0.2-1.8-0.6c-0.4-0.3-0.6-0.7-0.7-1.2l1.2-0.2
			c0.1,0.4,0.3,0.7,0.6,0.9c0.1,0.1,0.3,0.1,0.4,0.1s0.2,0,0.4,0h0.1c0.1,0,0.1,0,0.2,0c0.2,0,0.3-0.1,0.4-0.1
			c0.4-0.1,0.5-0.3,0.5-0.7c0-0.3-0.3-0.5-0.8-0.6c-1-0.2-1.6-0.5-2-0.7c-0.5-0.3-0.7-0.7-0.7-1.3c0-0.5,0.2-1,0.6-1.3
			c0.4-0.3,0.9-0.4,1.5-0.4c0.2,0,0.5,0,0.7,0c0.3,0,0.5,0.1,0.8,0.2c0.6,0.3,0.9,0.7,1.1,1.3L125.4,11.1z"/>
		<path d="M127.5,11c0.2-0.5,0.4-0.9,0.7-1.1c0.4-0.4,1-0.5,1.8-0.5c0.8,0,1.5,0.2,1.7,0.6c0.3,0.3,0.4,0.8,0.4,1.6v1.9
			c0,0.4,0,0.8,0.1,1.1c0,0.1,0.1,0.2,0.1,0.3l0.1,0.1v0.1h-1.2c-0.1-0.2-0.2-0.5-0.2-0.7l-0.1,0.1c-0.1,0-0.1,0.1-0.2,0.1
			c-0.1,0.1-0.3,0.2-0.4,0.3c-0.4,0.2-0.8,0.3-1.2,0.3c-0.6,0-1.1-0.2-1.4-0.5c-0.3-0.3-0.5-0.7-0.5-1.2c0-0.6,0.3-1.1,0.9-1.4
			c0.2-0.1,0.4-0.2,0.7-0.3c0.1,0,0.2-0.1,0.3-0.1h0.2h0.1c0.3,0,0.5-0.1,0.8-0.1c0.4-0.1,0.6-0.1,0.8-0.2c0-0.2,0-0.4,0-0.5
			c0-0.3-0.2-0.5-0.5-0.6c-0.1,0-0.2-0.1-0.3-0.1c-0.1,0-0.1,0-0.1,0H130c-0.5,0-0.8,0.1-1,0.3c-0.2,0.1-0.3,0.3-0.4,0.7L127.5,11z
			 M129.8,12.6h-0.2h-0.2c-0.2,0-0.3,0.1-0.4,0.1c-0.3,0.1-0.4,0.4-0.4,0.7c0,0.2,0.1,0.4,0.2,0.5c0.2,0.2,0.5,0.3,0.8,0.3
			c0.6,0,1-0.2,1.3-0.7c0.1-0.2,0.2-0.7,0.2-1.3C130.7,12.4,130.3,12.5,129.8,12.6z"/>
		<path d="M138.2,13.2c-0.1,0.6-0.4,1-0.7,1.4c-0.5,0.4-1,0.7-1.7,0.7c-1,0-1.7-0.4-2.1-1.2c-0.2-0.3-0.3-0.6-0.4-1
			c0-0.1-0.1-0.3-0.1-0.4c0-0.1,0-0.2,0-0.4c0-0.9,0.2-1.6,0.6-2c0.5-0.6,1.2-0.9,2-0.9h0.2c0.1,0,0.1,0,0.2,0
			c0.2,0,0.3,0.1,0.5,0.1c0.4,0.1,0.8,0.4,1,0.7c0.2,0.2,0.3,0.4,0.4,0.6c0,0.1,0.1,0.2,0.1,0.3v0.1v0.1l-1.2,0.2v-0.1v-0.1
			c0-0.1,0-0.1-0.1-0.2c-0.1-0.1-0.1-0.3-0.2-0.4c-0.2-0.3-0.5-0.4-0.9-0.4c-0.6,0-1,0.3-1.2,0.8c-0.1,0.2-0.2,0.4-0.2,0.6
			c0,0.2,0,0.4,0,0.5c0,0.2,0,0.4,0,0.6c0,0.3,0.1,0.5,0.2,0.7c0.2,0.5,0.6,0.8,1.2,0.8c0.5,0,0.8-0.2,1-0.5
			c0.1-0.1,0.1-0.3,0.2-0.4c0-0.1,0-0.1,0.1-0.2V13v-0.1L138.2,13.2z"/>
		<path d="M139.1,7.5h1.2v2.7c0.3-0.3,0.6-0.6,1-0.7c0.1,0,0.3-0.1,0.4-0.1c0.1,0,0.2,0,0.3,0c0.3,0,0.6,0.1,0.9,0.2
			c0.3,0.1,0.6,0.3,0.7,0.6c0.2,0.3,0.3,0.9,0.3,1.6V15h-1.2v-3.5v-0.3c0-0.2-0.1-0.4-0.1-0.5c-0.2-0.4-0.5-0.5-0.9-0.5
			c-0.2,0-0.5,0.1-0.7,0.2s-0.4,0.3-0.5,0.4c-0.2,0.3-0.2,0.7-0.2,1.3V15h-1.2L139.1,7.5L139.1,7.5z"/>
		<path d="M148.8,15v-0.8l0,0c-0.3,0.4-0.6,0.7-1,0.8c-0.2,0.1-0.3,0.1-0.5,0.1c-0.1,0-0.1,0-0.2,0H147c-0.3,0-0.7-0.1-1-0.2
			c-0.3-0.2-0.5-0.4-0.7-0.6c-0.2-0.4-0.3-0.8-0.3-1.4V9.5h1.2v2.8c0,0.8,0.1,1.3,0.2,1.5c0.1,0.2,0.2,0.3,0.4,0.4
			c0.1,0,0.2,0.1,0.2,0.1c0.1,0,0.1,0,0.2,0c0.2,0,0.5-0.1,0.7-0.2c0.2-0.1,0.4-0.3,0.4-0.4c0.1-0.3,0.2-0.8,0.2-1.5V9.5h1.2V15
			H148.8z"/>
		<path d="M154.4,11.1c-0.1-0.3-0.2-0.6-0.5-0.7c-0.1-0.1-0.2-0.1-0.4-0.1c-0.1,0-0.2,0-0.3,0c-0.1,0-0.2,0-0.3,0s-0.3,0.1-0.4,0.1
			c-0.3,0.1-0.4,0.3-0.4,0.5c0,0.2,0.1,0.3,0.3,0.4c0.2,0.1,0.5,0.2,1,0.3c0.8,0.2,1.4,0.4,1.6,0.6c0.4,0.3,0.7,0.7,0.7,1.2
			c0,0.5-0.2,0.9-0.6,1.3c-0.4,0.4-1.1,0.6-1.8,0.6c-0.8,0-1.4-0.2-1.8-0.6c-0.4-0.3-0.6-0.7-0.7-1.2l1.2-0.2
			c0.1,0.4,0.3,0.7,0.6,0.9c0.1,0.1,0.3,0.1,0.4,0.1c0.1,0,0.2,0,0.4,0h0.1c0.1,0,0.1,0,0.2,0c0.2,0,0.3-0.1,0.4-0.1
			c0.4-0.1,0.5-0.3,0.5-0.7c0-0.3-0.3-0.5-0.8-0.6c-1-0.2-1.6-0.5-2-0.7c-0.5-0.3-0.7-0.7-0.7-1.3c0-0.5,0.2-1,0.6-1.3
			c0.4-0.3,0.9-0.4,1.5-0.4c0.2,0,0.5,0,0.7,0c0.3,0,0.5,0.1,0.8,0.2c0.6,0.3,0.9,0.7,1.1,1.3L154.4,11.1z"/>
		<path d="M157.6,12.6c0,0.5,0.2,0.9,0.4,1.2c0.3,0.3,0.6,0.5,1.1,0.5c0.4,0,0.7-0.1,0.9-0.4c0.1-0.1,0.2-0.2,0.2-0.3
			s0.1-0.2,0.1-0.3l1.2,0.2c-0.4,1.2-1.2,1.7-2.4,1.7c-1,0-1.6-0.3-2.1-1c-0.4-0.5-0.5-1.1-0.5-1.8c0-0.8,0.2-1.5,0.6-2
			c0.5-0.6,1.1-1,1.9-1c0.9,0,1.6,0.3,2,0.9c0.4,0.6,0.6,1.4,0.6,2.3H157.6z M160.2,11.8c0-0.2,0-0.3-0.1-0.4
			c-0.1-0.2-0.1-0.3-0.2-0.5c-0.2-0.4-0.6-0.6-1.1-0.6s-0.9,0.2-1.1,0.6c-0.1,0.2-0.2,0.3-0.2,0.5c0,0.1,0,0.1,0,0.2v0.1v0.1
			C157.6,11.8,160.2,11.8,160.2,11.8z"/>
		<path d="M163.7,9.5h1v1h-1v2.7c0,0.4,0,0.6,0.1,0.7c0.1,0.2,0.2,0.2,0.4,0.2c0.1,0,0.2,0,0.3,0h0.1h0.1l0,0l0.1,1
			c-0.1,0-0.1,0-0.2,0.1c-0.1,0-0.1,0-0.2,0c-0.2,0-0.4,0.1-0.6,0.1c-0.6,0-1.1-0.2-1.3-0.6c-0.1-0.2-0.2-0.7-0.2-1.4v-2.8h-0.7v-1
			h0.7V8.3l1.2-0.7v1.8H163.7z"/>
		<path d="M166.8,9.5h1v1h-1v2.7c0,0.4,0,0.6,0.1,0.7c0.1,0.2,0.2,0.2,0.4,0.2c0.1,0,0.2,0,0.3,0h0.1h0.1l0,0l0.1,1
			c-0.1,0-0.1,0-0.2,0.1c-0.1,0-0.1,0-0.2,0c-0.2,0-0.4,0.1-0.6,0.1c-0.6,0-1.1-0.2-1.3-0.6c-0.1-0.2-0.2-0.7-0.2-1.4v-2.8h-0.7v-1
			h0.7V8.3l1.2-0.7v1.8H166.8z"/>
		<path d="M171.8,11.1c-0.1-0.3-0.2-0.6-0.5-0.7c-0.1-0.1-0.2-0.1-0.4-0.1c-0.1,0-0.2,0-0.3,0c-0.1,0-0.2,0-0.3,0s-0.3,0.1-0.4,0.1
			c-0.3,0.1-0.4,0.3-0.4,0.5c0,0.2,0.1,0.3,0.3,0.4c0.2,0.1,0.5,0.2,1,0.3c0.8,0.2,1.4,0.4,1.6,0.6c0.4,0.3,0.7,0.7,0.7,1.2
			c0,0.5-0.2,0.9-0.6,1.3c-0.4,0.4-1.1,0.6-1.8,0.6c-0.8,0-1.4-0.2-1.8-0.6c-0.4-0.3-0.6-0.7-0.7-1.2l1.2-0.2
			c0.1,0.4,0.3,0.7,0.6,0.9c0.1,0.1,0.3,0.1,0.4,0.1c0.1,0,0.2,0,0.4,0h0.1c0.1,0,0.1,0,0.2,0c0.2,0,0.3-0.1,0.4-0.1
			c0.4-0.1,0.5-0.3,0.5-0.7c0-0.3-0.3-0.5-0.8-0.6c-1-0.2-1.6-0.5-2-0.7c-0.5-0.3-0.7-0.7-0.7-1.3c0-0.5,0.2-1,0.6-1.3
			c0.4-0.3,0.9-0.4,1.5-0.4c0.2,0,0.5,0,0.7,0c0.3,0,0.5,0.1,0.8,0.2c0.6,0.3,0.9,0.7,1.1,1.3L171.8,11.1z"/>
	</g>
</g>
</svg>
