<?xml version="1.0" encoding="utf-8"?>
<!-- Generator: Adobe Illustrator 26.0.1, SVG Export Plug-In . SVG Version: 6.00 Build 0)  -->
<svg version="1.1" id="Layer_1" xmlns="http://www.w3.org/2000/svg" xmlns:xlink="http://www.w3.org/1999/xlink" x="0px" y="0px"
	 viewBox="0 0 98.5 31.9" style="enable-background:new 0 0 98.5 31.9;" xml:space="preserve">
<style type="text/css">
	.st0{fill:#A19EA5;}
	.st1{font-family:'SourceSansPro-Bold';}
	.st2{font-size:12.2489px;}
</style>
<g>
	<path id="Path_631" class="st0" d="M46.8,15.2c-1.3,0.2-2.5-0.7-2.7-2.1c0-0.1,0-0.3,0-0.4c-0.1-1.1,0.7-2.2,1.8-2.5
		c1.7-0.6,2-0.6,3.1-1V8.9c0-0.3,0-0.7-0.1-1c-0.3-0.6-0.9-1-1.7-1s-1.3,0.3-1.8,0.9L45.3,8l-0.5-0.2V7.7c0.5-1.2,1.8-2.1,3.1-2
		C49,5.6,50,6,50.5,6.9c0.3,0.7,0.5,1.6,0.4,2.4c0,0.8,0,1.7,0,2.4c0,0.5,0,0.9,0,1.1c0,0.6,0.1,1.1,0.6,1.1c0.1,0,0.2,0,0.3-0.1
		l0.1-0.1l0.3,0.3l-0.1,0.1c-0.4,0.6-1,1-1.9,1c-0.6,0.1-1.2-0.3-1.4-0.9C48.4,14.8,47.6,15.2,46.8,15.2 M49,10.4
		c-0.7,0.2-1.3,0.4-2,0.7c-0.5,0.3-0.8,0.8-0.8,1.4c-0.1,0.6,0.4,1.2,1.1,1.3l0,0c0.1,0,0.2,0,0.3,0c0.5,0,1-0.1,1.4-0.4L49,10.4z"
		/>
	<path id="Path_632" class="st0" d="M31.6,15.1c-1,0-2.1-0.1-3-0.4h-0.1v-0.6c0-0.9,0-1.2,0-1.6v-0.4H29v0.2c0,0.4,0.2,0.8,0.4,1.1
		c0.6,0.5,1.3,0.7,2.2,0.7c1.8,0,2.6-0.6,2.6-2.1c0-1.2-0.7-1.8-1.8-2.4l-0.2-0.1l-1.1-0.7c-1.6-1-2.3-1.9-2.3-3.4
		c0-0.8,0.3-3.4,4.1-3.4c0.9,0,1.9,0.1,2.9,0.2H36v0.2c0,0,0,0.5,0,1c0,0.4,0,0.8,0,1.1V5h-0.5V4.8c0-0.4-0.2-0.8-0.4-1.1
		C34.5,3.2,33.8,3,33,3.1c-2.1,0-2.3,1-2.3,1.9c0,1,0.5,1.4,1.8,2.3l1.3,0.9c1.1,0.8,2.3,1.6,2.3,3.5C36,14.8,32.9,15.1,31.6,15.1"
		/>
	<path id="Path_633" class="st0" d="M40.7,15.2c-1.1,0.2-2.3-0.5-2.6-1.7c-0.1-0.6-0.2-1.2-0.1-1.9c0-1.4,0-2.7,0-4V7.1h-1.2V6.7
		h0.1c0.4-0.1,0.7-0.3,1-0.6C38.5,5.6,39,5,39.4,4.3l0.2-0.4h0.4v2.1h3.1v1.1h-3.1v4.9c0,1.4,0.3,2.3,1.7,2.3c0.4,0,0.7-0.1,1.1-0.2
		l0.2-0.1l0.2,0.4l-0.1,0.1C42.4,14.9,41.6,15.3,40.7,15.2"/>
	<path id="Path_634" class="st0" d="M53.1,15.1v-0.4h0.2c0.3,0,0.6-0.2,0.8-0.4c0.3-0.3,0.3-1.1,0.3-2.7V9c0.1-0.6,0-1.2-0.2-1.9
		C54,7,53.7,6.9,53.4,6.9c0,0,0,0-0.1,0h-0.2V6.3h0.2h0.1c0.5,0,1.1-0.1,1.7-0.2c0.4-0.1,0.8-0.2,1.1-0.3h0.1h0.1v0.7
		c0.7-0.5,1.7-0.8,2.7-0.9c1.4-0.2,2.7,0.7,3,2.2c0.1,0.5,0.1,1.1,0.1,1.7v2.7c0,1.6,0.1,2,0.3,2.2c0.2,0.1,0.4,0.2,0.7,0.2h0.2v0.6
		H63c-0.6,0-1.2-0.1-1.9-0.1c-0.7,0-1.3,0-2.1,0.1h-0.2v-0.4h0.2c0.3,0,0.5-0.1,0.7-0.3c0.3-0.5,0.4-1,0.3-1.7c0-0.1,0-0.2,0-0.3
		c0-0.3,0-1,0-1.6c0-0.7,0-1.4-0.1-2.1c0-0.9-0.7-1.8-1.7-1.8c-0.1,0-0.2,0-0.2,0c-0.6,0-1.1,0.1-1.8,0.4v4.9c0,1.6,0.1,2,0.3,2.2
		c0.2,0.1,0.4,0.2,0.7,0.2h0.2v0.4h-0.4c-0.6,0-1.1-0.1-1.8-0.1c-0.7,0-1.4,0-2.1,0.1H53.1z"/>
	<path id="Path_635" class="st0" d="M64.6,15.1v-0.4h0.2c0.3,0,0.6-0.1,0.8-0.4c0.3-0.3,0.3-1.1,0.3-2.7V7.1h-1.2V6.5h0.1
		c0.4-0.1,0.7-0.3,1-0.5c0-0.8,0-1.7,0.1-2.5c0.3-1.9,2-3.1,3.7-2.9c0.8,0,1.6,0.2,2.3,0.7L72,1.5v0.2l-0.9,1.2h-0.2V2.8
		c-0.2-0.7-0.8-1.1-1.6-1.1c-0.3,0-0.6,0.1-0.9,0.3C68,2.4,68,3,68,4.2v1.8H70v1.1H68v5.1c-0.1,0.7,0,1.3,0.2,2.1
		c0.2,0.4,1,0.4,1.2,0.4h0.2v0.5h-0.2c-1-0.1-1.8-0.1-2.3-0.1c-0.7,0-1.4,0-2.3,0.1H64.6z"/>
	<path id="Path_636" class="st0" d="M75.1,15.2c-2.8,0-4.4-1.8-4.4-4.7c0-2.3,1.2-5,4.7-5c2.8,0,4.4,1.8,4.4,4.7
		C79.8,12.6,78.5,15.2,75.1,15.2 M75.2,6.7c-0.5,0-0.9,0.1-1.3,0.4c-0.8,0.9-1.2,2.1-1.1,3.3c0,0.6,0.1,3.7,2.4,3.7
		c0.5,0,0.9-0.1,1.3-0.4c0.8-0.9,1.2-2.2,1.1-3.3C77.6,9.8,77.5,6.7,75.2,6.7"/>
	<path id="Path_637" class="st0" d="M80.7,15.1v-0.4h0.2c0.3,0,0.6-0.1,0.8-0.4c0.3-0.3,0.3-1,0.3-2.6V9c0.1-0.6,0-1.2-0.2-1.9
		C81.5,7,81.3,6.9,81,6.9c0,0,0,0-0.1,0h-0.2V6.2H81c0.5,0,1.1-0.1,1.7-0.2c0.3,0,0.6-0.1,1-0.3h0.1L84,5.8v0.8
		c0.5-0.5,1.2-0.8,2.1-0.8c0.5,0,1.1,0.1,1.6,0.5l0.1,0.1v0.3L87,8.2h-0.4l-0.1-0.1c-0.3-0.5-0.9-0.8-1.4-0.7c-0.3,0-0.7,0.1-1,0.3
		v4.7c-0.1,0.7,0,1.3,0.2,2.1c0.3,0.4,1,0.4,1.2,0.4h0.2v0.3h-0.2c-1-0.1-1.8-0.1-2.3-0.1c-0.7,0-1.4,0-2.3,0.1H80.7z"/>
	<path id="Path_638" class="st0" d="M95.1,15.2l-0.2-0.1v-0.7c-0.7,0.5-1.7,0.8-2.6,0.8c-2.5,0-4.1-1.8-4.1-4.4
		c0-0.8,0.2-1.7,0.5-2.5c0.8-1.7,2.5-2.7,4.3-2.6c0.6,0,1.2,0.1,1.8,0.2V4c0.1-0.7,0-1.3-0.2-2c-0.1-0.3-0.4-0.4-0.7-0.4h-0.1h-0.2
		V1.2h0.2c0.6-0.1,1.3-0.1,2-0.3c0.3,0,0.6-0.1,0.9-0.2h0.1l0.2,0.1v0.1c-0.1,0.7-0.1,2.4-0.1,3.6v7.4c-0.1,0.7,0,1.3,0.2,2.1
		c0.2,0.2,0.5,0.3,0.8,0.3h0.1h0.2v0.5h-0.2c-0.6,0-1.2,0.1-1.8,0.2C95.8,15,95.5,15.1,95.1,15.2L95.1,15.2z M93,6.9
		c-1.9,0-2.7,1.1-2.7,3.7c0,1,0.3,3.4,3,3.4h0.1c0.5,0,1-0.1,1.4-0.4V7.5C94.3,7,93.6,6.7,93,6.9"/>
	<path id="Path_639" class="st0" d="M11.1,12.7V1.9H1.4C0.3,5.4,0.1,9.1,0.7,12.7H11.1z M2.2,9C2.1,9,2,9,1.9,8.9
		c-0.1-0.1-0.2-0.4,0-0.5c0.1-0.1,0.4,0,0.4,0.2c0.1,0,0.1,0.2,0.1,0.3C2.6,9,2.7,9.2,2.8,9.3c0-0.3,0-0.7,0.2-1
		c0.3,0.3,0.3,0.8,0.1,1.2c0.1,0.2,0.3,0.3,0.4,0.5c0-0.3,0-0.6,0.1-0.9c0.2,0.3,0.3,0.8,0.2,1.2c0.1,0.1,0.3,0.2,0.4,0.3
		c-0.1-0.3-0.1-0.6,0-0.9c0.2,0.2,0.4,0.7,0.3,1.1C4.7,11,4.8,11,5,11.1c-0.1-0.2-0.1-0.4-0.1-0.6c0.2,0.1,0.4,0.4,0.3,0.6l0.2,0.1
		v-0.6C5,10.4,4.7,10.1,4.6,9.7c0.3,0,0.6,0.2,0.8,0.3V9.7C4.7,9.6,4.2,9.1,4,8.4C4.5,8.5,5,8.7,5.4,9V8.7c-0.6-0.1-1-0.6-1.2-1.1
		c0.5,0.1,0.9,0.3,1.2,0.5V7.8c-0.6-0.1-1-0.6-1.2-1.2c0.5,0.1,0.9,0.3,1.2,0.5V6.6c-0.6,0-1.1-0.5-1.2-1C4.6,5.7,5,5.9,5.4,6.2V5.7
		c-0.4,0-0.7-0.3-0.9-1c0.3,0.1,0.7,0.2,0.9,0.5V4.7C5.1,4.6,4.8,4.5,4.7,3.9C5,3.9,5.2,4,5.4,4.2V4C5.2,3.6,5.2,3.4,5.3,3.1
		c0-0.2,0.1-0.4,0.3-0.4C6,2.7,6,2.9,6.1,3.1s0,0.5-0.1,0.7v0.3C6.1,4.1,6.4,4,6.6,3.9C6.5,4.5,6.2,4.6,5.9,4.7v0.5
		C6.2,5,6.5,4.8,6.8,4.7c-0.2,0.7-0.5,1-0.9,1v0.5C6.2,5.9,6.6,5.7,7,5.6c-0.1,0.6-0.6,1-1.1,1.1v0.4c0.4-0.3,0.8-0.5,1.2-0.6
		C7,7.2,6.5,7.6,5.9,7.8v0.4c0.4-0.3,0.8-0.5,1.2-0.6C7,8.2,6.5,8.6,5.9,8.7V9c0.4-0.3,0.9-0.5,1.4-0.7C7.2,9.1,6.6,9.6,5.9,9.7v0.3
		c0.3-0.2,0.5-0.3,0.8-0.4c0,0.4-0.3,0.8-0.8,0.8v0.6c0.1,0,0.1,0,0.2,0c0-0.3,0.2-0.5,0.4-0.6c0,0.2-0.1,0.4-0.1,0.6
		c0.2,0,0.3-0.1,0.5-0.2c-0.1-0.4,0-0.8,0.4-1.1c0,0.3,0,0.6,0,0.9c0.1-0.1,0.3-0.2,0.4-0.3C7.5,10,7.6,9.4,7.9,9
		C8,9.3,8,9.6,8,10.1c0.2-0.2,0.3-0.3,0.4-0.5C8.2,9.2,8.2,8.9,8.5,8.3c0.1,0.3,0.2,0.6,0.2,0.9C8.9,9,9,8.9,9.1,8.7
		c-0.1-0.1,0-0.3,0-0.4C9.2,8.2,9.4,8,9.5,8.1c0.2,0.1,0.1,0.3,0,0.5c0,0.1-0.2,0.2-0.3,0.2C9.1,9,9,9.2,8.8,9.3
		c0.3,0.1,0.5,0.2,0.7,0.4C9.4,10,9,10,8.7,9.7c-0.1,0.2-0.3,0.4-0.4,0.5c0.3,0.1,0.5,0.2,0.7,0.4c-0.3,0.2-0.7,0.2-1-0.1
		c-0.2,0.2-0.4,0.3-0.6,0.4c0.3,0.1,0.5,0.3,0.6,0.5c-0.5,0.1-0.9,0-1-0.3c-0.2,0.1-0.3,0.1-0.5,0.1c0.1,0.1,0.3,0.2,0.3,0.4
		c-0.4,0-0.6-0.1-0.6-0.3c-0.1,0-0.1,0.1-0.2,0.1v0.7L5.4,12v-0.5c-0.1,0-0.1,0-0.2,0c-0.1,0.2-0.2,0.3-0.6,0.3
		c0-0.2,0.2-0.3,0.3-0.4c-0.2-0.1-0.3-0.1-0.5-0.2c-0.1,0.3-0.5,0.5-1,0.3c0.2-0.2,0.4-0.4,0.7-0.5c-0.2-0.1-0.3-0.2-0.5-0.3
		c-0.3,0.3-0.7,0.3-1,0.1c0.2-0.2,0.4-0.4,0.7-0.4C3.1,10.2,3,10,2.8,9.7C2.4,10,2,10,1.7,9.8c0.2-0.2,0.4-0.4,0.7-0.4
		C2.4,9.3,2.3,9.1,2.2,9"/>
	<path id="Path_640" class="st0" d="M16.1,6.1l0.2,0.1l0.4,0.1V5.6l-0.8-0.4v0.5C16,5.7,16.1,5.9,16.1,6.1"/>
	<path id="Path_641" class="st0" d="M17.3,18.4c0-0.1-0.2-0.3-0.5-0.5v0.8C17.2,18.6,17.3,18.5,17.3,18.4"/>
	<path id="Path_642" class="st0" d="M15.1,16c0,0.2,0.3,0.4,0.8,0.6c0-0.6,0-1.1-0.1-1.6C15.3,15.5,15.1,15.8,15.1,16"/>
	<path id="Path_643" class="st0" d="M16.4,17.8l-0.2-0.1c0,0.6,0,1.3,0,2.1c0,0,0.1,0.1,0.2,0.1C16.4,19.2,16.4,18.4,16.4,17.8"/>
	<path id="Path_644" class="st0" d="M14.7,6.1c-0.3-0.1-0.4-0.3-0.4-0.4s0-0.1-0.1-0.1c-0.3,0-0.5,0.1-0.6,0.3c-0.1,0.3,0,1,1.7,2.6
		c0.1,0.1,0.2,0.2,0.3,0.3V6.3C15.3,6.2,15,6.2,14.7,6.1"/>
	<path id="Path_645" class="st0" d="M14.7,5.9L14.7,5.9c0.1,0,0.2,0,0.2,0c0-0.1,0-0.2-0.1-0.2h-0.1c0,0-0.1,0-0.1,0.1
		C14.6,5.8,14.6,5.8,14.7,5.9L14.7,5.9"/>
	<path id="Path_646" class="st0" d="M15.1,5.4c0.1,0,0.1,0,0.1-0.1l0,0l0,0c0-0.1-0.1-0.2-0.2-0.2h-0.1v0.1
		C14.9,5.3,15,5.4,15.1,5.4"/>
	<path id="Path_647" class="st0" d="M16.8,13.7c0.6-0.3,0.9-0.6,1-0.9c0.1-0.5-0.3-1-0.9-1.6C16.8,11.9,16.8,12.7,16.8,13.7"/>
	<path id="Path_648" class="st0" d="M21.2,1.9h-9.7v25.5C25.5,19.6,22.2,4.2,21.2,1.9 M18.7,12.8c-0.1,0.7-0.8,1.2-2,1.8
		c0,0.7,0,1.6,0,2.4h0.1c1,0.4,1.2,0.9,1.2,1.2c-0.1,0.5-0.7,0.9-1.3,1v0.6c0.1,0.1,0.2,0.3,0.2,0.5s-0.1,0.3-0.2,0.4V21
		c0,0.2-0.2,0.3-0.4,0.3c-0.2,0-0.3-0.1-0.4-0.3h-0.1c-0.1,0-0.2,0.1-0.2,0.1s-0.1,0-0.1-0.1c0-0.1,0-0.1,0.1-0.2
		c0.1-0.1,0.2-0.2,0.3-0.3v-0.4c0,0-0.1,0-0.1-0.1c-0.4-0.2-0.5-0.5-0.4-0.7c0.1-0.3,0.4-0.5,0.6-0.5c0-0.5,0-1,0-1.4
		c-0.2-0.1-0.4-0.2-0.6-0.2c-0.9-0.4-1.1-0.9-1.1-1.3c0.2-0.8,0.7-1.6,1.6-1.9c-0.2-2.4-0.4-2.8-0.7-2.9L15,10.9l0.4-0.8l0.3,0.2
		v-0.2c-0.2-0.2-0.3-0.3-0.5-0.5C15,9.3,13.8,8.1,13.7,8c-0.3-0.3-0.5-0.7-0.6-1.1c-0.2-0.5-0.2-1,0.1-1.4C13.5,5,14.1,4.9,14.5,5
		c0.1,0,0.2,0.1,0.3,0C15,5,15,5,15.1,5s0.3,0.1,0.4,0.1c0.1,0.1,0.2,0.1,0.2,0.2V4.6l1.2,0.8v0.9C17,6.1,17.2,6,17.4,5.9h0.2
		l0.2,1.2l-0.1,0.1c-0.4,0.4-0.7,0.9-0.9,2.8C18.2,11.3,18.8,12.1,18.7,12.8"/>
	<path id="Path_649" class="st0" d="M17.5,7.1l-0.1-0.7c-0.2,0.1-0.3,0.3-0.5,0.5h-0.3V6.4h-0.1v0.3h-0.1l-0.3-0.4l-0.2-0.1
		c0,0,0,0-0.1,0V9c0.3,0.2,0.5,0.5,0.7,0.7C16.7,8,17,7.5,17.5,7.1"/>
	<path id="Path_650" class="st0" d="M16.3,20.4c0,0.2,0,0.4,0,0.7c0,0.1,0.1,0.1,0.2,0v-0.6C16.4,20.5,16.4,20.5,16.3,20.4"/>
	<path id="Path_651" class="st0" d="M15.9,10.4v0.7l-0.4-0.3L15.4,11c0.3,0.3,0.7,0.9,0.9,5.9c0.1,0,0.1,0.1,0.2,0.1
		c0-2.7,0-4.7,0.1-6.1c-0.1-0.1-0.3-0.3-0.5-0.4L15.9,10.4"/>
	<rect id="Rectangle_69" x="5" y="15.5" class="st0" width="1.8" height="0.7"/>
	<rect id="Rectangle_70" x="6.3" y="17.9" class="st0" width="1.8" height="0.7"/>
	<rect id="Rectangle_71" x="5" y="16.9" class="st0" width="0.7" height="1.8"/>
	<rect id="Rectangle_72" x="7.5" y="19.2" class="st0" width="0.5" height="0.5"/>
	<rect id="Rectangle_73" x="7.3" y="15.5" class="st0" width="0.7" height="1.8"/>
	<rect id="Rectangle_74" x="6.3" y="16.8" class="st0" width="0.5" height="0.5"/>
	<rect id="Rectangle_75" x="6.3" y="19.2" class="st0" width="0.7" height="1.8"/>
	<rect id="Rectangle_76" x="8.5" y="17.9" class="st0" width="0.7" height="1.8"/>
	<path id="Path_652" class="st0" d="M0.7,13.2c1,6.1,4.9,11.4,10.3,14.2V13.2H0.7z M9.9,21.4H5.8v-2.3H4.4V15h4.1v2.4h1.2L9.9,21.4z
		"/>
	<rect id="Rectangle_77" x="7.5" y="20.2" class="st0" width="1.8" height="0.7"/>
	<text transform="matrix(1 0 0 1 27.5234 27.4005)" class="st0 st1 st2">MEDICINA</text>
</g>
</svg>
