<?xml version="1.0" encoding="utf-8"?>
<!-- Generator: Adobe Illustrator 26.0.1, SVG Export Plug-In . SVG Version: 6.00 Build 0)  -->
<svg version="1.1" id="Layer_1" xmlns="http://www.w3.org/2000/svg" xmlns:xlink="http://www.w3.org/1999/xlink" x="0px" y="0px"
	 viewBox="0 0 81 32" style="enable-background:new 0 0 81 32;" xml:space="preserve">
<image style="display:none;overflow:visible;enable-background:new    ;" width="177" height="106" xlink:href="../../Downloads/Screenshot 2023-12-09 at 15.54.29.png"  transform="matrix(1 0 0 1 -52.5659 -37.0016)">
</image>
<g>
	<rect id="Rectangle_66" x="21.1" y="21.4" width="46.7" height="0.8"/>
	<g>
		<path id="Path_631" d="M33.4,9.9c-0.9,0.1-1.6-0.4-1.8-1.3c0-0.1,0-0.2,0-0.2c-0.1-0.8,0.4-1.4,1.2-1.6c1.1-0.4,1.3-0.4,2.1-0.7
			V5.6c0-0.2,0-0.4-0.1-0.7c-0.2-0.4-0.7-0.8-1.1-0.7c-0.4,0-1,0.2-1.2,0.7l-0.1,0.1l-0.3-0.2V4.7c0.3-0.8,1.2-1.3,2.1-1.3
			c0.7-0.1,1.3,0.2,1.8,0.8c0.2,0.5,0.3,1.1,0.3,1.6s0,1.1,0,1.5c0,0.3,0,0.7,0,0.8c0,0.4,0.1,0.8,0.4,0.8c0.1,0,0.1,0,0.2-0.1
			L37,8.7l0.2,0.2L37.1,9c-0.2,0.4-0.8,0.7-1.2,0.7c-0.4,0.1-0.8-0.2-1-0.7C34.6,9.7,34.1,9.9,33.4,9.9 M34.9,6.6
			c-0.4,0.1-0.9,0.3-1.4,0.5C33.2,7.3,33,7.7,33,8c-0.1,0.4,0.2,0.8,0.8,0.9c0.1,0,0.1,0,0.2,0c0.3,0,0.7-0.1,1-0.2
			C34.9,8.7,34.9,6.6,34.9,6.6z"/>
		<path id="Path_632" d="M23.2,9.9c-0.7,0-1.3-0.1-2.1-0.2H21V9.1c0-0.7,0-0.8,0-1V7.7h0.3v0.1c0,0.2,0.1,0.5,0.2,0.8
			C22,8.9,22.4,9,23,9c1.2,0,1.8-0.4,1.8-1.3c0-0.8-0.4-1.2-1.2-1.6l0,0l-0.8-0.4c-1-0.7-1.5-1.2-1.5-2.3c0-0.5,0.2-2.3,2.9-2.3
			c0.7,0,1.3,0.1,1.9,0.1H26v0.1c0,0,0,0.3,0,0.7c0,0.2,0,0.5,0,0.8v0.2h-0.3V2.8c0-0.2-0.1-0.5-0.2-0.8c-0.4-0.2-1-0.3-1.4-0.3
			c-1.3,0-1.5,0.7-1.5,1.2c0,0.8,0.3,1,1.2,1.5l1,0.7c0.8,0.5,1.5,1,1.5,2.3C26.3,9.6,24.1,9.9,23.2,9.9"/>
		<path id="Path_633" d="M29.3,9.9c-0.8,0.1-1.5-0.3-1.8-1.1c-0.1-0.4-0.1-0.8-0.1-1.2c0-1,0-1.8,0-2.6V4.4h-0.8V4.2h0.1
			C27,4.1,27.3,4,27.5,3.7c0.4-0.3,0.8-0.8,1-1.2l0.1-0.2h0.2v1.3h2.1v0.8h-2.1v3.2c0,1,0.2,1.5,1.1,1.5c0.2,0,0.5-0.1,0.8-0.1
			l0.1-0.1l0.1,0.2L31,9.4C30.6,9.7,29.9,9.9,29.3,9.9"/>
		<path id="Path_634" d="M37.7,9.8V9.6h0.1c0.2,0,0.4-0.1,0.5-0.2c0.2-0.2,0.2-0.8,0.2-1.8v-2c0.1-0.4,0-0.8-0.1-1.2
			c-0.1-0.1-0.3-0.2-0.5-0.2h-0.1h-0.1V3.9h0.1h0.1c0.3,0,0.8-0.1,1.1-0.1c0.2-0.1,0.4-0.1,0.7-0.2h0.1l0.1,0.1v0.4
			c0.5-0.4,1.2-0.7,1.8-0.7c1-0.1,1.9,0.5,2.1,1.4c0.1,0.3,0.1,0.8,0.1,1.1v1.8c0,1,0.1,1.3,0.2,1.5c0.1,0.1,0.2,0.1,0.4,0.2h0.1
			v0.2h-0.2c-0.4,0-0.8-0.1-1.2-0.1c-0.4,0-1,0-1.3,0.1h-0.1V9.5l0,0c0.2,0,0.3-0.1,0.4-0.2c0.2-0.3,0.2-0.7,0.2-1.1
			c0-0.1,0-0.1,0-0.2c0-0.2,0-0.7,0-1.1c0-0.4,0-1-0.1-1.4c0-0.7-0.4-1.2-1.2-1.2c-0.1,0-0.1,0-0.1,0c-0.4,0-0.8,0.1-1.2,0.2v3.2
			c0,1,0.1,1.3,0.2,1.5c0.1,0.1,0.2,0.1,0.4,0.2h0.2v0.2h-0.3c-0.4,0-0.8-0.1-1.2-0.1C38.7,9.7,38.2,9.7,37.7,9.8L37.7,9.8z"/>
		<path id="Path_635" d="M45.4,9.8V9.6h0.1c0.2,0,0.4-0.1,0.5-0.2c0.2-0.2,0.2-0.8,0.2-1.8V4.4h-0.8V4.1h0.1
			c0.2-0.1,0.4-0.2,0.8-0.4c0-0.5,0-1.1,0.1-1.6c0.2-1.3,1.1-1.9,2.4-1.9c0.5,0,1.1,0.1,1.5,0.4l0,0v0.1l-0.7,0.8h-0.1l0,0
			c-0.1-0.4-0.5-0.8-1-0.8c-0.2,0-0.4,0.1-0.7,0.2c-0.2,0.2-0.3,0.7-0.3,1.4v1.2H49v0.8h-1.3v3.4c-0.1,0.4,0,1,0.1,1.3
			c0.2,0.2,0.7,0.2,0.8,0.2h0.1v0.3h-0.1c-0.7-0.1-1.2-0.1-1.5-0.1c-0.4,0-1,0-1.5,0.1L45.4,9.8z"/>
		<path id="Path_636" d="M52.5,9.9c-1.9,0-3-1.2-3-3.2c0-1.5,0.8-3.3,3.2-3.3c1.9,0,3,1.2,3,3.2C55.6,8.1,54.8,9.9,52.5,9.9
			 M52.5,4.2c-0.3,0-0.7,0.1-0.9,0.2c-0.5,0.7-0.8,1.4-0.8,2.3c0,0.4,0.1,2.4,1.5,2.4c0.3,0,0.7-0.1,0.9-0.2
			c0.5-0.7,0.8-1.4,0.8-2.3C54.1,6.2,54.1,4.2,52.5,4.2"/>
		<path id="Path_637" d="M56.2,9.8V9.5h0.1c0.2,0,0.4-0.1,0.5-0.2C57,9,57,8.6,57,7.5V5.6c0.1-0.4,0-0.8-0.1-1.2
			c-0.1-0.1-0.3-0.2-0.5-0.2h-0.1h-0.1V3.9h0.1h0.1c0.3,0,0.8-0.1,1.1-0.1c0.2,0,0.4-0.1,0.7-0.2h0.1l0.1,0.1v0.5
			c0.4-0.3,0.9-0.5,1.4-0.5c0.3,0,0.8,0.1,1,0.3l0.1,0.1v0.2l-0.5,1h-0.2L60,5.2c-0.2-0.3-0.7-0.5-1-0.4c-0.2,0-0.4,0.1-0.7,0.2V8
			c-0.1,0.4,0,0.9,0.1,1.3c0.2,0.2,0.7,0.2,0.8,0.2h0.1v0.3l0,0c-0.7-0.1-1.2-0.1-1.5-0.1C57.3,9.8,56.8,9.8,56.2,9.8L56.2,9.8z"/>
		<path id="Path_638" d="M65.8,9.9l-0.1-0.1V9.2c-0.4,0.3-1.1,0.5-1.8,0.5c-1.8,0-2.9-1.2-2.9-3c0-0.5,0.1-1.2,0.3-1.6
			c0.5-1.1,1.8-1.9,3-1.8c0.4,0,0.8,0.1,1.2,0.1V2.2c0.1-0.4,0-0.9-0.1-1.3c-0.1-0.2-0.3-0.3-0.4-0.3H65h-0.1V0.3H65
			c0.4-0.1,0.9-0.1,1.3-0.2c0.2,0,0.4-0.1,0.7-0.1H67l0,0v0.1c0,0.4,0,1.5,0,2.4v5.1c-0.1,0.4,0,0.9,0.1,1.3
			c0.1,0.1,0.3,0.2,0.5,0.2h0.1h0.1v0.3h-0.1c-0.4,0-0.8,0.1-1.2,0.1C66.3,9.7,66.2,9.8,65.8,9.9L65.8,9.9z M64.5,4.2
			c-1.2,0-1.8,0.8-1.8,2.5c0,0.7,0.2,2.3,2,2.3h0.1c0.3,0,0.7-0.1,1-0.2V4.6C65.4,4.3,64.8,4.2,64.5,4.2"/>
	</g>
	<g>
		<path id="Path_639" d="M9.6,8.3V0.9H3C2.3,3.3,2.1,5.8,2.5,8.3H9.6z M3.5,5.6c-0.1,0-0.1,0-0.2-0.1c0,0-0.1-0.2,0.1-0.2
			c0.1-0.1,0.2,0,0.2,0.1C3.7,5.5,3.7,5.5,3.5,5.6c0.1,0,0.2,0.1,0.2,0.2c0-0.2,0-0.4,0.1-0.7c0.3,0.2,0.3,0.7,0.2,0.9
			c0.1,0.1,0.2,0.2,0.2,0.3c0-0.2,0-0.4,0.1-0.7c0.2,0.2,0.2,0.5,0.1,0.9c0.1,0.1,0.2,0.1,0.2,0.2c-0.1-0.2-0.1-0.4,0-0.7
			c0.2,0.2,0.3,0.4,0.2,0.8C5.2,7,5.3,7,5.4,7.2c0-0.2,0-0.3,0-0.4c0.1,0,0.2,0.2,0.1,0.4h0.2V6.7c-0.3,0-0.5-0.2-0.5-0.5
			c0.2,0,0.4,0.1,0.5,0.2V6.2c-0.5,0-0.9-0.3-1-0.9c0.3,0.1,0.7,0.2,1,0.4V5.5c-0.4,0-0.7-0.4-0.9-0.8C5.2,4.8,5.4,5,5.7,5.1V4.8
			C5.3,4.7,4.9,4.4,4.8,4.1c0.2,0.1,0.5,0.2,0.8,0.3V4.1c-0.4,0-0.8-0.3-0.8-0.7c0.3,0.1,0.5,0.2,0.9,0.4V3.5
			c-0.3,0-0.5-0.2-0.7-0.8C5.3,2.9,5.5,3,5.7,3.1V2.8c-0.2,0-0.4-0.1-0.5-0.4c0.2,0,0.3,0.1,0.4,0.2V2.3C5.5,2.2,5.5,2,5.6,1.9
			c0-0.1,0.1-0.2,0.2-0.2C6,1.7,6,1.8,6,1.9c0.1,0.2,0,0.3-0.1,0.4v0.2c0.3-0.1,0.5-0.2,0.7-0.2C6.5,2.8,6.3,2.8,6,2.9v0.3
			C6.3,3.1,6.5,3,6.7,2.9C6.6,3.3,6.4,3.5,6,3.6V4c0.2-0.2,0.5-0.3,0.9-0.4C6.8,4,6.5,4.2,6,4.3v0.2c0.3-0.1,0.5-0.3,0.9-0.3
			C6.8,4.6,6.5,5,6,5v0.2C6.3,5.1,6.6,5,6.9,4.8C6.8,5.3,6.5,5.6,6,5.6v0.2c0.2-0.2,0.7-0.3,1-0.4C6.9,5.8,6.6,6.2,6,6.3v0.2
			c0.2-0.1,0.3-0.2,0.7-0.2C6.6,6.5,6.5,6.7,6,6.7v0.4c0.1,0,0.1,0,0.1,0c0-0.2,0.1-0.3,0.2-0.4c0,0.1-0.1,0.2-0.1,0.4
			c0.3,0,0.3,0,0.5,0C6.7,6.8,6.8,6.5,7,6.3c0,0.2,0,0.4,0,0.7c0.1-0.1,0.2-0.1,0.3-0.2c-0.1-0.3,0-0.7,0.2-1
			c0.1,0.2,0.1,0.4,0.1,0.7c0-0.1,0.1-0.2,0.2-0.3c-0.2-0.2-0.2-0.4,0-0.8C8,5.5,8,5.7,8,5.9c0.1-0.1,0.1-0.2,0.2-0.3
			c-0.1-0.1,0-0.2,0-0.2c0.1-0.1,0.2-0.2,0.2-0.1c0.1,0.1,0.1,0.2,0,0.3c0,0.1-0.1,0.1-0.2,0.1c0,0-0.1,0.1-0.2,0.3
			c0.2,0,0.3,0.1,0.4,0.2C8.2,6.4,8,6.4,7.8,6.3C7.7,6.4,7.7,6.6,7.6,6.6C7.7,6.7,7.9,6.7,8,6.9C7.8,7,7.5,7,7.4,6.8
			C7.1,6.9,7.1,7,7,7.2c0.1,0,0.3,0.1,0.4,0.3c-0.3,0.1-0.7,0-0.8-0.2c-0.1,0-0.2,0-0.3,0.1c0.1,0.1,0.2,0.1,0.2,0.3
			c-0.2,0-0.4-0.1-0.4-0.2C6,7.5,6,7.6,6,7.6V8L5.7,7.8V7.5H5.5c0,0.2-0.1,0.2-0.3,0.2c0.1-0.1,0.1-0.2,0.2-0.2
			C5.2,7.4,5.2,7.4,5.1,7.3C4.9,7.5,4.6,7.7,4.3,7.5c0.2-0.1,0.3-0.2,0.5-0.3C4.6,7.2,4.6,7,4.5,6.9C4.3,7.2,4.1,7.2,3.7,7
			C3.8,6.9,4,6.8,4.2,6.8C4.1,6.6,4.1,6.6,4,6.4C3.7,6.6,3.5,6.6,3.3,6.5c0.1-0.1,0.2-0.2,0.4-0.2C3.7,5.8,3.6,5.8,3.5,5.6"/>
		<path id="Path_640" d="M12.9,3.7L13,3.9h0.2V3.4l-0.4-0.2v0.3C12.9,3.5,12.9,3.6,12.9,3.7"/>
		<path id="Path_641" d="M13.7,12c0-0.1-0.1-0.2-0.3-0.3c0,0.2,0,0.3,0,0.5C13.6,12.2,13.7,12,13.7,12"/>
		<path id="Path_642" d="M12.2,10.3c0,0.1,0.2,0.2,0.5,0.4c0-0.4,0-0.8-0.1-1C12.3,10,12.1,10.2,12.2,10.3"/>
		<path id="Path_643" d="M13.1,11.5L13,11.4c0,0.4,0,0.9,0,1.3l0.1,0.1C13.1,12.4,13.1,12,13.1,11.5"/>
		<path id="Path_644" d="M11.9,3.7c-0.2-0.1-0.2-0.2-0.2-0.2c0-0.1,0-0.1-0.1-0.1c-0.2,0-0.3,0.1-0.4,0.2c-0.1,0.2,0,0.7,1.1,1.8
			c0.1,0.1,0.1,0.1,0.2,0.2V3.9C12.3,3.9,12.1,3.9,11.9,3.7"/>
		<path id="Path_645" d="M11.9,3.6C11.9,3.6,12,3.6,11.9,3.6c0.1,0,0.1,0,0.1,0C12,3.5,12,3.5,11.9,3.6l-0.1-0.1
			C11.9,3.5,11.9,3.5,11.9,3.6C11.9,3.5,11.9,3.5,11.9,3.6L11.9,3.6"/>
		<path id="Path_646" d="M12.1,3.3C12.2,3.3,12.2,3.3,12.1,3.3L12.1,3.3c0.1-0.1,0-0.2-0.1-0.2h-0.1v0.1C12.1,3.2,12.1,3.3,12.1,3.3
			"/>
		<path id="Path_647" d="M13.3,8.8C13.7,8.6,14,8.4,14,8.1c0.1-0.3-0.2-0.7-0.7-1C13.4,7.6,13.4,8.3,13.3,8.8"/>
		<path id="Path_648" d="M16.3,0.9H9.8V18C19.2,12.8,16.9,2.4,16.3,0.9 M14.6,8.3c-0.1,0.4-0.5,0.8-1.3,1.2c0,0.4,0,1,0,1.6h0.1
			c0.7,0.2,0.8,0.7,0.8,0.8c-0.1,0.3-0.4,0.7-0.9,0.8c0,0.1,0,0.2,0,0.4c0.1,0.1,0.1,0.2,0.1,0.3s-0.1,0.2-0.1,0.2
			c0,0.1,0,0.1,0,0.1l0,0l0,0c0,0.1-0.1,0.2-0.2,0.2s-0.2-0.1-0.2-0.2h-0.1c-0.1,0-0.1,0.1-0.2,0.1c0,0-0.1,0-0.1-0.1
			c0-0.1,0-0.1,0.1-0.1c0.1-0.1,0.1-0.1,0.2-0.2c0-0.1,0-0.2,0-0.2s-0.1,0-0.1-0.1c-0.2-0.1-0.3-0.3-0.3-0.4
			c0.1-0.2,0.2-0.3,0.4-0.4c0-0.3,0-0.7,0-1c-0.1-0.1-0.2-0.1-0.4-0.1c-0.7-0.2-0.8-0.7-0.8-0.9c0.1-0.5,0.4-1,1-1.2
			c-0.1-1.5-0.2-1.9-0.4-2L12,6.9l0.2-0.5l0.2,0.1V6.3c-0.1-0.1-0.1-0.2-0.3-0.3c-0.1-0.1-0.9-1-1-1.1c-0.2-0.2-0.3-0.4-0.4-0.8
			c-0.1-0.3-0.1-0.7,0.1-1c0.2-0.2,0.5-0.3,1-0.2c0.1,0,0.1,0.1,0.2,0c0.1,0,0.1,0,0.1,0c0.1,0,0.2,0.1,0.2,0.1
			c0.1,0.1,0.1,0.1,0.1,0.1V2.5l1,0.5v0.7c0.1-0.1,0.2-0.2,0.3-0.2h0.1L14,4.3l-0.1,0.1c-0.2,0.2-0.4,0.7-0.7,1.9
			C14.3,7.3,14.6,7.8,14.6,8.3"/>
		<path id="Path_649" d="M13.8,4.4l-0.1-0.5c-0.1,0.1-0.2,0.2-0.3,0.4l-0.2-0.1V4l0,0v0.2h-0.1l-0.2-0.3h-0.1c0,0,0,0-0.1,0v1.9
			c0.2,0.1,0.3,0.3,0.5,0.4C13.3,5.1,13.5,4.6,13.8,4.4"/>
		<path id="Path_650" d="M13,13.3c0,0.1,0,0.2,0,0.4c0,0.1,0.1,0.1,0.1,0c0-0.1,0-0.2,0-0.4C13.1,13.4,13,13.3,13,13.3"/>
		<path id="Path_651" d="M12.7,6.6V7l-0.2-0.2l-0.1,0.1c0.2,0.2,0.4,0.7,0.7,4c0.1,0,0.1,0.1,0.1,0.1c0-1.9,0-3.2,0.1-4.1
			c-0.1-0.1-0.2-0.2-0.3-0.2L12.7,6.6"/>
		<rect id="Rectangle_69" x="5.5" y="10" width="1.2" height="0.4"/>
		<rect id="Rectangle_70" x="6.3" y="11.7" width="1.2" height="0.4"/>
		<rect id="Rectangle_71" x="5.4" y="10.9" width="0.4" height="1.2"/>
		<rect id="Rectangle_72" x="7.1" y="12.4" width="0.3" height="0.3"/>
		<rect id="Rectangle_73" x="7" y="10" width="0.4" height="1.2"/>
		<rect id="Rectangle_74" x="6.3" y="10.9" width="0.3" height="0.3"/>
		<rect id="Rectangle_75" x="6.3" y="12.4" width="0.4" height="1.2"/>
		<rect id="Rectangle_76" x="7.8" y="11.7" width="0.4" height="1.2"/>
		<path id="Path_652" d="M2.5,8.5c0.7,4.1,3.3,7.6,6.9,9.6V8.5H2.5z M8.7,14.1H5.9v-1.5H5.1V9.8h2.7v1.5h0.8v2.7H8.7z"/>
		<rect id="Rectangle_77" x="7" y="13.2" width="1.2" height="0.4"/>
	</g>
	<g>
		<path d="M21.2,12.6h1.3l0.9,2.4c0.1,0.3,0.2,0.7,0.3,1l0,0c0.1-0.3,0.2-0.7,0.2-1l0.8-2.4H26V18h-1.1v-2c0-0.5,0.1-1.3,0.1-1.9
			l0,0l-0.4,1.3l-0.8,2.1h-0.7l-0.8-2.1L22,14.2l0,0c0.1,0.5,0.1,1.3,0.1,1.9v2H21L21.2,12.6L21.2,12.6z"/>
		<path d="M29.2,12.6h3.4v1h-2.1v1.1h1.9v1h-1.9V17h2.2v1h-3.4v-5.4H29.2z"/>
		<path d="M35.5,12.6H37c1.6,0,2.6,0.8,2.6,2.6s-1,2.6-2.6,2.6h-1.5C35.5,18,35.5,12.6,35.5,12.6z M36.9,17c0.9,0,1.5-0.4,1.5-1.8
			s-0.7-1.6-1.5-1.6h-0.2V17H36.9L36.9,17z"/>
		<path d="M42.4,12.6h1.2V18h-1.2V12.6z"/>
		<path d="M46.5,15.4c0-1.8,1.2-2.9,2.5-2.9c0.7,0,1.2,0.3,1.6,0.7L50,14c-0.2-0.2-0.5-0.4-1-0.4c-0.8,0-1.3,0.7-1.3,1.8
			S48.1,17,49,17c0.4,0,0.8-0.2,1-0.4l0.7,0.8c-0.4,0.5-1,0.8-1.8,0.8C47.6,18.1,46.5,17.2,46.5,15.4z"/>
		<path d="M53.2,12.6h1.2V18h-1.2V12.6z"/>
		<path d="M57.5,12.6h1.2l1.3,2.6l0.5,1.2l0,0c0-0.5-0.1-1.3-0.1-2v-1.9h1.2V18h-1.2l-1.3-2.6l-0.5-1.2l0,0c0.1,0.7,0.1,1.3,0.1,1.9
			v1.9h-1.2C57.5,17.9,57.5,12.6,57.5,12.6z"/>
		<path d="M65.7,12.6h1.4l1.6,5.4h-1.3l-0.3-1.3h-1.6L65.2,18h-1.1L65.7,12.6z M65.8,15.8H67l-0.1-0.4c-0.1-0.5-0.2-1.2-0.4-1.8l0,0
			c-0.1,0.5-0.2,1.2-0.4,1.8L65.8,15.8z"/>
	</g>
	<g>
		<path d="M0,26.3h3.4v1H1.2v1.2h1.9v1H1.2v2.1H0V26.3z"/>
		<path d="M3.7,30.6c0-0.8,0.7-1.3,2.3-1.5c0-0.3-0.2-0.7-0.7-0.7c-0.3,0-0.7,0.1-1.1,0.3l-0.4-0.8c0.5-0.3,1.1-0.5,1.8-0.5
			c1,0,1.6,0.7,1.6,1.9v2.3h-1l-0.1-0.4l0,0c-0.3,0.2-0.8,0.5-1.2,0.5C4.2,31.8,3.7,31.2,3.7,30.6z M6,30.5v-0.7
			c-0.8,0.1-1.2,0.3-1.2,0.7c0,0.2,0.2,0.4,0.4,0.4C5.6,30.8,5.7,30.7,6,30.5z"/>
		<path d="M8,29.7c0-1.3,1-2.1,2.1-2.1c0.4,0,0.9,0.2,1.2,0.4l-0.5,0.8c-0.2-0.1-0.3-0.2-0.5-0.2c-0.7,0-1,0.4-1,1.2
			c0,0.7,0.4,1.2,0.9,1.2c0.2,0,0.5-0.1,0.8-0.2l0.4,0.8C10.9,31.9,10.4,32,10,32C8.8,31.8,8,31,8,29.7z"/>
		<path d="M12.1,30.1v-2.5h1.2V30c0,0.7,0.1,0.8,0.4,0.8c0.2,0,0.4-0.1,0.8-0.4v-2.6h1.2v4.1h-1l-0.1-0.5l0,0
			c-0.3,0.4-0.8,0.7-1.3,0.7C12.4,31.8,12.1,31.1,12.1,30.1z"/>
		<path d="M16.7,30.5v-4.6h1.2v4.5c0,0.2,0.1,0.3,0.2,0.3s0.1,0,0.1,0l0.1,0.9c-0.1,0.1-0.3,0.1-0.7,0.1
			C17,31.8,16.7,31.2,16.7,30.5z"/>
		<path d="M18.9,29.7c0-1.3,0.8-2.1,1.8-2.1c0.4,0,0.8,0.1,1,0.4l-0.1-0.7v-1.3h1.2v5.7h-1v-0.4l0,0c-0.2,0.2-0.7,0.4-1.1,0.4
			C19.6,31.8,18.9,31,18.9,29.7z M21.5,30.5v-1.6c-0.2-0.2-0.4-0.2-0.7-0.2c-0.4,0-0.8,0.3-0.8,1.2s0.2,1.2,0.8,1.2
			C21.1,30.8,21.3,30.7,21.5,30.5z"/>
		<path d="M23.6,30.6c0-0.8,0.7-1.3,2.3-1.5c0-0.3-0.2-0.7-0.7-0.7c-0.3,0-0.7,0.1-1.1,0.3l-0.4-0.8c0.5-0.3,1.1-0.5,1.8-0.5
			c1,0,1.6,0.7,1.6,1.9v2.3h-1L26,31.1l0,0c-0.3,0.2-0.8,0.5-1.2,0.5C24.1,31.8,23.6,31.2,23.6,30.6z M25.9,30.5v-0.7
			c-0.8,0.1-1.2,0.3-1.2,0.7c0,0.2,0.2,0.4,0.4,0.4C25.5,30.8,25.7,30.7,25.9,30.5z"/>
		<path d="M27.9,29.7c0-1.3,0.8-2.1,1.8-2.1c0.4,0,0.8,0.1,1,0.4l-0.1-0.7v-1.3h1.3v5.7h-1v-0.4l0,0c-0.2,0.2-0.7,0.4-1.1,0.4
			C28.6,31.8,27.9,31,27.9,29.7z M30.6,30.5v-1.6c-0.2-0.2-0.4-0.2-0.7-0.2c-0.4,0-0.8,0.3-0.8,1.2s0.2,1.2,0.8,1.2
			C30.1,30.8,30.3,30.7,30.6,30.5z"/>
		<path d="M32.6,29.7c0-1.3,1-2.1,1.9-2.1c1.2,0,1.8,0.8,1.8,2c0,0.2,0,0.4-0.1,0.5h-2.4c0.1,0.7,0.5,0.9,1,0.9
			c0.2,0,0.7-0.1,0.9-0.2l0.4,0.8c-0.4,0.2-1,0.4-1.4,0.4C33.5,31.8,32.6,31,32.6,29.7z M35.2,29.1c0-0.4-0.2-0.8-0.7-0.8
			s-0.7,0.2-0.8,0.8H35.2z"/>
		<path d="M38.5,29.7c0-1.3,0.8-2.1,1.8-2.1c0.4,0,0.8,0.1,1,0.4l-0.1-0.7v-1.3h1.2v5.7h-1l0.1-0.4l0,0c-0.2,0.2-0.7,0.4-1.1,0.4
			C39.2,31.8,38.5,31,38.5,29.7z M41.2,30.5v-1.6c-0.2-0.2-0.4-0.2-0.7-0.2c-0.4,0-0.8,0.3-0.8,1.2S40,31,40.6,31
			C40.8,30.8,41,30.7,41.2,30.5z"/>
		<path d="M43.2,29.7c0-1.3,1-2.1,1.9-2.1c1.2,0,1.8,0.8,1.8,2c0,0.2,0,0.4-0.1,0.5h-2.4c0.1,0.7,0.5,0.9,1,0.9
			c0.2,0,0.7-0.1,0.9-0.2l0.4,0.8c-0.4,0.2-1,0.4-1.4,0.4C44.1,31.8,43.2,31,43.2,29.7z M45.8,29.1c0-0.4-0.2-0.8-0.7-0.8
			c-0.4,0-0.7,0.2-0.8,0.8H45.8z"/>
		<path d="M49.5,26.3h1.3l0.9,2.4c0.1,0.3,0.2,0.7,0.3,1l0,0c0.1-0.3,0.2-0.7,0.2-1l0.8-2.4h1.3v5.4h-1.1v-2c0-0.5,0.1-1.3,0.1-1.9
			l0,0l-0.2,1.3l-0.8,2.1h-0.7l-0.8-2.1l-0.4-1.3l0,0c0.1,0.5,0.1,1.3,0.1,1.9v2h-1.1V26.3z"/>
		<path d="M55.4,29.7c0-1.3,1-2.1,1.9-2.1c1.2,0,1.8,0.8,1.8,2c0,0.2,0,0.4-0.1,0.5h-2.4c0.1,0.7,0.5,0.9,1,0.9
			c0.2,0,0.7-0.1,0.9-0.2l0.4,0.8c-0.4,0.2-1,0.4-1.4,0.4C56.3,31.8,55.4,31,55.4,29.7z M58,29.1c0-0.4-0.2-0.8-0.7-0.8
			c-0.4,0-0.7,0.2-0.8,0.8H58z"/>
		<path d="M59.7,29.7c0-1.3,0.8-2.1,1.8-2.1c0.4,0,0.8,0.1,1,0.4l-0.1-0.7v-1.3h1.2v5.7h-0.9l-0.1-0.4l0,0c-0.2,0.2-0.7,0.4-1.1,0.4
			C60.3,31.8,59.7,31,59.7,29.7z M62.3,30.5v-1.6c-0.2-0.2-0.4-0.2-0.7-0.2c-0.4,0-0.8,0.3-0.8,1.2s0.2,1.2,0.8,1.2
			C62,30.8,62.1,30.7,62.3,30.5z"/>
		<path d="M64.5,26.4c0-0.3,0.2-0.7,0.7-0.7c0.4,0,0.7,0.2,0.7,0.7s-0.2,0.5-0.7,0.5C64.8,26.9,64.5,26.7,64.5,26.4z M64.6,27.6h1.2
			v4.1h-1.2V27.6z"/>
		<path d="M66.6,29.7c0-1.3,1-2.1,2.1-2.1c0.4,0,0.9,0.2,1.2,0.4l-0.5,0.8c-0.2-0.1-0.3-0.2-0.5-0.2c-0.7,0-1,0.4-1,1.2
			c0,0.7,0.4,1.2,0.9,1.2c0.2,0,0.5-0.1,0.8-0.2l0.4,0.8C69.5,31.9,69,32,68.6,32C67.5,31.8,66.6,31,66.6,29.7z"/>
		<path d="M70.7,26.4c0-0.3,0.2-0.7,0.7-0.7s0.7,0.2,0.7,0.7s-0.2,0.5-0.7,0.5S70.7,26.7,70.7,26.4z M70.7,27.6h1.2v4.1h-1.2V27.6z"
			/>
		<path d="M73,27.6h1l0.1,0.5l0,0c0.3-0.3,0.8-0.7,1.3-0.7c0.9,0,1.2,0.7,1.2,1.6v2.5h-1.2v-2.4c0-0.7-0.1-0.8-0.4-0.8
			c-0.2,0-0.4,0.1-0.8,0.4v2.7h-1.1L73,27.6L73,27.6z"/>
		<path d="M77.5,30.6c0-0.8,0.7-1.3,2.3-1.5c0-0.3-0.2-0.7-0.7-0.7c-0.3,0-0.7,0.1-1.1,0.3l-0.4-0.8c0.5-0.3,1.1-0.5,1.8-0.5
			c1,0,1.6,0.7,1.6,1.9v2.3h-1l-0.1-0.4l0,0c-0.3,0.2-0.8,0.5-1.2,0.5C77.9,31.8,77.5,31.2,77.5,30.6z M79.8,30.5v-0.7
			c-0.8,0.1-1.2,0.3-1.2,0.7c0,0.2,0.2,0.4,0.4,0.4C79.5,30.8,79.6,30.7,79.8,30.5z"/>
	</g>
</g>
</svg>
