<?xml version="1.0" encoding="utf-8"?>
<!-- Generator: Adobe Illustrator 26.0.1, SVG Export Plug-In . SVG Version: 6.00 Build 0)  -->
<svg version="1.1" id="Layer_1" xmlns="http://www.w3.org/2000/svg" xmlns:xlink="http://www.w3.org/1999/xlink" x="0px" y="0px"
	 viewBox="0 0 119 32" style="enable-background:new 0 0 119 32;" xml:space="preserve">
<style type="text/css">
	.st0{font-family:'SourceSansPro-Bold';}
	.st1{font-size:13.7845px;}
</style>
<g>
	<path id="Path_631" d="M56.7,17.2c-1.5,0.2-2.8-0.8-3-2.4c0-0.1,0-0.3,0-0.5c-0.1-1.2,0.8-2.5,2-2.8c1.9-0.7,2.3-0.7,3.5-1.1v-0.3
		c0-0.3,0-0.8-0.1-1.1c-0.3-0.7-1-1.1-1.9-1.1s-1.5,0.3-2,1L55,9.1l-0.6-0.2V8.7c0.6-1.4,2-2.4,3.5-2.3c1.2-0.1,2.4,0.3,2.9,1.4
		c0.3,0.8,0.6,1.8,0.5,2.7c0,0.9,0,1.9,0,2.7c0,0.6,0,1,0,1.2c0,0.7,0.1,1.2,0.7,1.2c0.1,0,0.2,0,0.3-0.1l0.1-0.1l0.3,0.3l-0.1,0.1
		c-0.5,0.7-1.1,1.1-2.1,1.1c-0.7,0.1-1.4-0.3-1.6-1C58.5,16.7,57.6,17.2,56.7,17.2 M59.2,11.8c-0.8,0.2-1.5,0.5-2.3,0.8
		c-0.6,0.3-0.9,0.9-0.9,1.6c-0.1,0.7,0.5,1.4,1.2,1.5l0,0c0.1,0,0.2,0,0.3,0c0.6,0,1.1-0.1,1.6-0.5V11.8z"/>
	<path id="Path_632" d="M39.6,17.1c-1.1,0-2.4-0.1-3.4-0.5h-0.1v-0.7c0-1,0-1.4,0-1.8v-0.5h0.6v0.2c0,0.5,0.2,0.9,0.5,1.2
		c0.7,0.6,1.5,0.8,2.5,0.8c2,0,2.9-0.7,2.9-2.4c0-1.4-0.8-2-2-2.7l-0.2-0.1L39,10c-1.8-1.1-2.6-2.1-2.6-3.8c0-0.9,0.3-3.8,4.6-3.8
		c1,0,2.1,0.1,3.3,0.2h0.2v0.2c0,0,0,0.6,0,1.1c0,0.5,0,0.9,0,1.2v0.6H44V5.5c0-0.5-0.2-0.9-0.5-1.2c-0.7-0.6-1.5-0.8-2.4-0.7
		c-2.4,0-2.6,1.1-2.6,2.1c0,1.1,0.6,1.6,2,2.6l1.5,1c1.2,0.9,2.6,1.8,2.6,3.9C44.6,16.7,41.1,17.1,39.6,17.1"/>
	<path id="Path_633" d="M49.8,17.2c-1.2,0.2-2.6-0.6-2.9-1.9c-0.1-0.7-0.2-1.4-0.1-2.1c0-1.6,0-3,0-4.5V8.1h-1.4V7.6h0.1
		c0.5-0.1,0.8-0.3,1.1-0.7c0.7-0.6,1.2-1.2,1.7-2l0.2-0.5h0.5v2.4h3.5v1.2h-3.5v5.5c0,1.6,0.3,2.6,1.9,2.6c0.5,0,0.8-0.1,1.2-0.2
		l0.2-0.1l0.2,0.5l-0.1,0.1C51.8,16.8,50.9,17.3,49.8,17.2"/>
	<path id="Path_634" d="M63.8,17.1v-0.5H64c0.3,0,0.7-0.2,0.9-0.5c0.3-0.3,0.3-1.2,0.3-3v-2.9c0.1-0.7,0-1.4-0.2-2.1
		c-0.2-0.1-0.6-0.2-0.9-0.2c0,0,0,0-0.1,0h-0.2V7.2H64h0.1c0.6,0,1.2-0.1,1.9-0.2c0.5-0.1,0.9-0.2,1.2-0.3h0.1h0.1v0.8
		c0.8-0.6,1.9-0.9,3-1c1.6-0.2,3,0.8,3.4,2.5C74,9.4,74,10.1,74,10.8v3c0,1.8,0.1,2.3,0.3,2.5c0.2,0.1,0.5,0.2,0.8,0.2h0.2v0.7h-0.5
		c-0.7,0-1.4-0.1-2.1-0.1s-1.5,0-2.4,0.1h-0.2v-0.5h0.2c0.3,0,0.6-0.1,0.8-0.3c0.3-0.6,0.5-1.1,0.3-1.9c0-0.1,0-0.2,0-0.3
		c0-0.3,0-1.1,0-1.8c0-0.8,0-1.6-0.1-2.4c0-1-0.8-2-1.9-2c-0.1,0-0.2,0-0.2,0c-0.7,0-1.2,0.1-2,0.5v5.5c0,1.8,0.1,2.3,0.3,2.5
		c0.2,0.1,0.5,0.2,0.8,0.2h0.2v0.5h-0.5c-0.7,0-1.2-0.1-2-0.1C65.4,17,64.6,17,63.8,17.1L63.8,17.1z"/>
	<path id="Path_635" d="M76.7,17.1v-0.5H77c0.3,0,0.7-0.1,0.9-0.5c0.3-0.3,0.3-1.2,0.3-3V8.1h-1.4V7.4H77c0.5-0.1,0.8-0.3,1.1-0.6
		c0-0.9,0-1.9,0.1-2.8c0.3-2.1,2.3-3.5,4.2-3.3c0.9,0,1.8,0.2,2.6,0.8l0.1,0.2V2l-1,1.4h-0.2V3.2C83.6,2.4,82.9,2,82,2
		c-0.3,0-0.7,0.1-1,0.3c-0.5,0.5-0.5,1.1-0.5,2.5v2h2.3v1.2h-2.3v5.7c-0.1,0.8,0,1.5,0.2,2.4c0.2,0.5,1.1,0.5,1.4,0.5h0.2v0.6h-0.2
		c-1.1-0.1-2-0.1-2.6-0.1c-0.8,0-1.6,0-2.6,0.1L76.7,17.1L76.7,17.1z"/>
	<path id="Path_636" d="M88.6,17.2c-3.2,0-5-2-5-5.3c0-2.6,1.4-5.6,5.3-5.6c3.2,0,5,2,5,5.3C93.8,14.3,92.4,17.2,88.6,17.2
		 M88.7,7.6c-0.6,0-1,0.1-1.5,0.5c-0.9,1-1.4,2.4-1.2,3.7c0,0.7,0.1,4.2,2.7,4.2c0.6,0,1-0.1,1.5-0.5c0.9-1,1.4-2.5,1.2-3.7
		C91.4,11.1,91.3,7.6,88.7,7.6"/>
	<path id="Path_637" d="M94.9,17.1v-0.5h0.2c0.3,0,0.7-0.1,0.9-0.5c0.3-0.3,0.3-1.1,0.3-2.9v-3c0.1-0.7,0-1.4-0.2-2.1
		c-0.3-0.1-0.6-0.2-0.9-0.2c0,0,0,0-0.1,0h-0.2V7.1h0.3c0.6,0,1.2-0.1,1.9-0.2c0.3,0,0.7-0.1,1.1-0.3h0.1l0.2,0.1v0.9
		c0.6-0.6,1.4-0.9,2.4-0.9c0.6,0,1.2,0.1,1.8,0.6l0.1,0.1v0.3l-0.9,1.7h-0.5l-0.1-0.1c-0.3-0.6-1-0.9-1.6-0.8
		c-0.3,0-0.8,0.1-1.1,0.3V14c-0.1,0.8,0,1.5,0.2,2.4c0.3,0.5,1.1,0.5,1.4,0.5h0.2v0.3h-0.2c-1.1-0.1-2-0.1-2.6-0.1
		c-0.8,0-1.6,0-2.6,0.1L94.9,17.1L94.9,17.1z"/>
	<path id="Path_638" d="M111.1,17.2l-0.2-0.1v-0.8c-0.8,0.6-1.9,0.9-2.9,0.9c-2.8,0-4.6-2-4.6-5c0-0.9,0.2-1.9,0.6-2.8
		c0.9-1.9,2.8-3,4.8-2.9c0.7,0,1.4,0.1,2,0.2V4.6c0.1-0.8,0-1.5-0.2-2.3c-0.1-0.3-0.5-0.5-0.8-0.5h-0.1h-0.2V1.4h0.2
		c0.7-0.1,1.5-0.1,2.3-0.3c0.3,0,0.7-0.1,1-0.2h0.1l0.2,0.1v0.1c-0.1,0.8-0.1,2.7-0.1,4.1v8.3c-0.1,0.8,0,1.5,0.2,2.4
		c0.2,0.2,0.6,0.3,0.9,0.3h0.1h0.2v0.6h-0.2c-0.7,0-1.4,0.1-2,0.2C111.8,17,111.5,17.1,111.1,17.2L111.1,17.2z M108.7,7.8
		c-2.1,0-3,1.2-3,4.2c0,1.1,0.3,3.8,3.4,3.8h0.1c0.6,0,1.1-0.1,1.6-0.5V8.5C110.2,8,109.4,7.6,108.7,7.8"/>
	<path id="Path_639" d="M16.5,14.4V2.2H5.6c-1.2,3.9-1.5,8.1-0.8,12.2H16.5z M6.5,10.2c-0.1,0-0.2,0-0.3-0.1S6,9.6,6.2,9.5
		c0.1-0.1,0.5,0,0.5,0.2c0.1,0,0.1,0.2,0.1,0.3c0.2,0.1,0.3,0.3,0.5,0.5c0-0.3,0-0.8,0.2-1.1c0.3,0.3,0.3,0.9,0.1,1.4
		C7.6,11,7.9,11.1,8,11.3c0-0.3,0-0.7,0.1-1c0.2,0.3,0.3,0.9,0.2,1.4c0.1,0.1,0.3,0.2,0.5,0.3c-0.1-0.3-0.1-0.7,0-1
		c0.2,0.2,0.5,0.8,0.3,1.2c0.2,0.2,0.3,0.2,0.6,0.3c-0.1-0.2-0.1-0.5-0.1-0.7c0.2,0.1,0.5,0.5,0.3,0.7l0.2,0.1V12
		c-0.5-0.2-0.8-0.6-0.9-1c0.3,0,0.7,0.2,0.9,0.3V11c-0.8-0.1-1.4-0.7-1.6-1.5c0.6,0.1,1.1,0.3,1.6,0.7V9.9C9.4,9.8,9,9.2,8.8,8.6
		c0.6,0.1,1,0.3,1.4,0.6V8.9C9.4,8.7,9,8.2,8.8,7.5c0.6,0.1,1,0.3,1.4,0.6V7.5c-0.7,0-1.2-0.6-1.4-1.1c0.5,0.1,0.9,0.3,1.4,0.7V6.5
		c-0.5,0-0.8-0.3-1-1.1c0.3,0.1,0.8,0.2,1,0.6V5.4C9.8,5.3,9.4,5.1,9.3,4.5c0.3,0,0.6,0.1,0.8,0.3V4.6c-0.2-0.5-0.2-0.7-0.1-1
		c0-0.2,0.1-0.5,0.3-0.5c0.5,0,0.5,0.2,0.6,0.5c0.1,0.2,0,0.6-0.1,0.8v0.3c0.1,0,0.5-0.1,0.7-0.2c-0.1,0.7-0.5,0.8-0.8,0.9v0.6
		c0.3-0.2,0.7-0.5,1-0.6c-0.2,0.8-0.6,1.1-1,1.1v0.6c0.3-0.3,0.8-0.6,1.2-0.7c-0.1,0.7-0.7,1.1-1.2,1.2v0.5c0.5-0.3,0.9-0.6,1.4-0.7
		c-0.1,0.8-0.7,1.2-1.4,1.5v0.5C11.1,9,11.6,8.7,12,8.6c-0.1,0.7-0.7,1.1-1.4,1.2v0.3c0.5-0.3,1-0.6,1.6-0.8
		c-0.1,0.9-0.8,1.5-1.6,1.6v0.3c0.3-0.2,0.6-0.3,0.9-0.5c0,0.5-0.3,0.9-0.9,0.9v0.7c0.1,0,0.1,0,0.2,0c0-0.3,0.2-0.6,0.5-0.7
		c0,0.2-0.1,0.5-0.1,0.7c0.2,0,0.3-0.1,0.6-0.2c-0.1-0.5,0-0.9,0.5-1.2c0,0.3,0,0.7,0,1c0.1-0.1,0.3-0.2,0.5-0.3
		c-0.2-0.3-0.1-1,0.2-1.5c0.1,0.3,0.1,0.7,0.1,1.2c0.2-0.2,0.3-0.3,0.5-0.6c-0.2-0.5-0.2-0.8,0.1-1.5c0.1,0.3,0.2,0.7,0.2,1
		c0.2-0.2,0.3-0.3,0.5-0.6c-0.1-0.1,0-0.3,0-0.5c0.1-0.1,0.3-0.3,0.5-0.2c0.2,0.1,0.1,0.3,0,0.6c0,0.1-0.2,0.2-0.3,0.2
		c-0.1,0.2-0.2,0.5-0.5,0.6c0.3,0.1,0.6,0.2,0.8,0.5c-0.1,0.3-0.6,0.3-0.9,0c-0.1,0.2-0.3,0.5-0.5,0.6c0.3,0.1,0.6,0.2,0.8,0.5
		c-0.3,0.2-0.8,0.2-1.1-0.1c-0.2,0.2-0.5,0.3-0.7,0.5c0.3,0.1,0.6,0.3,0.7,0.6c-0.6,0.1-1,0-1.1-0.3c-0.2,0.1-0.3,0.1-0.6,0.1
		c0.1,0.1,0.3,0.2,0.3,0.5c-0.5,0-0.7-0.1-0.7-0.3c-0.1,0-0.1,0.1-0.2,0.1v0.8l-0.7-0.1V13c-0.1,0-0.1,0-0.2,0
		c-0.1,0.2-0.2,0.3-0.7,0.3c0-0.2,0.2-0.3,0.3-0.5c-0.2-0.1-0.3-0.1-0.6-0.2C8.9,13,8.4,13.2,7.9,13c0.2-0.2,0.5-0.5,0.8-0.6
		c-0.2-0.1-0.3-0.2-0.6-0.3c-0.3,0.3-0.8,0.3-1.1,0.1c0.2-0.2,0.5-0.5,0.8-0.5c-0.2-0.2-0.3-0.5-0.6-0.8c-0.5,0.3-0.9,0.3-1.2,0.1
		c0.2-0.2,0.5-0.5,0.8-0.5C6.7,10.5,6.6,10.3,6.5,10.2"/>
	<path id="Path_640" d="M22.2,6.9l0.2,0.1l0.5,0.1V6.4l-0.9-0.5v0.6C22,6.5,22.2,6.7,22.2,6.9"/>
	<path id="Path_641" d="M23.5,20.8c0-0.1-0.2-0.3-0.6-0.6v0.9C23.4,21,23.5,20.9,23.5,20.8"/>
	<path id="Path_642" d="M21,18.1c0,0.2,0.3,0.5,0.9,0.7c0-0.7,0-1.2-0.1-1.8C21.3,17.5,21,17.9,21,18.1"/>
	<path id="Path_643" d="M22.5,20.1L22.3,20c0,0.7,0,1.5,0,2.4c0,0,0.1,0.1,0.2,0.1C22.5,21.7,22.5,20.8,22.5,20.1"/>
	<path id="Path_644" d="M20.6,6.9c-0.3-0.1-0.5-0.3-0.5-0.5s0-0.1-0.1-0.1c-0.3,0-0.6,0.1-0.7,0.3c-0.1,0.3,0,1.1,1.9,2.9
		c0.1,0.1,0.2,0.2,0.3,0.3V7.2C21.3,7.1,20.9,7.1,20.6,6.9"/>
	<path id="Path_645" d="M20.6,6.7L20.6,6.7c0.1,0,0.2,0,0.2,0c0-0.1,0-0.2-0.1-0.2h-0.1c0,0-0.1,0-0.1,0.1
		C20.5,6.6,20.5,6.6,20.6,6.7L20.6,6.7"/>
	<path id="Path_646" d="M21,6.2c0.1,0,0.1,0,0.1-0.1l0,0l0,0c0-0.1-0.1-0.2-0.2-0.2h-0.1v0.1C20.8,6,20.9,6.2,21,6.2"/>
	<path id="Path_647" d="M22.9,15.5c0.7-0.3,1-0.7,1.1-1c0.1-0.6-0.3-1.1-1-1.8C22.9,13.5,22.9,14.4,22.9,15.5"/>
	<path id="Path_648" d="M27.9,2.2H17v28.7C32.7,22.1,29,4.8,27.9,2.2 M25.1,14.5c-0.1,0.8-0.9,1.4-2.3,2c0,0.8,0,1.8,0,2.7h0.1
		c1.1,0.5,1.4,1,1.4,1.4c-0.1,0.6-0.8,1-1.5,1.1v0.7c0.1,0.1,0.2,0.3,0.2,0.6c0,0.2-0.1,0.3-0.2,0.5v0.3c0,0.2-0.2,0.3-0.5,0.3
		c-0.2,0-0.3-0.1-0.5-0.3h-0.1c-0.1,0-0.2,0.1-0.2,0.1s-0.1,0-0.1-0.1s0-0.1,0.1-0.2c0.1-0.1,0.2-0.2,0.3-0.3v-0.5
		c0,0-0.1,0-0.1-0.1c-0.5-0.2-0.6-0.6-0.5-0.8c0.1-0.3,0.5-0.6,0.7-0.6c0-0.6,0-1.1,0-1.6c-0.2-0.1-0.5-0.2-0.7-0.2
		c-1-0.5-1.2-1-1.2-1.5c0.2-0.9,0.8-1.8,1.8-2.1c-0.2-2.7-0.5-3.2-0.8-3.3l-0.2-0.2l0.5-0.9l0.3,0.2v-0.2c-0.2-0.2-0.3-0.3-0.6-0.6
		c-0.2-0.3-1.6-1.7-1.7-1.8c-0.3-0.3-0.6-0.8-0.7-1.2c-0.2-0.6-0.2-1.1,0.1-1.6c0.3-0.6,1-0.7,1.5-0.6c0.1,0,0.2,0.1,0.3,0
		c0.2,0,0.2,0,0.3,0s0.3,0.1,0.5,0.1c0.1,0.1,0.2,0.1,0.2,0.2V5.3l1.4,0.9v1c0.1-0.2,0.3-0.3,0.6-0.5h0.2l0.2,1.4L24,8.2
		c-0.5,0.5-0.8,1-1,3.2C24.5,12.8,25.2,13.7,25.1,14.5"/>
	<path id="Path_649" d="M23.7,8.1l-0.1-0.8c-0.2,0.1-0.3,0.3-0.6,0.6h-0.3V7.3h-0.1v0.3h-0.1l-0.3-0.5l-0.2-0.1c0,0,0,0-0.1,0v3.2
		c0.3,0.2,0.6,0.6,0.8,0.8C22.8,9.1,23.2,8.5,23.7,8.1"/>
	<path id="Path_650" d="M22.4,23c0,0.2,0,0.5,0,0.8c0,0.1,0.1,0.1,0.2,0v-0.7C22.5,23.1,22.5,23.1,22.4,23"/>
	<path id="Path_651" d="M21.9,11.8v0.8l-0.5-0.3l-0.1,0.2c0.3,0.3,0.8,1,1,6.6c0.1,0,0.1,0.1,0.2,0.1c0-3,0-5.3,0.1-6.9
		c-0.1-0.1-0.3-0.3-0.6-0.5L21.9,11.8"/>
	<rect id="Rectangle_69" x="9.7" y="17.5" width="2" height="0.8"/>
	<rect id="Rectangle_70" x="11.1" y="20.2" width="2" height="0.8"/>
	<rect id="Rectangle_71" x="9.7" y="19.1" width="0.8" height="2"/>
	<rect id="Rectangle_72" x="12.5" y="21.7" width="0.6" height="0.6"/>
	<rect id="Rectangle_73" x="12.3" y="17.5" width="0.8" height="2"/>
	<rect id="Rectangle_74" x="11.1" y="19" width="0.6" height="0.6"/>
	<rect id="Rectangle_75" x="11.1" y="21.7" width="0.8" height="2"/>
	<rect id="Rectangle_76" x="13.6" y="20.2" width="0.8" height="2"/>
	<path id="Path_652" d="M4.8,14.9c1.1,6.9,5.5,12.8,11.6,16v-16H4.8z M15.2,24.2h-4.6v-2.6H9V17h4.6v2.7H15L15.2,24.2z"/>
	<rect id="Rectangle_77" x="12.5" y="22.8" width="2" height="0.8"/>
	<text transform="matrix(1 0 0 1 35.0121 30.9133)" class="st0 st1">MEDICINA</text>
</g>
</svg>
