<svg id="Layer_1" data-name="Layer 1" xmlns="http://www.w3.org/2000/svg" viewBox="0 0 120.011 9.835"><path id="Path_639" data-name="Path 639" d="M4.279,15.433v-4.02H.7a8.506,8.506,0,0,0-.282,4.02ZM1.014,14.048A.11.11,0,0,1,.91,14c-.041-.052-.078-.162-.011-.2.041-.036.137.016.169.075A.133.133,0,0,1,1.076,14c.034.053.072.106.106.154a.658.658,0,0,1,.058-.371.391.391,0,0,1,.036.47c.05.062.1.123.159.18a.763.763,0,0,1,.038-.358.473.473,0,0,1,.087.473,1.421,1.421,0,0,0,.156.122.8.8,0,0,1-.015-.364.47.47,0,0,1,.154.436.9.9,0,0,0,.182.067.524.524,0,0,1-.052-.227.243.243,0,0,1,.13.233c.017,0,.064.022.08.023l0-.242a.4.4,0,0,1-.318-.294.7.7,0,0,1,.318.13v-.128a.647.647,0,0,1-.539-.474,1.457,1.457,0,0,1,.539.233v-.113a.575.575,0,0,1-.445-.434,1.092,1.092,0,0,1,.445.2v-.142a.575.575,0,0,1-.445-.443,1.124,1.124,0,0,1,.445.2v-.158a.49.49,0,0,1-.445-.395,1.136,1.136,0,0,1,.445.211v-.175c-.142-.016-.277-.1-.349-.382a.758.758,0,0,1,.349.185v-.183c-.11-.019-.211-.064-.267-.279a.493.493,0,0,1,.268.114v-.11a.32.32,0,0,1-.055-.277c.009-.089.042-.155.139-.16s.129.071.139.16a.32.32,0,0,1-.056.277v.113a.687.687,0,0,1,.272-.127c-.048.217-.154.272-.27.292l0,.182a1,1,0,0,1,.346-.2c-.062.275-.195.376-.343.4V13a1.472,1.472,0,0,1,.439-.233.493.493,0,0,1-.439.408v.166A1.4,1.4,0,0,1,2.8,13.12a.588.588,0,0,1-.438.459v.14A1.4,1.4,0,0,1,2.8,13.5a.536.536,0,0,1-.44.452v.113a1.887,1.887,0,0,1,.537-.253.642.642,0,0,1-.536.491v.131a.961.961,0,0,1,.323-.145.4.4,0,0,1-.324.306v.245a.529.529,0,0,0,.079-.008.271.271,0,0,1,.151-.243.692.692,0,0,1-.053.225,1.007,1.007,0,0,0,.177-.055.479.479,0,0,1,.151-.439,1.1,1.1,0,0,1-.011.357,1.44,1.44,0,0,0,.187-.133.453.453,0,0,1,.075-.485,1.181,1.181,0,0,1,.043.369,2.212,2.212,0,0,0,.168-.193c-.094-.113-.1-.226.014-.447a.945.945,0,0,1,.076.331,1.309,1.309,0,0,0,.124-.189.126.126,0,0,1,.017-.139c.041-.052.1-.1.158-.062.076.035.038.12.012.182a.109.109,0,0,1-.11.072,1.592,1.592,0,0,1-.144.21.568.568,0,0,1,.267.139.306.306,0,0,1-.347-.016,2.633,2.633,0,0,1-.189.207.557.557,0,0,1,.269.154.334.334,0,0,1-.395-.033,1.416,1.416,0,0,1-.189.148.658.658,0,0,1,.249.2c-.207.047-.341-.011-.4-.126a.965.965,0,0,1-.18.057.437.437,0,0,1,.128.155c-.141,0-.221-.037-.242-.123-.029,0-.057.021-.086.021v.276l-.173-.075v-.2a.646.646,0,0,1-.076-.018c-.025.082-.087.113-.223.116A.263.263,0,0,1,2,14.924a1.122,1.122,0,0,1-.183-.076c-.053.129-.175.182-.393.132a.539.539,0,0,1,.253-.206.922.922,0,0,1-.162-.123.33.33,0,0,1-.4.043.5.5,0,0,1,.265-.161,2.094,2.094,0,0,1-.167-.2.339.339,0,0,1-.378.026.407.407,0,0,1,.272-.158c-.034-.047-.063-.1-.1-.156" transform="translate(-0.293 -11.413)"/><path id="Path_640" data-name="Path 640" d="M6.121,12.966,6.2,13l.144.037v-.257l-.279-.166V12.8a.24.24,0,0,1,.061.164" transform="translate(-0.293 -11.413)"/><path id="Path_641" data-name="Path 641" d="M6.584,17.535c0-.052-.081-.113-.2-.178v.311c.17-.057.2-.106.2-.132" transform="translate(-0.293 -11.413)"/><path id="Path_642" data-name="Path 642" d="M5.755,16.655c.01.082.128.162.306.247q-.012-.327-.026-.586c-.2.155-.289.258-.279.339" transform="translate(-0.293 -11.413)"/><path id="Path_643" data-name="Path 643" d="M6.263,17.3l-.073-.033q.009.347.015.76a.277.277,0,0,0,.062.046c0-.274,0-.53,0-.773" transform="translate(-0.293 -11.413)"/><path id="Path_644" data-name="Path 644" d="M5.623,12.963c-.122-.04-.137-.1-.147-.142s-.007-.03-.027-.034a.235.235,0,0,0-.243.119c-.04.1-.014.367.621.942.04.038.077.071.115.1v-.912a1.519,1.519,0,0,1-.318-.076" transform="translate(-0.293 -11.413)"/><path id="Path_645" data-name="Path 645" d="M5.622,12.891a.067.067,0,0,0,.034.009.044.044,0,0,0,.041-.023.055.055,0,0,0-.03-.069.072.072,0,0,0-.032-.008.045.045,0,0,0-.042.022.053.053,0,0,0,.029.069h0" transform="translate(-0.293 -11.413)"/><path id="Path_646" data-name="Path 646" d="M5.748,12.715a.041.041,0,0,0,.043-.04v0a.069.069,0,0,0-.066-.062.039.039,0,0,0-.03.012.042.042,0,0,0-.012.03.07.07,0,0,0,.066.063" transform="translate(-0.293 -11.413)"/><path id="Path_647" data-name="Path 647" d="M6.388,15.79c.223-.107.343-.222.365-.352.029-.178-.126-.376-.341-.585-.011.259-.019.567-.024.937" transform="translate(-0.293 -11.413)"/><path id="Path_648" data-name="Path 648" d="M8.021,11.413H4.438v9.44c5.194-2.9,3.945-8.6,3.583-9.44M7.1,15.485c-.036.258-.312.451-.719.656,0,.271,0,.569,0,.9l.045.018c.391.159.457.339.443.461-.022.2-.256.347-.485.4v.227a.249.249,0,0,1,.084.189.181.181,0,0,1-.082.146v.082a.142.142,0,0,1-.141.115.157.157,0,0,1-.146-.1l-.034.013a.315.315,0,0,1-.095.028.043.043,0,0,1-.041-.024c-.013-.028.009-.058.033-.085a.366.366,0,0,1,.129-.1v-.162a.209.209,0,0,1-.048-.022q-.2-.129-.171-.27a.36.36,0,0,1,.212-.209c0-.189-.008-.366-.012-.53l-.216-.085c-.357-.14-.425-.341-.421-.485a.935.935,0,0,1,.575-.7c-.069-.867-.168-1.032-.265-1.091L5.7,14.833l.137-.317.1.07v-.16c-.066-.06-.13-.121-.189-.182-.091-.092-.5-.525-.549-.59a1.745,1.745,0,0,1-.243-.431A.6.6,0,0,1,5,12.687a.475.475,0,0,1,.515-.146.146.146,0,0,0,.116.006.273.273,0,0,1,.075-.012.242.242,0,0,1,.146.056,1.115,1.115,0,0,1,.089.079v-.258l.516.3v.34a.391.391,0,0,1,.206-.136l.059-.009.07.462-.026.021c-.17.141-.273.33-.329,1.024.481.477.7.794.664,1.064" transform="translate(-0.293 -11.413)"/><path id="Path_649" data-name="Path 649" d="M6.665,13.328l-.04-.265a.617.617,0,0,0-.174.209l-.113-.026v-.155l-.054.011.007.1-.031.009-.1-.159-.076-.036a.125.125,0,0,1-.028.015v1.029c.1.089.186.173.269.253.06-.636.164-.836.336-.987" transform="translate(-0.293 -11.413)"/><path id="Path_650" data-name="Path 650" d="M6.208,18.283c0,.084,0,.169,0,.257.019.034.052.027.059,0v-.23a.112.112,0,0,0-.06-.031" transform="translate(-0.293 -11.413)"/><path id="Path_651" data-name="Path 651" d="M6.061,14.532v.274l-.17-.114-.041.1c.132.1.268.358.33,2.171l.082.035c0-1.012.01-1.729.036-2.244-.057-.053-.116-.106-.176-.16l-.062-.055" transform="translate(-0.293 -11.413)"/><rect id="Rectangle_69" data-name="Rectangle 69" x="1.753" y="5.049" width="0.64" height="0.251"/><rect id="Rectangle_70" data-name="Rectangle 70" x="2.212" y="5.939" width="0.64" height="0.251"/><rect id="Rectangle_71" data-name="Rectangle 71" x="1.746" y="5.55" width="0.25" height="0.64"/><rect id="Rectangle_72" data-name="Rectangle 72" x="2.663" y="6.384" width="0.195" height="0.195"/><rect id="Rectangle_73" data-name="Rectangle 73" x="2.601" y="5.049" width="0.251" height="0.64"/><rect id="Rectangle_74" data-name="Rectangle 74" x="2.191" y="5.522" width="0.194" height="0.195"/><rect id="Rectangle_75" data-name="Rectangle 75" x="2.218" y="6.384" width="0.251" height="0.64"/><rect id="Rectangle_76" data-name="Rectangle 76" x="3.053" y="5.932" width="0.25" height="0.64"/><path id="Path_652" data-name="Path 652" d="M.442,15.592a7.357,7.357,0,0,0,3.836,5.26v-5.26Zm3.377,3.067H2.288V17.8H1.816v-1.53h1.53v.863h.473Z" transform="translate(-0.293 -11.413)"/><rect id="Rectangle_77" data-name="Rectangle 77" x="2.657" y="6.767" width="0.64" height="0.251"/><text transform="translate(9.868 7.15)" font-size="8.5" font-family="SourceSansPro-Bold, Source Sans Pro" font-weight="700">STANFORD MEDICINA</text></svg>