<?xml version="1.0" standalone="no"?>
<!DOCTYPE svg PUBLIC "-//W3C//DTD SVG 20010904//EN"
 "http://www.w3.org/TR/2001/REC-SVG-20010904/DTD/svg10.dtd">
<svg version="1.0" xmlns="http://www.w3.org/2000/svg"
 width="666.000000pt" height="375.000000pt" viewBox="0 0 666.000000 375.000000"
 preserveAspectRatio="xMidYMid meet">

<g transform="translate(0.000000,375.000000) scale(0.100000,-0.100000)"
fill="#000000" stroke="none">
<path d="M2487 2622 c-15 -16 -17 -49 -17 -255 l0 -237 385 0 385 0 0 235 c0
222 -1 236 -20 255 -19 19 -33 20 -368 20 -325 0 -350 -1 -365 -18z m701 -239
l2 -203 -335 0 -335 0 0 198 c0 109 3 202 7 205 4 4 153 6 332 5 l326 -3 3
-202z"/>
<path d="M3446 2624 c-14 -13 -16 -55 -16 -304 0 -276 1 -290 19 -300 11 -5
82 -10 160 -10 114 0 142 3 155 16 14 13 16 54 16 298 0 261 -1 284 -18 299
-27 24 -293 25 -316 1z m209 -44 c3 -5 -2 -10 -12 -11 -70 -4 -87 -3 -91 9 -5
15 94 17 103 2z m85 -255 l0 -185 -138 0 -139 0 0 185 0 185 138 0 139 0 0
-185z m-121 -261 c-15 -18 -28 -18 -36 2 -8 20 17 36 34 22 10 -8 10 -14 2
-24z"/>
<path d="M2370 2085 c0 -18 26 -55 47 -64 16 -7 155 -11 436 -11 440 0 450 1
474 50 l12 25 -175 3 c-144 2 -179 0 -197 -13 -30 -21 -195 -21 -223 0 -15 11
-56 14 -196 15 -98 0 -178 -2 -178 -5z"/>
<path d="M2487 1862 c-15 -16 -17 -49 -17 -255 0 -201 2 -238 16 -251 13 -13
44 -16 185 -16 98 0 179 4 190 10 18 10 19 24 19 260 0 236 -1 250 -19 260
-11 6 -91 10 -189 10 -151 0 -171 -2 -185 -18z m343 -232 l0 -200 -155 0 -155
0 0 200 0 200 155 0 155 0 0 -200z m-122 -247 c-2 -12 -13 -18 -33 -18 -20 0
-31 6 -33 18 -3 14 4 17 33 17 29 0 36 -3 33 -17z"/>
<path d="M3009 1863 c-20 -23 -25 -457 -6 -493 12 -25 14 -25 155 -28 l142 -3
0 -29 c0 -26 -4 -30 -28 -30 -29 0 -72 -24 -72 -41 0 -5 81 -9 200 -9 119 0
200 4 200 9 0 15 -42 41 -67 41 -19 0 -23 5 -23 30 l0 30 133 0 c117 0 136 2
150 18 15 16 17 49 17 254 0 215 -2 236 -18 251 -17 15 -59 17 -394 17 -337 0
-377 -2 -389 -17z m746 -253 l0 -215 -352 -3 -353 -2 0 220 0 220 353 -2 352
-3 0 -215z"/>
</g>
</svg>
