<svg xmlns="http://www.w3.org/2000/svg" version="1.1" xmlns:xlink="http://www.w3.org/1999/xlink" xmlns:svgjs="http://svgjs.dev/svgjs" width="2000" height="1500" viewBox="0 0 2000 1500"><rect width="2000" height="1500" fill="#000000"></rect><g transform="matrix(0.75,0,0,0.75,249.090909090909,628.599085260428)"><svg viewBox="0 0 396 64" data-background-color="#ffffff" preserveAspectRatio="xMidYMid meet" height="323" width="2000" xmlns="http://www.w3.org/2000/svg" xmlns:xlink="http://www.w3.org/1999/xlink"><g id="tight-bounds" transform="matrix(1,0,0,1,0.2400000000000091,0.0728938837259534)"><svg viewBox="0 0 395.52 63.85421223254808" height="63.85421223254808" width="395.52"><g><svg viewBox="0 0 395.52 63.85421223254808" height="63.85421223254808" width="395.52"><g><svg viewBox="0 0 395.52 63.85421223254808" height="63.85421223254808" width="395.52"><g id="textblocktransform"><svg viewBox="0 0 395.52 63.85421223254808" height="63.85421223254808" width="395.52" id="textblock"><g><svg viewBox="0 0 395.52 63.85421223254808" height="63.85421223254808" width="395.52"><g transform="matrix(1,0,0,1,0,0)"><svg width="395.52" viewBox="3.25 -36.95 231.33 37.35" height="63.85421223254808" data-palette-color="#152232"><path d="M24.2-6.15L24.2 0 3.25 0 3.25-33.7 24-33.7 24-27.55 11-27.55 11-19.9 22.6-19.9 22.6-13.8 11-13.8 11-6.15 24.2-6.15ZM53.2-25.35L53.2 0 45.9 0 45.9-4.05Q43.9 0.2 38.2 0.2L38.2 0.2Q34.3 0.2 32.12-1.98 29.95-4.15 29.95-8.4L29.95-8.4 29.95-25.35 37.25-25.35 37.25-10.05Q37.25-5.6 41.15-5.6L41.15-5.6Q45.9-5.6 45.9-11.95L45.9-11.95 45.9-25.35 53.2-25.35ZM96.4-16.25L96.4 0 89.09 0 89.09-15.05Q89.09-17.2 88.25-18.45 87.4-19.7 85.8-19.7L85.8-19.7Q84.1-19.7 82.77-18.32 81.45-16.95 81.45-13.4L81.45-13.4 81.45 0 74.15 0 74.15-15.05Q74.15-17.2 73.3-18.45 72.45-19.7 70.85-19.7L70.85-19.7Q69.15-19.7 67.82-18.32 66.5-16.95 66.5-13.4L66.5-13.4 66.5 0 59.2 0 59.2-25.35 66.5-25.35 66.5-21.4Q68.6-25.6 73.65-25.6L73.65-25.6Q79-25.6 80.75-20.8L80.75-20.8Q81.6-23.05 83.6-24.33 85.6-25.6 88.3-25.6L88.3-25.6Q92.05-25.6 94.22-23.23 96.4-20.85 96.4-16.25L96.4-16.25ZM111.44-5L111.44-5Q112.99-5 113.84-5.95 114.69-6.9 114.69-8.55L114.69-8.55 114.69-10.4 112.34-10.4Q110.49-10.4 109.49-9.6 108.49-8.8 108.49-7.55L108.49-7.55Q108.49-5 111.44-5ZM115.04 0L115.04-3.1Q113.44 0.15 108.74 0.15L108.74 0.15Q105.04 0.15 102.97-1.95 100.89-4.05 100.89-7.2L100.89-7.2Q100.89-10.85 103.57-12.88 106.24-14.9 111.49-14.9L111.49-14.9 114.69-14.9 114.69-16.65Q114.69-19.85 110.44-19.85L110.44-19.85Q106.34-19.85 102.84-17.55L102.84-17.55 102.84-24.1Q105.84-25.8 111.49-25.8L111.49-25.8Q116.89-25.8 119.54-23.48 122.19-21.15 122.19-16.25L122.19-16.25 122.19 0 115.04 0ZM138.19-7.6L133.64 0 125.74 0 134.79-12.7 126.29-25.35 134.39-25.35 138.49-17.8 143.04-25.35 151.04-25.35 141.94-12.65 150.39 0 142.44 0 138.19-7.6ZM161.79-25.35L161.79 0 154.49 0 154.49-25.35 161.79-25.35ZM161.14-35.7Q162.39-34.45 162.39-32.7 162.39-30.95 161.14-29.7 159.89-28.45 158.14-28.45 156.39-28.45 155.14-29.7 153.89-30.95 153.89-32.7 153.89-34.45 155.14-35.7 156.39-36.95 158.14-36.95 159.89-36.95 161.14-35.7ZM205.24-16.25L205.24 0 197.94 0 197.94-15.05Q197.94-17.2 197.09-18.45 196.24-19.7 194.64-19.7L194.64-19.7Q192.94-19.7 191.61-18.32 190.29-16.95 190.29-13.4L190.29-13.4 190.29 0 182.99 0 182.99-15.05Q182.99-17.2 182.14-18.45 181.29-19.7 179.69-19.7L179.69-19.7Q177.99-19.7 176.66-18.32 175.34-16.95 175.34-13.4L175.34-13.4 175.34 0 168.04 0 168.04-25.35 175.34-25.35 175.34-21.4Q177.44-25.6 182.49-25.6L182.49-25.6Q187.84-25.6 189.59-20.8L189.59-20.8Q190.44-23.05 192.44-24.33 194.44-25.6 197.14-25.6L197.14-25.6Q200.89-25.6 203.06-23.23 205.24-20.85 205.24-16.25L205.24-16.25ZM234.58-12.8L234.58-12.8Q234.58-7.05 231.31-3.33 228.03 0.4 222.18 0.4L222.18 0.4Q216.23 0.4 212.98-3.18 209.73-6.75 209.73-12.35L209.73-12.35Q209.73-18.2 213.13-21.98 216.53-25.75 222.18-25.75L222.18-25.75Q228.08-25.75 231.33-22.1 234.58-18.45 234.58-12.8ZM218.53-17.95Q217.33-15.9 217.33-12.65 217.33-9.4 218.56-7.33 219.78-5.25 222.23-5.25L222.23-5.25Q224.63-5.25 225.81-7.28 226.98-9.3 226.98-12.55L226.98-12.55Q226.98-20 222.13-20L222.13-20Q219.73-20 218.53-17.95Z" opacity="1" transform="matrix(1,0,0,1,0,0)" fill="#ffffff" class="wordmark-text-0" data-fill-palette-color="primary" id="text-0"></path></svg></g></svg></g></svg></g></svg></g><g></g></svg></g><defs></defs></svg><rect width="395.52" height="63.85421223254808" fill="none" stroke="none" visibility="hidden"></rect></g></svg></g></svg>