<?xml version="1.0" encoding="utf-8"?>
<svg aria-hidden="true" class="triangle_blackoutLines__SQ3KJ" fill="red" viewBox="-7931.247 -12825.869 19468.722 18072.245" width="100%" xmlns="http://www.w3.org/2000/svg">
  <g fill="var(--geist-background)" transform="matrix(6.416598, 0, 0, 10.445993, -2564.638428, -6956.641602)" style="">
    <path d="M 1957.782 -332.15 L 1957.637 -328.601 L 1005.276 -331.85 L 1957.564 -316.895 L 1957.596 -313.349 L 1005.485 -328.307 L 1957.344 -301.643 L 1957.199 -298.095 L 1005.162 -324.757 L 1956.769 -286.563 L 1956.622 -283.016 L 1005.194 -321.209 L 1956.195 -271.305 L 1955.871 -267.757 L 1004.869 -317.658 L 1955.266 -256.048 L 1954.942 -252.497 L 1004.548 -314.111 L 1954.16 -240.786 L 1953.838 -237.236 L 1004.401 -310.562 L 1952.875 -225.701 L 1952.552 -222.15 L 1004.079 -307.012 L 1951.592 -210.438 L 1951.091 -207.062 L 1003.578 -303.46 L 1949.951 -195.348 L 1949.454 -191.797 L 1003.254 -300.088 L 1948.136 -180.258 L 1947.637 -176.706 L 1002.931 -296.539 L 1946.142 -165.166 L 1945.641 -161.615 L 1002.43 -292.988 L 1943.97 -150.073 L 1943.47 -146.521 L 1001.751 -289.436 L 1941.622 -134.979 L 1940.944 -131.425 L 1001.607 -285.886 L 1939.095 -120.058 L 1938.416 -116.506 L 1000.396 -282.507 L 1936.213 -104.96 L 1935.711 -101.586 L 1000.071 -278.957 L 1933.33 -90.036 L 1932.654 -86.483 L 999.039 -275.578 L 1930.271 -75.113 L 1929.592 -71.736 L 998.538 -272.025 L 1927.035 -60.186 L 1926.177 -56.81 L 997.681 -268.65 L 1923.619 -45.438 L 1922.763 -41.885 L 997.003 -265.096 L 1919.847 -30.684 L 1918.992 -27.13 L 995.968 -261.718 L 1916.077 -15.932 L 1915.223 -12.378 L 995.289 -258.342 L 1912.129 -1.178 L 1911.095 2.2 L 993.9 -254.96 L 1908.003 13.401 L 1906.971 16.957 L 993.223 -251.408 L 1903.523 28.16 L 1902.489 31.539 L 991.832 -248.203 L 1899.04 42.565 L 1898.006 45.943 L 991.154 -244.65 L 1894.38 57.148 L 1893.17 60.529 L 989.765 -241.446 L 1889.365 71.557 L 1888.154 74.938 L 988.729 -238.068 L 1884.351 85.967 L 1883.137 89.169 L 987.519 -234.688 L 1879.156 100.2 L 1877.768 103.581 L 986.308 -231.308 L 1873.608 114.436 L 1872.396 117.816 L 985.095 -228.103 L 1868.06 128.674 L 1866.67 131.878 L 983.529 -224.72 L 1862.333 142.734 L 1860.942 145.939 L 982.316 -221.518 L 1856.428 156.796 L 1854.859 160.003 L 980.748 -218.313 L 1850.166 170.686 L 1848.777 173.89 L 979.537 -214.931 L 1843.906 184.573 L 1842.516 187.778 L 977.968 -211.724 L 1837.467 198.286 L 1835.898 201.492 L 976.222 -208.694 L 1830.849 211.999 L 1829.281 215.207 L 974.833 -205.313 L 1824.053 225.717 L 1822.486 228.922 L 973.267 -202.107 L 1817.081 239.255 L 1815.512 242.462 L 971.697 -199.079 L 1809.929 252.797 L 1808.359 255.826 L 969.951 -195.87 L 1802.777 266.162 L 1801.031 269.192 L 968.381 -192.84 L 1795.268 279.351 L 1793.522 282.382 L 966.458 -189.811 L 1787.582 292.543 L 1785.835 295.573 L 964.715 -186.601 L 1779.896 305.735 L 1777.973 308.768 L 962.79 -183.57 L 1771.854 318.752 L 1770.105 321.605 L 960.688 -180.713 L 1763.811 331.591 L 1761.888 334.624 L 959.118 -177.685 L 1755.591 344.433 L 1753.664 347.288 L 957.194 -174.652 L 1747.189 357.1 L 1745.265 359.953 L 954.912 -171.973 L 1738.612 369.767 L 1736.509 372.624 L 953.166 -168.764 L 1729.856 382.258 L 1727.753 385.115 L 951.242 -165.909 L 1720.921 394.575 L 1718.996 397.43 L 948.783 -163.228 L 1711.985 406.891 L 1709.885 409.747 L 947.216 -160.02 L 1702.871 419.031 L 1700.589 421.711 L 944.577 -157.515 L 1693.401 430.997 L 1691.299 433.853 L 942.476 -154.659 L 1683.932 442.964 L 1681.826 445.641 L 940.372 -151.802 L 1674.46 454.752 L 1672.179 457.432 L 938.091 -149.123 L 1664.632 466.543 L 1662.35 469.224 L 935.809 -146.442 L 1654.803 477.981 L 1652.344 480.664 L 933.349 -143.76 L 1644.618 489.421 L 1642.337 492.101 L 931.068 -141.081 L 1634.436 500.861 L 1632.153 503.542 L 928.429 -138.751 L 1624.249 512.125 L 1621.788 514.629 L 926.326 -135.717 L 1613.705 523.036 L 1611.246 525.718 L 923.866 -133.212 L 1603.163 534.125 L 1600.704 536.63 L 921.048 -131.06 L 1592.44 544.861 L 1589.803 547.366 L 919.125 -128.028 L 1581.54 555.597 L 1579.081 558.103 L 915.949 -126.049 L 1570.638 566.157 L 1568 568.487 L 913.667 -123.546 L 1559.381 576.544 L 1556.743 578.872 L 911.208 -120.864 L 1548.122 586.752 L 1545.484 589.259 L 908.211 -118.886 L 1536.862 596.961 L 1534.224 599.289 L 905.753 -116.204 L 1525.247 606.995 L 1522.608 609.323 L 903.291 -113.699 L 1513.807 616.85 L 1510.989 619.004 L 900.292 -111.9 L 1502.01 626.532 L 1499.193 628.686 L 897.475 -109.569 L 1490.038 636.037 L 1487.397 638.367 L 894.836 -107.241 L 1478.238 645.54 L 1475.421 647.694 L 892.019 -104.91 L 1466.084 654.694 L 1463.266 656.847 L 889.199 -102.934 L 1453.929 663.846 L 1450.932 666 L 886.382 -100.603 L 1441.594 672.822 L 1438.776 674.976 L 883.205 -98.979 L 1429.08 681.623 L 1426.261 683.777 L 880.564 -96.829 L 1416.568 690.423 L 1413.748 692.401 L 877.566 -94.852 L 1404.051 698.871 L 1401.053 700.849 L 874.569 -92.873 L 1391.18 707.319 L 1388.359 709.118 L 871.75 -90.721 L 1378.484 715.413 L 1375.486 717.391 L 868.393 -89.272 L 1365.431 723.509 L 1362.432 725.309 L 865.755 -86.942 L 1352.379 731.428 L 1349.381 733.229 L 862.577 -85.14 L 1339.324 739.169 L 1336.327 740.97 L 859.578 -83.518 L 1326.091 746.735 L 1323.09 748.359 L 856.402 -81.717 L 1312.856 754.124 L 1309.677 755.75 L 853.223 -80.271 L 1299.443 761.337 L 1296.265 762.961 L 850.226 -78.291 L 1285.849 768.373 L 1282.67 769.999 L 846.87 -76.843 L 1272.254 775.235 L 1269.077 776.859 L 843.871 -75.044 L 1258.66 782.093 L 1255.48 783.541 L 840.689 -73.774 L 1244.886 788.599 L 1241.706 790.048 L 837.331 -72.325 L 1231.108 794.929 L 1227.93 796.554 L 834.155 -70.7 L 1217.156 801.26 L 1213.976 802.707 L 830.795 -69.608 L 1203.197 807.237 L 1200.018 808.685 L 827.976 -67.454 L 1189.241 813.212 L 1185.882 814.483 L 824.26 -66.712 L 1175.102 818.836 L 1171.746 820.284 L 821.079 -65.265 L 1160.789 824.461 L 1157.607 825.73 L 817.902 -63.64 L 1146.648 829.728 L 1143.288 830.999 L 814.36 -63.077 L 1132.329 834.999 L 1128.969 836.093 L 811.003 -61.629 L 1117.833 840.094 L 1114.473 841.188 L 807.822 -60.359 L 1103.51 844.831 L 1100.149 845.924 L 804.281 -59.619 L 1089.011 849.571 L 1085.473 850.665 L 801.103 -58.17 L 1074.329 853.958 L 1070.97 855.051 L 797.563 -57.254 L 1059.826 858.343 L 1056.288 859.261 L 794.205 -56.159 L 1045.142 862.374 L 1041.604 863.293 L 790.662 -55.595 L 1030.458 866.406 L 1026.919 867.324 L 787.305 -54.324 L 1015.595 870.085 L 1012.233 871.003 L 783.942 -53.407 L 1000.731 873.765 L 997.367 874.503 L 780.401 -52.844 L 986.04 877.086 L 982.499 877.827 L 777.038 -52.105 L 970.994 880.412 L 967.63 880.974 L 773.494 -51.718 L 956.124 883.383 L 952.583 884.122 L 770.138 -50.27 L 941.253 886.175 L 937.711 886.915 L 766.596 -49.707 L 926.205 888.968 L 922.661 889.531 L 763.053 -49.499 L 911.15 891.407 L 907.608 891.97 L 759.51 -48.935 L 896.097 893.668 L 892.555 894.231 L 755.967 -48.372 L 881.04 895.752 L 877.498 896.317 L 752.602 -47.81 L 865.984 897.66 L 862.44 898.046 L 749.06 -47.423 L 850.749 899.391 L 847.206 899.778 L 745.513 -47.392 L 835.689 900.945 L 832.146 901.33 L 741.971 -46.829 L 820.449 902.322 L 816.905 902.706 L 738.427 -46.442 L 805.208 903.52 L 801.663 903.73 L 734.884 -46.234 L 789.965 904.543 L 786.421 904.752 L 731.339 -46.025 L 774.898 905.386 L 771.353 905.594 L 727.795 -45.461 L 759.653 906.053 L 756.106 906.084 L 724.243 -45.962 L 744.405 906.366 L 740.859 906.574 L 720.701 -45.576 C 754.813 -42.424 1005.719 -83.462 1005.422 -335.399 L 1957.782 -332.15 Z" style="fill: rgb(152, 147, 219);"/>
    <path d="M 709.385 923.974 L 705.838 923.798 L 717.542 -28.671 L 694.133 923.619 L 690.588 923.619 L 713.997 -28.671 L 678.884 923.265 L 675.337 923.086 L 710.45 -28.493 L 663.811 922.556 L 660.264 922.377 L 706.902 -28.849 L 648.559 921.669 L 645.013 921.492 L 703.355 -28.849 L 633.31 920.782 L 629.763 920.427 L 699.809 -29.025 L 618.059 919.541 L 614.511 919.186 L 696.262 -29.734 L 602.986 918.122 L 599.438 917.767 L 692.716 -30.09 L 587.734 916.526 L 584.364 916.17 L 689.169 -30.266 L 572.66 914.929 L 569.114 914.397 L 685.8 -30.622 L 557.587 912.979 L 554.04 912.447 L 682.253 -31.507 L 542.514 910.851 L 538.968 910.319 L 678.706 -31.507 L 527.44 908.546 L 523.893 908.013 L 675.159 -32.395 L 512.367 906.063 L 508.821 905.354 L 671.79 -32.928 L 497.471 903.403 L 493.924 902.693 L 668.243 -33.46 L 482.397 900.389 L 479.028 899.856 L 664.698 -34.169 L 467.501 897.374 L 463.954 896.665 L 661.329 -34.878 L 452.605 894.182 L 449.235 893.472 L 657.96 -36.119 L 437.709 890.813 L 434.34 889.926 L 654.413 -36.473 L 422.99 887.265 L 419.443 886.379 L 650.865 -37.36 L 408.271 883.365 L 404.724 882.478 L 647.497 -38.247 L 393.552 879.463 L 390.005 878.575 L 644.127 -39.488 L 378.833 875.384 L 375.465 874.32 L 640.758 -40.552 L 364.291 871.127 L 360.745 870.065 L 637.211 -41.085 L 349.574 866.517 L 346.203 865.454 L 634.018 -42.502 L 335.208 861.907 L 331.839 860.844 L 630.472 -43.567 L 320.668 856.941 L 317.298 855.878 L 627.103 -44.454 L 306.304 851.975 L 302.934 850.734 L 623.911 -45.873 L 291.939 846.833 L 288.747 845.592 L 620.541 -47.114 L 277.751 841.513 L 274.383 840.095 L 617.172 -48.355 L 263.565 835.838 L 260.196 834.597 L 613.802 -49.597 L 249.378 830.164 L 246.187 828.745 L 610.611 -51.015 L 235.368 824.311 L 232.177 822.893 L 607.418 -52.612 L 221.36 818.283 L 218.168 816.686 L 604.048 -53.853 L 207.527 811.898 L 204.335 810.479 L 600.857 -55.449 L 193.695 805.514 L 190.503 804.094 L 597.665 -56.866 L 180.04 798.953 L 176.849 797.357 L 594.473 -58.287 L 166.386 792.214 L 163.193 790.618 L 591.459 -60.237 L 152.731 785.298 L 149.539 783.701 L 588.089 -61.478 L 139.254 778.205 L 136.061 776.609 L 585.075 -63.251 L 125.776 770.934 L 122.761 769.337 L 582.059 -65.202 L 112.475 763.663 L 109.46 761.889 L 578.689 -66.62 L 99.353 756.038 L 96.338 754.264 L 575.854 -68.57 L 86.231 748.235 L 83.216 746.462 L 572.838 -70.523 L 73.107 740.431 L 70.093 738.481 L 569.823 -72.296 L 60.162 732.274 L 57.325 730.501 L 566.809 -74.246 L 47.394 724.117 L 44.379 722.167 L 563.794 -76.018 L 34.626 715.783 L 31.788 713.831 L 560.778 -77.971 L 22.036 707.271 L 19.198 705.142 L 557.764 -79.921 L 9.62 698.582 L 6.607 696.453 L 555.105 -82.226 L -2.792 689.714 L -5.806 687.587 L 552.089 -84.177 L -15.206 680.67 L -18.043 678.542 L 549.254 -86.304 L -27.442 671.626 L -30.279 669.497 L 546.592 -88.61 L -39.501 662.405 L -42.339 660.099 L 543.578 -90.383 L -51.381 652.829 L -54.219 650.701 L 540.918 -92.866 L -63.264 643.253 L -65.924 641.124 L 538.08 -94.994 L -74.968 633.676 L -77.628 631.37 L 535.597 -97.655 L -86.672 623.745 L -89.332 621.439 L 532.761 -99.782 L -98.021 613.815 L -100.681 611.332 L 530.099 -102.087 L -109.548 603.529 L -112.031 601.224 L 527.263 -104.215 L -120.72 593.244 L -123.38 590.938 L 524.957 -107.053 L -131.893 582.959 L -134.375 580.475 L 522.298 -109.359 L -142.709 572.318 L -145.37 569.836 L 519.816 -111.663 L -153.703 561.679 L -156.187 559.194 L 517.154 -114.146 L -164.345 550.861 L -166.827 548.201 L 514.672 -116.807 L -174.984 539.866 L -177.468 537.384 L 512.367 -119.466 L -185.447 528.871 L -187.753 526.211 L 509.884 -121.949 L -195.732 517.522 L -198.038 514.863 L 507.578 -124.608 L -205.841 506.173 L -208.324 503.512 L 505.096 -127.27 L -215.948 494.823 L -218.254 492.163 L 502.967 -129.93 L -225.879 483.119 L -228.185 480.459 L 500.485 -132.589 L -235.633 471.414 L -237.762 468.755 L 498.357 -135.427 L -245.21 459.71 L -247.338 456.873 L 496.051 -138.087 L -254.608 447.652 L -256.914 444.992 L 493.924 -140.925 L -264.006 435.77 L -266.135 432.933 L 491.973 -143.939 L -273.228 423.535 L -275.179 420.697 L 489.668 -146.598 L -282.096 411.298 L -284.223 408.46 L 487.54 -149.435 L -290.962 398.885 L -293.09 396.047 L 485.767 -152.629 L -299.651 386.293 L -301.779 383.455 L 483.462 -155.287 L -308.34 373.703 L -310.292 370.865 L 481.51 -158.303 L -316.676 361.112 L -318.626 358.097 L 479.737 -161.318 L -325.01 348.166 L -326.783 345.329 L 477.964 -164.332 L -332.99 335.399 L -334.94 332.384 L 476.014 -167.347 L -340.971 322.275 L -342.744 319.26 L 473.885 -170.184 L -348.773 309.153 L -350.546 306.138 L 472.289 -173.376 L -356.398 296.031 L -358.172 293.016 L 470.693 -176.567 L -363.846 282.73 L -365.443 279.715 L 468.919 -179.584 L -371.118 269.43 L -372.715 266.237 L 467.145 -182.598 L -378.21 255.952 L -379.807 252.761 L 465.551 -185.789 L -385.127 242.298 L -386.723 239.105 L 463.954 -188.982 L -391.866 228.642 L -393.462 225.451 L 462.359 -192.174 L -398.603 214.988 L -400.023 211.796 L 460.762 -195.366 L -404.989 201.156 L -406.407 197.964 L 459.521 -198.736 L -411.195 187.325 L -412.791 184.131 L 457.924 -201.927 L -417.402 173.314 L -418.82 170.123 L 456.506 -205.12 L -423.253 159.304 L -424.673 156.113 L 455.087 -208.311 L -429.106 145.295 L -430.347 141.926 L 453.846 -211.68 L -434.604 131.107 L -436.022 127.738 L 452.605 -215.05 L -440.101 116.744 L -441.342 113.552 L 451.364 -218.419 L -445.243 102.557 L -446.484 99.188 L 450.299 -221.789 L -450.386 88.193 L -451.45 84.823 L 449.058 -224.981 L -455.353 73.652 L -456.416 70.283 L 447.993 -228.351 L -459.963 59.288 L -461.027 55.917 L 446.929 -231.72 L -464.573 44.746 L -465.46 41.2 L 445.867 -235.267 L -468.829 30.026 L -469.893 26.657 L 444.624 -238.458 L -473.084 15.486 L -473.972 11.939 L 444.092 -242.006 L -476.987 0.767 L -477.874 -2.78 L 443.029 -245.374 L -480.888 -13.952 L -481.774 -17.499 L 442.142 -248.922 L -484.435 -28.849 L -485.322 -32.216 L 441.433 -252.29 L -487.981 -43.744 L -488.69 -47.114 L 440.369 -255.838 L -491.174 -58.463 L -491.883 -62.01 L 439.66 -259.205 L -494.365 -73.536 L -494.898 -76.906 L 439.127 -262.753 L -497.202 -88.433 L -497.911 -91.979 L 438.24 -266.122 L -499.864 -103.33 L -500.572 -106.877 L 437.886 -269.67 L -502.522 -118.403 L -503.055 -121.949 L 437.354 -273.216 L -504.828 -133.477 L -505.36 -137.022 L 436.645 -276.763 L -506.956 -148.549 L -507.488 -152.096 L 436.29 -280.31 L -508.906 -163.623 L -509.438 -167.169 L 435.935 -283.679 L -510.679 -178.873 L -511.035 -182.243 L 435.403 -287.226 L -512.276 -193.947 L -512.631 -197.495 L 435.048 -290.772 L -513.695 -209.021 L -514.05 -212.568 L 434.871 -294.318 L -514.936 -224.272 L -515.291 -227.819 L 434.516 -297.865 L -516.001 -239.522 L -516.178 -243.068 L 434.162 -301.412 L -516.886 -254.773 L -517.065 -258.32 L 434.162 -304.96 L -517.595 -269.847 L -517.774 -273.394 L 433.807 -308.507 L -518.128 -285.097 L -518.128 -288.643 L 433.985 -312.052 L -518.307 -300.348 L -518.483 -303.895 L 433.807 -315.599 C 423.441 -75.375 704.719 -11.914 721.089 -28.316 L 709.385 923.974 Z" style="fill: rgb(167, 167, 255);" transform="matrix(0.999654, -0.026297, 0.026297, 0.999654, 0.000001, -0.000001)"/>
  </g>
</svg>