<svg aria-hidden="true" class="triangle_blackoutLines__SQ3KJ" fill="red" viewBox="-7931.247 -12825.869 19468.722 15335.098" width="100%" xmlns="http://www.w3.org/2000/svg">
  <g fill="var(--geist-background)" transform="matrix(6.416598, 0, 0, 10.445993, -2564.638428, -6956.641602)" style="">
    <path d="M 2183.666 67.712 L 2183.496 71.723 L 1065.812 68.051 L 2183.41 84.953 L 2183.448 88.96 L 1066.058 72.055 L 2183.152 102.19 L 2182.981 106.2 L 1065.679 76.067 L 2182.477 119.233 L 2182.305 123.242 L 1065.717 80.077 L 2181.803 136.477 L 2181.423 140.487 L 1065.335 84.09 L 2180.713 153.72 L 2180.333 157.733 L 1064.959 88.099 L 2179.415 170.969 L 2179.038 174.981 L 1064.786 92.11 L 2177.907 188.017 L 2177.528 192.03 L 1064.408 96.122 L 2176.402 205.267 L 2175.813 209.082 L 1063.82 100.137 L 2174.475 222.321 L 2173.892 226.334 L 1063.44 103.947 L 2172.345 239.375 L 2171.759 243.39 L 1063.061 107.958 L 2170.005 256.432 L 2169.418 260.445 L 1062.473 111.972 L 2167.456 273.489 L 2166.87 277.504 L 1061.675 115.986 L 2164.7 290.548 L 2163.905 294.565 L 1061.507 119.998 L 2161.735 307.411 L 2160.938 311.426 L 1060.085 123.817 L 2158.353 324.474 L 2157.764 328.288 L 1059.704 127.829 L 2154.97 341.341 L 2154.176 345.356 L 1058.493 131.648 L 2151.379 358.206 L 2150.582 362.023 L 1057.905 135.663 L 2147.582 375.076 L 2146.574 378.892 L 1056.9 139.478 L 2143.572 391.744 L 2142.568 395.76 L 1056.103 143.494 L 2139.145 408.419 L 2138.142 412.435 L 1054.889 147.312 L 2134.721 425.091 L 2133.719 429.107 L 1054.092 151.127 L 2130.088 441.765 L 2128.875 445.583 L 1052.462 154.95 L 2125.245 458.242 L 2124.035 462.261 L 1051.667 158.964 L 2119.988 474.922 L 2118.774 478.741 L 1050.035 162.586 L 2114.727 491.202 L 2113.513 495.02 L 1049.24 166.602 L 2109.258 507.683 L 2107.837 511.504 L 1047.609 170.223 L 2103.373 523.968 L 2101.951 527.789 L 1046.393 174.04 L 2097.488 540.254 L 2096.063 543.872 L 1044.974 177.86 L 2091.391 556.339 L 2089.762 560.16 L 1043.552 181.68 L 2084.88 572.428 L 2083.458 576.248 L 1042.128 185.302 L 2078.369 588.519 L 2076.737 592.141 L 1040.291 189.126 L 2071.648 604.41 L 2070.016 608.032 L 1038.867 192.745 L 2064.718 620.302 L 2062.876 623.926 L 1037.027 196.367 L 2057.368 636 L 2055.738 639.621 L 1035.605 200.189 L 2050.022 651.695 L 2048.39 655.317 L 1033.764 203.813 L 2042.465 667.193 L 2040.624 670.816 L 1031.716 207.238 L 2034.699 682.691 L 2032.858 686.316 L 1030.085 211.059 L 2026.723 698.194 L 2024.883 701.816 L 1028.247 214.682 L 2018.54 713.494 L 2016.699 717.119 L 1026.405 218.104 L 2010.147 728.799 L 2008.304 732.222 L 1024.356 221.731 L 2001.754 743.904 L 1999.704 747.328 L 1022.513 225.155 L 1992.941 758.809 L 1990.892 762.235 L 1020.256 228.579 L 1983.921 773.719 L 1981.87 777.143 L 1018.21 232.207 L 1974.9 788.628 L 1972.643 792.056 L 1015.952 235.632 L 1965.463 803.339 L 1963.409 806.563 L 1013.484 238.861 L 1956.023 817.849 L 1953.767 821.277 L 1011.642 242.283 L 1946.377 832.363 L 1944.115 835.589 L 1009.384 245.711 L 1936.516 846.679 L 1934.258 849.903 L 1006.706 248.739 L 1926.45 860.994 L 1923.981 864.223 L 1004.657 252.365 L 1916.174 875.111 L 1913.706 878.34 L 1002.399 255.592 L 1905.688 889.032 L 1903.429 892.258 L 999.513 258.622 L 1895.201 902.951 L 1892.736 906.178 L 997.674 262.248 L 1884.504 916.671 L 1881.826 919.7 L 994.577 265.079 L 1873.391 930.194 L 1870.923 933.422 L 992.111 268.306 L 1862.277 943.719 L 1859.806 946.745 L 989.642 271.535 L 1851.162 957.042 L 1848.485 960.07 L 986.965 274.563 L 1839.627 970.367 L 1836.949 973.397 L 984.287 277.593 L 1828.093 983.294 L 1825.206 986.326 L 981.4 280.624 L 1816.139 996.223 L 1813.463 999.252 L 978.723 283.652 L 1804.19 1009.152 L 1801.51 1012.182 L 975.626 286.285 L 1792.234 1021.883 L 1789.346 1024.712 L 973.157 289.714 L 1779.86 1034.214 L 1776.974 1037.245 L 970.271 292.545 L 1767.487 1046.746 L 1764.602 1049.577 L 966.964 294.977 L 1754.903 1058.88 L 1751.808 1061.711 L 964.706 298.404 L 1742.111 1071.013 L 1739.225 1073.845 L 960.979 300.64 L 1729.317 1082.948 L 1726.221 1085.581 L 958.301 303.469 L 1716.105 1094.687 L 1713.01 1097.318 L 955.415 306.5 L 1702.893 1106.223 L 1699.796 1109.057 L 951.897 308.736 L 1689.677 1117.761 L 1686.581 1120.392 L 949.013 311.767 L 1676.046 1129.101 L 1672.949 1131.732 L 946.124 314.598 L 1662.621 1140.239 L 1659.314 1142.674 L 942.604 316.631 L 1648.776 1151.181 L 1645.47 1153.616 L 939.298 319.265 L 1634.725 1161.924 L 1631.626 1164.557 L 936.201 321.897 L 1620.877 1172.664 L 1617.571 1175.098 L 932.895 324.531 L 1606.614 1183.009 L 1603.306 1185.442 L 929.586 326.764 L 1592.348 1193.352 L 1588.83 1195.787 L 926.28 329.399 L 1577.872 1203.497 L 1574.565 1205.931 L 922.551 331.234 L 1563.185 1213.443 L 1559.877 1215.878 L 919.452 333.664 L 1548.502 1223.389 L 1545.192 1225.624 L 915.933 335.898 L 1533.811 1232.936 L 1530.294 1235.172 L 912.416 338.135 L 1518.706 1242.484 L 1515.396 1244.517 L 909.108 340.567 L 1503.807 1251.632 L 1500.288 1253.867 L 905.167 342.204 L 1488.488 1260.781 L 1484.968 1262.816 L 902.072 344.838 L 1473.17 1269.731 L 1469.652 1271.767 L 898.343 346.874 L 1457.849 1278.48 L 1454.332 1280.515 L 894.823 348.707 L 1442.319 1287.031 L 1438.797 1288.866 L 891.096 350.743 L 1426.786 1295.381 L 1423.055 1297.219 L 887.365 352.377 L 1411.044 1303.533 L 1407.315 1305.369 L 883.847 354.615 L 1395.091 1311.485 L 1391.36 1313.323 L 879.909 356.251 L 1379.136 1319.24 L 1375.407 1321.076 L 876.389 358.284 L 1363.182 1326.991 L 1359.451 1328.628 L 872.654 359.72 L 1347.017 1334.344 L 1343.285 1335.982 L 868.714 361.357 L 1330.848 1341.498 L 1327.117 1343.334 L 864.987 363.194 L 1314.473 1348.653 L 1310.741 1350.288 L 861.043 364.428 L 1298.091 1355.408 L 1294.36 1357.044 L 857.735 366.862 L 1281.713 1362.161 L 1277.77 1363.597 L 853.374 367.701 L 1265.119 1368.517 L 1261.181 1370.153 L 849.641 369.336 L 1248.321 1374.874 L 1244.588 1376.308 L 845.913 371.173 L 1231.726 1380.827 L 1227.783 1382.263 L 841.755 371.809 L 1214.921 1386.784 L 1210.978 1388.02 L 837.815 373.446 L 1197.909 1392.542 L 1193.966 1393.778 L 834.082 374.881 L 1181.099 1397.895 L 1177.154 1399.131 L 829.927 375.717 L 1164.083 1403.252 L 1159.931 1404.489 L 826.196 377.355 L 1146.853 1408.21 L 1142.91 1409.446 L 822.042 378.39 L 1129.832 1413.166 L 1125.68 1414.204 L 818.101 379.628 L 1112.599 1417.722 L 1108.447 1418.761 L 813.944 380.265 L 1095.366 1422.279 L 1091.212 1423.316 L 810.003 381.701 L 1077.923 1426.437 L 1073.978 1427.474 L 806.057 382.738 L 1060.479 1430.596 L 1056.531 1431.43 L 801.901 383.374 L 1043.237 1434.349 L 1039.082 1435.186 L 797.955 384.209 L 1025.58 1438.108 L 1021.631 1438.743 L 793.795 384.647 L 1008.128 1441.466 L 1003.973 1442.301 L 789.857 386.283 L 990.676 1444.621 L 986.519 1445.457 L 785.7 386.919 L 973.016 1447.778 L 968.856 1448.414 L 781.541 387.155 L 955.347 1450.534 L 951.19 1451.17 L 777.384 387.792 L 937.682 1453.089 L 933.524 1453.726 L 773.225 388.428 L 920.01 1455.445 L 915.854 1456.083 L 769.277 389.063 L 902.341 1457.601 L 898.181 1458.037 L 765.119 389.501 L 884.461 1459.557 L 880.303 1459.995 L 760.956 389.536 L 866.787 1461.313 L 862.629 1461.749 L 756.8 390.172 L 848.901 1462.87 L 844.742 1463.304 L 752.641 390.609 L 831.015 1464.224 L 826.854 1464.461 L 748.483 390.845 L 813.125 1465.38 L 808.966 1465.616 L 744.323 391.081 L 795.443 1466.333 L 791.283 1466.568 L 740.163 391.718 L 777.552 1467.086 L 773.389 1467.121 L 735.995 391.152 L 759.657 1467.44 L 755.495 1467.675 L 731.838 391.588 C 771.871 395.15 1066.333 348.771 1065.984 64.04 L 2183.666 67.712 Z" style="fill: rgb(152, 147, 219);"/>
    <path d="M 746.807 1466.493 L 742.639 1466.4 L 726.977 389.977 L 728.903 1466.545 L 724.743 1466.65 L 722.818 390.082 L 711.001 1466.598 L 706.834 1466.501 L 718.662 390.389 L 693.295 1466.245 L 689.129 1466.149 L 714.488 390.092 L 675.375 1465.696 L 671.21 1465.602 L 710.326 390.197 L 657.458 1465.147 L 653.286 1464.852 L 706.161 390.103 L 639.528 1464.198 L 635.353 1463.903 L 701.978 389.407 L 621.801 1463.043 L 617.626 1462.748 L 697.808 389.111 L 603.856 1461.694 L 599.893 1461.391 L 693.641 389.018 L 586.124 1460.338 L 581.947 1459.842 L 689.677 388.716 L 568.38 1458.582 L 564.202 1458.086 L 685.488 387.821 L 550.632 1456.626 L 546.455 1456.13 L 681.327 387.926 L 532.875 1454.469 L 528.697 1453.973 L 677.138 387.029 L 515.116 1452.113 L 510.934 1451.417 L 673.169 386.526 L 497.557 1449.55 L 493.374 1448.854 L 668.991 386.03 L 479.78 1446.593 L 475.81 1446.09 L 664.811 385.335 L 462.21 1443.63 L 458.027 1442.934 L 660.836 384.634 L 444.637 1440.466 L 440.661 1439.764 L 656.845 383.333 L 427.057 1437.102 L 423.076 1436.2 L 652.673 383.038 L 409.678 1433.532 L 405.492 1432.636 L 648.483 382.142 L 392.291 1429.563 L 388.102 1428.666 L 644.504 381.239 L 374.903 1425.592 L 370.713 1424.693 L 640.514 379.938 L 357.508 1421.42 L 353.524 1420.319 L 636.528 378.836 L 340.316 1417.044 L 336.122 1415.949 L 632.351 378.339 L 322.908 1412.272 L 318.92 1411.172 L 628.561 376.833 L 305.912 1407.491 L 301.928 1406.391 L 624.367 375.735 L 288.701 1402.313 L 284.715 1401.212 L 620.387 374.833 L 271.696 1397.13 L 267.704 1395.827 L 616.598 373.325 L 254.684 1391.748 L 250.901 1390.44 L 612.606 372.022 L 237.875 1386.159 L 233.881 1384.656 L 608.617 370.721 L 221.056 1380.169 L 217.066 1378.867 L 604.624 369.418 L 204.238 1374.18 L 200.451 1372.672 L 600.835 367.911 L 187.621 1367.983 L 183.833 1366.476 L 597.041 366.201 L 171.001 1361.59 L 167.207 1359.881 L 593.05 364.899 L 154.576 1354.787 L 150.787 1353.279 L 589.255 363.191 L 138.15 1347.986 L 134.363 1346.476 L 585.469 361.685 L 121.929 1340.979 L 118.135 1339.271 L 581.68 360.175 L 105.702 1333.772 L 101.907 1332.064 L 578.083 358.061 L 89.469 1326.364 L 85.674 1324.655 L 574.091 356.759 L 73.439 1318.751 L 69.643 1317.043 L 570.499 354.845 L 57.402 1310.937 L 53.816 1309.222 L 566.901 352.732 L 41.572 1303.117 L 37.98 1301.203 L 562.905 351.229 L 25.943 1294.893 L 22.351 1292.978 L 559.518 349.111 L 10.308 1286.468 L 6.716 1284.554 L 555.92 346.994 L -5.331 1278.04 L -8.926 1275.927 L 552.328 345.081 L -20.769 1269.21 L -24.152 1267.291 L 548.732 342.967 L -35.999 1260.374 L -39.597 1258.261 L 545.14 341.055 L -51.235 1251.337 L -54.626 1249.216 L 541.541 338.938 L -66.269 1242.095 L -69.664 1239.774 L 537.945 336.824 L -81.103 1232.647 L -84.704 1230.331 L 534.755 334.299 L -95.939 1222.997 L -99.54 1220.684 L 531.156 332.184 L -110.781 1213.148 L -114.176 1210.829 L 527.765 329.866 L -125.416 1203.294 L -128.811 1200.974 L 524.57 327.339 L -139.848 1193.236 L -143.248 1190.715 L 520.979 325.426 L -154.081 1182.77 L -157.476 1180.45 L 517.782 322.699 L -168.316 1172.305 L -171.504 1169.978 L 514.388 320.38 L -182.344 1161.832 L -185.536 1159.306 L 511.392 317.447 L -196.381 1150.961 L -199.574 1148.434 L 508 315.128 L -210.003 1140.078 L -213.2 1137.353 L 504.806 312.604 L -223.844 1128.8 L -226.827 1126.271 L 501.413 310.284 L -237.267 1117.513 L -240.458 1114.986 L 498.62 307.145 L -250.692 1106.225 L -253.681 1103.492 L 495.429 304.62 L -263.71 1094.525 L -266.909 1091.8 L 492.445 302.09 L -276.937 1082.832 L -279.927 1080.099 L 489.246 299.365 L -289.755 1070.926 L -292.749 1067.995 L 486.252 296.432 L -302.577 1058.821 L -305.567 1056.09 L 483.466 293.497 L -315.191 1046.71 L -317.979 1043.773 L 480.476 290.765 L -327.608 1034.193 L -330.395 1031.258 L 477.69 287.829 L -339.817 1021.672 L -342.812 1018.739 L 474.696 284.896 L -352.025 1009.149 L -354.812 1006.213 L 472.115 281.954 L -364.036 996.222 L -366.825 993.285 L 469.121 279.023 L -375.841 983.288 L -378.421 980.347 L 466.537 275.881 L -387.437 970.349 L -390.022 967.208 L 463.749 272.943 L -398.837 957.006 L -401.624 954.07 L 461.167 269.801 L -410.229 943.861 L -412.813 940.72 L 458.784 266.453 L -421.425 930.313 L -423.801 927.165 L 455.997 263.518 L -432.206 916.751 L -434.789 913.609 L 453.415 260.376 L -442.991 902.991 L -445.575 899.848 L 451.236 256.82 L -453.573 889.023 L -456.157 885.88 L 448.449 253.886 L -464.155 875.057 L -466.533 871.909 L 446.067 250.537 L -474.323 861.081 L -476.705 857.731 L 443.892 247.182 L -484.502 846.702 L -486.67 843.55 L 441.72 243.83 L -494.258 832.515 L -496.638 829.167 L 439.34 240.482 L -504.025 817.925 L -506.199 814.571 L 436.753 237.34 L -513.584 803.332 L -515.757 799.979 L 434.783 233.781 L -522.934 788.734 L -525.109 785.38 L 432.811 230.223 L -532.083 773.928 L -534.049 770.569 L 430.638 226.868 L -541.024 759.118 L -542.997 755.559 L 428.464 223.516 L -549.76 744.101 L -551.732 740.544 L 426.495 219.957 L -558.298 728.881 L -560.268 725.321 L 424.523 216.397 L -566.624 713.653 L -568.595 710.096 L 422.553 212.839 L -574.95 698.428 L -576.714 694.864 L 420.582 209.28 L -582.868 682.991 L -584.63 679.427 L 419.021 205.51 L -590.576 667.55 L -592.546 663.987 L 417.05 201.952 L -598.29 651.905 L -600.052 648.341 L 415.287 198.386 L -605.587 636.25 L -607.351 632.687 L 413.525 194.824 L -612.886 620.597 L -614.447 616.827 L 411.964 191.054 L -619.774 604.732 L -621.542 600.968 L 410.404 187.284 L -626.666 588.668 L -628.221 585.099 L 408.844 183.515 L -633.136 572.792 L -634.697 569.023 L 407.49 179.739 L -639.614 556.717 L -640.966 552.941 L 405.936 176.17 L -645.89 540.436 L -647.24 536.662 L 404.583 172.394 L -651.74 524.346 L -653.093 520.569 L 403.231 168.62 L -657.599 508.053 L -658.747 504.074 L 401.874 164.644 L -663.046 491.549 L -664.398 487.775 L 400.318 161.075 L -668.486 475.25 L -669.639 471.269 L 399.584 157.082 L -673.52 458.736 L -674.669 454.755 L 398.234 153.309 L -678.55 442.222 L -679.7 438.241 L 397.083 149.327 L -683.171 425.498 L -684.317 421.721 L 396.148 145.543 L -687.791 408.775 L -688.727 404.989 L 394.79 141.566 L -691.992 392.241 L -692.933 388.255 L 393.855 137.783 L -696.2 375.306 L -696.929 371.515 L 393.12 133.791 L -699.989 358.561 L -700.929 354.576 L 391.975 130.011 L -703.572 341.809 L -704.511 337.823 L 391.449 126.013 L -707.154 324.86 L -707.89 320.869 L 390.717 122.023 L -710.325 307.899 L -711.059 303.909 L 389.775 118.036 L -713.287 290.933 L -714.021 286.942 L 389.25 114.04 L -716.04 273.961 L -716.773 269.971 L 388.729 110.244 L -718.59 256.784 L -719.111 252.987 L 387.996 106.252 L -720.929 239.802 L -721.455 235.804 L 387.47 102.257 L -723.059 222.814 L -723.585 218.817 L 387.152 98.256 L -724.985 205.62 L -725.513 201.623 L 386.627 94.259 L -726.706 188.423 L -727.022 184.422 L 386.101 90.262 L -728.215 171.22 L -728.534 167.218 L 385.992 86.254 L -729.512 154.21 L -729.831 150.208 L 385.466 82.257 L -730.607 136.997 L -730.717 132.991 L 385.566 78.247 L -731.288 119.772 L -731.604 115.77 L 385.247 74.245 C 380.5 345.952 712.45 409.289 731.147 390.272 L 746.807 1466.493 Z" style="fill: rgb(167, 167, 255); transform-origin: 37.834px 866.406px;"/>
  </g>
</svg>