<?xml version="1.0" encoding="utf-8"?>
<svg version="1.0" width="512.000000pt" height="512.000000pt" viewBox="0 0 512.000000 512.000000" preserveAspectRatio="xMidYMid meet" xmlns="http://www.w3.org/2000/svg">
  <g transform="matrix(0.1, 0, 0, -0.1, 0.475625, 512.344666)" fill="#ffffff" stroke="none">
    <path d="M4045 5114 c-223 -22 -383 -48 -565 -94 -389 -98 -777 -282 -1070 -505 -47 -36 -65 -44 -120 -50 -251 -27 -567 -138 -815 -285 -246 -147 -405 -284 -457 -397 -94 -200 -14 -431 248 -721 l66 -73 -26 -92 c-60 -213 -96 -460 -96 -659 l0 -117 -138 1 c-317 0 -645 -88 -874 -235 -73 -47 -126 -101 -163 -169 -25 -44 -30 -64 -30 -123 0 -59 5 -79 30 -124 36 -65 104 -122 179 -150 30 -11 144 -39 253 -61 221 -46 285 -66 382 -115 167 -85 284 -227 350 -421 11 -32 38 -148 61 -257 22 -109 50 -223 61 -253 28 -75 85 -143 150 -179 74 -41 170 -42 244 -3 224 117 407 585 407 1040 l-1 138 122 0 c198 0 432 35 650 96 l97 28 48 -46 c90 -89 238 -198 327 -243 221 -112 400 -92 551 62 198 202 389 540 488 865 33 108 66 274 66 334 0 38 7 55 43 102 271 355 468 814 556 1297 38 208 45 298 45 525 0 186 -4 245 -22 340 -35 188 -34 186 -88 194 -26 3 -89 6 -140 6 l-94 0 0 94 c0 51 -3 114 -6 140 -8 54 -8 54 -194 87 -111 20 -419 33 -525 23z m382 -339 c9 -3 13 -49 15 -167 l3 -163 165 -5 165 -5 5 -90 c19 -346 -49 -745 -190 -1112 -28 -73 -34 -82 -53 -78 -12 2 -60 11 -107 20 -507 96 -967 477 -1167 965 -24 58 -49 104 -56 104 -6 -1 -78 -22 -159 -48 l-147 -47 25 -67 c191 -519 613 -947 1129 -1144 81 -31 146 -51 298 -90 l49 -13 -74 -111 c-369 -552 -1049 -1007 -1703 -1139 -299 -60 -491 -58 -891 10 l-31 5 40 -157 c41 -157 41 -159 41 -348 0 -161 -3 -207 -23 -300 -28 -131 -72 -268 -114 -350 l-30 -60 -38 184 c-71 348 -148 510 -324 687 -172 174 -338 252 -686 323 l-184 38 60 30 c82 42 219 86 350 114 93 20 139 23 300 23 189 0 191 0 348 -41 l157 -40 -5 31 c-68 400 -70 592 -10 891 105 518 406 1048 821 1445 375 359 853 588 1419 681 174 28 542 43 602 24z m-2552 -792 c-16 -21 -43 -56 -60 -78 -62 -77 -204 -301 -270 -425 -36 -69 -70 -129 -74 -133 -10 -10 -94 99 -126 163 -12 25 -26 64 -30 87 -6 41 -5 43 47 93 76 73 269 200 411 270 66 33 123 60 125 60 3 0 -8 -17 -23 -37z m2146 -2095 c-68 -173 -212 -408 -325 -530 -53 -58 -83 -62 -171 -19 -51 24 -185 116 -185 126 0 2 60 36 133 75 157 86 342 205 464 300 48 39 89 70 90 70 1 0 -1 -10 -6 -22z" style="stroke-width: 0px; fill: rgba(255, 255, 255, 0.75);"/>
    <path d="M3742 4480 c-35 -21 -71 -87 -72 -129 0 -44 38 -106 79 -129 93 -53 208 2 226 108 9 52 -23 121 -69 150 -44 27 -120 27 -164 0z" style="stroke-width: 0px;"/>
  </g>
</svg>