<?xml version="1.0" encoding="utf-8"?>
<svg version="1.1" id="Layer_1" x="0px" y="0px" width="100%" viewBox="0 0 688 688" enable-background="new 0 0 688 688" xmlns="http://www.w3.org/2000/svg">
  <path opacity="1.000000" stroke="none" d="M 286.32 527.6 C 273.907 499.225 259.893 472.224 240.215 448.524 C 238.611 446.594 237.085 444.668 234.642 443.668 C 207.626 432.609 192.036 411.662 183.488 384.586 C 181.377 377.9 179.803 371.078 179.003 364.158 C 178.58 360.487 176.853 359.129 173.759 357.947 C 160.126 352.739 147.35 346.052 136.736 335.747 C 119.543 319.052 113.959 298.169 117.256 275.358 C 123.193 234.272 149.429 206.885 189.929 197.611 C 192.943 196.921 194.294 195.135 195.301 192.424 C 200.374 178.763 207.108 166.002 215.925 154.333 C 243.526 117.805 284.567 115.663 318.868 137.129 C 322.247 139.243 325.588 141.553 328.49 144.261 C 331.755 147.308 334.414 147.652 338.517 145.382 C 349.595 139.253 361.748 136.635 374.349 135.633 C 395.174 133.976 410.989 143.269 424.354 158.016 C 428.828 162.952 433.044 168.162 436.207 174.07 C 438.028 177.473 440.23 178.199 443.954 177.023 C 457.521 172.741 471.462 170.376 485.714 170.773 C 543.984 172.397 578.544 214.999 584.555 259.182 C 591.398 309.484 559.032 354.833 513.628 371.024 C 510.197 372.247 508.054 374.015 506.572 377.332 C 487.853 419.225 472.394 462.232 462.02 506.986 C 455.67 534.378 451.027 562.028 449.127 590.127 C 448.274 602.754 447.524 615.374 447.344 628.028 C 447.216 637.112 440.853 644.891 431.89 646.226 C 404.433 650.317 376.959 654.301 349.466 658.146 C 337.965 659.755 330.28 654.712 326.726 643.428 C 316.974 612.467 307.496 581.416 295.771 551.119 C 292.768 543.358 289.582 535.668 286.32 527.6 M 365.77 399.625 C 382.021 399.893 396.678 395.392 409.223 384.846 C 420.476 375.387 429.041 363.762 435.881 350.838 C 440.336 342.417 448.296 338.079 457.381 340.015 C 478.679 344.555 498.283 340.177 515.735 327.832 C 537.413 312.497 550.249 292.155 547.733 264.327 C 545.461 239.199 527.027 217.31 502.38 210.284 C 480.519 204.051 459.892 208.102 439.847 217.374 C 426.217 223.678 415.526 219.35 410.494 205.303 C 407.849 197.922 405.077 190.61 400.625 184.073 C 395.833 177.04 389.36 172.358 380.729 172.527 C 368.524 172.765 357.049 175.792 347.408 183.977 C 336.758 193.018 327.305 192.641 317.48 182.856 C 311.083 176.486 304.527 170.318 296.413 166.163 C 288.263 161.991 279.603 159.759 270.414 160.859 C 258.862 162.241 251.42 169.934 244.865 178.555 C 235.898 190.348 229.953 203.729 225.222 217.676 C 221.883 227.52 216.549 231.709 206.251 232.386 C 192.627 233.283 180.48 238.05 170.67 247.527 C 158.02 259.748 151.375 274.59 154.4 292.498 C 156.429 304.514 165.022 311.745 174.798 317.678 C 182.819 322.545 191.637 325.61 200.527 328.495 C 207.874 330.879 212.086 336.148 213.247 343.704 C 213.852 347.637 213.77 351.675 214.346 355.614 C 216.348 369.276 220.233 382.335 228.661 393.506 C 241.465 410.478 259.077 412.759 278.477 409.166 C 294.592 406.182 309.814 400.255 325.264 395.084 C 329.481 393.673 333.719 392.954 337.993 394.275 C 346.773 396.987 355.758 398.557 365.77 399.625 M 408.089 478.271 C 396.644 478.545 391.328 475.119 386.859 464.653 C 383.131 455.922 379.042 447.328 375.742 438.44 C 373.804 433.219 370.304 434.818 366.817 435.092 C 362.77 435.41 363.368 438.442 363.363 441.041 C 363.336 456.04 363.355 471.038 363.339 486.037 C 363.337 488.191 363.379 490.318 362.601 492.439 C 359.96 499.64 355.033 504.311 347.397 505.187 C 339.188 506.128 332.751 502.67 328.593 495.489 C 319.492 479.775 310.507 463.995 301.466 448.247 C 300.215 446.068 299.046 443.561 295.842 444.424 C 292.683 445.275 289.268 445.189 285.995 447.051 C 286.93 448.7 287.738 450.306 288.708 451.806 C 300.677 470.325 310.668 489.88 319.456 510.082 C 334.158 543.876 345.408 578.893 356.232 614.052 C 357.49 618.141 359.425 619.259 363.39 618.673 C 377.851 616.534 392.339 614.573 406.815 612.54 C 409.994 612.093 411.698 610.77 411.744 607.04 C 411.902 594.232 413.205 581.496 414.501 568.749 C 417.212 542.089 422.097 515.835 428.397 489.826 C 437.153 453.68 449.097 418.578 463.305 384.229 C 464.338 381.732 464.321 381.725 464.222 378.133 C 456.226 392.13 446.9 404.199 435.322 414.437 C 433.876 415.716 433.582 417.539 433.176 419.365 C 430 433.64 426.576 447.861 423.55 462.167 C 421.781 470.528 417.05 475.79 408.089 478.271 Z" style="fill: rgba(255, 255, 255, 0.996);"/>
</svg>