<svg width="174" height="28" fill="none" xmlns="http://www.w3.org/2000/svg">
    <path d="M26.13 7.04 14 0v4.87l12.13 7V7.05z" fill="#FF6492"/>
    <path d="M26.13 11.88 22.5 14 14 9.08l-4.85 2.8L5.5 9.91 14 4.87l12.12 7z" fill="#141446"/>
    <path d="M9.15 11.88 5.5 9.91v4.1l3.64-2.13z" fill="#A14474"/>
    <path d="M1.87 20.96 14 14l12.13 6.96L14 28 1.87 20.96z" fill="#141446"/>
    <path d="M26.13 16.13 14 9.01V14l12.13 6.96v-4.83z" fill="#FF6492"/>
    <path d="M5.5 14V9.91L14 4.87V0L1.87 7.04v13.92L14 14V9l-8.5 5z" fill="#7A77FF"/>
    <path d="M41.11 22.25a6.83 6.83 0 0 0 5.98-3.33l-2.14-1.67c-.95 1.32-2.13 2.16-3.81 2.16-2.6 0-4.45-2.01-4.45-4.67 0-2.6 1.85-4.65 4.45-4.65 1.7 0 2.89.87 3.81 2.19l2.14-1.7a6.76 6.76 0 0 0-5.98-3.33 7.42 7.42 0 0 0-7.51 7.49 7.43 7.43 0 0 0 7.51 7.51zm14.81 0c3.47 0 6.15-2.46 6.15-6.34V7.57h-3.03v8.57c0 2.02-1.39 3.27-3.12 3.27a3.1 3.1 0 0 1-3.2-3.27V7.57h-3v8.34c0 3.88 2.68 6.34 6.2 6.34zm17.6-15c-1.96 0-3.67.76-4.74 2.08V0h-3.03v21.93h2.83v-1.99a6.03 6.03 0 0 0 4.97 2.31c4.02 0 6.93-3.22 6.93-7.49s-2.91-7.5-6.96-7.5zm-.49 12.2c-2.1 0-4.27-1.41-4.27-4.68 0-3.25 2.13-4.71 4.27-4.71 2.43 0 4.33 1.9 4.33 4.68 0 2.77-1.87 4.7-4.33 4.7zm23.36-5.62a6.38 6.38 0 0 0-6.55-6.58 7.34 7.34 0 0 0-7.34 7.52 7.38 7.38 0 0 0 7.63 7.48c2.25 0 4.16-.88 5.66-2.31l-1.45-2.1a6 6 0 0 1-4.13 1.7c-2.42 0-4.21-1.41-4.62-3.78h10.57c.1-.38.23-1.14.23-1.93zm-6.67-3.98c1.94 0 3.58 1.26 3.64 3.51h-7.71c.46-2.13 2.08-3.5 4.07-3.5zm21.4 12.4a6.83 6.83 0 0 0 5.97-3.33l-2.13-1.67c-.96 1.32-2.14 2.16-3.82 2.16-2.6 0-4.45-2.01-4.45-4.67 0-2.6 1.85-4.65 4.45-4.65 1.7 0 2.9.87 3.82 2.19l2.13-1.7a6.76 6.76 0 0 0-5.98-3.33 7.42 7.42 0 0 0-7.5 7.49 7.43 7.43 0 0 0 7.5 7.51zm8.74-.32h3.03V0h-3.03v21.93zm13.43.32c4.21 0 7.54-3.33 7.54-7.51s-3.33-7.49-7.54-7.49a7.4 7.4 0 0 0-7.48 7.49c0 4.18 3.29 7.51 7.48 7.51zm0-2.84c-2.52 0-4.4-1.98-4.4-4.64 0-2.7 1.88-4.71 4.43-4.71 2.48 0 4.39 2.01 4.39 4.7 0 2.64-1.91 4.65-4.42 4.65zm16.5 2.84c3.47 0 6.15-2.46 6.15-6.34V7.57h-3.03v8.57c0 2.02-1.39 3.27-3.12 3.27a3.1 3.1 0 0 1-3.2-3.27V7.57h-3v8.34c0 3.88 2.68 6.34 6.2 6.34zM170.4 0v9.33a5.98 5.98 0 0 0-4.73-2.08c-4.02 0-6.93 3.25-6.93 7.51s2.88 7.49 6.93 7.49c2.1 0 3.93-.88 4.97-2.37v2.05h2.83V0h-3.07zm-4.21 19.44c-2.49 0-4.36-1.93-4.36-4.7 0-2.78 1.9-4.68 4.36-4.68 2.1 0 4.27 1.46 4.27 4.7 0 3.28-2.16 4.68-4.27 4.68z"
          fill="white"/>
</svg>
